<svg width="120" height="80" viewBox="0 0 120 80" fill="none" xmlns="http://www.w3.org/2000/svg">
<path d="M116.153 1.23728L116.153 1.23732C116.862 1.46624 117.374 2.08714 117.462 2.82714L120.136 25.2393C120.199 25.7638 120.041 26.2911 119.7 26.695L113.943 33.5234L116.153 1.23728ZM116.153 1.23728C115.444 1.00914 114.666 1.21385 114.162 1.76282L114.162 1.76285M116.153 1.23728L114.162 1.76285M114.162 1.76285L102.09 14.9124L80.0154 17.1606C78.9671 17.2672 78.204 18.2038 78.3106 19.2518L78.3106 19.2518M114.162 1.76285L78.3106 19.2518M78.3106 19.2518C78.4174 20.3 79.3554 21.0643 80.4019 20.9566L103.198 18.6349C103.663 18.5876 104.094 18.3714 104.41 18.0272L114.165 7.40184L116.249 24.8689L111.197 30.861L100.879 37.8208L100.879 37.8208M78.3106 19.2518L100.879 37.8208M100.879 37.8208C100.316 38.2013 99.9965 38.853 100.043 39.5317L100.846 51.3684L100.995 51.3582M100.879 37.8208L100.995 51.3582M100.995 51.3582L100.846 51.3684C100.909 52.3006 101.638 53.0498 102.568 53.1383L109.837 53.8304L113.554 63.2936L111.949 67.428L107.088 60.9402L106.968 61.0302L107.088 60.9402C106.664 60.3745 105.962 60.0896 105.263 60.1997L105.263 60.1997M100.995 51.3582L105.263 60.1997M105.263 60.1997L97.6322 61.4049C96.9494 61.5127 96.3786 61.9813 96.1395 62.6297L96.1395 62.6297M105.263 60.1997L96.1395 62.6297M96.1395 62.6297L93.6958 69.263L79.5067 72.1392C78.4739 72.3486 77.8067 73.3554 78.0161 74.3882C78.1995 75.2932 78.9953 75.9172 79.8841 75.9172C80.0098 75.9172 80.1372 75.9047 80.265 75.8788L95.4973 72.7909L95.4675 72.6439M96.1395 62.6297L95.4675 72.6439M95.4675 72.6439L95.4973 72.7909C96.1457 72.6594 96.6796 72.2015 96.9083 71.5806L99.3332 64.999L104.723 64.1476L110.957 72.4667L111.078 72.3767L110.958 72.4667C111.373 73.0211 112.056 73.3074 112.744 73.2127C113.43 73.1184 114.012 72.6592 114.263 72.0131L117.381 63.9797C117.554 63.533 117.553 63.0377 117.378 62.5918L112.96 51.3446C112.697 50.6756 112.081 50.2111 111.365 50.1429L111.351 50.2923L111.365 50.1429L104.543 49.4934L103.924 40.3694L113.551 33.8758L95.4675 72.6439ZM113.551 33.8756C113.698 33.7768 113.83 33.6583 113.943 33.5236L113.551 33.8756Z" fill="black" stroke="black" stroke-width="0.3"/>
<path d="M35.9502 56.8648L35.9502 56.8648L40.4047 62.3471L50.3818 59.8329C50.3818 59.8329 50.3818 59.8329 50.3819 59.8329C51.0493 59.6645 51.7547 59.8688 52.2291 60.3666L66.0505 74.8674L71.7955 73.7029C72.8294 73.4927 73.8352 74.1611 74.0441 75.1938M35.9502 56.8648L73.897 75.2235M35.9502 56.8648C35.6277 56.468 35.1596 56.2172 34.6504 56.1686L17.7811 54.562C17.247 54.5108 16.7144 54.6879 16.3168 55.0496C15.9192 55.4111 15.6923 55.9236 15.6923 56.4611V60.1017L9.25407 66.6844L7.13812 57.4032L9.95462 50.004L9.81444 49.9506L9.95463 50.004C10.14 49.5167 10.1182 48.9746 9.89356 48.5039C9.66917 48.0331 9.26167 47.6749 8.76618 47.5126C8.76616 47.5126 8.76614 47.5126 8.76612 47.5126L4.03136 45.9598L9.89646 21.9949L20.9365 15.2409L30.334 19.612C30.334 19.612 30.334 19.612 30.334 19.612C31.2894 20.0567 32.424 19.6423 32.8683 18.6869C33.3127 17.7315 32.8986 16.5969 31.9432 16.1525L21.6182 11.35L21.6182 11.3499C21.039 11.0806 20.3629 11.119 19.8181 11.4522L19.818 11.4522L7.23467 19.1505L7.23465 19.1505C6.80528 19.4133 6.49699 19.8353 6.37718 20.3242L6.37717 20.3242L-0.0950927 46.7687C-0.332172 47.7372 0.216523 48.7246 1.16355 49.0352L5.67707 50.5153L3.3663 56.5856C3.23222 56.9375 3.20552 57.3213 3.2892 57.6884L6.31123 70.9437C6.4664 71.6244 6.98124 72.1662 7.65309 72.3557L7.65314 72.3557C8.32488 72.545 9.04676 72.3527 9.53516 71.8536L9.53519 71.8536L18.9641 62.2135C18.9641 62.2135 18.9641 62.2135 18.9641 62.2135C19.3129 61.8571 19.508 61.3781 19.508 60.8796V58.5592M35.9502 56.8648L19.508 58.5592M74.0441 75.1938L73.897 75.2235M74.0441 75.1938C74.0441 75.1938 74.044 75.1938 74.044 75.1937L73.897 75.2235M74.0441 75.1938C74.2533 76.2265 73.5861 77.2333 72.5534 77.4427L65.7755 78.8166L65.7753 78.8166C65.6493 78.842 65.5224 78.8545 65.3965 78.8545C64.8801 78.8545 64.3793 78.6446 64.0155 78.263L50.2348 63.805M73.897 75.2235C74.0899 76.1751 73.4751 77.1028 72.5236 77.2956L65.7457 78.6695C65.6294 78.693 65.5125 78.7045 65.3965 78.7045C64.9207 78.7045 64.4592 78.5111 64.1241 78.1596L50.283 63.6381M50.2348 63.805L50.3197 63.7836L50.283 63.6381M50.2348 63.805L50.1745 63.7416L50.283 63.6381M50.2348 63.805L40.1572 66.3444M50.283 63.6381L40.1205 66.1989M40.1205 66.1989L40.1572 66.3444M40.1205 66.1989L40.1572 66.3444L40.1572 66.3444M40.1205 66.1989C39.458 66.366 38.7579 66.1335 38.3269 65.6029L33.493 59.8914M40.1572 66.3444C39.4381 66.5258 38.6782 66.2734 38.2104 65.6975L33.493 59.8914M33.493 59.8914L33.5555 59.8973L33.5698 59.748L33.4533 59.8426L33.493 59.8914ZM33.493 59.8914L19.508 58.5592M33.493 59.8914L19.508 58.5592" fill="black" stroke="black" stroke-width="0.3"/>
<path d="M73.4299 12.449C64.8016 12.449 60.6077 11.4426 56.1677 10.3769C52.0216 9.38175 47.7435 8.35519 39.8425 8.2223V6.21558C39.8425 5.24479 39.0555 4.45776 38.0847 4.45776C37.1139 4.45776 36.3269 5.24479 36.3269 6.21558V46.8946C36.3269 47.8654 37.1139 48.6525 38.0847 48.6525C39.0555 48.6525 39.8425 47.8654 39.8425 46.8946V38.122C47.3048 38.2492 51.2196 39.1889 55.3471 40.1796C59.7907 41.246 64.3856 42.3487 73.4299 42.3487C74.4007 42.3487 75.1877 41.5617 75.1877 40.5909V14.2068C75.1877 13.2358 74.4007 12.449 73.4299 12.449ZM55.3471 13.7953C59.4932 14.7904 63.7713 15.817 71.6721 15.9499V21.3039C64.21 21.1767 60.2953 20.2371 56.1677 19.2464C52.0216 18.2512 47.7435 17.2246 39.8425 17.0917V11.7377C47.3048 11.8652 51.2196 12.8046 55.3471 13.7953ZM56.1677 36.761C52.0216 35.7658 47.7435 34.7392 39.8425 34.6064V29.2748C47.3046 29.4021 51.2193 30.3417 55.3469 31.3321C55.9268 31.4714 56.5064 31.6103 57.096 31.7472C57.2296 31.7782 57.3632 31.7929 57.4947 31.7929C58.2942 31.7929 59.0172 31.244 59.2057 30.4319C59.425 29.4862 58.8363 28.5417 57.8906 28.3223C57.3098 28.1875 56.7386 28.0504 56.1675 27.9133C52.0214 26.9184 47.7435 25.8918 39.8428 25.7587V20.6074C47.305 20.7346 51.2198 21.6742 55.3474 22.665C59.4935 23.6601 63.7715 24.6867 71.6723 24.8196V29.9707C69.4368 29.932 67.4053 29.8176 65.5028 29.6242C64.5351 29.5258 63.6745 30.2294 63.576 31.195C63.4778 32.1609 64.1812 33.0234 65.1468 33.1218C67.1653 33.3271 69.3135 33.4476 71.6723 33.487V38.8183C64.2096 38.691 60.2953 37.7514 56.1677 36.761Z" fill="#1CB7FF"/>
</svg>
