<svg width="230" height="65" viewBox="0 0 230 65" fill="none" xmlns="http://www.w3.org/2000/svg">
<g clip-path="url(#clip0)">
<path d="M54.7348 22.6001H57.0221L59.2548 29.4661C59.5213 30.2673 59.7221 31.0687 59.8217 31.3868H59.8542C59.9396 31.0867 60.1711 30.2673 60.4399 29.4661L62.7402 22.6001H65.008L66.5418 33.7259H64.141L63.4235 27.9788C63.323 27.1598 63.2578 26.5763 63.2419 26.3593H63.2074C63.1564 26.6088 62.9913 27.2108 62.7573 27.9463L60.8744 33.7259H58.5547L56.671 27.9618C56.4543 27.2604 56.2883 26.593 56.2194 26.3593H56.1858C56.1707 26.6088 56.1209 27.2604 56.038 27.9959L55.3191 33.7259H53.2021L54.7348 22.6001Z" fill="white"/>
<path d="M76.4892 28.1796C76.4892 26.1081 75.522 24.3032 73.3045 24.3032C71.0703 24.3032 70.0179 26.0412 70.0179 28.1119C70.0179 30.2013 71.0367 32.0207 73.2544 32.0207C75.4895 32.0207 76.4892 30.25 76.4892 28.1796ZM67.5175 28.1796C67.5175 25.1559 69.5353 22.3984 73.2544 22.3984C76.9729 22.3984 78.9726 25.1219 78.9726 28.1119C78.9726 31.1356 77.0236 33.9254 73.3045 33.9254C69.5851 33.9254 67.5175 31.1858 67.5175 28.1796Z" fill="white"/>
<path d="M80.0654 28.146C80.0654 25.1224 82.0514 22.3989 85.803 22.3989C87.2519 22.3989 88.271 22.7181 89.1377 23.285L88.0868 25.0063C87.4703 24.6043 86.785 24.3536 85.7697 24.3536C83.6861 24.3536 82.5659 26.0238 82.5659 28.0795C82.5659 30.2017 83.6354 31.9544 85.803 31.9544C87.0025 31.9544 87.736 31.5368 88.322 31.1036L89.2877 32.7567C88.7206 33.2741 87.3872 33.9256 85.7697 33.9256C81.9834 33.9256 80.0654 31.1692 80.0654 28.146Z" fill="white"/>
<path d="M90.6985 22.6001H93.0335V27.1942H93.818L97.0693 22.6001H99.5882L95.7339 27.7618C96.1174 28.1123 96.5021 28.6648 97.0189 29.4826C98.004 31.1198 98.3519 31.8052 99.1694 31.8052H99.3374L99.3223 33.7259H98.3519C97.0351 33.7259 96.4523 33.1406 95.3851 31.3534C94.4839 29.8831 94.1343 29.0485 93.4507 29.0485H93.0335V33.7259H90.6985V22.6001Z" fill="white"/>
<path d="M108.884 28.1796C108.884 26.1081 107.92 24.3032 105.701 24.3032C103.467 24.3032 102.415 26.0412 102.415 28.1119C102.415 30.2013 103.432 32.0207 105.652 32.0207C107.886 32.0207 108.884 30.25 108.884 28.1796ZM99.9138 28.1796C99.9138 25.1559 101.931 22.3984 105.652 22.3984C109.369 22.3984 111.37 25.1219 111.37 28.1119C111.37 31.1356 109.42 33.9254 105.701 33.9254C101.981 33.9254 99.9138 31.1858 99.9138 28.1796Z" fill="white"/>
<path d="M116.682 31.9214C118.032 31.9214 118.748 31.5038 118.748 30.4343C118.748 29.3989 118.148 28.8641 116.781 28.8641H115.446V31.9214H116.682ZM116.532 27.1775C117.799 27.1775 118.349 26.726 118.349 25.7402C118.349 24.8217 117.748 24.4042 116.582 24.4042H115.446V27.1775H116.532ZM113.129 22.6001H116.832C118.882 22.6001 120.667 23.2687 120.667 25.3726C120.667 26.81 119.901 27.6113 118.7 27.9278V27.9618C120.016 28.1622 121.134 29.0486 121.134 30.6351C121.134 32.9066 119.317 33.726 116.781 33.726H113.129V22.6001Z" fill="white"/>
<path d="M122.16 28.146C122.16 25.1224 124.147 22.3989 127.897 22.3989C129.347 22.3989 130.366 22.7181 131.233 23.285L130.181 25.0063C129.566 24.6043 128.879 24.3536 127.863 24.3536C125.78 24.3536 124.661 26.0238 124.661 28.0795C124.661 30.2017 125.731 31.9544 127.897 31.9544C129.099 31.9544 129.831 31.5368 130.416 31.1036L131.383 32.7567C130.816 33.2741 129.482 33.9256 127.863 33.9256C124.079 33.9256 122.16 31.1692 122.16 28.146Z" fill="white"/>
<path d="M132.794 22.6001H135.13V27.1942H135.912L139.165 22.6001H141.681L137.829 27.7618C138.216 28.1123 138.597 28.6648 139.115 29.4826C140.099 31.1198 140.448 31.8052 141.267 31.8052H141.433L141.416 33.7259H140.448C139.13 33.7259 138.547 33.1406 137.48 31.3534C136.58 29.8831 136.229 29.0485 135.546 29.0485H135.13V33.7259H132.794V22.6001Z" fill="white"/>
<path d="M143.092 22.6001H145.277V28.5476C145.277 29.3987 145.227 30.1512 145.211 30.2844H145.246C145.344 30.101 145.761 29.3822 146.411 28.4145L150.364 22.6001H152.732V33.7259H150.548V27.2944C150.548 26.593 150.597 25.9739 150.597 25.8242H150.565C150.447 26.0416 150.096 26.6425 149.495 27.4945L145.246 33.7259H143.092V22.6001Z" fill="white"/>
<path d="M157.177 19.4097H158.995C159.045 20.0775 159.376 20.4953 159.995 20.4953C160.595 20.4953 160.93 20.0775 160.995 19.4097H162.795C162.646 21.1639 161.362 21.9315 159.995 21.9315C158.628 21.9315 157.343 21.1639 157.177 19.4097ZM155.158 22.5997H157.343V28.5472C157.343 29.3984 157.293 30.1509 157.277 30.284H157.31C157.408 30.1007 157.825 29.3819 158.477 28.4141L162.429 22.5997H164.796V33.7256H162.611V27.294C162.611 26.5925 162.661 25.9735 162.661 25.8238H162.628C162.512 26.0412 162.161 26.6421 161.562 27.494L157.31 33.7256H155.158V22.5997Z" fill="white"/>
<path d="M62.2057 45.2322C62.2057 43.1595 61.2405 41.3557 59.0213 41.3557C56.7865 41.3557 55.7364 43.0936 55.7364 45.1663C55.7364 47.2545 56.7541 49.073 58.9715 49.073C61.206 49.073 62.2057 47.3047 62.2057 45.2322ZM53.2351 45.2322C53.2351 42.2091 55.2544 39.4521 58.9715 39.4521C62.6897 39.4521 64.6914 42.1743 64.6914 45.1663C64.6914 48.1886 62.7398 50.978 59.0213 50.978C55.3019 50.978 53.2351 48.239 53.2351 45.2322Z" fill="white"/>
<path d="M68.1536 41.591H65.0848V39.6523H73.5728V41.591H70.52V50.7769H68.1536V41.591Z" fill="white"/>
<path d="M74.8502 39.6523H77.1853V44.2465H77.9685L81.221 39.6523H83.7382L79.8879 44.8149C80.2691 45.1666 80.6538 45.7153 81.1706 46.536C82.1546 48.1705 82.5048 48.8577 83.3228 48.8577H83.4883L83.4729 50.7772H82.5048C81.1885 50.7772 80.6034 50.1934 79.5368 48.4062C78.6365 46.9364 78.2854 46.1007 77.6024 46.1007H77.1853V50.7772H74.8502V39.6523Z" fill="white"/>
<path d="M88.5512 45.0316C90.0349 45.0316 90.6678 44.4306 90.6678 43.1933C90.6678 42.0732 90.0523 41.4572 88.601 41.4572H87.4997V45.0316H88.5512ZM85.1487 39.6528H88.7847C91.2028 39.6528 93.0365 40.7718 93.0365 43.1596C93.0365 45.5844 91.2851 46.8185 88.5326 46.8185H87.4997V50.7774H85.1487V39.6528Z" fill="white"/>
<path d="M104.47 39.6523H106.822V50.7772H104.47V39.6523ZM98.2335 48.992C99.7172 48.992 100.368 48.3716 100.368 47.154C100.368 46.0174 99.7508 45.4159 98.2995 45.4159H97.0328V48.992H98.2335ZM94.6807 39.6523H97.0328V43.6121H98.4843C100.885 43.6121 102.718 44.7293 102.718 47.1041C102.718 49.5248 100.969 50.7772 98.2173 50.7772H94.6807V39.6523Z" fill="white"/>
<path d="M111.165 41.591H108.096V39.6523H116.582V41.591H113.534V50.7769H111.165V41.591Z" fill="white"/>
<path d="M127.651 39.6523H130.004V50.7772H127.651V39.6523ZM121.415 48.992C122.899 48.992 123.55 48.3716 123.55 47.154C123.55 46.0174 122.932 45.4159 121.481 45.4159H120.216V48.992H121.415ZM117.863 39.6523H120.216V43.6121H121.664C124.067 43.6121 125.9 44.7293 125.9 47.1041C125.9 49.5248 124.147 50.7772 121.399 50.7772H117.863V39.6523Z" fill="white"/>
<path d="M134.444 36.4614H136.262C136.312 37.1294 136.647 37.5484 137.264 37.5484C137.864 37.5484 138.198 37.1294 138.264 36.4614H140.066C139.916 38.2138 138.632 38.9845 137.264 38.9845C135.897 38.9845 134.612 38.2138 134.444 36.4614ZM132.427 39.6522H134.612V45.6003C134.612 46.4502 134.562 47.2036 134.546 47.3356H134.579C134.679 47.1539 135.094 46.434 135.747 45.466L139.7 39.6522H142.066V50.7771H139.88V44.3459C139.88 43.6445 139.931 43.0285 139.931 42.8779H139.898C139.781 43.0938 139.431 43.695 138.831 44.5481L134.579 50.7771H132.427V39.6522Z" fill="white"/>
<path d="M149.181 39.7466H151.364V45.6926C151.364 46.5446 151.316 47.297 151.299 47.4288H151.331C151.432 47.248 151.849 46.5283 152.499 45.5603L156.451 39.7466H158.82V50.8703H156.634V44.4402C156.634 43.7389 156.685 43.1219 156.685 42.971H156.65C156.534 43.1878 156.183 43.7893 155.585 44.6413L151.331 50.8703H149.181V39.7466Z" fill="white"/>
<path d="M161.245 39.7466H163.598V44.1233H168.566V39.7466H170.918V50.8703H168.566V46.0606H163.598V50.8703H161.245V39.7466Z" fill="white"/>
<path d="M172.661 45.2911C172.661 42.2683 174.645 39.5444 178.397 39.5444C179.847 39.5444 180.864 39.8616 181.731 40.4309L180.682 42.1511C180.063 41.7486 179.381 41.5002 178.364 41.5002C176.279 41.5002 175.162 43.1696 175.162 45.225C175.162 47.3476 176.229 49.1006 178.397 49.1006C179.597 49.1006 180.33 48.6836 180.915 48.2495L181.882 49.9035C181.315 50.42 179.983 51.0715 178.364 51.0715C174.578 51.0715 172.661 48.3145 172.661 45.2911Z" fill="white"/>
<path d="M185.394 41.6829H182.326V39.7466H190.813V41.6829H187.764V50.87H185.394V41.6829Z" fill="white"/>
<path d="M192.091 39.7466H194.276V45.6926C194.276 46.5446 194.225 47.297 194.211 47.4288H194.245C194.344 47.248 194.76 46.5283 195.41 45.5603L199.363 39.7466H201.731V50.8703H199.547V44.4402C199.547 43.7389 199.597 43.1219 199.597 42.971H199.563C199.446 43.1878 199.097 43.7893 198.495 44.6413L194.245 50.8703H192.091V39.7466Z" fill="white"/>
<path d="M206.075 41.6829H203.007V39.7466H211.494V41.6829H208.444V50.87H206.075V41.6829Z" fill="white"/>
<path d="M212.523 50.7695L212.839 49.0191C212.972 49.0699 213.208 49.1007 213.49 49.1007C214.341 49.1007 214.79 48.5517 215.192 47.6655L215.357 47.2479L211.988 39.7471H214.257L216.508 44.9082L218.761 39.7471H221.029L217.277 48.0984C216.391 50.0861 215.491 50.9213 213.641 50.9213C213.106 50.9213 212.707 50.8368 212.523 50.7695Z" fill="white"/>
<path d="M224.425 41.6829H221.354V39.7466H229.844V41.6829H226.79V50.87H224.425V41.6829Z" fill="white"/>
<path d="M27.5448 41.5054V26.2115H24.8154L24.1584 19.7028C33.2307 21.1265 40.1672 29.113 40.1672 38.4373C40.1672 43.3118 38.3098 47.9381 35.0136 51.4411V39.0824L27.5448 41.5054ZM32.7168 60.2321H31.647V43.7784L21.2356 47.3946L10.8231 43.7784V60.2321H9.75133V42.2459L17.2176 44.6715V28.5144H19.7225L21.2329 13.638L22.741 28.5144H25.2464V44.6715L32.7168 42.2459V60.2321ZM29.3485 62.3156L22.3809 61.239V49.4334L29.3485 47.0136V62.3156ZM20.0817 61.241L13.1196 62.3156V47.0136L20.0817 49.4302V61.241ZM2.29685 38.4373C2.29685 29.0785 9.21694 21.1209 18.3068 19.7028L17.6498 26.2115H14.9164V41.5054L7.45301 39.0824V51.4379C4.15411 47.9419 2.29685 43.3367 2.29685 38.4373ZM42.4669 38.4373C42.4669 27.7826 34.3818 18.6732 23.9162 17.3403L22.6955 5.29538L24.6311 3.37362L21.2329 0L17.8377 3.37301L19.7674 5.29271L18.5461 17.3403C8.06541 18.67 0 27.7382 0 38.4373C0 44.7122 2.71013 50.5578 7.45301 54.6087V62.5352H10.8231V65L21.2356 63.3953L31.647 65V62.5352H35.0136V54.6119C39.748 50.5596 42.4669 44.6805 42.4669 38.4373Z" fill="#DD4D3A"/>
</g>
<defs>
<clipPath id="clip0">
<rect width="230" height="65" fill="white"/>
</clipPath>
</defs>
</svg>
