<svg width="505" height="358" viewBox="0 0 505 358" fill="none" xmlns="http://www.w3.org/2000/svg">
<g clip-path="url(#clip0)">
<path d="M18.0539 105.129C17.3132 106.032 16.5725 106.935 15.855 107.86C-54.3469 199.519 128.669 218.267 172.878 233.775C225.419 252.199 262.106 305.365 317.216 317.216C392.533 333.418 483.798 276.248 501.621 199.843C527.243 90.038 401.213 50.5277 316.707 44.4403C247.431 39.4639 166.952 44.3709 99.0881 59.6704C70.3639 66.105 37.3345 81.9832 18.0539 105.129Z" fill="#FCF2EB"/>
<path d="M356.819 315.827L292.242 282.358L286.339 279.303C289.742 273.655 293.492 268.193 297.519 262.962L297.403 262.869C297.681 261.735 297.843 260.601 297.866 259.444C300.088 259.513 302.31 259.698 304.486 259.397C309.046 258.749 313.559 257.407 317.425 254.838C319.647 253.356 321.637 251.505 324.068 250.417C326.868 249.167 330.016 249.028 332.979 248.241C335.941 247.454 339.02 245.695 339.83 242.732C339.876 242.524 339.923 242.316 339.969 242.084L340.617 242.177C340.848 240.695 340.964 239.168 340.941 237.663C341.103 237.478 341.265 237.293 341.404 237.108L341.566 237.247C341.658 237.571 341.797 237.872 341.983 238.173C342.885 238.589 343.811 238.959 344.783 239.098C345.94 239.237 347.237 238.959 348.024 238.103C348.996 237.038 349.042 235.441 348.996 234.006C348.949 232.108 348.834 230.118 347.931 228.451L346.704 228.173C347.098 227.433 347.399 226.623 347.584 225.789C347.862 226.137 348.139 226.484 348.371 226.854L348.649 226.646C349.644 226.738 350.801 225.627 350.894 224.609C350.986 223.614 350.547 222.642 350.13 221.739C349.621 220.628 349.111 219.54 348.602 218.429C347.376 215.767 346.149 213.105 344.899 210.42C343.834 208.106 342.723 205.722 340.779 204.032C339.668 203.06 338.395 202.412 337.029 201.949L339.46 200.63L352.56 180.516L355.06 176.674L364.781 161.744L372.281 150.264L459.541 202.898L432.414 241.043L431.997 241.644L373.183 324.345L356.819 315.827ZM394.686 241.506C395.774 238.682 395.38 235.164 393.251 233.011C391.122 230.835 386.122 229.446 384.039 231.645L380.104 233.891C380.081 231.206 379.363 228.474 377.72 226.391C376.053 224.285 373.369 222.919 370.707 223.266C366.564 223.799 363.925 228.081 363.138 232.178C362.791 234.006 362.675 235.904 362.814 237.756C363.277 243.797 366.309 249.746 364.99 255.671C370.036 254.19 375.058 252.731 380.104 251.25C383.02 250.394 385.96 249.537 388.599 248.033C391.237 246.551 393.598 244.353 394.686 241.506ZM353.926 273.447C354.111 270.114 351.449 270.716 349.065 272.521C347.838 273.447 347.028 274.975 346.681 275.391C345.663 276.664 344.251 279.21 345.778 280.622C347.121 281.872 348.834 280.807 349.922 279.835C351.704 278.285 353.81 275.97 353.926 273.447Z" fill="white"/>
<path d="M432.021 241.598L432.437 240.996L433.016 241.413C437.738 260.439 434.335 280.576 428.85 299.417C423.387 318.165 415.888 336.381 412.161 355.546C396.329 355.546 368.207 355.546 334.784 355.546C341.427 342.862 348.371 330.317 355.592 317.957L355.407 317.841C355.847 317.147 356.333 316.476 356.819 315.804L373.207 324.299L432.021 241.598Z" fill="#B5CFE2"/>
<path d="M393.251 233.034C395.38 235.187 395.774 238.682 394.686 241.529C393.598 244.376 391.237 246.575 388.599 248.056C385.96 249.56 383.02 250.417 380.104 251.273C375.058 252.755 370.036 254.236 364.99 255.694C366.309 249.792 363.277 243.82 362.814 237.779C362.675 235.927 362.791 234.029 363.138 232.201C363.925 228.104 366.564 223.822 370.707 223.29C373.369 222.942 376.053 224.308 377.72 226.414C379.363 228.521 380.081 231.252 380.104 233.914L384.039 231.669C386.099 229.447 391.122 230.858 393.251 233.034Z" fill="#FF5136"/>
<path d="M302.194 179.15C300.574 179.451 298.954 179.544 297.334 179.243C294.788 178.78 292.519 177.345 290.39 175.887L290.228 176.026C284.303 168.827 280.808 161.374 280.044 153.065C279.604 148.482 279.997 143.621 281.27 138.413C282.405 133.715 284.441 129.294 285.668 124.618C286.154 122.79 286.501 120.892 286.594 118.994C285.182 116.587 284.812 113.67 284.719 110.846C284.627 107.768 284.789 104.643 283.979 101.657L284.441 101.102C279.164 96.9356 275.507 90.2464 272.313 83.6035C269.211 77.1458 265.439 71.7527 262.221 66.2903C259.999 62.5175 258.055 58.6984 256.759 54.4627C254.051 45.5514 251.273 36.4551 246.343 28.6549C245.232 29.5113 244.237 30.5297 243.38 31.6638L242.431 30.9463C240.441 33.2609 238.96 36.0384 238.103 38.978L238.473 39.1169C237.525 41.4777 236.807 43.9312 236.298 46.4078C235.789 45.2968 235.187 44.2784 234.446 43.3526C232.27 40.6676 229.331 37.4503 225.836 34.0479L228.058 33.3766C229.493 30.9926 232.78 26.4328 235.048 24.8358L235.58 24.6969C237.409 19.2576 240.927 14.3969 245.533 10.9713L245.788 11.3185C261.573 -1.0415 297.218 1.24995 312.888 4.745C334.367 9.51309 349.204 25.4838 356.889 45.5746C363.994 64.1377 365.939 84.2747 371.957 103.208C374.294 110.545 377.28 118.045 376.308 125.683C375.382 133.02 370.915 139.339 367.721 145.982C365.915 149.732 364.619 153.273 364.527 156.768C364.48 157.833 364.573 158.921 364.804 159.985C364.828 160.587 364.805 161.189 364.781 161.791L355.06 176.72C352.815 178.271 350.662 179.197 348.394 179.683C345.593 180.308 342.677 180.284 339.298 179.96C335.849 179.636 332.469 178.664 329.021 178.549C324.993 178.433 320.341 176.072 316.8 177.414C313.559 177.669 310.365 178.224 307.24 179.081L306.916 177.97C305.921 178.271 304.926 178.572 303.907 178.803C303.352 178.919 302.773 179.035 302.194 179.15Z" fill="#FFF1D4"/>
<path d="M281.479 318.35L282.127 318.628C282.937 316.8 283.77 314.971 284.58 313.143C285.622 310.805 286.664 308.467 287.427 306.014C288.284 303.236 288.77 300.366 289.233 297.519C289.788 294.186 290.344 290.876 290.876 287.566C291.084 286.316 291.293 285.066 291.501 283.793L292.242 282.358L356.819 315.827C356.333 316.499 355.847 317.17 355.407 317.864L355.592 317.98C348.371 330.34 341.427 342.885 334.784 355.569C305.759 355.569 272.753 355.569 240.325 355.569C240.094 355.569 239.862 355.569 239.631 355.569V355.361C239.446 341.566 238.566 327.771 237.038 314.068L237.2 313.976C236.969 313.536 236.691 313.143 236.367 312.749C251.019 299.556 265.184 285.83 278.794 271.572C279.118 272.73 279.465 273.887 279.812 275.067C280.159 279.511 280.46 283.955 280.692 288.399C281.247 298.352 281.502 308.351 281.479 318.35Z" fill="#B5CFE2"/>
<path d="M300.644 206.509C301.662 202.597 302.032 198.107 302.264 193.941L301.523 193.894C301.477 188.964 301.708 184.034 302.218 179.127C302.796 179.034 303.375 178.896 303.954 178.757C304.949 178.502 305.944 178.201 306.963 177.923L307.287 179.034C310.411 178.201 313.629 177.646 316.846 177.368C320.387 176.025 325.016 178.386 329.067 178.502C332.539 178.595 335.918 179.59 339.344 179.914C342.723 180.215 345.64 180.238 348.44 179.636C349.783 180.122 351.171 180.423 352.607 180.516L339.506 200.63L337.076 201.949C334.784 201.185 332.238 200.977 329.808 200.792C326.174 200.537 322.517 200.283 318.883 200.236C315.897 200.213 312.819 200.352 310.087 201.556C307.541 202.667 305.458 204.634 303.468 206.555C302.194 207.782 300.945 209.032 299.695 210.282L299.486 210.073C299.926 208.962 300.32 207.759 300.644 206.509Z" fill="#B5CFE2"/>
<path d="M350.13 221.716C350.547 222.642 350.986 223.591 350.894 224.586C350.801 225.604 349.644 226.715 348.649 226.623L348.371 226.831C348.116 226.461 347.862 226.114 347.584 225.766C347.885 224.47 347.954 223.105 347.7 221.808C347.538 220.906 347.237 220.049 346.82 219.216L348.602 218.383C349.112 219.517 349.621 220.628 350.13 221.716Z" fill="#FFF6F0"/>
<path d="M348.973 233.983C349.019 235.418 348.996 237.038 348 238.08C347.19 238.96 345.917 239.237 344.76 239.075C343.788 238.96 342.862 238.566 341.959 238.149C341.774 237.872 341.635 237.548 341.543 237.224L341.381 237.085C342.098 236.205 342.723 235.279 343.256 234.284C343.811 233.266 344.274 232.155 344.274 230.974C344.274 230.696 344.251 230.419 344.205 230.164L345.454 229.933C345.94 229.377 346.357 228.775 346.704 228.127L347.931 228.405C348.834 230.118 348.926 232.085 348.973 233.983Z" fill="#FFF6F0"/>
<path d="M279.859 231.97C286.131 224.447 292.728 217.202 299.648 210.282C300.898 209.032 302.148 207.782 303.421 206.555C305.412 204.611 307.495 202.667 310.041 201.556C312.772 200.352 315.851 200.213 318.837 200.236C322.494 200.259 326.128 200.514 329.761 200.792C332.192 200.977 334.761 201.185 337.029 201.949C338.395 202.412 339.691 203.06 340.779 204.032C342.7 205.699 343.834 208.106 344.899 210.421C346.126 213.106 347.352 215.767 348.602 218.429L346.82 219.262C347.237 220.073 347.514 220.952 347.7 221.855C347.931 223.151 347.885 224.517 347.584 225.813C347.399 226.646 347.098 227.433 346.704 228.197C346.357 228.845 345.941 229.447 345.454 230.002L344.205 230.234C344.251 230.488 344.274 230.766 344.274 231.044C344.274 232.201 343.811 233.312 343.256 234.354C342.723 235.349 342.098 236.298 341.381 237.154C341.242 237.339 341.08 237.525 340.918 237.71C340.941 239.214 340.825 240.719 340.594 242.223L339.946 242.131C339.923 242.339 339.876 242.57 339.807 242.779C338.997 245.741 335.918 247.501 332.956 248.287C329.993 249.074 326.845 249.213 324.044 250.463C321.614 251.551 319.623 253.403 317.401 254.884C313.536 257.453 309.023 258.819 304.463 259.444C302.264 259.768 300.042 259.56 297.843 259.49C296.825 259.467 295.806 259.467 294.788 259.56C291.802 259.814 289.881 261.087 287.335 262.569C284.511 265.624 281.664 268.633 278.794 271.642C265.184 285.9 251.019 299.625 236.367 312.819C234.631 314.393 232.895 315.943 231.136 317.494L230.627 317.309C230.882 316.568 231.113 315.828 231.368 315.087C232.039 313.004 232.664 310.944 233.266 308.838C234.84 303.329 236.205 297.681 236.182 291.941C236.136 284.21 233.613 276.734 231.02 269.443L230.326 269.304C230.534 268.448 230.835 267.614 231.275 266.851L231.46 266.943C232.942 265.971 234.446 264.999 235.927 264.027C248.542 255.741 260.995 247.246 273.285 238.52L277.868 234.492C278.516 233.59 279.187 232.78 279.859 231.97Z" fill="#FFF6F0"/>
<path d="M300.644 206.509C300.32 207.759 299.926 208.962 299.44 210.05L299.648 210.258C292.751 217.202 286.131 224.424 279.859 231.946C279.766 231.831 279.697 231.692 279.627 231.553C279.465 230.511 279.28 229.47 279.095 228.428C275.97 212.041 268.309 196.741 265.902 180.192C265.369 176.535 265.786 169.174 263.193 165.193C262.36 162.439 261.249 159.754 259.884 157.208L259.698 155.75C260.462 155.657 261.226 155.541 261.99 155.426C265.161 154.963 268.332 154.384 271.433 153.713C274.304 153.759 277.174 153.504 280.021 153.018C280.808 161.351 284.303 168.804 290.205 175.979L290.367 175.84C292.496 177.299 294.765 178.71 297.311 179.196C298.931 179.497 300.551 179.405 302.171 179.104C301.662 184.011 301.431 188.941 301.477 193.871L302.218 193.917C302.032 198.107 301.662 202.62 300.644 206.509Z" fill="#FFF6F0"/>
<path d="M279.812 275.067C279.465 273.91 279.141 272.753 278.794 271.572C281.664 268.563 284.511 265.554 287.335 262.499C289.881 261.018 291.802 259.745 294.788 259.49C295.806 259.397 296.825 259.397 297.843 259.421C297.82 260.578 297.658 261.735 297.38 262.846L297.496 262.939C293.468 268.17 289.719 273.609 286.316 279.28L292.219 282.335L291.478 283.77C291.27 285.02 291.061 286.27 290.853 287.543C288.886 288.029 286.895 288.515 284.928 289.001C283.539 288.793 282.173 288.585 280.784 288.353H280.692C280.46 283.955 280.16 279.511 279.812 275.067Z" fill="#FFF6F0"/>
<path d="M284.951 289.024C286.918 288.538 288.909 288.052 290.876 287.566C290.321 290.876 289.765 294.209 289.233 297.519C288.77 300.389 288.284 303.259 287.427 306.014C286.664 308.467 285.622 310.805 284.58 313.143C283.77 314.971 282.937 316.8 282.127 318.628L281.479 318.35C281.502 308.351 281.247 298.352 280.715 288.399H280.808C282.196 288.585 283.562 288.816 284.951 289.024Z" fill="white"/>
<path d="M238.497 39.0936L238.126 38.9547C238.983 36.0152 240.464 33.2608 242.455 30.9231L243.404 31.6406C244.26 30.5064 245.255 29.5111 246.366 28.6316C251.32 36.4318 254.097 45.5282 256.782 54.4394C258.078 58.6751 260.022 62.4942 262.244 66.267C265.462 71.7295 269.235 77.1225 272.336 83.5803C275.53 90.2232 279.164 96.9124 284.465 101.079L284.002 101.634C284.789 104.597 284.627 107.745 284.742 110.823C284.835 113.647 285.205 116.563 286.617 118.971C286.501 120.868 286.154 122.766 285.691 124.595C284.465 129.271 282.428 133.691 281.294 138.39C280.021 143.621 279.627 148.459 280.067 153.041C277.243 153.551 274.35 153.782 271.48 153.736C268.355 154.407 265.207 154.986 262.036 155.449C261.272 155.564 260.508 155.68 259.745 155.773C256.898 156.143 254.004 156.351 251.134 156.05C247.5 155.703 243.89 154.477 241.691 152.255C239.955 150.495 239.214 148.297 238.682 146.144C238.358 144.848 238.103 143.575 237.918 142.279C236.576 139.663 235.696 136.839 234.886 133.992C234.076 131.168 233.358 128.298 232.34 125.544C231.044 121.956 229.261 118.461 228.104 114.851C227.641 113.369 227.271 111.842 227.086 110.268C227.34 98.0465 231.738 85.6865 229.632 73.5812L229.146 73.5349C229.169 73.4423 229.169 73.3497 229.169 73.2571C229.493 73.0488 229.794 72.8405 230.118 72.609C231.46 71.7063 232.803 70.8036 233.914 69.6232C234.608 68.8825 235.21 68.0261 235.58 67.1003L235.951 67.2623C238.589 61.2212 239.168 52.4489 236.413 46.3614C236.807 43.8848 237.548 41.4313 238.497 39.0936Z" fill="#FFF6F0"/>
<path d="M279.627 231.576C279.697 231.715 279.766 231.854 279.859 231.97C279.164 232.78 278.493 233.59 277.822 234.423L273.239 238.45C260.948 247.176 248.496 255.671 235.881 263.957C235.881 263.749 235.904 263.564 235.927 263.356L235.326 263.24C235.326 263.124 234.215 256.435 234.192 256.365C230.812 245.533 227.433 234.701 224.054 223.845C219.517 209.31 214.957 194.728 208.8 180.794C206.069 174.567 202.944 168.434 199.079 162.832C200.213 161.883 201.162 160.703 201.88 159.407C210.212 157.763 216.971 148.181 221.554 138.946H221.577C223.637 137.279 226.16 136.214 228.798 135.867L230.048 135.821C231.53 134.988 233.127 134.386 234.793 133.969C235.603 136.839 236.506 139.663 237.825 142.256C238.011 143.552 238.288 144.825 238.589 146.121C239.122 148.273 239.862 150.472 241.598 152.231C243.82 154.453 247.431 155.68 251.042 156.027C253.889 156.305 256.782 156.12 259.652 155.75L259.837 157.208C261.203 159.754 262.314 162.439 263.147 165.193C265.74 169.174 265.323 176.535 265.855 180.192C268.262 196.741 275.924 212.041 279.049 228.428C278.91 229.516 279.118 230.627 279.627 231.576Z" fill="#B5CFE2"/>
<path d="M137.372 151.884C139.432 150.565 141.631 149.477 143.922 148.597C148.806 145.033 154.523 142.464 160.518 141.746C171.558 140.427 182.645 145.426 190.746 153.041C193.107 155.263 195.237 157.671 197.181 160.263C197.829 161.096 198.454 161.976 199.056 162.855C202.921 168.434 206.023 174.59 208.777 180.817C214.934 194.751 219.471 209.333 224.03 223.868C227.41 234.701 230.789 245.556 234.168 256.388C234.191 256.435 235.302 263.147 235.302 263.263L235.904 263.379C235.881 263.587 235.858 263.772 235.858 263.98C234.377 264.952 232.895 265.925 231.391 266.897L231.206 266.804C230.789 267.591 230.465 268.401 230.257 269.258L230.951 269.397C233.543 276.688 236.066 284.164 236.113 291.894C236.136 297.635 234.793 303.282 233.196 308.791C232.594 310.874 231.946 312.957 231.298 315.04C231.067 315.781 230.812 316.522 230.558 317.262L231.067 317.448C232.826 315.897 234.562 314.346 236.298 312.772C236.622 313.143 236.9 313.559 237.131 313.999L236.969 314.091C238.497 327.794 239.353 341.589 239.561 355.384V355.592C175.771 355.592 114.341 355.592 90.2232 355.592V353.44C92.0749 348.324 96.4032 320.457 98.116 312.379L98.3706 312.425C98.4632 311.893 98.5789 311.36 98.6715 310.828C100.523 308.814 102.236 306.847 103.578 305.018C106.703 300.852 109.411 296.917 113.161 294.14L113.068 294.001C114.827 292.705 116.633 291.478 118.508 290.321C123.623 292.149 129.155 292.843 134.571 292.311C138.228 291.964 141.816 291.061 145.357 290.135C157.162 287.057 169.406 283.145 177.715 274.211C179.474 272.313 181.095 270.021 181.071 267.452C181.071 265.971 180.284 264.49 179.15 263.587C178.965 262.962 178.826 262.337 178.687 261.689C182.761 259.652 186.719 257.384 190.631 255.069C193.223 253.518 196.093 251.319 195.977 248.287C195.885 245.973 193.941 244.075 191.765 243.311C189.913 242.663 187.876 242.663 185.909 242.755C185.863 242.547 185.839 242.316 185.839 242.107C186.719 241.783 187.575 241.436 188.432 241.089C190.353 240.325 192.343 239.515 193.825 238.057C195.306 236.599 196.209 234.353 195.468 232.409C194.565 230.025 191.695 229.03 189.149 228.96C187.066 228.914 185.006 229.261 182.946 229.608C180.956 229.933 178.965 230.28 176.998 230.627C175.516 229.608 173.919 228.775 172.253 228.104C173.757 227.641 175.262 227.201 176.766 226.738C179.011 226.067 181.326 225.35 183.108 223.822C184.89 222.294 185.978 219.725 185.099 217.549C183.895 214.61 180.053 214.008 176.905 214.054C157.324 214.402 138.784 223.614 119.341 225.188L119.295 224.678C123.229 223.359 128.46 221.947 132.256 220.234C136.052 218.522 139.524 215.142 139.617 210.976C139.64 209.958 139.409 208.893 138.691 208.175C137.904 207.411 136.747 207.226 135.682 207.087C128.784 206.185 121.1 205.467 115.499 209.61C113.138 211.369 111.448 213.8 109.897 216.276C109.805 215.281 109.735 214.309 109.712 213.314C109.388 213.36 109.041 213.406 108.717 213.476C110.036 200.537 108.578 187.876 115.545 175.933C117.559 172.484 120.591 167.832 124.04 163.48C128.229 158.18 132.997 153.296 137.21 151.56L137.372 151.884Z" fill="white"/>
<path d="M170.285 77.4698C170.1 77.5161 169.892 77.5855 169.73 77.7012C169.336 77.8633 168.943 78.0253 168.526 78.1642L167.948 76.6365C163.11 78.4188 157.671 78.5345 152.764 76.9606C151.792 76.6365 150.796 76.243 149.963 75.6644C146.26 76.706 142.487 77.4466 138.668 77.8633C136.446 80.1779 134.455 82.7702 132.742 85.594C129.039 82.7239 124.41 84.8071 121.841 88.7882C120.799 90.3853 120.197 92.2601 119.943 94.1581C118.971 101.333 123.137 108.763 129.479 112.096C128.136 113.716 126.678 115.244 125.127 116.679C125.104 116.725 125.081 116.725 125.058 116.749C123.183 118.716 121.98 120.406 119.202 121.007L117.721 121.285C116.772 119.156 115.73 117.096 114.55 115.105L115.059 114.827L108.74 97.005C102.329 79.1826 93.3942 62.7026 106.935 36.5476C109.458 31.6638 112.814 27.5206 118.23 23.0072L125.775 16.3643C133.738 9.86023 143.181 6.15687 154.268 7.33731L154.361 7.6845C154.523 7.63821 154.685 7.59192 154.847 7.56877C157.277 6.99012 159.777 6.66608 162.277 6.57349C180.215 -2.66177 209.263 17.915 225.859 34.071C229.377 37.4734 232.317 40.6907 234.469 43.3757C235.21 44.2784 235.812 45.2968 236.321 46.431C239.075 52.5415 238.497 61.2907 235.858 67.3318L235.488 67.1698C235.094 68.0956 234.516 68.952 233.821 69.6927C232.71 70.8732 231.368 71.7758 230.025 72.6785C229.701 72.8869 229.4 73.0952 229.076 73.3266C229.4 67.0078 227.178 58.1197 223.891 52.6804L223.429 53.0044C220.258 50.7593 216.763 48.977 213.105 47.7271C213.105 59.6936 213.568 68.1651 204.379 76.0116C199.658 77.7707 194.519 78.2336 189.473 78.1873C183.548 78.1179 177.646 77.4003 171.743 77.4003C171.257 77.3309 170.748 77.354 170.285 77.4698Z" fill="#FF5136"/>
<path d="M169.73 77.7013C169.915 77.6318 170.1 77.5624 170.285 77.4698C170.748 77.3541 171.257 77.3309 171.72 77.3309C177.646 77.3309 183.525 78.0484 189.45 78.1179C194.496 78.1642 199.658 77.7013 204.356 75.9422C213.522 68.0957 213.082 59.6242 213.082 47.6577C216.763 48.9076 220.258 50.6898 223.405 52.935L223.868 52.611C227.155 58.0503 229.377 66.9152 229.053 73.2572C229.053 73.3498 229.053 73.4424 229.03 73.535L229.516 73.5813C231.622 85.6866 227.225 98.0698 226.97 110.268C227.155 111.842 227.525 113.346 227.988 114.851C228.544 118.531 228.011 122.396 226.854 125.961C225.72 129.433 223.938 134.154 221.531 138.969C216.948 148.227 210.189 157.81 201.856 159.43C200.607 159.661 199.334 159.731 198.037 159.592L197.181 160.263C195.237 157.694 193.107 155.264 190.746 153.042C182.645 145.45 171.535 140.427 160.518 141.746C154.5 142.464 148.806 145.033 143.922 148.598C141.631 149.477 139.432 150.565 137.372 151.884L137.186 151.583C132.974 153.319 128.206 158.203 124.016 163.504C124.595 156.166 124.827 145.681 123.067 134.432L122.118 134.594C121.123 130.011 119.665 125.544 117.744 121.285L119.225 121.007C122.003 120.383 123.206 118.693 125.081 116.749C125.104 116.725 125.127 116.702 125.151 116.679C126.701 115.244 128.16 113.716 129.502 112.096C123.16 108.763 118.994 101.333 119.966 94.1581C120.22 92.2601 120.822 90.3853 121.864 88.7882C124.433 84.8071 129.062 82.7239 132.766 85.5941C134.478 82.7702 136.469 80.1779 138.691 77.8633C142.51 77.4466 146.283 76.706 149.986 75.6644C150.819 76.2431 151.815 76.6365 152.787 76.9606C157.694 78.5577 163.133 78.4188 167.971 76.6365L168.549 78.1642C168.943 78.0253 169.336 77.8633 169.73 77.7013ZM181.858 113.855C186.117 114.527 191.649 111.564 189.497 107.374C189.265 106.935 188.987 106.495 188.594 106.055C184.728 101.565 178.872 100.986 173.41 102.352C170.91 102.977 167.878 104.574 168.572 107.606C168.873 108.948 169.799 110.106 170.933 110.893C174.104 113.207 178.132 113.277 181.858 113.855Z" fill="#FFF6F0"/>
<path d="M198.084 159.592C199.38 159.731 200.676 159.661 201.903 159.43C201.185 160.726 200.236 161.883 199.102 162.855C198.5 161.976 197.875 161.119 197.227 160.263L198.084 159.592Z" fill="#FFF6F0"/>
<path d="M139.895 275.669C139.941 275.692 139.987 275.715 140.01 275.739C140.936 276.225 142.001 276.526 143.042 276.595C146.19 275.97 149.338 275.345 152.486 274.743C155.287 274.188 158.134 273.632 160.633 272.267C163.735 270.6 166.188 267.776 169.197 266.017C168.943 266.11 168.688 266.202 168.434 266.318C158.782 269.998 149.338 271.896 139.895 275.669ZM178.757 261.689C178.016 262.059 177.275 262.43 176.535 262.8C177.507 262.661 178.456 262.985 179.22 263.587C180.354 264.49 181.118 265.971 181.141 267.452C181.164 270.022 179.544 272.313 177.785 274.211C169.498 283.145 157.231 287.08 145.426 290.135C141.862 291.061 138.298 291.941 134.64 292.311C129.224 292.82 123.716 292.126 118.577 290.321C116.702 291.478 114.897 292.682 113.138 294.001L113.23 294.14C109.481 296.917 106.773 300.852 103.648 305.018C102.282 306.847 100.593 308.814 98.741 310.828C94.8061 315.087 90.1075 319.415 86.1495 322.517C86.0569 322.586 85.9875 322.656 85.8949 322.702C85.8949 322.725 85.8949 322.748 85.8949 322.771C85.756 322.91 85.6172 323.049 85.5014 323.211C85.1542 323.581 84.8071 323.975 84.3441 324.183C84.1127 324.276 83.8581 324.322 83.6266 324.299L83.6961 323.466C70.2945 316.707 59.277 293.654 60.2028 278.655L60.5732 277.313C61.1287 277.613 61.7073 277.868 62.3091 278.1L62.4943 277.613C68.5585 272.753 75.5718 269.489 82.1684 265.462C87.816 262.013 92.8619 255.37 99.065 253.264C100.269 252.222 101.518 251.25 102.815 250.347L102.629 250.116C100.685 245.51 103.602 240.441 104.551 235.511C105.245 231.923 104.875 228.15 105.801 224.609C106.31 222.665 107.189 220.813 108.208 219.054C108.578 218.406 108.972 217.758 109.365 217.11C109.527 216.832 109.689 216.577 109.874 216.3C111.425 213.8 113.138 211.37 115.476 209.634C121.077 205.49 128.761 206.208 135.659 207.111C136.747 207.25 137.904 207.435 138.668 208.199C139.385 208.916 139.594 210.004 139.594 210.999C139.501 215.165 136.029 218.545 132.233 220.258C128.437 221.97 123.229 223.382 119.271 224.702L119.318 225.211C138.76 223.637 157.3 214.425 176.882 214.078C180.053 214.031 183.872 214.633 185.076 217.573C185.955 219.748 184.844 222.318 183.085 223.845C181.303 225.373 178.988 226.09 176.743 226.762C175.239 227.225 173.734 227.664 172.23 228.127C164.175 230.534 156.143 232.965 148.088 235.395L148.135 235.557C157.74 233.914 167.346 232.27 176.975 230.65C178.965 230.303 180.956 229.956 182.923 229.632C184.983 229.285 187.043 228.937 189.126 228.984C191.672 229.053 194.542 230.048 195.445 232.432C196.186 234.377 195.283 236.622 193.802 238.08C192.32 239.538 190.33 240.348 188.409 241.112C187.552 241.459 186.673 241.807 185.816 242.131C185.816 242.339 185.863 242.57 185.886 242.779C187.876 242.686 189.89 242.686 191.742 243.334C193.917 244.098 195.862 245.996 195.954 248.311C196.093 251.343 193.223 253.542 190.608 255.092C186.765 257.384 182.807 259.629 178.757 261.689Z" fill="#FFF6F0"/>
<path d="M189.52 107.374C191.672 111.587 186.14 114.526 181.881 113.855C178.155 113.277 174.128 113.207 170.957 110.893C169.846 110.082 168.897 108.948 168.596 107.606C167.901 104.551 170.91 102.977 173.433 102.352C178.919 100.963 184.775 101.542 188.617 106.055C188.987 106.495 189.288 106.935 189.52 107.374Z" fill="#F7DCD5"/>
<path d="M168.457 266.295C168.711 266.202 168.966 266.11 169.221 265.994C166.212 267.753 163.758 270.577 160.657 272.244C158.157 273.609 155.31 274.165 152.509 274.72C149.361 275.345 146.213 275.97 143.066 276.572C142.001 276.502 140.959 276.202 140.033 275.715C139.987 275.692 139.941 275.669 139.918 275.646C149.338 271.896 158.782 269.998 168.457 266.295Z" fill="#FFEBEB"/>
<path d="M109.874 216.276C109.689 216.554 109.55 216.809 109.365 217.087C108.971 217.735 108.578 218.383 108.208 219.031L107.953 218.892C108.277 217.087 108.509 215.281 108.694 213.476C109.018 213.406 109.342 213.36 109.689 213.314C109.735 214.309 109.805 215.281 109.874 216.276Z" fill="#B5CFE2"/>
<path d="M83.6266 324.253C83.858 324.276 84.1358 324.23 84.3441 324.137C84.807 323.929 85.1542 323.535 85.5014 323.165C85.6403 323.026 85.7791 322.887 85.8949 322.725C86.1495 324.068 86.4967 324.785 85.6171 325.479C80.5018 329.484 75.5949 335.293 69.438 337.4C67.5401 338.048 65.4338 337.677 63.3275 336.752L63.2812 337.215C53.5136 338.974 42.0331 338.696 34.0941 333.974C32.335 332.909 30.6453 331.613 29.5112 329.9C27.6595 327.146 27.4974 323.605 27.6363 320.295C27.9141 313.49 27.1965 308.259 29.3954 301.824C31.2934 296.292 32.7284 287.613 107.374 214.703L107.12 213.962C107.629 213.777 108.161 213.615 108.694 213.499C108.509 215.304 108.277 217.11 107.953 218.915L108.208 219.054C107.189 220.813 106.31 222.642 105.8 224.609C104.875 228.15 105.245 231.923 104.551 235.511C103.602 240.418 100.708 245.51 102.629 250.116L102.815 250.347C101.518 251.25 100.245 252.222 99.0649 253.264C92.8618 255.37 87.816 262.013 82.1684 265.462C75.5949 269.489 68.5585 272.753 62.4942 277.614L62.3091 278.1C61.7073 277.868 61.1518 277.59 60.5731 277.313L60.2028 278.655C59.2769 293.654 70.2944 316.707 83.696 323.466L83.6266 324.253Z" fill="#B5CFE2"/>
<path d="M215.189 99.6204C214.726 101.796 214.17 103.972 214.957 106.032C215.906 108.508 217.85 109.735 218.753 112.212C219.656 114.688 219.077 116.332 216.091 118.994" stroke="black" stroke-width="3.87411" stroke-miterlimit="10" stroke-linecap="round" stroke-linejoin="round"/>
<path d="M191.51 130.451C193.501 134.108 197.459 136.052 200.375 137.395C204.981 139.501 209.772 139.686 214.216 137.048" stroke="black" stroke-width="3.87411" stroke-miterlimit="10" stroke-linecap="round" stroke-linejoin="round"/>
<path d="M190.422 96.6579C193.2 96.519 196.024 97.3291 198.292 98.9493C195.723 99.366 193.987 98.1624 190.631 98.579" stroke="black" stroke-width="3.87411" stroke-miterlimit="10" stroke-linecap="round" stroke-linejoin="round"/>
<path d="M186.603 80.6407C192.39 77.2151 198.5 77.4002 204.449 80.2009" stroke="black" stroke-width="3.87411" stroke-miterlimit="10" stroke-linecap="round" stroke-linejoin="round"/>
<path d="M225.049 85.3857C227.41 84.7839 229.261 85.8487 229.771 86.6356" stroke="black" stroke-width="3.87411" stroke-miterlimit="10" stroke-linecap="round" stroke-linejoin="round"/>
<path d="M225.234 101.727C224.378 101.68 223.544 101.634 222.688 101.588C223.614 101.958 224.54 102.305 225.442 102.676" stroke="black" stroke-width="3.87411" stroke-miterlimit="10" stroke-linecap="round" stroke-linejoin="round"/>
<path d="M227.271 111.726C227.618 112.744 227.873 113.786 228.035 114.827C228.59 118.508 228.058 122.373 226.9 125.937C225.766 129.409 223.984 134.131 221.577 138.946C216.994 148.204 210.235 157.786 201.903 159.407C200.653 159.638 199.38 159.708 198.084 159.569" stroke="black" stroke-width="3.87411" stroke-miterlimit="10" stroke-linecap="round" stroke-linejoin="round"/>
<path d="M237.872 87.4226C237.825 90.0613 236.645 92.6536 234.631 94.5516C233.243 95.8478 231.46 96.9125 230.65 98.5558C229.886 100.13 230.21 102.005 231.044 103.555C231.877 105.106 233.196 106.402 234.492 107.675" stroke="black" stroke-width="3.87411" stroke-miterlimit="10" stroke-linecap="round" stroke-linejoin="round"/>
<path d="M238.126 129.016C242.987 130.335 252.245 128.622 257.8 121.401" stroke="black" stroke-width="3.87411" stroke-miterlimit="10" stroke-linecap="round" stroke-linejoin="round"/>
<path d="M249.236 62.5869C254.491 61.8694 258.564 63.7442 262.244 66.2671C262.406 66.3597 262.545 66.4755 262.707 66.5912" stroke="black" stroke-width="3.87411" stroke-miterlimit="10" stroke-linecap="round" stroke-linejoin="round"/>
<path d="M260.809 85.8022C258.055 85.9411 255.347 86.7744 253.009 88.2326C253.009 88.2326 257.893 87.2141 261.527 87.2141" stroke="black" stroke-width="3.87411" stroke-miterlimit="10" stroke-linecap="round" stroke-linejoin="round"/>
<path d="M237.594 140.311C237.663 140.959 237.756 141.631 237.849 142.302C238.034 143.598 238.311 144.871 238.612 146.167C239.145 148.32 239.885 150.519 241.621 152.278C243.843 154.5 247.454 155.727 251.065 156.074C253.912 156.351 256.805 156.166 259.675 155.796C260.439 155.703 261.203 155.588 261.967 155.472C265.138 155.009 268.309 154.43 271.41 153.759C272.197 153.597 272.961 153.435 273.725 153.25" stroke="black" stroke-width="3.87411" stroke-miterlimit="10" stroke-linecap="round" stroke-linejoin="round"/>
<path d="M243.033 24.0024C244.237 25.4838 245.348 27.0114 246.366 28.6316C251.32 36.4319 254.097 45.5282 256.782 54.4395C258.078 58.6752 260.022 62.4943 262.244 66.2671C265.462 71.7295 269.235 77.1226 272.336 83.5803C275.53 90.2232 279.164 96.9124 284.465 101.079C287.242 103.254 290.436 104.759 294.279 105.176" stroke="black" stroke-width="3.87411" stroke-miterlimit="10" stroke-linecap="round" stroke-linejoin="round"/>
<path d="M285.066 110.453C286.386 113.092 286.756 116.031 286.594 118.994C286.478 120.892 286.131 122.79 285.668 124.618C284.442 129.294 282.405 133.715 281.271 138.413C279.997 143.644 279.604 148.482 280.044 153.065C280.831 161.397 284.326 168.85 290.228 176.026C291.177 177.183 292.172 178.317 293.26 179.474" stroke="black" stroke-width="3.87411" stroke-miterlimit="10" stroke-linecap="round" stroke-linejoin="round"/>
<path d="M292.033 164.869C294.996 171.211 298.491 175.539 303.93 178.757C305.597 179.729 307.402 180.608 309.462 181.442" stroke="black" stroke-width="3.87411" stroke-miterlimit="10" stroke-linecap="round" stroke-linejoin="round"/>
<path d="M154.268 7.31425C143.181 6.13381 133.738 9.83717 125.775 16.3412L118.23 22.9841C112.814 27.4976 109.481 31.6407 106.935 36.5245C93.3942 62.7027 102.329 79.1595 108.74 96.982L115.059 114.804" stroke="black" stroke-width="3.87411" stroke-miterlimit="10" stroke-linecap="round" stroke-linejoin="round"/>
<path d="M161.629 6.89744C161.86 6.78171 162.068 6.66598 162.277 6.52711C180.215 -2.70816 209.263 17.8687 225.859 34.0246C229.377 37.4271 232.317 40.6443 234.469 43.3293C235.21 44.232 235.812 45.2504 236.321 46.3846C239.075 52.4951 238.497 61.2443 235.858 67.2854C235.696 67.6558 235.534 68.0261 235.349 68.3964" stroke="black" stroke-width="3.87411" stroke-miterlimit="10" stroke-linecap="round" stroke-linejoin="round"/>
<path d="M238.103 38.9316C238.96 35.992 240.441 33.2377 242.431 30.8999" stroke="black" stroke-width="3.87411" stroke-miterlimit="10" stroke-linecap="round" stroke-linejoin="round"/>
<path d="M228.081 33.3534C229.516 30.9693 232.803 26.4096 235.071 24.8125" stroke="black" stroke-width="3.87411" stroke-miterlimit="10" stroke-linecap="round" stroke-linejoin="round"/>
<path d="M241.506 15.7161C242.686 14.0496 244.144 12.5914 245.811 11.2721C261.596 -1.08789 297.241 1.20357 312.911 4.69862C334.391 9.4667 349.227 25.4375 356.912 45.5282C364.018 64.0913 365.962 84.2284 371.98 103.162C374.318 110.499 377.303 117.998 376.331 125.637C375.405 132.974 370.938 139.293 367.744 145.936C365.939 149.685 364.642 153.227 364.55 156.722C364.504 157.786 364.596 158.874 364.828 159.939C364.851 160.032 364.874 160.124 364.874 160.217" stroke="black" stroke-width="3.87411" stroke-miterlimit="10" stroke-linecap="round" stroke-linejoin="round"/>
<path d="M315.457 178.132C315.897 177.808 316.36 177.553 316.846 177.368C320.387 176.025 325.016 178.386 329.067 178.502C332.539 178.595 335.918 179.59 339.344 179.914C342.723 180.215 345.64 180.238 348.44 179.636C350.709 179.127 352.861 178.201 355.106 176.674" stroke="black" stroke-width="3.87411" stroke-miterlimit="10" stroke-linecap="round" stroke-linejoin="round"/>
<path d="M143.366 149.014C143.552 148.875 143.737 148.736 143.922 148.597C148.806 145.033 154.523 142.464 160.518 141.746C171.558 140.427 182.645 145.426 190.746 153.041C193.107 155.263 195.237 157.671 197.181 160.263C197.829 161.096 198.454 161.976 199.056 162.855C202.921 168.434 206.023 174.59 208.777 180.817C214.934 194.751 219.471 209.333 224.03 223.868C227.41 234.701 230.789 245.556 234.168 256.388C234.191 256.435 235.302 263.147 235.302 263.263" stroke="black" stroke-width="3.87411" stroke-miterlimit="10" stroke-linecap="round" stroke-linejoin="round"/>
<path d="M247.13 165.077C240.858 172.716 236.483 181.905 234.492 191.603C237.2 190.654 238.636 187.784 239.909 185.214C241.182 182.645 242.918 179.845 245.741 179.335" stroke="black" stroke-width="3.87411" stroke-miterlimit="10" stroke-linecap="round" stroke-linejoin="round"/>
<path d="M263.193 165.216C265.786 169.197 265.369 176.558 265.902 180.215C268.309 196.764 275.97 212.064 279.095 228.451C279.28 229.493 279.465 230.534 279.627 231.576C279.627 231.599 279.627 231.622 279.627 231.645" stroke="black" stroke-width="3.87411" stroke-miterlimit="10" stroke-linecap="round" stroke-linejoin="round"/>
<path d="M260.231 162.855C261.504 163.272 262.476 164.105 263.193 165.216" stroke="black" stroke-width="3.87411" stroke-miterlimit="10" stroke-linecap="round" stroke-linejoin="round"/>
<path d="M248.241 174.475C252.315 177.924 249.63 185.955 250.185 190.654C251.25 199.496 254.213 207.875 255.902 216.577C257.268 223.544 256.805 231.53 260.092 237.964C260.416 238.589 260.763 239.214 261.157 239.816" stroke="black" stroke-width="3.87411" stroke-miterlimit="10" stroke-linecap="round" stroke-linejoin="round"/>
<path d="M302.519 189.034C302.426 190.561 302.357 192.228 302.264 193.941C302.032 198.107 301.662 202.597 300.644 206.509C300.32 207.759 299.926 208.962 299.44 210.05" stroke="black" stroke-width="3.87411" stroke-miterlimit="10" stroke-linecap="round" stroke-linejoin="round"/>
<path d="M102.653 250.07C100.708 245.464 103.625 240.395 104.574 235.464C105.268 231.877 104.898 228.104 105.824 224.563C106.333 222.618 107.212 220.767 108.231 219.008C108.601 218.36 108.995 217.711 109.388 217.063C109.55 216.786 109.712 216.531 109.897 216.253C111.448 213.753 113.161 211.323 115.499 209.587C121.1 205.444 128.785 206.162 135.682 207.064C136.77 207.203 137.927 207.388 138.691 208.152C139.409 208.87 139.617 209.958 139.617 210.953C139.524 215.119 136.052 218.498 132.256 220.211C128.46 221.924 123.253 223.336 119.295 224.655" stroke="black" stroke-width="3.87411" stroke-miterlimit="10" stroke-linecap="round" stroke-linejoin="round"/>
<path d="M114.851 225.396C116.355 225.373 117.86 225.303 119.364 225.164C138.807 223.591 157.347 214.378 176.928 214.031C180.099 213.985 183.918 214.587 185.122 217.526C186.001 219.702 184.89 222.271 183.131 223.799C181.349 225.326 179.035 226.044 176.789 226.715C175.285 227.178 173.78 227.618 172.276 228.081C164.221 230.488 156.189 232.918 148.135 235.349C142.973 236.899 137.835 238.45 132.673 240.001" stroke="black" stroke-width="3.87411" stroke-miterlimit="10" stroke-linecap="round" stroke-linejoin="round"/>
<path d="M137.186 257.499C153.713 253.403 169.984 248.264 185.863 242.084C186.742 241.76 187.599 241.413 188.455 241.066C190.376 240.302 192.367 239.492 193.848 238.034C195.329 236.575 196.232 234.33 195.491 232.386C194.589 230.002 191.718 229.007 189.172 228.937C187.089 228.891 185.029 229.238 182.969 229.585C180.979 229.909 178.988 230.257 177.021 230.604C167.415 232.224 157.81 233.867 148.181 235.511" stroke="black" stroke-width="3.87411" stroke-miterlimit="10" stroke-linecap="round" stroke-linejoin="round"/>
<path d="M184.937 242.802C185.261 242.779 185.608 242.755 185.932 242.755C187.923 242.663 189.936 242.663 191.788 243.311C193.964 244.075 195.908 245.973 196.001 248.287C196.139 251.32 193.269 253.518 190.654 255.069C186.742 257.384 182.784 259.652 178.71 261.689C177.97 262.059 177.229 262.43 176.488 262.8C174.081 263.957 171.651 265.045 169.174 266.017C168.92 266.11 168.665 266.202 168.41 266.318C158.735 270.022 149.292 271.919 139.848 275.692C138.784 276.109 137.719 276.572 136.631 277.035" stroke="black" stroke-width="3.87411" stroke-miterlimit="10" stroke-linecap="round" stroke-linejoin="round"/>
<path d="M115.036 288.816C116.193 289.372 117.374 289.858 118.577 290.297C123.692 292.126 129.224 292.82 134.64 292.288C138.298 291.941 141.885 291.038 145.426 290.112C157.231 287.034 169.475 283.122 177.785 274.188C179.544 272.29 181.164 269.998 181.141 267.429C181.141 265.948 180.354 264.466 179.22 263.564C178.433 262.962 177.507 262.638 176.535 262.777C176.442 262.777 176.35 262.8 176.257 262.823" stroke="black" stroke-width="3.87411" stroke-miterlimit="10" stroke-linecap="round" stroke-linejoin="round"/>
<path d="M140.057 277.197C141.052 277.012 142.047 276.803 143.066 276.595C146.213 275.97 149.361 275.345 152.509 274.743C155.31 274.188 158.157 273.632 160.657 272.267C163.758 270.6 166.212 267.776 169.221 266.017C169.776 265.693 170.332 265.392 170.91 265.161" stroke="black" stroke-width="3.87411" stroke-miterlimit="10" stroke-linecap="round" stroke-linejoin="round"/>
<path d="M116.795 221.299C117.304 222.48 118.068 223.544 119.017 224.401" stroke="black" stroke-width="3.87411" stroke-miterlimit="10" stroke-linecap="round" stroke-linejoin="round"/>
<path d="M41.362 299.417C39.6029 290.251 46.3846 286.34 50.2269 281.502C51.5231 279.859 60.0177 272.66 61.7768 276.178" stroke="black" stroke-width="3.87411" stroke-miterlimit="10" stroke-linecap="round" stroke-linejoin="round"/>
<path d="M60.2028 278.609C59.277 293.607 70.2945 316.661 83.6961 323.419" stroke="black" stroke-width="3.87411" stroke-miterlimit="10" stroke-linecap="round" stroke-linejoin="round"/>
<path d="M62.4943 277.567C68.5585 272.706 75.5718 269.443 82.1684 265.415C87.816 261.967 92.8618 255.324 99.065 253.218" stroke="black" stroke-width="3.87411" stroke-miterlimit="10" stroke-linecap="round" stroke-linejoin="round"/>
<path d="M85.1311 323.257C85.3857 323.072 85.6403 322.864 85.8949 322.655C85.9875 322.609 86.057 322.54 86.1495 322.47C90.1075 319.369 94.8061 315.04 98.741 310.782C100.593 308.768 102.305 306.8 103.648 304.972C106.773 300.806 109.481 296.871 113.23 294.093C114.804 292.913 116.587 291.941 118.67 291.223" stroke="black" stroke-width="3.87411" stroke-miterlimit="10" stroke-linecap="round" stroke-linejoin="round"/>
<path d="M43.3988 306.453C43.6071 309.925 45.0422 313.212 46.4772 316.383C48.3289 320.526 50.2269 324.739 53.0738 328.28C55.2033 330.965 59.2307 334.946 63.3507 336.752C65.4338 337.677 67.5633 338.048 69.4612 337.4C75.6181 335.293 80.525 329.484 85.6403 325.479C86.5198 324.785 86.1727 324.068 85.9181 322.725C85.9181 322.702 85.9181 322.679 85.9181 322.656C85.9181 322.609 85.8949 322.563 85.8949 322.517" stroke="black" stroke-width="3.87411" stroke-miterlimit="10" stroke-linecap="round" stroke-linejoin="round"/>
<path d="M63.3044 337.215C53.5368 338.974 42.0563 338.696 34.1173 333.974C32.3582 332.909 30.6685 331.613 29.5343 329.9C27.6827 327.146 27.5206 323.605 27.6595 320.295C27.9373 313.49 27.2197 308.259 29.4186 301.824C31.3166 296.292 32.7516 287.613 107.398 214.703" stroke="black" stroke-width="3.87411" stroke-miterlimit="10" stroke-linecap="round" stroke-linejoin="round"/>
<path d="M90.2927 353.417C92.1443 348.301 96.4727 320.434 98.1855 312.356" stroke="black" stroke-width="3.87411" stroke-miterlimit="10" stroke-linecap="round" stroke-linejoin="round"/>
<path d="M166.929 150.218C166.235 155.264 165.934 160.333 166.003 165.425" stroke="black" stroke-width="3.87411" stroke-miterlimit="10" stroke-linecap="round" stroke-linejoin="round"/>
<path d="M139.154 191.186C146.167 178.965 161.189 171.906 175.077 174.266" stroke="black" stroke-width="3.87411" stroke-miterlimit="10" stroke-linecap="round" stroke-linejoin="round"/>
<path d="M141.307 298.375C143.529 308.259 146.815 317.888 151.12 327.053C154.615 334.53 159.36 342.214 167.091 345.084C174.915 348.001 183.594 345.223 191.487 342.446C201.741 338.835 211.994 335.224 222.225 331.613" stroke="black" stroke-width="3.87411" stroke-miterlimit="10" stroke-linecap="round" stroke-linejoin="round"/>
<path d="M226.276 329.021C227.849 325.155 229.308 321.22 230.627 317.262C230.882 316.522 231.113 315.781 231.368 315.04C232.039 312.957 232.664 310.897 233.266 308.791C234.84 303.282 236.205 297.635 236.182 291.894C236.136 284.164 233.613 276.687 231.02 269.396" stroke="black" stroke-width="3.87411" stroke-miterlimit="10" stroke-linecap="round" stroke-linejoin="round"/>
<path d="M191.557 279.743C198.709 277.081 207.064 278.377 213.777 274.766C216.739 273.169 219.147 270.716 221.832 268.656C224.516 266.596 227.711 264.86 231.067 265.068" stroke="black" stroke-width="3.87411" stroke-miterlimit="10" stroke-linecap="round" stroke-linejoin="round"/>
<path d="M190.515 211.555C202.181 230.234 199.75 255.393 212.226 273.54" stroke="black" stroke-width="3.87411" stroke-miterlimit="10" stroke-linecap="round" stroke-linejoin="round"/>
<path d="M237.038 314.068C238.566 327.771 239.423 341.566 239.631 355.361" stroke="black" stroke-width="3.87411" stroke-miterlimit="10" stroke-linecap="round" stroke-linejoin="round"/>
<path d="M231.437 266.874C232.918 265.902 234.423 264.93 235.904 263.957C248.519 255.671 260.971 247.176 273.262 238.45L277.845 234.423C278.516 233.59 279.187 232.78 279.882 231.97C286.154 224.447 292.751 217.202 299.672 210.282C300.921 209.032 302.171 207.782 303.444 206.555C305.435 204.611 307.518 202.667 310.064 201.556C312.795 200.352 315.874 200.213 318.86 200.236C322.517 200.259 326.151 200.514 329.785 200.792C332.215 200.977 334.784 201.185 337.052 201.949C338.418 202.412 339.714 203.06 340.802 204.032C342.723 205.699 343.857 208.106 344.922 210.421C346.149 213.106 347.376 215.767 348.625 218.429C349.135 219.54 349.644 220.651 350.153 221.739C350.57 222.665 351.009 223.614 350.917 224.609C350.824 225.628 349.667 226.739 348.672 226.646" stroke="black" stroke-width="3.87411" stroke-miterlimit="10" stroke-linecap="round" stroke-linejoin="round"/>
<path d="M320.642 209.518C326.313 210.791 331.983 212.064 337.631 213.337C339.367 213.73 341.149 214.124 342.723 214.98C344.482 215.929 345.917 217.457 346.82 219.239C347.237 220.049 347.514 220.929 347.7 221.832C347.931 223.128 347.885 224.493 347.584 225.789C347.399 226.623 347.098 227.41 346.704 228.174C346.357 228.822 345.941 229.423 345.454 229.979" stroke="black" stroke-width="3.87411" stroke-miterlimit="10" stroke-linecap="round" stroke-linejoin="round"/>
<path d="M325.919 220.929C329.345 221.97 332.794 223.012 336.242 224.077C338.048 224.632 339.899 225.188 341.473 226.299C342.816 227.248 343.904 228.659 344.181 230.233C344.228 230.488 344.251 230.766 344.251 231.044C344.251 232.201 343.788 233.312 343.232 234.353C342.7 235.349 342.075 236.298 341.358 237.154C341.219 237.339 341.057 237.524 340.895 237.71C340.733 237.895 340.571 238.08 340.385 238.265" stroke="black" stroke-width="3.87411" stroke-miterlimit="10" stroke-linecap="round" stroke-linejoin="round"/>
<path d="M326.22 235.14C329.414 235.881 332.608 236.599 335.803 237.316C336.914 237.571 338.094 237.848 338.904 238.659C339.807 239.515 340.108 240.857 339.946 242.084C339.923 242.293 339.876 242.524 339.807 242.732C338.997 245.695 335.918 247.454 332.956 248.241C329.993 249.028 326.845 249.167 324.044 250.417C321.614 251.505 319.623 253.356 317.401 254.838C313.536 257.407 309.023 258.772 304.463 259.397C302.264 259.721 300.042 259.513 297.843 259.444C296.825 259.421 295.806 259.421 294.788 259.513C291.802 259.768 289.881 261.041 287.335 262.522C284.511 265.577 281.664 268.586 278.794 271.595C265.184 285.853 251.019 299.579 236.367 312.772C234.631 314.346 232.895 315.897 231.136 317.448" stroke="black" stroke-width="3.87411" stroke-miterlimit="10" stroke-linecap="round" stroke-linejoin="round"/>
<path d="M341.45 237.918C341.635 238.01 341.797 238.08 341.959 238.173C342.862 238.589 343.788 238.959 344.76 239.098C345.917 239.237 347.214 238.959 348.001 238.103C348.973 237.038 349.019 235.441 348.973 234.006C348.926 232.108 348.811 230.118 347.908 228.451" stroke="black" stroke-width="3.87411" stroke-miterlimit="10" stroke-linecap="round" stroke-linejoin="round"/>
<path d="M221.6 138.969C223.66 137.302 226.183 136.238 228.822 135.89" stroke="black" stroke-width="3.87411" stroke-miterlimit="10" stroke-linecap="round" stroke-linejoin="round"/>
<path d="M279.535 271.665C279.627 272.799 279.72 273.933 279.812 275.067C280.16 279.511 280.46 283.955 280.692 288.399C281.247 298.375 281.479 308.374 281.456 318.35C281.456 317.934 281.433 317.517 281.433 317.124" stroke="black" stroke-width="3.87411" stroke-miterlimit="10" stroke-linecap="round" stroke-linejoin="round"/>
<path d="M299.486 260.485C298.815 261.319 298.167 262.152 297.519 262.985C293.492 268.216 289.742 273.655 286.339 279.326L292.242 282.381L356.819 315.851L373.207 324.345L432.021 241.644L432.437 241.043L459.564 202.898L372.304 150.264L364.805 161.744L355.083 176.674L352.583 180.516L339.483 200.63" stroke="black" stroke-width="3.87411" stroke-miterlimit="10" stroke-linecap="round" stroke-linejoin="round"/>
<path d="M433.016 241.436C437.738 260.462 434.335 280.599 428.85 299.44C423.387 318.188 415.888 336.404 412.161 355.569C412.138 355.662 412.115 355.755 412.115 355.824" stroke="black" stroke-width="3.87411" stroke-miterlimit="10" stroke-linecap="round" stroke-linejoin="round"/>
<path d="M355.592 317.98C348.371 330.34 341.427 342.885 334.784 355.569C334.738 355.662 334.692 355.754 334.622 355.87" stroke="black" stroke-width="3.87411" stroke-miterlimit="10" stroke-linecap="round" stroke-linejoin="round"/>
<path d="M280.229 322.841C280.854 321.452 281.479 320.04 282.104 318.628C282.914 316.8 283.747 314.971 284.557 313.143C285.599 310.805 286.64 308.467 287.404 306.014C288.261 303.236 288.747 300.366 289.21 297.519C289.765 294.186 290.321 290.876 290.853 287.566C291.061 286.316 291.27 285.066 291.478 283.793" stroke="black" stroke-width="3.87411" stroke-miterlimit="10" stroke-linecap="round" stroke-linejoin="round"/>
<path d="M282.335 289.649C283.215 289.441 284.071 289.233 284.951 289.001C286.918 288.515 288.909 288.029 290.876 287.543C290.899 287.543 290.899 287.543 290.922 287.543" stroke="black" stroke-width="3.87411" stroke-miterlimit="10" stroke-linecap="round" stroke-linejoin="round"/>
<path d="M395.681 210.05C398.505 205.977 401.329 201.926 404.153 197.852" stroke="black" stroke-width="3.87411" stroke-miterlimit="10" stroke-linecap="round" stroke-linejoin="round"/>
<path d="M380.081 233.914C380.058 231.229 379.34 228.498 377.697 226.414C376.03 224.308 373.345 222.942 370.684 223.29C366.54 223.822 363.902 228.104 363.115 232.201C362.768 234.029 362.652 235.927 362.791 237.779C363.254 243.82 366.286 249.769 364.967 255.694C370.012 254.213 375.035 252.755 380.081 251.273C382.997 250.417 385.937 249.56 388.575 248.056C391.214 246.575 393.575 244.353 394.663 241.529C395.751 238.705 395.357 235.187 393.228 233.034C391.098 230.858 386.099 229.47 384.016 231.669L380.081 233.914Z" stroke="black" stroke-width="3.87411" stroke-miterlimit="10" stroke-linecap="round" stroke-linejoin="round"/>
<path d="M328.72 270.045C330.942 266.804 333.349 263.703 335.941 260.786C336.312 263.286 336.242 265.855 335.872 268.355C338.025 266.665 340.362 265.23 342.862 264.05C342.955 264.003 343.07 263.957 343.14 264.027C343.232 264.096 343.186 264.235 343.14 264.351C341.496 268.193 339.205 271.757 336.358 274.813" stroke="black" stroke-width="3.87411" stroke-miterlimit="10" stroke-linecap="round" stroke-linejoin="round"/>
<path d="M355.778 283.77C357.976 280.53 360.407 277.428 362.999 274.512C363.369 277.012 363.3 279.581 362.93 282.081C365.082 280.391 367.42 278.933 369.92 277.776C370.012 277.729 370.128 277.706 370.198 277.752C370.29 277.822 370.244 277.961 370.198 278.076C368.554 281.919 366.24 285.483 363.416 288.538" stroke="black" stroke-width="3.87411" stroke-miterlimit="10" stroke-linecap="round" stroke-linejoin="round"/>
<path d="M349.088 272.521C347.862 273.447 347.051 274.975 346.704 275.391C345.686 276.664 344.274 279.21 345.802 280.622C347.144 281.872 348.857 280.808 349.945 279.835C351.704 278.261 353.81 275.947 353.926 273.424C354.111 270.114 351.449 270.716 349.088 272.521Z" stroke="black" stroke-width="3.87411" stroke-miterlimit="10" stroke-linecap="round" stroke-linejoin="round"/>
<path d="M221.114 49.1621C222.086 49.9954 223.035 51.199 223.892 52.6109C227.178 58.0502 229.4 66.9151 229.076 73.2571C229.076 73.3497 229.076 73.4423 229.053 73.5349C229.053 73.8589 229.007 74.2061 228.984 74.507" stroke="black" stroke-width="3.87411" stroke-miterlimit="10" stroke-linecap="round" stroke-linejoin="round"/>
<path d="M134.293 87.1217C133.807 86.4968 133.298 85.9875 132.766 85.5941C129.062 82.724 124.433 84.8071 121.864 88.7882C120.822 90.3853 120.22 92.2601 119.966 94.1581C118.994 101.333 123.16 108.763 129.502 112.096C130.659 112.698 131.909 113.184 133.205 113.485" stroke="black" stroke-width="3.87411" stroke-miterlimit="10" stroke-linecap="round" stroke-linejoin="round"/>
<path d="M129.363 98.0002C131.701 98.3011 133.761 100.153 134.34 102.444" stroke="black" stroke-width="3.87411" stroke-miterlimit="10" stroke-linecap="round" stroke-linejoin="round"/>
<path d="M137.186 151.583C132.974 153.319 128.206 158.203 124.016 163.503C120.591 167.855 117.536 172.507 115.522 175.956C108.555 187.899 110.013 200.537 108.694 213.499C108.509 215.304 108.277 217.11 107.953 218.915" stroke="black" stroke-width="3.87411" stroke-miterlimit="10" stroke-linecap="round" stroke-linejoin="round"/>
<path d="M121.331 125.729C122.072 128.646 122.628 131.539 123.067 134.409C124.827 145.658 124.595 156.166 124.016 163.48C123.993 163.712 123.97 163.943 123.97 164.175" stroke="black" stroke-width="3.87411" stroke-miterlimit="10" stroke-linecap="round" stroke-linejoin="round"/>
<path d="M125.151 116.656C125.289 116.517 125.405 116.378 125.544 116.262" stroke="black" stroke-width="3.87411" stroke-miterlimit="10" stroke-linecap="round" stroke-linejoin="round"/>
<path d="M119.225 121.007C122.003 120.382 123.206 118.693 125.081 116.749" stroke="black" stroke-width="3.87411" stroke-miterlimit="10" stroke-linecap="round" stroke-linejoin="round"/>
<path d="M213.105 44.533C213.105 45.5977 213.082 46.6624 213.082 47.6808C213.082 59.6473 213.545 68.1188 204.356 75.9653C203.754 76.4745 203.106 76.9837 202.435 77.4929" stroke="black" stroke-width="3.87411" stroke-miterlimit="10" stroke-linecap="round" stroke-linejoin="round"/>
<path d="M198.246 52.8655C191.973 63.8367 181.951 72.609 170.285 77.4697C170.1 77.5391 169.915 77.6317 169.73 77.7012C169.336 77.8632 168.943 78.0252 168.526 78.1641C167.832 78.4187 167.137 78.6733 166.443 78.9048" stroke="black" stroke-width="3.87411" stroke-miterlimit="10" stroke-linecap="round" stroke-linejoin="round"/>
<path d="M174.405 63.4202C167.137 69.0215 158.805 73.1878 149.963 75.6413C146.26 76.6828 142.487 77.4235 138.668 77.8401C138.436 77.8864 138.205 77.8864 137.973 77.9327" stroke="black" stroke-width="3.87411" stroke-miterlimit="10" stroke-linecap="round" stroke-linejoin="round"/>
<path d="M149.315 134.756C151.12 137.233 153.342 139.432 155.842 141.191" stroke="black" stroke-width="3.87411" stroke-miterlimit="10" stroke-linecap="round" stroke-linejoin="round"/>
<path d="M125.058 116.726C125.081 116.702 125.104 116.679 125.128 116.656" stroke="black" stroke-width="3.87411" stroke-miterlimit="10" stroke-linecap="round" stroke-linejoin="round"/>
</g>
<defs>
<clipPath id="clip0">
<rect width="505" height="357.791" fill="white"/>
</clipPath>
</defs>
</svg>
