<svg width="703" height="496" viewBox="0 0 703 496" fill="none" xmlns="http://www.w3.org/2000/svg">
<g clip-path="url(#clip0)">
<path d="M410.753 487.684C370.457 489.384 329.636 488.333 289.834 493.032C208.902 502.585 135.238 489.384 83.1898 449.439C-35.3479 358.451 -19.8542 198.518 83.1898 104.128C136.846 55.3723 208.902 14.2837 289.834 4.6995C413.135 -9.86237 523.91 6.33809 617.398 97.3884C669.662 148.278 703 210.73 703 278.16C703 436.331 558.949 476.615 434.69 486.292C426.742 486.911 418.763 487.343 410.753 487.684Z" fill="#F0F3F5"/>
<path fill-rule="evenodd" clip-rule="evenodd" d="M394.549 170.569C389.477 155.574 338.913 135.602 325.925 139.466C317.729 141.909 317.389 153.008 316.833 159.098C316.338 164.385 315.534 170.352 317.42 175.917C319.121 180.926 331.491 193.385 325.77 204.206C324.224 207.112 323.172 208.751 324.904 210.359C327.224 212.554 343.088 217.872 350.108 234.072C354.036 243.193 357.994 244.367 370.674 238.524C373.272 237.318 377.787 234.01 377.972 239.081C378.405 251.571 384.498 261.557 390.343 269.472C394.239 274.79 407.011 289.908 412.918 286.569C422.629 281.128 451.575 262.948 467.657 242.265C476.563 230.826 478.728 214.965 478.14 208.658C477.831 205.319 453.493 206.927 450.802 206.494C438.092 204.423 430.979 198.518 422.907 184.76C414.959 171.249 395.26 172.64 394.549 170.569Z" fill="#FEEDE5"/>
<path fill-rule="evenodd" clip-rule="evenodd" d="M346.707 103.881C343.212 106.818 339.903 110.775 335.233 114.053C330.594 117.361 321.564 125.399 316.802 130.5C312.039 135.602 307.277 141.198 306.998 144.691C306.72 148.185 306.349 152.266 309.07 154.863C311.823 157.46 317.204 162.716 317.204 159.717C317.204 156.718 317.544 150.689 321.193 150.071C324.842 149.452 330.161 151.493 332.048 153.255C333.934 155.018 338.511 162.716 342.903 165.684C347.294 168.621 351.5 171.311 354.593 172.826C357.685 174.341 366.159 177.711 370.272 176.752C374.416 175.794 379.24 172.393 382.426 170.012C385.642 167.632 388.518 166.179 391.116 167.941C393.713 169.703 395.136 169.703 396.466 173.444C397.796 177.154 398.259 180.431 397.301 183.152C395.414 188.624 396.157 189.212 399.404 190.201C409.053 193.076 411.032 192.056 418.732 187.759C421.175 186.398 418.763 188.748 424.392 182.719C430.02 176.69 435.679 160.83 436.267 164.231C437.504 171.249 436.607 178.824 437.442 184.667C439.05 196.075 442.421 204.114 445.947 205.288C452.379 207.422 458.472 206.772 464.533 206.927C473.409 207.174 480.367 207.391 481.913 207.545C485.964 207.916 479.687 202.104 477.398 199.723C464.873 186.8 464.626 175.423 460.884 162.067C458.379 153.132 457.42 147.628 451.575 140.888C443.225 131.304 442.545 128.955 432.587 129.573C428.876 129.82 424.206 120.174 421.33 115.073C417.062 107.529 408.774 99.5835 402.991 98.2541C397.177 96.9556 388.889 91.947 382.116 92.4417C375.344 92.9364 369.592 93.3074 366.004 94.9151C362.448 96.5227 350.201 100.944 346.707 103.881Z" fill="#FF5136"/>
<path fill-rule="evenodd" clip-rule="evenodd" d="M553.691 316.836C550.444 311.673 581.957 293.371 584.926 291.361C587.895 289.351 587.277 289.784 589.07 293.34C590.864 296.895 598.07 307.098 602.121 312.755C606.203 318.413 615.388 331.491 619.006 337.303C622.625 343.116 627.944 353.318 630.603 358.667C633.232 364.016 634.995 369.735 635.397 375.331C635.799 380.927 637.129 383.493 635.088 387.172C633.046 390.852 630.511 392.459 627.232 393.016C623.985 393.572 617.151 394.438 614.089 395.396C611.058 396.355 604.131 398.117 599.554 397.499C594.977 396.88 582.576 394.593 575.958 392.614C569.309 390.604 550.97 384.545 546.517 382.566C542.063 380.587 534.61 376.073 530.868 376.939C527.126 377.805 519.426 381.082 515.839 381.7C512.251 382.318 509.282 381.515 503.685 379.196C498.087 376.877 493.51 375.331 491.933 372.487C490.325 369.643 489.676 367.54 487.356 363.552C485.037 359.564 483.8 356.874 482.284 352.762C480.738 348.65 482.284 348.897 480.522 346.146C478.759 343.425 476.996 342.436 477.955 341.075C478.913 339.715 479.532 339.56 481.666 340.55C483.769 341.539 487.418 343.209 490.696 343.518C494.005 343.796 496.696 344.383 500.005 343.58C503.345 342.776 509.994 340.024 506.19 339.468C502.386 338.911 497.716 338.015 493.665 338.602C489.614 339.189 487.232 340.612 483.521 339.375C479.841 338.169 476.439 335.881 478.388 335.201C480.336 334.521 485.315 333.748 487.48 332.666C489.645 331.584 490.541 329.883 494.098 329.42C497.623 328.956 502.293 329.111 505.664 329.203C509.035 329.296 511.602 329.698 516.117 331.244C520.632 332.79 527.095 334.552 529.631 335.387C532.167 336.19 537.301 338.478 541.754 339.715C546.207 340.952 555.052 344.383 558.918 345.187C562.784 345.991 569.433 347.97 572.061 348.186C574.69 348.403 574.845 346.455 572.309 343.765C569.773 341.075 565.289 333.563 563.031 330.131C560.773 326.73 556.382 321.134 553.691 316.836Z" fill="#FEEDE5"/>
<path fill-rule="evenodd" clip-rule="evenodd" d="M425.041 295.071C425.041 275.748 447.524 265.669 465.492 265.669C479.099 265.669 503.407 287.435 509.035 311.303C509.808 314.58 506.19 322.464 500.747 323.391C495.304 324.35 500.84 337.984 500.84 340.705C500.84 354.215 496.232 350.072 484.944 365.469C476.625 376.846 461.255 369.334 457.018 365.964C449.38 359.873 450.895 352.206 447.926 350.691C439.329 346.331 432.896 336.407 431.845 324.968C431.288 318.63 425.041 300.358 425.041 295.071Z" fill="#FEEDE5"/>
<path fill-rule="evenodd" clip-rule="evenodd" d="M340.398 220.623C342.13 219.726 344.294 217.995 345.81 216.789C346.336 216.387 347.634 214.903 348.438 214.965C349.335 215.027 349.181 217.346 349.119 217.933C348.779 220.407 347.109 224.024 345.16 225.601L340.398 220.623Z" fill="#FFC8BB"/>
<path fill-rule="evenodd" clip-rule="evenodd" d="M477.738 341.539C477.707 339.901 478.511 338.602 478.511 338.602C475.574 342.281 470.069 342.714 466.389 345.28C463.327 347.414 461.255 350.444 457.575 351.866C454.606 353.01 450.555 350.258 448.112 352.577C446.009 354.586 450.648 356.72 452.07 357.307C455.719 358.76 459.925 357.956 463.111 355.761C465.492 354.154 466.389 351.835 468.182 349.856C470.347 347.506 475.45 345.497 478.573 345.157C478.604 345.188 477.769 343.178 477.738 341.539Z" fill="white"/>
<path fill-rule="evenodd" clip-rule="evenodd" d="M351.222 391.316C351.222 388.162 380.601 385.627 416.877 385.627C453.122 385.627 482.532 388.162 482.532 391.316C482.532 394.469 453.152 397.004 416.877 397.004C380.601 397.035 351.222 394.469 351.222 391.316Z" fill="white"/>
<path fill-rule="evenodd" clip-rule="evenodd" d="M482.501 391.316C482.501 392.8 470.378 408.134 459.709 414.503C447.802 421.614 436.731 422.944 417.588 422.944C396.002 422.944 383.539 422.851 371.478 414.905C363.283 409.526 351.222 392.583 351.222 391.316C351.222 391.316 482.501 388.193 482.501 391.316Z" fill="white"/>
<path fill-rule="evenodd" clip-rule="evenodd" d="M60.8925 265.576C60.8925 265.576 72.3659 271.667 72.3659 272.935L115.785 383.308C115.785 384.576 116.126 408.66 116.126 408.66C114.858 408.66 113.837 407.64 113.837 406.403L58.6349 267.864C58.6349 266.597 59.6555 265.576 60.8925 265.576Z" fill="#DFD1CF"/>
<path fill-rule="evenodd" clip-rule="evenodd" d="M118.167 406.465H275.083C275.98 406.465 276.722 407.176 276.722 408.073C276.722 408.969 275.98 409.68 275.083 409.68H118.167C117.27 409.68 116.528 408.969 116.528 408.073C116.528 407.176 117.239 406.465 118.167 406.465Z" fill="#DFD1CF"/>
<path fill-rule="evenodd" clip-rule="evenodd" d="M115.94 406.712L115.909 382.473L251.332 382.164L276.815 406.31L115.94 406.712Z" fill="#DFD1CF"/>
<path fill-rule="evenodd" clip-rule="evenodd" d="M129.269 384.081L192.481 384.019L204.263 402.786H133.537L129.269 384.081Z" fill="#AE9D9D"/>
<path fill-rule="evenodd" clip-rule="evenodd" d="M62.1605 269.008C62.1605 269.008 73.1081 274.821 73.1081 276.026L114.456 381.144C114.456 382.319 114.301 402.755 114.301 401.58L62.0986 271.945C62.0986 270.74 60.9544 269.008 62.1605 269.008Z" fill="#AE9D9D"/>
<path fill-rule="evenodd" clip-rule="evenodd" d="M482.934 340.117C484.325 339.993 490.603 338.973 492.675 338.602C494.716 338.231 496.85 337.675 498.582 339.375C500.283 341.106 502.479 343.363 499.417 343.611C496.356 343.858 489.583 344.26 487.325 343.209C485.037 342.158 481.542 340.272 482.934 340.117Z" fill="white"/>
<path fill-rule="evenodd" clip-rule="evenodd" d="M312.441 325.524C315.255 327.41 343.521 353.999 344.882 355.205C346.243 356.41 344.264 360.213 341.944 363.367C339.625 366.551 334.027 373.507 329.543 375.919C325.059 378.33 319.461 379.722 312.689 380.402C305.885 381.082 304.957 381.175 304.957 381.175C304.957 381.175 286.897 382.813 279.753 382.473C272.609 382.133 261.012 381.515 256.095 382.288C251.178 383.061 249.724 383.834 246.786 385.225C243.848 386.616 239.735 387.018 235.004 387.389C230.272 387.729 225.448 388.595 221.489 389.028C217.531 389.46 214.778 389.275 212.521 387.142C210.294 384.977 208.315 383.184 208.748 380.866C209.181 378.547 204.542 377.156 202.563 376.754C200.583 376.321 191.893 373.816 189.388 375.022C186.883 376.228 180.018 379.072 178.874 381.144C177.76 383.215 174.142 387.853 172.317 388.904C170.524 389.924 164.153 391.223 165.607 388.224C167.06 385.225 168.885 383.741 169.472 381.36C170.06 378.949 168.173 378.269 167.06 380C165.947 381.731 162.761 385.07 160.256 386.369C157.751 387.667 155.525 388.873 153.453 388.44C151.381 388.007 151.474 387.667 153.205 385.936C154.937 384.205 154.411 380.34 156.205 376.723C158.03 373.105 159.823 368.808 161.803 366.737C163.782 364.665 167.648 363.305 170.153 360.986C172.658 358.667 174.358 356.843 176.09 356.781C177.822 356.689 182.554 357.647 185.554 358.234C188.553 358.853 200.46 361.171 204.078 361.604C207.696 362.037 217.871 360.955 221.706 360.151C226.623 359.1 234.447 357.152 238.838 356.874C243.23 356.627 252.446 357.492 256.992 355.761C261.569 354.03 271.527 350.938 276.444 348.526C281.361 346.115 287.794 344.322 291.69 343.271C293.236 342.869 296.329 342.436 298.37 341.292C301.463 339.53 303.596 336.685 305.73 334.243C309.256 330.069 311.668 324.999 312.441 325.524Z" fill="#FEEDE5"/>
<path fill-rule="evenodd" clip-rule="evenodd" d="M378.869 232.743C378.715 235.525 377.849 237.349 378.405 240.379C378.962 243.409 380.601 248.789 382.364 253.426C384.096 258.064 386.168 263.227 389.693 268.483C393.219 273.738 396.28 276.799 399.93 280.447C403.579 284.096 406.826 285.734 408.867 286.414C410.908 287.095 413.197 287.033 414.928 285.178C416.66 283.323 416.011 283.292 417.402 285.951C418.794 288.609 420.186 290.743 421.299 292.072C422.412 293.402 424.825 295.597 425.474 297.915C426.093 300.265 428.041 307.376 428.567 309.88C429.092 312.385 431.999 321.134 432.216 324.04C432.432 326.946 431.35 328.4 433.236 332.573C435.092 336.747 436.731 340.117 439.854 343.549C442.947 346.981 447.06 349.485 444.864 350.072C442.669 350.66 429.773 353.906 426.495 356.318C423.216 358.729 416.722 364.139 415.176 368.561C413.63 372.982 411.836 383.617 411.403 384.792C410.939 385.998 390.528 385.781 388.394 385.781C386.26 385.812 387.25 380.866 386.106 375.826C384.962 370.787 383.632 365.624 381.653 363.367C379.673 361.079 375.282 356.565 372.901 353.628C370.519 350.691 366.87 345.157 364.582 341.941C362.293 338.726 360.963 336.469 359.634 338.819C358.273 341.168 357.252 342.467 354.624 346.208C351.995 349.949 349.397 354.772 347.882 356.348C346.397 357.894 345.686 358.513 341.573 357.245C337.46 355.977 331.058 353.535 327.471 350.351C323.884 347.166 317.08 340.303 315.255 335.356C313.431 330.44 311.606 327.936 312.194 325.586C312.75 323.236 316.4 315.971 317.884 310.777C319.338 305.583 324.162 287.496 327.254 277.696C330.347 267.895 333.903 260.351 337.398 255.281C340.893 250.211 345.81 245.882 349.119 243.687C352.428 241.492 353.603 240.194 355.242 240.905C356.881 241.616 359.664 242.791 362.881 241.43C366.097 240.07 371.138 237.442 374.045 235C376.859 232.65 379.024 229.96 378.869 232.743Z" fill="white"/>
<path fill-rule="evenodd" clip-rule="evenodd" d="M465.956 239.081C467.842 236.391 471.646 229.682 472.852 225.786C474.058 221.891 476.532 215.306 476.934 211.997C477.336 208.689 477.027 207.514 479.841 207.422C482.624 207.329 496.727 207.236 501.304 206.711C505.911 206.216 513.488 207.113 517.076 208.102C520.663 209.091 528.765 211.997 532.755 214.873C536.744 217.779 545.249 225.261 549.145 229.836C553.042 234.443 557.743 239.513 562.227 245.109C566.711 250.705 574.102 259.579 577.009 263.474C579.916 267.37 582.916 272.347 586.009 276.15C589.101 279.953 591.297 280.633 590.091 284.621C588.885 288.61 585.205 295.009 580.009 300.389C574.814 305.799 567.02 310.962 562.32 313.281C557.619 315.569 555.145 317.084 552.547 316.96C549.949 316.868 550.753 316.064 547.568 313.158C544.383 310.282 539.589 305.088 539.868 308.273C540.177 311.457 540.548 318.846 541.569 324.69C542.62 330.533 543.764 336.469 544.321 339.066C544.878 341.663 541.012 339.251 537.796 338.046C534.579 336.84 532.415 336.407 526.941 334.768C521.467 333.13 516.395 331.553 512.375 330.595C508.355 329.636 502.015 329.636 498.768 329.358C495.49 329.111 496.201 326.081 498.211 324.473C500.221 322.865 503.004 323.422 504.984 320.454C506.963 317.517 509.282 316.466 508.942 312.787C508.602 309.107 510.427 308.273 511.695 305.459C512.962 302.646 516.89 301.316 516.241 296.555C515.591 291.794 513.705 282.859 512.468 279.365C511.231 275.841 512.127 276.305 514.942 277.572C517.756 278.84 523.817 279.644 525.642 281.591C527.436 283.57 530.157 277.17 530.652 271.76C531.147 266.38 533.961 264.092 530.404 259.857C526.848 255.621 517.354 256.023 514.849 258.249C512.344 260.475 509.097 265.7 507.829 262.608C506.561 259.517 505.015 253.241 500.53 249.036C496.046 244.831 489.026 240.472 484.202 239.575C479.346 238.741 464.038 241.77 465.956 239.081Z" fill="white"/>
<path fill-rule="evenodd" clip-rule="evenodd" d="M425.196 297.359C425.505 300.172 421.887 293.896 420.34 291.145C418.794 288.362 417.928 287.837 417.526 285.301C417.155 282.766 413.042 287.187 411.588 286.476C410.135 285.796 401.507 282.55 400.177 275.964C398.847 269.379 403.857 257.971 406.022 256.023C412.176 250.551 420.402 254.106 422.629 255.281C424.856 256.425 425.041 259.764 426.587 257.383C428.134 255.003 429.896 249.994 433.113 247.397C436.329 244.769 441.555 243.409 444.339 242.852C447.122 242.327 453.245 240.41 456.4 240.255C459.554 240.101 467.409 239.421 470.625 238.555C473.842 237.72 480.552 238.493 484.14 239.235C487.758 240.008 493.448 241.925 496.294 243.842C499.139 245.759 501.52 247.985 503.221 251.231C504.922 254.446 505.2 256.641 506.283 259.115C507.365 261.588 506.963 257.136 510.179 254.817C513.395 252.499 519.89 248.603 524.25 248.047C528.642 247.521 534.889 249.592 538.198 254.323C541.507 259.084 535.94 279.644 539.002 284.498C541.507 288.486 535.414 290.186 531.518 289.784C527.621 289.382 524.281 287.589 520.601 282.797C516.921 278.005 514.88 277.974 513.272 276.583C511.664 275.192 511.045 276.366 512.715 280.107C514.416 283.879 516.024 285.641 516.55 290.65C517.076 295.659 517.478 298.967 515.096 301.966C512.715 304.965 509.097 311.581 508.324 309.046C507.55 306.51 505.942 302.739 503.314 304.594C500.685 306.449 502.324 308.118 498.149 308.891C494.005 309.664 490.696 308.211 491.995 305.428C493.294 302.646 495.087 300.574 492.613 298.132C490.139 295.659 486.985 293.062 486.305 289.135C485.624 285.209 484.325 279.984 481.913 279.149C479.532 278.314 476.068 275.47 473.842 272.224C471.615 269.008 468.615 264.618 463.915 264.773C459.214 264.927 455.534 265.916 452.163 267.555C448.792 269.163 443.411 272.873 439.854 274.79C436.329 276.706 433.7 277.108 431.566 280.107C429.494 283.075 424.67 292.381 425.196 297.359Z" fill="#FF5136"/>
<path fill-rule="evenodd" clip-rule="evenodd" d="M500.561 342.312C499.386 340.612 498.118 338.231 499.757 338.602C501.396 338.973 508.478 340.395 506.19 341.199C503.932 342.003 501.736 344.013 500.561 342.312Z" fill="white"/>
<path fill-rule="evenodd" clip-rule="evenodd" d="M450.462 350.722C450.214 350.536 450.988 349.609 451.111 349.454C451.792 348.681 452.317 347.506 453.152 346.826C455.565 344.817 459.771 343.147 462.43 346.084C464.224 348.032 460.822 350.289 459.399 351.124C457.235 352.422 453.864 353.35 451.513 351.958C450.957 351.618 450.802 351 450.462 350.722Z" fill="#FFDFAC"/>
<path fill-rule="evenodd" clip-rule="evenodd" d="M369.53 394.376C371.076 393.14 373.519 392.985 375.436 392.799C379.921 392.305 384.838 391.841 389.322 391.81C395.909 391.779 401.63 390.944 408.001 389.708C414.867 388.378 423.402 388.378 430.391 388.997C437.906 389.646 444.122 391.068 451.482 392.614C453.369 393.016 455.317 393.14 457.173 393.665C457.575 393.789 459.09 394.314 458.719 395.026C458.348 395.768 455.75 395.984 455.194 396.077C451.823 396.788 448.421 396.695 444.988 396.911C429.061 397.963 412.887 397.313 396.93 397.066C390.435 396.973 384.219 396.881 377.756 396.169C375.313 395.891 373.179 395.397 370.767 395.056C370.117 394.933 368.756 395.026 369.53 394.376Z" fill="#FFDFAC"/>
<path fill-rule="evenodd" clip-rule="evenodd" d="M410.321 384.761C410.97 382.349 414.124 371.992 414.743 369.674C415.361 367.355 418.763 361.666 421.825 359.656C424.886 357.647 430.886 354.277 434.69 353.009C438.494 351.742 442.39 350.783 444.71 350.041C447.029 349.299 449.689 350.876 448.514 352.051C447.338 353.195 446.72 354.153 448.823 355.328C450.926 356.503 451.266 357.43 452.317 359.44C453.369 361.45 455.379 364.82 458.533 366.736C461.688 368.622 467.409 371.807 471.399 371.065C475.419 370.323 480.491 369.581 482.686 367.262C484.913 364.943 485.655 360.522 486.799 362.717C487.975 364.943 489.768 366.304 490.294 368.715C490.82 371.158 492.737 373.785 495.149 375.146C497.592 376.506 504.334 380.123 508.88 380.958C513.426 381.793 515.437 382.535 519.952 380.433C524.498 378.33 530.095 376.321 533.466 376.413C536.837 376.506 537.054 379.041 540.424 379.783C543.795 380.525 559.815 387.234 562.938 388.471C566.062 389.708 566 391.223 568.567 396.138C571.164 401.054 577.411 414.163 578.71 419.728C580.04 425.262 580.535 430.394 580.535 430.394L467.997 408.536C467.997 408.536 470.069 406.496 473.254 402.847C476.439 399.199 479.934 395.18 481.14 393.109C482.377 391.037 480.924 389.275 477.584 388.657C474.275 388.038 450.122 386.09 445.792 385.905C426.835 385.101 409.671 387.203 410.321 384.761Z" fill="#FF5136"/>
<path d="M322.213 185.161C321.811 185.161 321.409 184.945 321.193 184.543C320.605 183.492 320.018 182.533 319.399 181.575C317.915 179.194 316.523 176.968 315.657 173.969C314.73 170.878 314.977 167.817 315.224 164.88C315.41 162.747 315.565 160.737 315.317 158.727C315.224 158.078 315.688 157.491 316.338 157.398C316.987 157.305 317.575 157.769 317.667 158.418C317.946 160.675 317.76 162.901 317.575 165.065C317.327 167.91 317.111 170.6 317.915 173.289C318.719 175.979 320.018 178.081 321.409 180.338C321.997 181.328 322.646 182.317 323.265 183.399C323.574 183.956 323.358 184.698 322.801 185.007C322.616 185.1 322.399 185.161 322.213 185.161Z" fill="#1D1D2E"/>
<path d="M330.935 214.965C330.842 214.965 330.718 214.935 330.625 214.904C330.563 214.873 324.502 213.11 323.512 209.184C323.141 207.669 323.822 206.402 324.533 205.072C325.554 203.155 326.976 200.496 326.358 195.302C326.296 194.653 326.76 194.066 327.378 194.004C328.028 193.942 328.615 194.406 328.677 195.024C329.357 200.96 327.687 204.114 326.574 206.185C325.956 207.36 325.615 208.009 325.77 208.628C326.265 210.606 329.728 212.214 331.244 212.647C331.862 212.832 332.233 213.481 332.048 214.1C331.924 214.625 331.429 214.965 330.935 214.965Z" fill="#1D1D2E"/>
<path d="M358.891 243.316C358.366 243.316 357.902 243.285 357.469 243.192C353.912 242.605 352.768 240.379 351.655 238.184C351.098 237.071 350.51 235.958 349.583 234.969C349.15 234.505 349.181 233.763 349.645 233.299C350.108 232.866 350.882 232.897 351.315 233.361C352.459 234.598 353.139 235.927 353.758 237.133C354.778 239.142 355.459 240.503 357.84 240.874C362.695 241.647 373.736 236.978 382.055 224.457C382.395 223.931 383.137 223.777 383.694 224.117C384.219 224.488 384.374 225.199 384.034 225.755C375.715 238.246 364.891 243.316 358.891 243.316Z" fill="#1D1D2E"/>
<path d="M354.067 165.282C348.222 165.282 343.181 161.727 337.893 158.017C334.986 155.976 331.955 153.843 328.677 152.235C326.883 151.369 320.884 150.256 318.441 151.864C317.76 152.297 317.482 152.884 317.513 153.75C317.544 154.399 317.049 154.956 316.4 154.987C315.75 155.018 315.193 154.523 315.163 153.874C315.07 152.173 315.781 150.813 317.142 149.916C320.574 147.69 327.502 149.082 329.698 150.164C333.13 151.833 336.254 154.028 339.223 156.131C345.779 160.737 351.438 164.695 358.489 162.129C360.314 161.479 362.077 159.81 363.901 158.047C365.602 156.44 367.489 154.616 369.808 153.224C370.365 152.884 371.076 153.07 371.416 153.626C371.756 154.183 371.571 154.925 371.014 155.234C368.942 156.471 367.21 158.109 365.54 159.717C363.499 161.665 361.582 163.489 359.293 164.324C357.5 164.973 355.768 165.282 354.067 165.282Z" fill="#1D1D2E"/>
<path d="M309.41 157.151C309.07 157.151 308.73 156.996 308.514 156.718C305.916 153.564 304.864 150.287 305.266 146.701C306.225 138.168 315.317 127.811 335.697 112.043C336.223 111.641 336.934 111.734 337.336 112.259C337.738 112.785 337.645 113.527 337.12 113.898C317.575 129.016 308.452 139.219 307.586 146.948C307.246 149.885 308.142 152.606 310.307 155.203C310.709 155.698 310.647 156.44 310.153 156.872C309.936 157.058 309.658 157.151 309.41 157.151Z" fill="#1D1D2E"/>
<path fill-rule="evenodd" clip-rule="evenodd" d="M332.203 190.758C331.491 189.274 331.893 187.604 333.099 187.048C334.275 186.491 335.821 187.233 336.532 188.717C337.243 190.201 336.841 191.871 335.666 192.427C334.429 192.984 332.914 192.242 332.203 190.758Z" fill="#1D1D2E"/>
<path d="M325.43 182.07C325.182 182.07 324.904 181.977 324.688 181.822C324.193 181.42 324.1 180.678 324.502 180.184C326.667 177.463 331.244 175.237 335.45 176.474C336.068 176.659 336.439 177.309 336.254 177.927C336.068 178.545 335.419 178.916 334.8 178.731C331.367 177.741 327.78 179.844 326.358 181.668C326.11 181.915 325.77 182.07 325.43 182.07Z" fill="#1D1D2E"/>
<path d="M367.241 178.174C363.004 178.174 358.953 176.443 355.335 174.743C354.747 174.464 354.5 173.753 354.778 173.166C355.056 172.578 355.768 172.331 356.355 172.609C360.901 174.773 366.19 176.938 371.354 175.114C371.973 174.897 372.653 175.206 372.87 175.825C373.086 176.443 372.777 177.123 372.158 177.34C370.488 177.896 368.849 178.174 367.241 178.174Z" fill="#1D1D2E"/>
<path d="M345.47 226.528C345.129 226.528 344.789 226.374 344.542 226.095C344.14 225.57 344.233 224.859 344.727 224.426C346.428 223.066 347.665 219.974 347.944 217.748C348.005 217.346 348.005 216.82 347.975 216.418C347.665 216.666 347.263 217.037 347.078 217.222C346.861 217.408 346.676 217.593 346.552 217.686L346.366 217.841C344.913 219.015 343.429 220.221 341.666 221.118C341.078 221.427 340.367 221.18 340.089 220.623C339.779 220.036 340.027 219.325 340.583 219.046C342.13 218.242 343.49 217.16 344.882 216.016L345.068 215.862C345.16 215.769 345.315 215.645 345.47 215.522C346.521 214.532 347.511 213.729 348.531 213.79C348.995 213.821 349.428 214.038 349.737 214.409C350.603 215.46 350.356 217.624 350.294 218.057C349.954 220.716 348.5 224.426 346.212 226.25C345.964 226.466 345.717 226.528 345.47 226.528Z" fill="#1D1D2E"/>
<path d="M387.559 195.55C387.034 195.55 386.57 195.209 386.415 194.684C386.26 194.066 386.631 193.416 387.25 193.231C393.25 191.623 396.528 184.852 396.59 179.287C396.62 173.877 393.93 169.889 389.353 168.559C387.405 168.003 384.065 169.61 382.085 172.084C381.25 173.135 380.013 175.175 381.065 177.061C381.374 177.618 381.189 178.36 380.601 178.669C380.044 178.978 379.302 178.762 378.993 178.205C377.725 175.948 378.189 173.197 380.23 170.631C382.487 167.786 386.755 165.375 389.971 166.302C395.631 167.91 398.971 172.764 398.94 179.287C398.878 185.873 395.074 193.54 387.869 195.457C387.776 195.519 387.683 195.55 387.559 195.55Z" fill="#1D1D2E"/>
<path d="M385.518 186.244C385.425 186.244 385.302 186.213 385.209 186.213C384.59 186.027 384.219 185.378 384.405 184.76C385.302 181.606 387.281 179.287 390.652 177.401C391.208 177.092 391.951 177.278 392.26 177.865C392.569 178.422 392.384 179.164 391.796 179.473C389.013 181.019 387.374 182.905 386.662 185.409C386.508 185.903 386.044 186.244 385.518 186.244Z" fill="#1D1D2E"/>
<path d="M393.714 247.49C393.25 247.49 392.817 247.242 392.631 246.779C390.652 242.358 388.673 239.142 385.766 235.68L385.116 234.907C383.446 232.897 382.147 231.289 379.735 231.289C379.086 231.289 378.56 230.764 378.56 230.115C378.56 229.465 379.086 228.94 379.735 228.94C383.23 228.94 385.116 231.228 386.91 233.423L387.528 234.196C390.59 237.813 392.693 241.214 394.765 245.851C395.012 246.439 394.765 247.15 394.177 247.397C394.023 247.459 393.868 247.49 393.714 247.49Z" fill="#1D1D2E"/>
<path d="M450.926 208.195C450.833 208.195 450.74 208.195 450.647 208.164C446.503 207.174 441.122 205.659 436.329 202.691C430.051 198.827 425.474 191.221 421.794 185.1L421.608 184.76C421.268 184.203 421.454 183.492 422.01 183.152C422.567 182.812 423.278 182.997 423.619 183.554L423.835 183.894C427.36 189.799 431.783 197.157 437.566 200.713C442.05 203.464 447.215 204.917 451.204 205.876C451.823 206.03 452.225 206.68 452.07 207.298C451.946 207.824 451.482 208.195 450.926 208.195Z" fill="#1D1D2E"/>
<path d="M298.153 342.807C297.813 342.807 297.473 342.652 297.226 342.374C296.824 341.879 296.886 341.137 297.411 340.705C310.616 330.007 316.183 312.477 317.575 307.345C318.348 304.532 319.214 301.718 320.049 298.967C320.915 296.122 321.842 293.185 322.646 290.248C327.966 270.492 333.439 250.118 353.51 240.07C354.098 239.761 354.809 240.008 355.087 240.596C355.397 241.183 355.149 241.863 354.562 242.172C335.45 251.726 330.1 271.605 324.904 290.805C324.1 293.804 323.172 296.772 322.275 299.647C321.44 302.368 320.574 305.15 319.801 307.933C318.379 313.219 312.596 331.337 298.865 342.467C298.679 342.714 298.401 342.807 298.153 342.807Z" fill="#1D1D2E"/>
<path d="M342.563 358.636C342.501 358.636 342.439 358.636 342.377 358.605C326.141 356.07 313.709 340.086 311.049 326.142C310.926 325.524 311.359 324.906 311.977 324.782C312.627 324.658 313.245 325.091 313.338 325.71C316.152 340.488 329.326 354.184 342.717 356.287C343.367 356.379 343.8 356.998 343.707 357.647C343.614 358.234 343.119 358.636 342.563 358.636Z" fill="#1D1D2E"/>
<path d="M345.315 359.224C345.006 359.224 344.696 359.193 344.356 359.1C343.738 358.914 343.367 358.265 343.552 357.647C343.738 357.029 344.387 356.657 345.006 356.843C346.583 357.307 348.5 353.72 349.644 351.587C350.108 350.752 350.479 350.041 350.851 349.516C351.345 348.805 351.871 348.124 352.397 347.444C352.644 347.135 352.861 346.826 353.108 346.517C353.665 345.775 354.036 345.28 354.283 344.971C354.469 344.6 354.809 344.167 355.211 343.611C355.489 343.24 355.768 342.869 356.046 342.498C357.036 341.168 357.963 339.901 358.706 338.509C359.015 337.922 359.726 337.705 360.283 338.015C360.87 338.324 361.087 339.035 360.778 339.591C359.974 341.137 358.922 342.528 357.933 343.858C357.654 344.229 357.376 344.6 357.128 344.971C356.943 345.218 356.819 345.404 356.696 345.558C356.634 345.651 356.572 345.744 356.51 345.867L356.541 345.898C356.479 345.96 356.417 346.053 356.355 346.115C356.046 346.579 355.613 347.166 354.995 347.939C354.747 348.248 354.5 348.557 354.252 348.897C353.758 349.547 353.263 350.196 352.799 350.845C352.521 351.278 352.119 351.989 351.716 352.731C350.201 355.483 348.191 359.224 345.315 359.224Z" fill="#1D1D2E"/>
<path d="M324.533 379.938C323.976 379.938 323.481 379.536 323.389 378.98C323.265 378.33 323.698 377.712 324.316 377.588C326.048 377.248 330.502 374.157 332.233 372.58C335.944 369.272 339.006 365.005 341.975 360.862C342.161 360.584 342.408 360.089 342.655 359.595C342.934 358.976 343.243 358.358 343.614 357.833C343.985 357.307 344.696 357.152 345.253 357.493C345.779 357.864 345.933 358.575 345.593 359.131C345.346 359.533 345.068 360.09 344.82 360.615C344.542 361.203 344.263 361.79 343.954 362.223C341.047 366.242 337.769 370.818 333.872 374.311C332.295 375.703 327.316 379.382 324.811 379.876C324.688 379.907 324.626 379.938 324.533 379.938Z" fill="#1D1D2E"/>
<path d="M321.069 364.541C320.729 364.541 320.42 364.418 320.172 364.139C318.069 361.697 316.554 358.915 315.101 356.194C312.967 352.236 310.957 348.496 307.307 345.991C301.679 342.127 294.04 343.642 288.01 345.373C283.155 346.764 278.299 348.836 273.599 350.814C266.517 353.813 259.187 356.905 251.487 357.987C250.837 358.08 250.25 357.616 250.157 356.998C250.064 356.348 250.497 355.761 251.147 355.668C258.538 354.648 265.713 351.587 272.671 348.681C277.433 346.671 282.35 344.6 287.329 343.147C293.824 341.261 302.143 339.653 308.606 344.074C312.75 346.919 314.977 351.093 317.142 355.112C318.533 357.709 319.987 360.399 321.935 362.655C322.368 363.15 322.306 363.892 321.811 364.325C321.595 364.418 321.348 364.541 321.069 364.541Z" fill="#1D1D2E"/>
<path d="M274.897 383.834C272.392 383.834 269.857 383.741 267.383 383.617C263.702 383.463 259.899 383.308 256.187 383.493C255.538 383.524 254.981 383.03 254.95 382.38C254.92 381.731 255.414 381.175 256.064 381.144C259.868 380.927 263.733 381.082 267.475 381.237C270.135 381.329 272.887 381.453 275.547 381.422C283.99 381.36 292.618 380.866 301.988 379.907C303.349 379.753 304.71 379.66 306.101 379.536C310.524 379.165 315.101 378.763 319.307 377.557C319.925 377.372 320.574 377.743 320.76 378.361C320.946 378.98 320.574 379.629 319.956 379.814C315.503 381.082 310.833 381.484 306.287 381.886C304.926 382.009 303.565 382.102 302.205 382.257C292.772 383.246 284.051 383.741 275.547 383.803C275.33 383.834 275.114 383.834 274.897 383.834Z" fill="#1D1D2E"/>
<path d="M220.066 390.481C219.51 390.481 218.953 390.45 218.396 390.388L218.025 390.357C216.757 390.202 215.273 390.048 214.036 389.522C212.057 388.718 208.16 385.843 207.665 382.628C207.511 381.546 207.665 379.969 209.366 378.578C211.315 377.001 213.665 376.815 215.737 376.661C216.819 376.568 217.84 376.506 218.798 376.259C220.87 375.702 222.664 374.744 224.612 373.724C226.19 372.889 227.829 372.023 229.653 371.374C230.272 371.158 230.921 371.467 231.169 372.085C231.385 372.703 231.076 373.384 230.457 373.6C228.818 374.187 227.334 374.96 225.726 375.826C223.778 376.846 221.736 377.928 219.417 378.547C218.273 378.856 217.067 378.949 215.922 379.041C214.036 379.196 212.242 379.32 210.882 380.433C209.985 381.175 209.954 381.855 210.016 382.319C210.294 384.266 213.17 386.678 214.964 387.389C215.922 387.791 217.221 387.945 218.335 388.069L218.706 388.1C221.025 388.378 223.623 387.884 226.097 387.389C227.21 387.173 228.354 386.956 229.468 386.802C231.261 386.554 233.055 386.4 234.818 386.245C238.003 385.967 241.312 385.658 244.405 384.854C246.013 384.452 247.528 383.493 249.013 382.566C249.477 382.288 249.91 382.009 250.343 381.731C250.899 381.391 251.61 381.577 251.951 382.133C252.291 382.69 252.105 383.432 251.549 383.741C251.116 383.988 250.683 384.266 250.25 384.545C248.611 385.565 246.941 386.585 244.992 387.111C241.683 387.976 238.313 388.255 235.003 388.564C233.272 388.718 231.509 388.873 229.777 389.12C228.757 389.275 227.674 389.46 226.53 389.677C224.396 390.048 222.231 390.481 220.066 390.481Z" fill="#1D1D2E"/>
<path d="M155.772 379.165C155.587 379.165 155.37 379.103 155.185 379.011C154.628 378.67 154.442 377.959 154.752 377.403C155.401 376.259 155.989 374.96 156.607 373.569C157.782 370.879 159.019 368.097 161.03 366.149C162.885 364.356 165.112 362.965 167.215 361.635C168.452 360.831 169.627 360.12 170.74 359.286C171.049 359.038 171.482 358.667 171.915 358.265C173.245 357.06 174.884 355.545 176.585 355.452C178.162 355.359 179.77 355.761 181.348 356.163C182.09 356.348 182.801 356.534 183.42 356.627C185.863 357.029 188.368 357.554 190.749 358.08C196.532 359.286 202.501 360.553 208.407 360.368C214.531 360.182 220.654 358.976 226.592 357.833C233.364 356.503 240.354 355.174 247.435 355.235C248.085 355.235 248.611 355.792 248.58 356.441C248.58 357.09 248.054 357.585 247.405 357.585C247.405 357.585 247.405 357.585 247.374 357.585C240.539 357.461 233.674 358.822 227.025 360.151C220.994 361.326 214.778 362.563 208.469 362.748C202.284 362.934 196.161 361.635 190.254 360.399C187.873 359.904 185.399 359.378 182.987 358.976C182.275 358.853 181.533 358.667 180.729 358.451C179.337 358.08 177.884 357.709 176.678 357.802C175.812 357.863 174.389 359.131 173.462 359.997C172.967 360.46 172.503 360.862 172.101 361.172C170.926 362.037 169.658 362.841 168.421 363.614C166.38 364.882 164.277 366.211 162.607 367.85C160.937 369.457 159.823 372.023 158.71 374.497C158.092 375.888 157.473 377.341 156.762 378.578C156.576 378.949 156.205 379.165 155.772 379.165Z" fill="#1D1D2E"/>
<path d="M154.009 389.831C152.803 389.831 151.721 389.522 151.195 388.595C150.298 386.956 151.814 385.719 152.463 385.163C152.618 385.039 152.772 384.915 152.865 384.823C154.504 383.03 155.927 380.989 157.226 379.072C160.04 374.898 163.936 371.776 167.709 368.777C168.544 368.097 169.379 367.447 170.214 366.767C170.647 366.396 171.08 365.963 171.544 365.469C172.317 364.665 173.121 363.83 174.111 363.243C175.843 362.253 178.255 362.068 180.389 361.944C181.255 361.882 182.059 361.851 182.708 361.728C183.327 361.635 183.945 361.48 184.564 361.357C185.77 361.079 187.007 360.8 188.306 360.8C188.955 360.8 189.481 361.326 189.45 362.006C189.45 362.655 188.893 363.15 188.244 363.181C187.254 363.119 186.203 363.397 185.09 363.676C184.409 363.83 183.729 363.985 183.049 364.108C182.306 364.232 181.44 364.294 180.544 364.325C178.657 364.448 176.554 364.572 175.286 365.314C174.575 365.716 173.925 366.396 173.245 367.138C172.75 367.633 172.255 368.159 171.699 368.622C170.864 369.302 170.029 369.983 169.163 370.663C165.359 373.693 161.772 376.568 159.143 380.433C157.782 382.442 156.298 384.575 154.535 386.492C154.381 386.678 154.133 386.863 153.886 387.08C153.762 387.203 153.515 387.389 153.36 387.543C153.948 387.636 155.308 387.513 156.731 387.08C159.885 386.152 162.174 383.802 164.617 381.329C165.916 380 167.276 378.608 168.761 377.465C169.287 377.063 169.998 377.155 170.4 377.681C170.802 378.207 170.709 378.949 170.183 379.32C168.823 380.371 167.586 381.638 166.287 382.968C163.751 385.565 161.122 388.255 157.38 389.337C156.514 389.553 155.185 389.831 154.009 389.831Z" fill="#1D1D2E"/>
<path d="M167.524 390.975C167.122 390.975 166.689 390.945 166.287 390.883C165.143 390.697 164.679 390.017 164.493 389.615C163.906 388.347 164.741 386.863 165.019 386.462C165.514 385.689 166.039 384.978 166.565 384.297C167.184 383.463 167.771 382.69 168.266 381.855C168.483 381.515 168.637 381.113 168.823 380.711C169.225 379.814 169.689 378.794 170.462 378.052C173.492 375.115 176.987 372.487 180.915 369.612C181.348 369.303 181.842 368.87 182.337 368.406C183.42 367.448 184.657 366.366 186.048 365.871C188.275 365.098 190.625 365.036 192.883 364.974C194.646 364.943 196.285 364.882 197.862 364.541C198.48 364.418 199.13 364.789 199.253 365.438C199.408 366.056 199.006 366.706 198.357 366.829C196.563 367.231 194.707 367.293 192.914 367.324C190.749 367.386 188.677 367.417 186.79 368.066C185.863 368.375 184.842 369.272 183.883 370.137C183.358 370.601 182.832 371.096 182.275 371.467C178.41 374.28 174.977 376.846 172.07 379.691C171.606 380.124 171.266 380.897 170.957 381.608C170.74 382.071 170.524 382.535 170.307 382.968C169.75 383.926 169.07 384.823 168.452 385.658C167.926 386.338 167.462 386.987 167.029 387.667C166.813 388.007 166.72 388.317 166.689 388.502C170.647 389.059 174.235 385.41 176.894 382.164C177.204 381.793 177.451 381.422 177.729 381.051C178.502 380 179.276 378.887 180.605 378.114C183.048 376.692 189.234 373.446 193.625 374.064C196.656 374.497 199.686 375.115 202.593 375.733C203.83 375.981 205.098 376.259 206.366 376.506C207.016 376.63 207.418 377.248 207.294 377.898C207.17 378.547 206.552 378.949 205.902 378.825C204.635 378.578 203.367 378.3 202.13 378.052C199.253 377.434 196.254 376.815 193.316 376.414C189.543 375.888 183.543 379.165 181.811 380.185C180.915 380.711 180.327 381.515 179.647 382.473C179.337 382.875 179.059 383.308 178.719 383.71C176.832 385.936 172.688 390.975 167.524 390.975Z" fill="#1D1D2E"/>
<path d="M552.702 318.29C552.454 318.29 552.176 318.29 551.929 318.259C549.331 317.981 547.785 316.187 546.455 314.611C546.146 314.24 545.836 313.9 545.527 313.559C543.362 311.272 540.919 308.922 537.641 307.283C537.053 307.005 536.806 306.294 537.115 305.707C537.394 305.119 538.105 304.903 538.693 305.181C542.311 307.005 545.032 309.633 547.228 311.952C547.568 312.323 547.908 312.694 548.218 313.096C549.455 314.518 550.506 315.755 552.176 315.94C554.588 316.218 557.774 314.487 560.371 313.096C560.99 312.787 561.547 312.477 562.072 312.199C571.597 307.438 579.793 300.389 584.555 292.876C584.803 292.505 585.05 292.103 585.328 291.701C587.153 288.919 589.658 285.116 588.916 282.241C588.545 280.695 586.844 278.84 585.359 277.17C584.493 276.212 583.658 275.284 583.071 274.419C579.545 269.255 574.814 262.485 569.711 256.054C562.845 247.366 555.918 239.235 549.145 231.846L547.599 230.146C542.898 224.952 538.043 219.603 532.136 215.955C525.271 211.75 516.364 208.72 509.375 208.256C504.025 207.885 498.613 208.164 493.356 208.411C489.923 208.596 486.336 208.751 482.81 208.751C478.14 208.751 473.316 208.535 468.677 208.318C464.1 208.102 459.368 207.916 454.822 207.916C454.173 207.916 453.647 207.391 453.647 206.741C453.647 206.092 454.173 205.567 454.822 205.567C459.43 205.567 464.162 205.783 468.77 205.969C473.378 206.185 478.171 206.401 482.779 206.401C486.274 206.401 489.799 206.216 493.201 206.061C498.52 205.814 503.994 205.536 509.499 205.907C516.828 206.401 526.168 209.555 533.311 213.945C539.497 217.748 544.476 223.251 549.3 228.538L550.846 230.238C557.65 237.689 564.608 245.882 571.505 254.601C576.638 261.093 581.401 267.895 584.957 273.089C585.452 273.831 586.225 274.697 587.06 275.593C588.73 277.448 590.647 279.551 591.173 281.653C592.132 285.518 589.318 289.815 587.246 292.969C586.967 293.371 586.72 293.773 586.503 294.113C581.432 302.12 573.113 309.293 563.093 314.301C562.598 314.549 562.041 314.858 561.454 315.167C558.856 316.558 555.64 318.29 552.702 318.29Z" fill="#1D1D2E"/>
<path d="M635.428 387.976C635.242 387.976 635.088 387.945 634.902 387.853C634.314 387.574 634.098 386.863 634.376 386.276C634.964 385.07 634.871 383.37 634.778 381.731C634.747 381.113 634.716 380.525 634.716 379.969C634.716 371.312 631.469 363.552 628.16 356.317C620.769 340.21 610.285 325.926 600.173 312.106C597.358 308.273 594.42 304.284 591.606 300.296C590.462 298.719 589.596 296.988 588.761 295.318C588.019 293.865 587.338 292.474 586.503 291.237C586.132 290.712 586.287 289.97 586.813 289.599C587.369 289.228 588.081 289.382 588.452 289.939C589.38 291.33 590.122 292.814 590.864 294.267C591.668 295.844 592.503 297.513 593.524 298.967C596.338 302.924 599.245 306.912 602.059 310.746C612.265 324.658 622.81 339.035 630.294 355.359C633.727 362.81 637.067 370.848 637.067 379.969C637.067 380.494 637.098 381.051 637.129 381.607C637.221 383.462 637.345 385.565 636.448 387.327C636.263 387.729 635.861 387.976 635.428 387.976Z" fill="#1D1D2E"/>
<path d="M573.7 346.702C573.329 346.702 572.958 346.517 572.711 346.177C571.752 344.755 570.701 343.363 569.649 342.034C568.474 340.519 567.268 338.942 566.185 337.273C565.134 335.634 564.113 333.965 563.093 332.295C560.248 327.596 557.341 322.773 553.475 318.908C553.011 318.444 553.011 317.702 553.475 317.238C553.939 316.775 554.681 316.775 555.145 317.238C559.196 321.319 562.196 326.266 565.103 331.089C566.093 332.759 567.113 334.397 568.134 336.005C569.154 337.582 570.36 339.128 571.505 340.612C572.556 341.972 573.669 343.394 574.659 344.878C575.03 345.435 574.876 346.146 574.319 346.517C574.164 346.64 573.917 346.702 573.7 346.702Z" fill="#1D1D2E"/>
<path d="M578.803 349.701C568.783 349.701 557.959 346.486 548.62 343.147C546.981 342.559 545.249 342.034 543.579 341.477C541.198 340.735 538.724 339.931 536.342 339.004C535.724 338.757 535.445 338.076 535.693 337.458C535.94 336.84 536.621 336.562 537.208 336.809C539.497 337.705 541.94 338.478 544.29 339.22C545.991 339.746 547.723 340.302 549.424 340.89C564.237 346.177 582.823 351.185 595.224 342.93C595.781 342.559 596.492 342.714 596.863 343.24C597.235 343.796 597.08 344.507 596.554 344.878C591.359 348.372 585.235 349.701 578.803 349.701Z" fill="#1D1D2E"/>
<path d="M600.915 398.426C590.029 398.426 579.947 395.242 570.113 392.119C562.072 389.584 554.094 386.523 546.424 383.586C543.61 382.504 540.796 381.422 537.981 380.371C537.363 380.154 537.054 379.474 537.301 378.856C537.548 378.238 538.229 377.928 538.816 378.176C541.661 379.227 544.476 380.309 547.29 381.391C554.959 384.328 562.876 387.358 570.855 389.893C584.091 394.098 597.791 398.426 613.1 394.623C616.532 393.758 619.996 393.109 623.367 392.428C624.697 392.181 626.026 391.903 627.387 391.625C628.5 391.408 631.84 390.728 632.49 388.966C632.706 388.347 633.387 388.038 634.005 388.286C634.624 388.502 634.933 389.182 634.686 389.8C633.696 392.49 630.294 393.449 627.851 393.943C626.521 394.222 625.161 394.469 623.831 394.747C620.491 395.396 617.058 396.077 613.687 396.911C609.265 397.963 605.028 398.426 600.915 398.426Z" fill="#1D1D2E"/>
<path d="M485.593 340.952C485.16 340.952 484.727 340.921 484.294 340.89C482.377 340.674 478.79 339.653 477.46 337.149C476.934 336.191 477.089 335.449 477.274 334.985C477.8 333.841 479.223 333.532 480.181 333.315L481.326 333.068C483.923 332.481 486.614 331.862 488.902 330.657C489.212 330.502 489.552 330.255 489.892 329.976C490.48 329.544 491.129 329.049 491.871 328.802C493.418 328.245 495.366 328.276 497.067 328.276C497.716 328.276 498.304 328.276 498.86 328.245L499.634 328.214C503.499 328.029 507.489 327.812 511.447 328.678C513.334 329.111 515.158 329.791 516.89 330.471C518.251 330.997 519.55 331.491 520.849 331.862C522.024 332.202 523.199 332.481 524.374 332.79C526.786 333.408 529.26 334.057 531.642 334.954C532.26 335.201 532.538 335.851 532.322 336.469C532.075 337.087 531.425 337.397 530.807 337.149C528.549 336.283 526.137 335.665 523.786 335.078C522.58 334.769 521.405 334.459 520.199 334.119C518.777 333.717 517.385 333.161 516.024 332.666C514.292 331.986 512.622 331.368 510.89 330.966C507.241 330.162 503.592 330.347 499.695 330.533L498.922 330.564C498.335 330.595 497.685 330.595 497.005 330.595C495.49 330.595 493.758 330.595 492.583 330.997C492.15 331.151 491.717 331.491 491.222 331.831C490.82 332.141 490.387 332.45 489.923 332.697C487.356 334.088 484.511 334.707 481.759 335.356L480.583 335.603C480.305 335.665 479.687 335.789 479.408 335.943C479.408 335.974 479.439 335.974 479.439 336.005C480.12 337.304 482.532 338.293 484.449 338.51C486.243 338.726 488.315 338.293 490.294 337.891C491.315 337.675 492.366 337.458 493.387 337.335C496.541 336.933 499.634 337.366 502.633 337.768C503.809 337.922 504.984 338.108 506.159 338.2C506.808 338.262 507.272 338.85 507.21 339.499C507.148 340.148 506.592 340.612 505.911 340.55C504.705 340.426 503.499 340.272 502.293 340.086C499.324 339.684 496.541 339.282 493.665 339.653C492.737 339.777 491.778 339.963 490.758 340.179C489.15 340.581 487.356 340.952 485.593 340.952Z" fill="#1D1D2E"/>
<path d="M510.303 357.863C510.21 357.863 510.117 357.863 510.025 357.832C507.21 357.152 504.149 357.152 501.211 357.152C495.861 357.152 490.294 357.152 485.624 353.195C482.501 350.536 480.212 347.723 477.955 344.847C477.553 344.322 476.408 342.467 476.718 340.921C476.841 340.272 477.182 339.746 477.738 339.406C479.563 338.293 482.006 339.468 483.46 340.179L483.862 340.364C486.985 341.817 489.645 342.776 492.521 342.838C501.056 342.961 508.138 339.406 515.653 335.572L516.302 336.562L516.704 337.675C508.942 341.632 501.644 345.404 492.459 345.187C489.15 345.126 486.243 344.074 482.841 342.498L482.408 342.281C481.511 341.848 479.656 340.952 478.913 341.385C478.883 341.632 479.315 342.776 479.779 343.394C481.944 346.177 484.14 348.897 487.109 351.402C493.541 356.843 502.293 353.566 510.55 355.545C511.169 355.699 511.571 356.348 511.416 356.967C511.292 357.492 510.829 357.863 510.303 357.863Z" fill="#1D1D2E"/>
<path d="M507.705 366.489C507.674 366.489 507.612 366.489 507.581 366.489C501.18 365.871 495.087 364.294 490.016 361.882C489.614 361.697 489.212 361.542 488.81 361.357C487.48 360.8 486.088 360.213 484.944 359.1C481.975 356.132 480.398 350.041 479.965 348.248C479.81 347.63 480.212 346.98 480.862 346.857C481.48 346.702 482.13 347.104 482.253 347.753C483.027 351.123 484.573 355.452 486.583 357.461C487.387 358.234 488.5 358.729 489.676 359.224C490.108 359.409 490.572 359.595 491.005 359.78C495.83 362.068 501.644 363.583 507.798 364.17C508.447 364.232 508.911 364.789 508.849 365.469C508.788 366.025 508.293 366.489 507.705 366.489Z" fill="#1D1D2E"/>
<path d="M507.86 374.435C507.767 374.435 507.705 374.435 507.612 374.404C506.499 374.157 505.324 373.971 504.149 373.755C499.293 372.858 494.283 371.962 490.232 369.303C487.944 367.788 486.305 364.232 485.129 361.635L484.758 360.831C484.48 360.244 484.727 359.533 485.315 359.255C485.903 358.976 486.614 359.255 486.892 359.811L487.263 360.646C488.253 362.841 489.799 366.18 491.5 367.324C495.18 369.736 499.943 370.601 504.551 371.436C505.757 371.652 506.932 371.869 508.076 372.116C508.695 372.24 509.128 372.858 508.973 373.507C508.88 374.064 508.385 374.435 507.86 374.435Z" fill="#1D1D2E"/>
<path d="M513.024 383.03C510.086 383.03 506.839 381.7 503.963 380.525C502.912 380.093 501.922 379.691 501.056 379.412C496.355 377.836 490.48 374.837 489.273 369.643C489.119 369.024 489.521 368.375 490.17 368.251C490.789 368.097 491.438 368.499 491.593 369.117C492.582 373.476 498.427 376.043 501.829 377.186C502.757 377.496 503.778 377.928 504.86 378.361C507.767 379.536 511.014 380.866 513.612 380.68C516.766 380.402 519.766 379.32 522.982 378.176C527.188 376.661 531.518 375.115 536.188 375.548C536.837 375.61 537.301 376.166 537.239 376.815C537.177 377.465 536.59 377.928 535.971 377.867C531.858 377.465 527.93 378.887 523.786 380.371C520.57 381.515 517.261 382.721 513.828 382.999C513.519 383.03 513.272 383.03 513.024 383.03Z" fill="#1D1D2E"/>
<path d="M500.407 342.714C500.036 342.714 499.695 342.559 499.479 342.25C499.262 341.972 499.077 341.663 498.891 341.385C498.366 340.612 498.056 340.179 497.407 339.932C496.819 339.684 496.541 339.004 496.788 338.386C497.036 337.798 497.716 337.489 498.335 337.736C499.664 338.293 500.314 339.251 500.871 340.086C501.025 340.333 501.18 340.581 501.396 340.828C501.798 341.354 501.675 342.096 501.18 342.467C500.901 342.652 500.654 342.714 500.407 342.714Z" fill="#1D1D2E"/>
<path d="M455.998 359.224C454.482 359.224 453.029 358.945 451.668 358.42C449.905 357.709 446.874 356.194 446.472 354.153C446.318 353.288 446.627 352.453 447.338 351.773C449.132 350.072 451.451 350.443 453.523 350.783C454.884 351 456.183 351.216 457.204 350.814C459.276 350.01 460.853 348.588 462.461 347.073C463.482 346.146 464.533 345.187 465.739 344.322C467.347 343.209 469.203 342.498 470.996 341.787C473.594 340.766 476.068 339.839 477.615 337.86C478.017 337.365 478.759 337.273 479.254 337.675C479.779 338.077 479.841 338.819 479.439 339.313C477.46 341.787 474.615 342.9 471.831 343.951C470.069 344.631 468.43 345.28 467.069 346.208C465.987 346.95 465.028 347.815 464.038 348.743C462.306 350.32 460.513 351.958 458.039 352.917C456.43 353.535 454.761 353.257 453.152 353.009C451.142 352.7 449.874 352.546 448.977 353.38C448.916 353.442 448.792 353.566 448.792 353.628C448.885 354.153 450.369 355.297 452.534 356.163C455.596 357.4 459.399 356.843 462.492 354.772C463.822 353.875 464.626 352.7 465.523 351.464C466.079 350.66 466.636 349.856 467.378 349.052C469.883 346.331 474.398 344.569 477.584 344.198C478.233 344.136 478.821 344.6 478.882 345.249C478.944 345.898 478.48 346.486 477.831 346.548C475.11 346.857 471.12 348.465 469.079 350.66C468.461 351.34 467.935 352.051 467.409 352.824C466.45 354.184 465.461 355.606 463.791 356.719C461.409 358.389 458.657 359.224 455.998 359.224Z" fill="#1D1D2E"/>
<path d="M450.091 351.927C449.812 351.927 449.503 351.835 449.287 351.618C448.823 351.185 448.792 350.443 449.225 349.949L449.503 349.671C449.751 349.145 450.307 348.465 451.173 347.414C454.884 342.838 458.008 343.333 462.677 344.693C463.296 344.878 463.667 345.528 463.482 346.146C463.296 346.764 462.647 347.135 462.028 346.95C457.853 345.744 455.874 345.342 452.998 348.898C452.534 349.454 452.225 349.856 452.008 350.134C451.946 350.382 451.854 350.598 451.699 350.784L450.957 351.587C450.709 351.804 450.4 351.927 450.091 351.927Z" fill="#1D1D2E"/>
<path d="M387.528 386.461C386.91 386.461 386.384 385.998 386.353 385.348C385.951 379.072 383.23 368.035 380.632 364.078C378.962 361.542 376.921 359.347 374.756 357.029C372.715 354.864 370.612 352.638 368.88 350.103C364.489 343.673 360.005 337.149 356.727 330.193C356.046 328.74 355.613 327.256 355.18 325.772C354.809 324.504 354.469 323.329 353.974 322.185C353.727 321.598 354.005 320.887 354.593 320.639C355.18 320.392 355.892 320.67 356.139 321.258C356.696 322.525 357.067 323.855 357.438 325.091C357.84 326.514 358.242 327.874 358.86 329.172C362.046 335.943 366.468 342.405 370.767 348.681C372.468 351.154 374.509 353.319 376.457 355.421C378.591 357.709 380.818 360.058 382.611 362.779C385.518 367.2 388.271 378.454 388.704 385.194C388.735 385.843 388.24 386.4 387.59 386.431C387.59 386.461 387.559 386.461 387.528 386.461Z" fill="#1D1D2E"/>
<path d="M543.95 338.046C543.424 338.046 542.929 337.675 542.806 337.118C540.888 328.585 539.991 320.361 539.033 311.642L538.724 308.922C538.662 308.273 539.126 307.685 539.775 307.623C540.424 307.531 541.012 308.025 541.074 308.644L541.383 311.364C542.342 320.021 543.239 328.183 545.125 336.592C545.28 337.211 544.878 337.86 544.228 337.984C544.104 338.015 544.012 338.046 543.95 338.046Z" fill="#1D1D2E"/>
<path d="M447.153 351.092C446.936 351.092 446.689 351.031 446.503 350.907C438.215 345.404 429.958 333.655 431.072 324.287C431.164 323.638 431.752 323.174 432.37 323.267C433.02 323.329 433.484 323.916 433.391 324.566C432.401 333.037 440.102 343.827 447.802 348.959C448.328 349.33 448.483 350.041 448.142 350.598C447.895 350.907 447.524 351.092 447.153 351.092Z" fill="#1D1D2E"/>
<path d="M450.212 321.533C449.995 321.533 449.779 321.471 449.593 321.347C449.346 321.193 449.098 321.038 448.851 320.883C447.799 320.265 446.593 319.585 445.944 318.194C445.202 316.617 445.882 315.287 446.377 314.329C446.532 314.02 446.686 313.711 446.81 313.401C447.336 311.917 447.243 310.712 446.501 309.011C446.253 308.424 446.501 307.713 447.119 307.465C447.707 307.218 448.387 307.465 448.665 308.084C449.655 310.341 449.779 312.165 449.037 314.205C448.882 314.638 448.665 315.04 448.48 315.411C447.985 316.339 447.83 316.741 448.078 317.204C448.418 317.915 449.16 318.348 450.026 318.843C450.335 318.997 450.614 319.183 450.892 319.368C451.449 319.709 451.603 320.451 451.232 321.007C450.985 321.347 450.614 321.533 450.212 321.533Z" fill="#1D1D2E"/>
<path d="M431.718 296.119C431.254 296.119 430.852 295.872 430.636 295.439C430.357 294.851 430.605 294.14 431.192 293.862C434.718 292.223 438.738 292.069 441.986 293.429C442.573 293.677 442.851 294.388 442.604 294.975C442.357 295.562 441.645 295.841 441.058 295.593C438.46 294.48 435.151 294.635 432.182 295.995C432.058 296.088 431.904 296.119 431.718 296.119Z" fill="#1D1D2E"/>
<path d="M458.067 294.48C457.665 294.48 457.294 294.295 457.077 293.924C456.737 293.367 456.892 292.656 457.448 292.285C460.757 290.183 465.644 290.43 468.829 291.543C469.448 291.76 469.757 292.44 469.54 293.058C469.324 293.677 468.643 293.986 468.025 293.769C465.304 292.811 461.252 292.656 458.716 294.264C458.5 294.419 458.283 294.48 458.067 294.48Z" fill="#1D1D2E"/>
<path d="M458.15 332.373C458.551 332.393 458.913 332.597 459.11 332.978C459.423 333.551 459.233 334.253 458.658 334.596C455.248 336.531 450.381 336.04 447.255 334.77C446.648 334.523 446.373 333.828 446.62 333.222C446.867 332.615 447.562 332.34 448.169 332.587C450.839 333.68 454.878 334.036 457.49 332.557C457.714 332.413 457.934 332.362 458.15 332.373Z" fill="#1D1D2E"/>
<path d="M500.221 324.504C499.85 324.504 499.448 324.442 499.077 324.319C498.458 324.133 498.118 323.453 498.304 322.835C498.489 322.216 499.17 321.876 499.788 322.062C500.747 322.371 502.355 321.536 504.056 319.928C507.087 317.053 508.107 313.961 507.241 310.19C506.87 308.458 506.283 306.449 505.2 305.923C504.613 305.645 503.809 305.799 502.726 306.325C501.86 306.758 501.242 307.376 500.499 308.118L500.097 308.52C499.634 308.984 498.891 308.984 498.427 308.52C497.964 308.056 497.964 307.314 498.458 306.85L498.86 306.449C499.664 305.645 500.469 304.81 501.675 304.223C503.406 303.357 504.922 303.202 506.19 303.821C508.169 304.748 508.942 307.191 509.499 309.664C510.55 314.24 509.282 318.135 505.633 321.629C504.241 323.02 502.231 324.504 500.221 324.504Z" fill="#1D1D2E"/>
<path d="M498.891 317.3C498.613 317.3 498.335 317.208 498.118 317.022C497.623 316.589 497.592 315.847 497.995 315.353C499.448 313.714 501.18 312.477 503.314 311.55C503.901 311.302 504.613 311.581 504.86 312.168C505.107 312.756 504.829 313.467 504.241 313.714C502.448 314.487 500.994 315.507 499.788 316.898C499.541 317.146 499.231 317.3 498.891 317.3Z" fill="#1D1D2E"/>
<path fill-rule="evenodd" clip-rule="evenodd" d="M436.11 310.341C435.862 308.857 436.481 307.527 437.47 307.342C438.491 307.187 439.511 308.239 439.759 309.723C440.006 311.207 439.388 312.536 438.398 312.721C437.378 312.876 436.357 311.825 436.11 310.341Z" fill="#1D1D2E"/>
<path fill-rule="evenodd" clip-rule="evenodd" d="M462.86 308.857C462.644 307.373 463.293 306.043 464.314 305.889C465.334 305.734 466.324 306.816 466.54 308.331C466.757 309.815 466.107 311.145 465.087 311.299C464.066 311.423 463.077 310.341 462.86 308.857Z" fill="#1D1D2E"/>
<path d="M428.721 313.436C428.134 313.436 427.639 313.003 427.546 312.415C427.268 310.468 426.711 308.242 426.093 305.923C425.01 301.687 423.897 297.328 424.237 293.711C424.299 293.062 424.886 292.598 425.505 292.66C426.154 292.721 426.618 293.278 426.587 293.927C426.309 297.112 427.361 301.285 428.381 305.335C429 307.716 429.556 310.004 429.866 312.075C429.958 312.725 429.525 313.312 428.876 313.405C428.845 313.436 428.783 313.436 428.721 313.436Z" fill="#1D1D2E"/>
<path d="M440.751 272.131C436.793 272.131 432.958 271.141 429.525 270.059C428.907 269.874 428.567 269.194 428.752 268.575C428.938 267.957 429.618 267.617 430.237 267.802C435.463 269.441 441.06 270.708 446.596 268.853C448.637 268.173 450.431 267.246 452.132 266.38C455.936 264.432 459.554 262.608 465.059 263.567C465.708 263.69 466.141 264.309 466.017 264.927C465.894 265.576 465.306 266.009 464.657 265.885C459.925 265.051 456.802 266.627 453.183 268.482C451.39 269.41 449.534 270.337 447.338 271.079C445.143 271.852 442.916 272.131 440.751 272.131Z" fill="#1D1D2E"/>
<path d="M425.66 289.877C425.412 289.877 425.165 289.784 424.948 289.63C424.423 289.228 424.33 288.486 424.732 287.991C427.855 283.817 429.34 281.468 430.329 279.922C432.061 277.17 432.216 277.047 435.927 275.284C436.576 274.975 437.318 274.604 438.246 274.171C438.834 273.893 439.545 274.109 439.823 274.697C440.102 275.284 439.854 275.995 439.298 276.274C438.37 276.737 437.628 277.078 436.978 277.387C433.793 278.902 433.793 278.902 432.37 281.159C431.443 282.643 429.865 285.147 426.68 289.382C426.371 289.723 426.031 289.877 425.66 289.877Z" fill="#1D1D2E"/>
<path d="M484.944 280.417C477.491 280.417 474.305 275.594 471.677 270.647C471.368 270.059 471.584 269.348 472.172 269.07C472.728 268.761 473.471 268.977 473.749 269.565C476.254 274.233 478.821 278.098 484.944 278.098C485.593 278.098 486.119 278.623 486.119 279.273C486.119 279.891 485.593 280.417 484.944 280.417Z" fill="#1D1D2E"/>
<path d="M491.624 306.758C491.284 306.758 490.943 306.603 490.696 306.325C490.294 305.799 490.387 305.088 490.882 304.655C493.912 302.244 491.871 299.09 488.624 294.916C487.542 293.525 486.521 292.196 485.995 291.052C484.944 288.671 484.851 286.971 484.851 284.807C484.851 284.157 485.377 283.632 486.026 283.632C486.676 283.632 487.201 284.157 487.201 284.807C487.201 287.064 487.325 288.3 488.129 290.093C488.531 290.99 489.459 292.196 490.449 293.494C493.201 297.05 497.376 302.46 492.304 306.51C492.15 306.665 491.902 306.758 491.624 306.758Z" fill="#1D1D2E"/>
<path d="M492.861 310.251C492.397 310.251 491.933 309.973 491.778 309.509C491.562 308.891 491.84 308.211 492.459 307.994C494.624 307.16 494.685 306.881 495.18 304.222L495.211 304.037C495.335 303.388 495.953 302.986 496.572 303.109C497.221 303.233 497.623 303.851 497.5 304.501L497.469 304.686C496.881 307.685 496.541 308.953 493.263 310.22C493.139 310.22 493.015 310.251 492.861 310.251Z" fill="#1D1D2E"/>
<path d="M489.119 241.647C489.026 241.647 488.964 241.647 488.872 241.616L487.356 241.307C481.851 240.194 476.656 239.143 470.904 239.761C469.698 239.885 468.368 240.163 466.976 240.41C462.059 241.369 456.492 242.42 452.348 239.204C451.853 238.802 451.73 238.06 452.132 237.566C452.534 237.04 453.276 236.947 453.771 237.349C457.08 239.915 462.09 238.957 466.512 238.091C467.966 237.813 469.327 237.535 470.625 237.411C476.718 236.731 482.099 237.813 487.789 238.988L489.304 239.297C489.954 239.421 490.356 240.039 490.232 240.688C490.17 241.245 489.676 241.647 489.119 241.647Z" fill="#1D1D2E"/>
<path d="M423.062 261.681C422.629 261.681 422.227 261.434 422.01 261.032C421.732 260.444 421.949 259.733 422.536 259.455C424.886 258.28 426.556 255.405 428.165 252.653C429.247 250.767 430.298 248.974 431.566 247.583C436.298 242.451 442.669 241.492 448.792 240.936C449.441 240.874 449.998 241.338 450.06 242.018C450.122 242.667 449.658 243.224 449.008 243.285C443.102 243.811 437.473 244.677 433.298 249.191C432.185 250.396 431.226 252.066 430.206 253.828C428.443 256.889 426.587 260.073 423.588 261.588C423.433 261.65 423.247 261.681 423.062 261.681Z" fill="#1D1D2E"/>
<path d="M420.681 293.278C420.093 293.278 419.598 292.876 419.505 292.289C419.289 290.959 418.64 289.753 417.897 288.486C417.093 287.033 416.258 285.549 415.98 283.725C415.021 276.799 418.021 271.389 420.897 266.164C421.608 264.896 422.32 263.567 423 262.237C423.278 261.65 423.99 261.434 424.577 261.712C425.165 261.99 425.381 262.701 425.103 263.289C424.423 264.649 423.68 266.009 422.969 267.277C420.155 272.378 417.464 277.201 418.33 283.385C418.516 284.745 419.196 285.982 419.938 287.311C420.742 288.702 421.547 290.155 421.825 291.918C421.918 292.567 421.485 293.154 420.835 293.278C420.804 293.278 420.742 293.278 420.681 293.278Z" fill="#1D1D2E"/>
<path d="M515.56 274.048C515.375 274.048 515.158 273.986 515.004 273.893C509.159 270.647 507.21 264.834 505.324 259.208C503.499 253.766 501.798 248.665 496.788 245.79C496.325 245.542 495.892 245.233 495.428 244.924C494.531 244.306 493.696 243.749 492.83 243.564C492.211 243.44 491.778 242.822 491.902 242.172C492.026 241.554 492.644 241.121 493.294 241.245C494.624 241.523 495.768 242.296 496.757 242.976C497.16 243.254 497.562 243.502 497.964 243.749C503.747 247.057 505.695 252.839 507.581 258.435C509.406 263.876 511.138 269.008 516.179 271.822C516.735 272.131 516.952 272.873 516.643 273.429C516.395 273.831 515.993 274.048 515.56 274.048Z" fill="#1D1D2E"/>
<path d="M511.849 307.283C511.54 307.283 511.262 307.16 511.014 306.943C510.55 306.479 510.55 305.737 511.014 305.274C518.405 297.885 514.911 288.795 511.54 280.015C510.798 278.036 509.994 276.026 509.375 274.079C509.19 273.46 509.53 272.78 510.148 272.595C510.767 272.378 511.416 272.718 511.633 273.368C512.251 275.253 512.962 277.17 513.736 279.18C517.199 288.208 521.158 298.472 512.653 306.943C512.468 307.16 512.158 307.283 511.849 307.283Z" fill="#1D1D2E"/>
<path d="M410.537 385.843C410.413 385.843 410.29 385.812 410.166 385.781C409.547 385.565 409.207 384.916 409.424 384.297C409.888 382.906 410.444 380.804 411.032 378.578C412.238 374.064 413.599 368.962 414.867 366.644C420.742 355.885 430.855 353.071 441.555 350.103C442.514 349.825 443.442 349.578 444.4 349.299C445.019 349.114 445.668 349.485 445.854 350.103C446.039 350.722 445.668 351.371 445.05 351.556C444.091 351.835 443.132 352.082 442.205 352.36C431.999 355.204 422.351 357.894 416.939 367.757C415.794 369.828 414.434 375.022 413.32 379.165C412.702 381.422 412.145 383.586 411.65 385.008C411.496 385.534 411.032 385.843 410.537 385.843Z" fill="#1D1D2E"/>
<path d="M580.473 430.735C579.854 430.735 579.36 430.271 579.298 429.652C578.401 418.646 569.309 399.818 563.773 390.543C563.433 389.986 563.619 389.244 564.175 388.935C564.732 388.595 565.474 388.78 565.783 389.337C571.628 399.168 580.689 417.997 581.617 429.467C581.679 430.116 581.184 430.704 580.535 430.735C580.566 430.735 580.504 430.735 580.473 430.735Z" fill="#1D1D2E"/>
<path d="M534.549 418.677C533.899 418.677 533.373 418.182 533.373 417.533C533.373 417.378 533.373 417.286 533.373 417.193C533.157 416.884 532.755 416.327 532.013 414.905L531.085 413.081C530.312 411.535 529.539 409.989 528.735 408.474C527.869 406.836 523.353 398.55 521.653 395.427L521.22 394.654C520.91 394.098 521.127 393.387 521.683 393.047C522.24 392.738 522.951 392.954 523.292 393.511L523.725 394.283C525.58 397.684 529.941 405.692 530.807 407.361C531.611 408.907 532.384 410.453 533.188 411.999L534.085 413.823C534.734 415.091 535.074 415.554 535.229 415.802C535.662 416.389 535.693 416.667 535.693 417.44C535.724 418.12 535.198 418.677 534.549 418.677Z" fill="#1D1D2E"/>
<path d="M471.646 372.116C469.976 372.116 468.275 371.931 466.574 371.56C458.905 369.859 452.658 364.758 450.276 358.234C450.06 357.616 450.369 356.936 450.988 356.719C451.606 356.503 452.286 356.812 452.503 357.431C454.606 363.212 460.203 367.726 467.1 369.272C473.378 370.663 479.47 369.148 483.398 365.253C483.861 364.789 484.604 364.789 485.068 365.253C485.531 365.716 485.531 366.458 485.068 366.922C481.635 370.292 476.841 372.116 471.646 372.116Z" fill="#1D1D2E"/>
<path d="M411.001 288.084C410.97 288.084 410.97 288.084 410.97 288.084C405.991 288.053 401.507 283.477 397.888 279.767C397.455 279.304 397.023 278.871 396.59 278.438C387.714 269.565 380.539 255.374 377.787 241.4C377.385 239.297 377.508 237.349 377.632 235.463C377.694 234.567 377.756 233.639 377.756 232.681C377.756 232.032 378.282 231.506 378.931 231.506C379.58 231.506 380.106 232.032 380.106 232.681C380.106 233.701 380.044 234.66 379.982 235.618C379.859 237.442 379.735 239.143 380.106 240.936C382.766 254.477 389.724 268.204 398.26 276.768C398.693 277.201 399.125 277.634 399.558 278.098C402.867 281.468 406.981 285.672 410.97 285.703H411.001C412.764 285.703 414.403 284.9 416.073 283.261C416.537 282.797 417.279 282.797 417.743 283.261C418.207 283.725 418.207 284.467 417.743 284.93C415.671 287.033 413.382 288.084 411.001 288.084Z" fill="#1D1D2E"/>
<path d="M467.162 238.555C466.945 238.555 466.698 238.493 466.512 238.37C465.987 237.999 465.832 237.288 466.172 236.731C470.131 230.795 472.79 223.004 474.677 216.913L475.048 215.769C475.821 213.327 476.47 211.256 476.47 208.751C476.47 208.102 476.996 207.576 477.645 207.576C478.295 207.576 478.821 208.102 478.821 208.751C478.821 211.596 478.078 213.945 477.274 216.45L476.934 217.563C475.017 223.839 472.264 231.815 468.12 237.999C467.904 238.37 467.533 238.555 467.162 238.555Z" fill="#1D1D2E"/>
<path d="M431.783 134.798C431.381 134.798 430.979 134.581 430.762 134.179C429.649 132.201 428.598 130.191 427.546 128.213C422.753 119.185 417.805 109.848 409.455 103.355C406.609 101.129 403.3 99.8927 399.806 98.5632C399.218 98.3468 398.631 98.1304 398.043 97.8831C397.425 97.6357 396.806 97.3884 396.157 97.1411C392.786 95.7807 389.291 94.3895 385.982 93.9875C372.56 92.318 358.799 98.7178 345.903 105.86C345.346 106.169 344.635 105.983 344.294 105.396C343.985 104.839 344.171 104.097 344.758 103.788C357.994 96.43 372.22 89.8756 386.291 91.6379C389.91 92.1016 393.683 93.6165 397.053 94.946C397.672 95.1933 398.29 95.4406 398.909 95.688C399.497 95.9044 400.084 96.1517 400.672 96.3681C404.166 97.6976 407.816 99.0579 410.939 101.5C419.691 108.302 424.763 117.855 429.68 127.13C430.731 129.109 431.783 131.119 432.865 133.066C433.175 133.623 432.989 134.365 432.401 134.674C432.185 134.767 431.999 134.798 431.783 134.798Z" fill="#1D1D2E"/>
<path d="M404.414 184.543C403.672 184.543 402.867 184.327 401.569 183.894C400.95 183.677 400.61 183.028 400.826 182.41C401.043 181.791 401.692 181.451 402.311 181.668C404.476 182.379 404.476 182.379 406.362 181.451C406.826 181.235 407.352 180.957 408.001 180.648C413.011 178.298 417.341 174.557 421.237 169.146C421.608 168.621 422.351 168.497 422.876 168.868C423.402 169.239 423.526 169.981 423.155 170.507C419.042 176.226 414.403 180.246 408.991 182.75C408.341 183.059 407.846 183.306 407.414 183.523C406.084 184.234 405.311 184.543 404.414 184.543Z" fill="#1D1D2E"/>
<path d="M409.424 192.705C408.712 192.705 408.001 192.612 407.29 192.458C406.671 192.303 406.269 191.654 406.424 191.036C406.579 190.417 407.228 190.015 407.846 190.17C413.289 191.53 420.155 185.1 422.845 182.286C429.494 175.299 432.927 168.435 433.638 160.613C433.824 158.326 433.7 155.945 433.546 153.41C433.36 150.133 433.175 146.732 433.793 143.578C433.917 142.929 434.535 142.527 435.185 142.651C435.803 142.774 436.236 143.393 436.112 144.042C435.525 146.917 435.741 150.133 435.927 153.255C436.082 155.759 436.205 158.326 435.989 160.799C435.216 169.177 431.597 176.505 424.546 183.863C421.268 187.357 415.238 192.705 409.424 192.705Z" fill="#1D1D2E"/>
<path d="M477.46 201.177C477.182 201.177 476.872 201.084 476.656 200.867C466.852 191.871 463.915 179.813 461.069 168.188C458.936 159.47 456.74 150.442 451.668 142.836C450.709 141.383 449.627 140.023 448.545 138.663C445.854 135.293 438.679 128.584 434.906 130.47C434.319 130.779 433.607 130.531 433.329 129.944C433.02 129.357 433.267 128.645 433.855 128.367C440.504 125.028 450.276 137.086 450.369 137.209C451.513 138.632 452.596 140.023 453.616 141.538C458.936 149.514 461.193 158.728 463.358 167.663C466.234 179.504 468.955 190.665 478.233 199.167C478.728 199.6 478.759 200.342 478.295 200.836C478.109 201.053 477.8 201.177 477.46 201.177Z" fill="#1D1D2E"/>
<path d="M441.246 197.219C440.813 197.219 440.411 196.972 440.195 196.57C436.484 189.119 436.236 181.792 435.958 174.062C435.834 170.476 435.71 166.766 435.185 163.025C435.092 162.376 435.556 161.788 436.205 161.696C436.855 161.603 437.442 162.067 437.535 162.716C438.061 166.55 438.184 170.321 438.308 173.97C438.556 181.452 438.803 188.532 442.298 195.519C442.607 196.106 442.359 196.817 441.772 197.096C441.586 197.188 441.401 197.219 441.246 197.219Z" fill="#1D1D2E"/>
<path d="M416.877 398.21C399.311 398.21 382.797 397.623 370.365 396.541C350.046 394.778 350.047 392.614 350.047 391.346C350.047 390.079 350.046 387.915 370.365 386.152C382.797 385.07 399.311 384.483 416.877 384.483C434.442 384.483 450.957 385.07 463.389 386.152C483.707 387.915 483.707 390.048 483.707 391.346C483.707 392.645 483.707 394.778 463.389 396.541C450.957 397.623 434.442 398.21 416.877 398.21ZM352.768 391.316C356.665 393.325 379.642 395.829 416.846 395.829C454.049 395.829 477.027 393.294 480.923 391.316C477.027 389.306 454.018 386.802 416.846 386.802C379.673 386.802 356.695 389.337 352.768 391.316Z" fill="#1D1D2E"/>
<path d="M417.588 424.118C396.218 424.118 383.322 424.118 370.828 415.894C363.035 410.762 350.047 393.634 350.047 391.315C350.047 390.666 350.572 390.141 351.222 390.141C351.809 390.141 352.304 390.573 352.397 391.161C353.077 393.016 364.396 408.845 372.158 413.916C384.065 421.738 396.682 421.738 417.619 421.738C436.391 421.738 447.369 420.501 459.121 413.483C469.357 407.361 480.707 392.985 481.356 391.161C481.418 390.573 481.913 390.141 482.532 390.141C483.181 390.141 483.707 390.666 483.707 391.315C483.707 393.665 470.718 409.309 460.327 415.523C448.081 422.82 436.793 424.118 417.588 424.118Z" fill="#1D1D2E"/>
<path d="M460.296 395.613C460.111 395.613 459.956 395.582 459.77 395.489C459.121 395.18 458.193 395.087 457.265 394.994C456.709 394.933 456.183 394.902 455.719 394.809C453.771 394.438 451.854 394.067 449.905 393.665C448.483 393.387 447.06 393.078 445.637 392.799C437.504 391.223 429.587 389.8 421.856 389.924C415.732 390.017 409.609 390.852 403.672 391.655C400.919 392.026 398.074 392.397 395.229 392.707C392.291 393.016 389.229 393.139 386.291 393.232C380.57 393.449 374.632 393.634 369.251 395.427C368.633 395.644 367.983 395.304 367.767 394.685C367.55 394.067 367.891 393.387 368.509 393.201C374.23 391.284 380.323 391.099 386.199 390.883C389.106 390.79 392.105 390.666 394.981 390.357C397.796 390.048 400.61 389.677 403.362 389.306C409.362 388.502 415.578 387.667 421.825 387.574C429.804 387.451 437.844 388.873 446.101 390.481C447.524 390.759 448.947 391.037 450.4 391.346C452.317 391.748 454.266 392.119 456.183 392.49C456.616 392.583 457.049 392.614 457.544 392.645C458.626 392.738 459.863 392.861 460.884 393.387C461.471 393.665 461.719 394.376 461.41 394.964C461.162 395.365 460.729 395.613 460.296 395.613Z" fill="#1D1D2E"/>
<path d="M116.156 409.866C114.332 409.866 112.847 408.443 112.724 406.65L57.5216 268.297C57.4598 268.143 57.4288 268.019 57.4288 267.864C57.4288 265.978 58.9751 264.402 60.8925 264.402C61.078 264.402 61.2945 264.463 61.4492 264.556C72.1185 270.245 73.3864 271.883 73.5411 272.687L116.899 382.906C116.961 383.03 116.991 383.184 116.991 383.339C116.991 384.576 117.332 408.443 117.363 408.691C117.363 409 117.239 409.309 117.022 409.526C116.775 409.742 116.466 409.866 116.156 409.866ZM59.8101 267.679L114.919 405.877C114.827 399.756 114.641 385.689 114.61 383.524L71.2835 273.368C71.2835 273.337 71.2526 273.306 71.2526 273.275C70.4485 272.316 65.253 269.225 60.6451 266.782C60.2121 266.875 59.9029 267.246 59.8101 267.679Z" fill="#1D1D2E"/>
<path d="M275.052 410.824H118.167C116.62 410.824 115.352 409.587 115.352 408.042C115.352 406.527 116.62 405.259 118.167 405.259H275.083C276.629 405.259 277.897 406.496 277.897 408.042C277.866 409.587 276.598 410.824 275.052 410.824ZM118.167 407.64C117.919 407.64 117.703 407.825 117.703 408.042C117.703 408.258 117.919 408.443 118.167 408.443H275.083C275.33 408.443 275.547 408.258 275.547 408.042C275.547 407.825 275.361 407.64 275.083 407.64H118.167Z" fill="#1D1D2E"/>
<path d="M276.382 406.866C276.104 406.866 275.794 406.743 275.578 406.557L251.796 384.266C251.332 383.833 251.301 383.091 251.734 382.597C252.167 382.133 252.909 382.102 253.404 382.535L277.186 404.826C277.65 405.259 277.681 406.001 277.248 406.496C277 406.743 276.691 406.866 276.382 406.866Z" fill="#1D1D2E"/>
<path d="M179.956 383.524C179.307 383.524 178.781 382.999 178.781 382.349C178.781 381.7 179.307 381.175 179.956 381.175L207.047 381.113C207.696 381.113 208.222 381.638 208.222 382.288C208.222 382.937 207.696 383.463 207.047 383.463L179.956 383.524Z" fill="#1D1D2E"/>
<path d="M115.909 383.679C115.26 383.679 114.734 383.153 114.734 382.504C114.734 381.855 115.26 381.329 115.909 381.329L152.432 381.237C153.051 381.267 153.607 381.762 153.607 382.411C153.607 383.061 153.082 383.586 152.432 383.586L115.909 383.679Z" fill="#1D1D2E"/>
<path d="M204.263 403.961H133.537C132.98 403.961 132.516 403.59 132.392 403.064L128.125 384.359C128.032 384.019 128.125 383.648 128.341 383.37C128.558 383.092 128.898 382.937 129.269 382.937L153.02 382.906C153.669 382.906 154.195 383.432 154.195 384.081C154.195 384.73 153.669 385.256 153.02 385.256L130.722 385.287L134.464 401.642H202.13L191.831 385.225H179.987C179.337 385.225 178.812 384.699 178.812 384.05C178.812 383.401 179.337 382.875 179.987 382.875H192.481C192.883 382.875 193.254 383.092 193.47 383.432L205.253 402.198C205.5 402.569 205.5 403.002 205.284 403.404C205.068 403.744 204.696 403.961 204.263 403.961Z" fill="#1D1D2E"/>
<path d="M114.27 402.786C113.961 402.786 113.652 402.631 113.435 402.415C113.311 402.291 113.188 402.106 113.126 401.92L61.0162 272.378C60.9544 272.255 60.9235 272.1 60.9235 271.945C60.9235 271.698 60.7998 271.296 60.707 270.925C60.4905 270.121 60.2122 269.225 60.7688 268.483C60.9544 268.235 61.3564 267.833 62.1605 267.833C62.346 267.833 62.5625 267.895 62.7171 267.957C72.9844 273.399 74.1287 274.975 74.2524 275.748L115.538 380.68C115.6 380.804 115.631 380.959 115.631 381.113C115.631 381.701 115.6 386.802 115.538 391.779L115.445 400.745C115.445 400.962 115.445 401.178 115.414 401.364C115.414 401.426 115.414 401.456 115.414 401.518H115.383C115.352 402.229 115.136 402.786 114.27 402.786ZM63.2738 271.667L113.157 395.613C113.219 390.203 113.249 382.814 113.28 381.33L71.9948 276.459C71.9948 276.428 71.9639 276.428 71.9639 276.397C71.2526 275.563 67.1395 273.089 63.1192 270.894C63.2119 271.142 63.2429 271.389 63.2738 271.667Z" fill="#1D1D2E"/>
<path d="M358.86 388.007C358.798 388.007 358.706 388.007 358.644 387.976L323.512 381.082C322.894 380.958 322.461 380.34 322.585 379.691C322.708 379.041 323.327 378.639 323.976 378.763L359.108 385.657C359.757 385.781 360.159 386.4 360.035 387.049C359.912 387.605 359.417 388.007 358.86 388.007Z" fill="#1D1D2E"/>
<path d="M573.607 430.178C573.546 430.178 573.453 430.178 573.391 430.147L471.46 410.144C470.811 410.02 470.409 409.402 470.533 408.753C470.656 408.134 471.275 407.701 471.924 407.825L573.855 427.859C574.504 427.983 574.906 428.601 574.783 429.251C574.659 429.776 574.164 430.178 573.607 430.178Z" fill="#1D1D2E"/>
<path d="M403.208 259.764C402.929 259.764 402.651 259.671 402.434 259.486C401.94 259.053 401.878 258.311 402.311 257.816C407.166 252.158 412.671 250.643 420.186 252.962C423.402 253.951 426.587 255.25 426.587 257.631C426.587 258.28 426.062 258.805 425.412 258.805C424.763 258.805 424.237 258.28 424.237 257.631C424.237 257.631 424.175 256.641 419.567 255.25C412.825 253.179 408.372 254.384 404.104 259.362C403.857 259.64 403.517 259.764 403.208 259.764Z" fill="#1D1D2E"/>
<path d="M400.61 278.531C400.146 278.531 399.744 278.283 399.527 277.85C397.95 274.388 398.229 269.688 400.239 265.515C402.002 261.866 404.847 259.331 408.032 258.527C408.651 258.373 409.3 258.744 409.455 259.393C409.609 260.011 409.238 260.661 408.589 260.815C406.084 261.434 403.795 263.536 402.342 266.535C400.672 270.028 400.393 274.079 401.661 276.861C401.94 277.449 401.661 278.16 401.074 278.407C400.95 278.5 400.795 278.531 400.61 278.531Z" fill="#1D1D2E"/>
<path d="M412.516 287.744C412.362 287.744 412.238 287.713 412.083 287.651C405.836 285.209 403.826 281.22 405.125 273.8C405.249 273.151 405.836 272.718 406.486 272.842C407.135 272.966 407.568 273.553 407.444 274.202C406.331 280.571 407.723 283.385 412.949 285.456C413.537 285.703 413.846 286.383 413.63 286.971C413.444 287.466 413.011 287.744 412.516 287.744Z" fill="#1D1D2E"/>
<path d="M507.612 259.239C507.365 259.239 507.148 259.177 506.932 259.022C506.406 258.651 506.283 257.909 506.654 257.384C511.323 250.829 519.271 246.532 526.508 246.717C531.796 246.841 536.126 249.314 539.064 253.89C539.404 254.446 539.249 255.158 538.724 255.529C538.167 255.869 537.456 255.714 537.084 255.188C534.579 251.324 530.899 249.191 526.446 249.098C520.137 248.912 512.746 252.932 508.571 258.775C508.355 259.053 507.983 259.239 507.612 259.239Z" fill="#1D1D2E"/>
<path d="M539.187 285.889C538.94 285.889 538.723 285.827 538.507 285.672C535.507 283.539 535.971 279.86 536.342 276.892C536.435 276.243 536.497 275.593 536.528 275.006C536.868 269.843 536.713 264.432 533.466 259.98C533.095 259.455 533.188 258.713 533.714 258.342C534.239 257.971 534.981 258.064 535.353 258.589C539.064 263.66 539.218 269.534 538.847 275.13C538.816 275.779 538.723 276.459 538.631 277.139C538.321 279.736 537.981 282.395 539.837 283.725C540.362 284.096 540.486 284.838 540.115 285.363C539.899 285.703 539.528 285.889 539.187 285.889Z" fill="#1D1D2E"/>
<path d="M530.621 290.836C530.343 290.836 530.033 290.836 529.6 290.836C524.652 290.743 522.271 287.095 520.199 283.879C518.962 281.993 517.787 280.2 516.21 279.087C515.684 278.716 515.56 277.974 515.931 277.449C516.302 276.923 517.045 276.799 517.57 277.17C519.519 278.562 520.879 280.602 522.178 282.612C524.219 285.734 525.982 288.424 529.662 288.517C531.147 288.548 531.147 288.548 532.013 288.362L532.755 288.208C533.373 288.084 534.023 288.486 534.146 289.135C534.27 289.754 533.868 290.403 533.219 290.527L532.507 290.681C531.703 290.805 531.425 290.836 530.621 290.836Z" fill="#1D1D2E"/>
</g>
<defs>
<clipPath id="clip0">
<rect width="703" height="496" fill="white"/>
</clipPath>
</defs>
</svg>
