<svg width="534" height="476" viewBox="0 0 534 476" fill="none" xmlns="http://www.w3.org/2000/svg">
<g clip-path="url(#clip0)">
<path d="M269.288 475.788C414.933 475.788 533.002 468.701 533.002 459.959C533.002 451.217 414.933 444.13 269.288 444.13C123.643 444.13 5.57422 451.217 5.57422 459.959C5.57422 468.701 123.643 475.788 269.288 475.788Z" fill="#FF5136"/>
<path opacity="0.7" d="M269.288 475.788C414.933 475.788 533.002 468.701 533.002 459.959C533.002 451.217 414.933 444.13 269.288 444.13C123.643 444.13 5.57422 451.217 5.57422 459.959C5.57422 468.701 123.643 475.788 269.288 475.788Z" fill="white"/>
<path d="M327.022 43.0079L326.263 49.2414L329.749 50.4391C329.799 52.5758 330.106 54.6996 330.663 56.7679L327.64 58.8911L330.185 64.6754L333.854 64.0085C334.997 65.8336 336.355 67.5236 337.902 69.0443L336.37 72.3652L341.571 76.1217L344.382 73.8079C346.314 74.8413 348.367 75.6456 350.497 76.2033L350.891 79.81L357.315 80.5586L358.566 77.1696C360.773 77.1207 362.967 76.8238 365.103 76.285L367.31 79.1976L373.298 76.7069L372.638 73.1682C374.521 72.0648 376.262 70.749 377.825 69.2485L381.255 70.732L385.134 65.6962L382.731 62.9741C383.798 61.1087 384.628 59.1254 385.205 57.0673L388.93 56.6862L389.703 50.4527L386.203 49.2414C386.159 47.1086 385.852 44.9885 385.289 42.9262L388.325 40.7894L385.767 35.005L382.112 35.6583C380.963 33.8379 379.6 32.1525 378.05 30.6361L379.568 27.3288L374.324 23.6268L371.513 25.9542C369.586 24.9583 367.549 24.1775 365.44 23.6268L365.047 20.0201L358.608 19.2852L357.357 22.6605C355.154 22.714 352.966 23.0155 350.835 23.5588L348.628 20.6326L342.653 23.096L343.328 26.6347C341.457 27.7014 339.721 28.9758 338.155 30.432L334.739 28.9621L330.845 33.9979L333.249 36.7199C332.184 38.5912 331.354 40.5787 330.775 42.6404L327.022 43.0079ZM341.965 48.0028C342.341 44.938 343.648 42.0502 345.721 39.705C347.793 37.3598 350.537 35.6626 353.606 34.8282C356.675 33.9938 359.931 34.0598 362.962 35.0177C365.992 35.9757 368.661 37.7826 370.63 40.2097C372.599 42.6368 373.78 45.575 374.024 48.6524C374.268 51.7297 373.563 54.808 371.999 57.4974C370.435 60.1868 368.082 62.3664 365.238 63.7605C362.394 65.1546 359.186 65.7003 356.022 65.3287V65.3287C351.787 64.8314 347.928 62.728 345.293 59.4799C342.658 56.2319 341.461 52.1043 341.965 48.0028V48.0028Z" stroke="#263238" stroke-width="2.19597" stroke-linejoin="round"/>
<path d="M159.079 196.395L158.391 202.043L161.554 203.132C161.598 205.067 161.876 206.99 162.383 208.862L159.571 210.795L161.877 216.035L165.194 215.422C166.231 217.074 167.463 218.604 168.863 219.982L167.458 222.989L172.279 226.419L174.824 224.31C176.572 225.251 178.431 225.982 180.362 226.487L180.714 229.754L186.547 230.434L187.672 227.358C189.67 227.316 191.656 227.046 193.59 226.555L195.586 229.277L200.984 227.032L200.394 223.697C202.1 222.693 203.68 221.501 205.103 220.145L208.21 221.506L211.724 216.96L209.545 214.469C210.511 212.779 211.266 210.983 211.794 209.121L215.168 208.767L215.857 203.118L212.694 202.03C212.65 200.095 212.371 198.172 211.864 196.3L214.676 194.367L212.356 189.127L209.053 189.712C208.001 188.071 206.761 186.551 205.356 185.18L206.762 182.172L201.94 178.783L199.382 180.893C197.64 179.962 195.79 179.236 193.871 178.729L193.52 175.462L187.686 174.782L186.561 177.858C184.563 177.901 182.577 178.17 180.643 178.661L178.647 176.061L173.235 178.293L173.84 181.505C172.133 182.509 170.553 183.701 169.13 185.058L166.024 183.697L162.509 188.256L164.688 190.733C163.725 192.429 162.97 194.229 162.439 196.096L159.079 196.395ZM172.617 200.914C172.959 198.14 174.144 195.526 176.02 193.404C177.897 191.282 180.381 189.746 183.159 188.99C185.937 188.235 188.884 188.294 191.628 189.16C194.371 190.026 196.788 191.66 198.572 193.855C200.356 196.051 201.428 198.71 201.652 201.495C201.876 204.28 201.242 207.067 199.83 209.504C198.418 211.94 196.292 213.917 193.72 215.184C191.148 216.45 188.246 216.95 185.381 216.62C181.538 216.173 178.035 214.269 175.642 211.324C173.249 208.379 172.161 204.635 172.617 200.914Z" fill="#263238"/>
<path d="M456.348 334.962V322.155L448.968 320.535C448.348 316.217 447.196 311.986 445.538 307.932L451.161 302.91L444.526 291.75L437.272 293.968C434.495 290.542 431.316 287.441 427.798 284.727L430.089 277.636L418.604 271.225L413.473 276.574C409.298 274.942 404.938 273.796 400.484 273.158L398.798 265.944H385.57L383.883 273.103C379.423 273.704 375.052 274.819 370.866 276.424L365.679 270.98L354.222 277.377L356.429 284.4C352.888 287.08 349.684 290.155 346.884 293.56L339.574 291.368L332.967 302.447L338.506 307.442C336.822 311.48 335.638 315.697 334.978 320.004L327.527 321.651V334.459L334.907 336.092C335.541 340.403 336.692 344.628 338.337 348.681L332.714 353.717L339.335 364.837L346.575 362.673C349.359 366.09 352.549 369.178 356.078 371.873L353.814 378.964L365.313 385.375L370.444 379.931C374.594 381.566 378.931 382.718 383.363 383.36L385.05 390.574H398.291L399.964 383.428C404.428 382.808 408.801 381.684 412.995 380.08L418.182 385.524L429.667 379.114L427.46 372.05C431.002 369.37 434.205 366.295 437.005 362.89L444.315 365.082L450.936 353.949L445.313 348.967C446.996 344.923 448.185 340.703 448.855 336.391L456.348 334.962ZM433.477 328.348C433.477 336.299 431.041 344.072 426.479 350.684C421.916 357.296 415.43 362.449 407.843 365.492C400.255 368.535 391.906 369.331 383.851 367.78C375.795 366.228 368.396 362.399 362.589 356.777C356.782 351.154 352.827 343.99 351.224 336.191C349.622 328.392 350.445 320.308 353.588 312.962C356.73 305.615 362.053 299.336 368.882 294.919C375.71 290.501 383.739 288.143 391.952 288.143C402.964 288.146 413.524 292.383 421.31 299.923C429.097 307.462 433.473 317.686 433.477 328.348Z" fill="white"/>
<path d="M226.513 17.0255H192.438V24.6337H226.513V17.0255Z" fill="#FF5136"/>
<path d="M214.832 28.0236H192.438V35.6317H214.832V28.0236Z" fill="#FF5136"/>
<path d="M205.329 39.0206H192.438V46.6288H205.329V39.0206Z" fill="#FF5136"/>
<path opacity="0.2" d="M226.513 17.0255H192.438V24.6337H226.513V17.0255Z" fill="black"/>
<path opacity="0.2" d="M214.832 28.0236H192.438V35.6317H214.832V28.0236Z" fill="black"/>
<path opacity="0.2" d="M205.329 39.0206H192.438V46.6288H205.329V39.0206Z" fill="black"/>
<path d="M144.826 101.301H133.271V124.221H144.826V101.301Z" fill="#FF5136"/>
<path d="M161.511 109.181H149.956V124.234H161.511V109.181Z" fill="#FF5136"/>
<path d="M178.212 115.564H166.657V124.234H178.212V115.564Z" fill="#FF5136"/>
<path opacity="0.2" d="M144.826 101.301H133.271V124.221H144.826V101.301Z" fill="black"/>
<path opacity="0.2" d="M161.511 109.181H149.956V124.234H161.511V109.181Z" fill="black"/>
<path opacity="0.2" d="M178.212 115.564H166.657V124.234H178.212V115.564Z" fill="black"/>
<path d="M270.596 141.574H130.684C128.766 141.577 126.866 141.215 125.093 140.508C123.32 139.8 121.707 138.762 120.348 137.451C118.99 136.141 117.911 134.584 117.173 132.869C116.436 131.155 116.054 129.317 116.051 127.46V15.597C116.058 11.8488 117.599 8.25612 120.337 5.60572C123.074 2.95531 126.785 1.46313 130.656 1.45594H270.568C272.488 1.45415 274.389 1.8185 276.164 2.52819C277.938 3.23788 279.551 4.279 280.91 5.59212C282.269 6.90524 283.347 8.46464 284.083 10.1813C284.82 11.8979 285.2 13.7382 285.202 15.597V127.433C285.202 131.183 283.663 134.78 280.924 137.432C278.185 140.084 274.47 141.574 270.596 141.574ZM130.684 2.74892C127.152 2.75611 123.767 4.11779 121.269 6.53593C118.772 8.95407 117.366 12.2317 117.358 15.6515V127.487C117.366 130.907 118.772 134.184 121.269 136.603C123.767 139.021 127.152 140.382 130.684 140.39H270.596C274.128 140.382 277.513 139.021 280.011 136.603C282.509 134.184 283.915 130.907 283.922 127.487V15.597C283.915 12.1773 282.509 8.89962 280.011 6.48149C277.513 4.06335 274.128 2.70167 270.596 2.69448L130.684 2.74892Z" fill="#263238"/>
<path d="M268.795 101.927H218.906V103.165H268.795V101.927Z" fill="#263238"/>
<path d="M268.795 107.113H218.906V108.351H268.795V107.113Z" fill="#263238"/>
<path d="M268.795 112.284H218.906V113.522H268.795V112.284Z" fill="#263238"/>
<path d="M268.795 117.457H218.906V118.695H268.795V117.457Z" fill="#263238"/>
<path d="M268.795 122.628H218.906V123.867H268.795V122.628Z" fill="#263238"/>
<path d="M181.627 17.5427H131.738V18.7813H181.627V17.5427Z" fill="#263238"/>
<path d="M181.627 22.7153H131.738V23.9539H181.627V22.7153Z" fill="#263238"/>
<path d="M181.627 27.8868H131.738V29.1254H181.627V27.8868Z" fill="#263238"/>
<path d="M181.627 33.0591H131.738V34.2976H181.627V33.0591Z" fill="#263238"/>
<path d="M181.627 38.2306H131.738V39.4691H181.627V38.2306Z" fill="#263238"/>
<path d="M258.942 59.326L267.882 63.8718L266.856 39.455L245.531 52.5208L254.472 57.053L247.738 69.452C246.552 69.4527 245.4 69.8358 244.463 70.5408L232.585 65.2192V65.1512C232.636 63.7637 232.12 62.4125 231.15 61.3901C230.18 60.3678 228.833 59.7564 227.401 59.6884C225.969 59.6204 224.566 60.1013 223.498 61.0268C222.429 61.9524 221.78 63.2483 221.69 64.634C221.676 64.8061 221.676 64.979 221.69 65.1512C221.699 65.9063 221.866 66.6519 222.182 67.3424L206.719 83.6747C206.224 83.5229 205.707 83.4449 205.187 83.4434C204.918 83.4436 204.649 83.471 204.386 83.525L182.119 56.1548C182.628 54.8892 182.612 53.4823 182.075 52.2278C181.538 50.9732 180.522 49.9679 179.237 49.4217C177.953 48.8756 176.501 48.8308 175.183 49.2966C173.866 49.7625 172.785 50.7031 172.167 51.922C171.859 52.5804 171.701 53.2952 171.703 54.018C171.718 54.5589 171.813 55.095 171.984 55.6104L146.681 80.7894C145.671 80.4368 144.577 80.3811 143.535 80.6293C142.493 80.8775 141.55 81.4185 140.825 82.1842C140.1 82.9499 139.625 83.9061 139.459 84.9326C139.294 85.9591 139.446 87.01 139.896 87.9531C140.346 88.8962 141.074 89.6893 141.989 90.2328C142.903 90.7763 143.963 91.0459 145.035 91.0076C146.108 90.9693 147.144 90.6248 148.015 90.0175C148.885 89.4102 149.551 88.5672 149.928 87.5945C150.141 87.0132 150.25 86.4011 150.251 85.7843C150.254 85.3516 150.192 84.9208 150.069 84.505L175.653 59.0129C176.156 59.1757 176.683 59.2584 177.213 59.2579C177.548 59.2606 177.883 59.2287 178.211 59.1626L200.351 86.3832C199.656 87.6249 199.499 89.0832 199.914 90.4373C200.329 91.7913 201.283 92.9302 202.565 93.6034C203.848 94.2766 205.354 94.429 206.753 94.027C208.151 93.625 209.327 92.7015 210.023 91.4598C210.416 90.7693 210.641 90.0014 210.683 89.2141C210.698 89.0375 210.698 88.86 210.683 88.6833C210.675 88.1328 210.58 87.5867 210.402 87.0637L226.231 70.3775C226.532 70.4323 226.838 70.4596 227.144 70.4592C228.226 70.4587 229.283 70.146 230.181 69.5609L242.27 75.005C242.315 76.4019 242.931 77.7245 243.983 78.6816C245.035 79.6388 246.436 80.1522 247.879 80.1089C249.322 80.0655 250.688 79.4691 251.676 78.4506C252.665 77.4322 253.195 76.0753 253.15 74.6783C253.15 74.6783 253.15 74.5559 253.15 74.5014C253.094 73.5246 252.758 72.5822 252.18 71.7794L258.942 59.326Z" fill="#263238"/>
<path d="M270.919 156.014C268.718 156.018 266.608 156.867 265.053 158.375C263.498 159.883 262.625 161.927 262.625 164.058V233.756C262.625 235.886 263.499 237.928 265.054 239.434C266.61 240.94 268.719 241.786 270.919 241.786H358.074C360.275 241.786 362.386 240.94 363.943 239.435C365.501 237.929 366.378 235.887 366.382 233.756V164.017C366.378 161.886 365.501 159.843 363.943 158.338C362.386 156.832 360.275 155.987 358.074 155.987L270.919 156.014Z" stroke="#263238" stroke-width="1.39871" stroke-linejoin="round"/>
<path d="M276.119 165.514H269.498V166.372H276.119V165.514Z" fill="#263238"/>
<path d="M276.119 172.51H269.498V173.367H276.119V172.51Z" fill="#263238"/>
<path d="M276.119 179.506H269.498V180.364H276.119V179.506Z" fill="#263238"/>
<path d="M276.119 186.515H269.498V187.372H276.119V186.515Z" fill="#263238"/>
<path d="M275.866 172.51H269.245V173.367H275.866V172.51Z" fill="#263238"/>
<path d="M276.119 193.51H269.498V194.367H276.119V193.51Z" fill="#263238"/>
<path d="M319.544 231.374C325.826 231.5 332.006 229.818 337.3 226.542C342.595 223.265 346.767 218.542 349.287 212.969C351.808 207.396 352.564 201.224 351.461 195.235C350.357 189.245 347.443 183.708 343.087 179.323C338.731 174.938 333.13 171.902 326.991 170.601C320.853 169.3 314.454 169.791 308.604 172.012C302.754 174.234 297.717 178.085 294.129 183.08C290.541 188.075 288.564 193.988 288.449 200.071C288.291 208.212 291.477 216.082 297.307 221.951C303.137 227.821 311.135 231.21 319.544 231.374ZM320.654 178.92C325.102 179.007 329.423 180.369 333.071 182.834C336.719 185.299 339.53 188.756 341.149 192.768C342.768 196.78 343.122 201.167 342.165 205.373C341.209 209.58 338.986 213.417 335.777 216.4C332.568 219.383 328.518 221.378 324.138 222.132C319.758 222.886 315.245 222.366 311.171 220.637C307.097 218.908 303.643 216.048 301.248 212.419C298.852 208.789 297.622 204.554 297.713 200.248C297.834 194.474 300.32 188.984 304.622 184.984C308.924 180.985 314.691 178.804 320.654 178.92Z" fill="#FF5136"/>
<path opacity="0.2" d="M319.544 231.374C325.826 231.5 332.006 229.818 337.3 226.542C342.595 223.265 346.767 218.542 349.287 212.969C351.808 207.396 352.564 201.224 351.461 195.235C350.357 189.245 347.443 183.708 343.087 179.323C338.731 174.938 333.13 171.902 326.991 170.601C320.853 169.3 314.454 169.791 308.604 172.012C302.754 174.234 297.717 178.085 294.129 183.08C290.541 188.075 288.564 193.988 288.449 200.071C288.291 208.212 291.477 216.082 297.307 221.951C303.137 227.821 311.135 231.21 319.544 231.374ZM320.654 178.92C325.102 179.007 329.423 180.369 333.071 182.834C336.719 185.299 339.53 188.756 341.149 192.768C342.768 196.78 343.122 201.167 342.165 205.373C341.209 209.58 338.986 213.417 335.777 216.4C332.568 219.383 328.518 221.378 324.138 222.132C319.758 222.886 315.245 222.366 311.171 220.637C307.097 218.908 303.643 216.048 301.248 212.419C298.852 208.789 297.622 204.554 297.713 200.248C297.834 194.474 300.32 188.984 304.622 184.984C308.924 180.985 314.691 178.804 320.654 178.92Z" fill="black"/>
<path d="M297.389 222.636C300.379 225.556 303.933 227.877 307.849 229.467C311.765 231.057 315.966 231.885 320.213 231.902C324.459 231.92 328.667 231.128 332.597 229.57C336.528 228.013 340.102 225.722 343.117 222.827C343.225 222.706 343.285 222.551 343.285 222.391C343.285 222.231 343.225 222.077 343.117 221.956L336.525 215.532C336.468 215.471 336.398 215.423 336.321 215.39C336.243 215.357 336.159 215.341 336.075 215.341C335.905 215.351 335.742 215.413 335.611 215.518C333.538 217.531 331.062 219.114 328.336 220.169C325.61 221.225 322.69 221.731 319.754 221.656H318.194C313.422 221.398 308.871 219.623 305.247 216.607C304.924 216.321 304.587 216.035 304.277 215.736C300.574 212.156 298.297 207.424 297.846 202.377C297.396 197.329 298.803 192.289 301.817 188.148C301.846 188.11 301.87 188.069 301.888 188.025C302.028 187.835 302.183 187.671 302.351 187.481C304.513 184.83 307.302 182.721 310.483 181.333C313.664 179.945 317.142 179.318 320.626 179.505C320.709 179.507 320.792 179.493 320.869 179.464C320.947 179.435 321.017 179.391 321.077 179.336C321.137 179.28 321.186 179.213 321.219 179.14C321.253 179.066 321.271 178.987 321.273 178.906L321.455 169.883C321.459 169.719 321.397 169.56 321.281 169.441C321.165 169.321 321.006 169.25 320.837 169.243C314.402 169.139 308.081 170.896 302.684 174.289C297.286 177.683 293.058 182.559 290.54 188.294C288.022 194.028 287.328 200.36 288.548 206.478C289.769 212.596 292.847 218.222 297.389 222.636Z" fill="#263238"/>
<path d="M320.85 169.257C329.612 169.266 338.012 172.643 344.203 178.647C350.393 184.65 353.868 192.788 353.864 201.272C353.859 209.755 350.375 217.889 344.178 223.887C337.981 229.884 329.577 233.252 320.815 233.252C312.053 233.252 303.65 229.884 297.453 223.887C291.255 217.889 287.771 209.755 287.767 201.272C287.762 192.788 291.237 184.65 297.428 178.647C303.618 172.643 312.018 169.266 320.78 169.257H320.85ZM319.557 230.735C325.711 230.857 331.765 229.21 336.952 226.001C342.14 222.793 346.228 218.167 348.7 212.709C351.172 207.251 351.917 201.206 350.84 195.338C349.764 189.47 346.914 184.043 342.652 179.743C338.39 175.443 332.906 172.463 326.895 171.181C320.884 169.898 314.614 170.37 308.88 172.537C303.146 174.704 298.204 178.469 294.68 183.356C291.156 188.242 289.207 194.03 289.081 199.989C288.915 207.978 292.032 215.704 297.747 221.469C303.461 227.234 311.306 230.567 319.557 230.735ZM320.668 178.281C325.232 178.37 329.666 179.769 333.41 182.299C337.154 184.829 340.038 188.377 341.699 192.494C343.36 196.611 343.723 201.113 342.741 205.43C341.759 209.747 339.477 213.685 336.184 216.746C332.89 219.807 328.733 221.854 324.239 222.627C319.744 223.401 315.113 222.866 310.931 221.092C306.75 219.317 303.206 216.382 300.748 212.657C298.29 208.932 297.028 204.585 297.122 200.166C297.247 194.241 299.798 188.607 304.214 184.502C308.629 180.398 314.548 178.16 320.668 178.281ZM319.754 221.711C324.065 221.796 328.306 220.642 331.94 218.393C335.574 216.145 338.437 212.904 340.168 209.08C341.899 205.256 342.42 201.02 341.665 196.91C340.91 192.799 338.913 188.997 335.926 185.985C332.939 182.974 329.097 180.887 324.886 179.99C320.674 179.092 316.282 179.424 312.265 180.944C308.249 182.463 304.787 185.101 302.32 188.525C299.852 191.949 298.488 196.005 298.401 200.179C298.343 202.95 298.85 205.704 299.892 208.285C300.933 210.866 302.49 213.223 304.473 215.221C306.456 217.22 308.826 218.82 311.448 219.931C314.07 221.042 316.892 221.642 319.754 221.697V221.711Z" fill="#263238"/>
<path d="M156.352 267.427V349.987" stroke="#263238" stroke-width="1.23086" stroke-linecap="round" stroke-linejoin="round"/>
<path d="M170.059 298.581H162.819V345.85H170.059V298.581Z" fill="#263238"/>
<path d="M180.404 317.868H173.164V345.837H180.404V317.868Z" fill="#FF5136"/>
<path d="M192.566 283.297H185.326V345.85H192.566V283.297Z" fill="white" stroke="#263238" stroke-width="1.23086" stroke-linejoin="round"/>
<path d="M212.75 274.274H205.511V345.836H212.75V274.274Z" fill="#263238"/>
<path d="M223.111 328.144H215.871V345.851H223.111V328.144Z" fill="#FF5136"/>
<path d="M235.271 303.59H228.031V345.85H235.271V303.59Z" fill="white" stroke="#263238" stroke-width="1.23086" stroke-linejoin="round"/>
<path d="M264.761 310.055H257.521V345.836H264.761V310.055Z" fill="#263238"/>
<path d="M275.122 282.29H267.883V345.836H275.122V282.29Z" fill="#FF5136"/>
<path d="M287.282 296.323H280.043V345.837H287.282V296.323Z" fill="white" stroke="#263238" stroke-width="1.23086" stroke-linejoin="round"/>
<path d="M148.579 334.908H152.628" stroke="#263238" stroke-width="1.23086" stroke-linecap="round" stroke-linejoin="round"/>
<path d="M148.579 324.713H152.628" stroke="#263238" stroke-width="1.23086" stroke-linecap="round" stroke-linejoin="round"/>
<path d="M148.579 314.533H152.628" stroke="#263238" stroke-width="1.23086" stroke-linecap="round" stroke-linejoin="round"/>
<path d="M148.579 304.339H152.628" stroke="#263238" stroke-width="1.23086" stroke-linecap="round" stroke-linejoin="round"/>
<path d="M148.579 294.145H152.628" stroke="#263238" stroke-width="1.23086" stroke-linecap="round" stroke-linejoin="round"/>
<path d="M148.579 283.95H152.628" stroke="#263238" stroke-width="1.23086" stroke-linecap="round" stroke-linejoin="round"/>
<path d="M148.579 273.756H152.628" stroke="#263238" stroke-width="1.23086" stroke-linecap="round" stroke-linejoin="round"/>
<path d="M151.56 345.85H292.357" stroke="#263238" stroke-width="1.23086" stroke-linecap="round" stroke-linejoin="round"/>
<path opacity="0.3" d="M180.404 317.868H173.164V345.837H180.404V317.868Z" fill="black"/>
<path opacity="0.3" d="M223.111 328.144H215.871V345.851H223.111V328.144Z" fill="black"/>
<path opacity="0.3" d="M275.122 282.29H267.883V345.836H275.122V282.29Z" fill="black"/>
<path d="M142.83 255.968C140.405 255.975 138.082 256.911 136.367 258.571C134.653 260.231 133.686 262.48 133.679 264.828V345.823C133.686 348.172 134.652 350.423 136.366 352.085C138.081 353.747 140.404 354.686 142.83 354.697H298.092C300.522 354.693 302.851 353.757 304.569 352.094C306.287 350.43 307.254 348.175 307.258 345.823V264.801C307.254 262.448 306.287 260.193 304.569 258.53C302.851 256.867 300.522 255.93 298.092 255.927L142.83 255.968Z" stroke="#263238" stroke-width="1.39871" stroke-linejoin="round"/>
<path d="M19.9691 437.025C19.9691 437.025 23.2163 458.013 15.3583 460.163C7.50034 462.313 2.04613 459.482 1.06212 456.338C0.0781166 453.194 7.03645 430.738 7.03645 430.738L19.9691 437.025Z" fill="white"/>
<path d="M156.647 441.667L190.806 449.507C190.806 449.507 193.393 450.868 193.111 453.114C192.83 455.359 177.241 461.116 172.869 461.838C168.497 462.559 143.264 465.744 139.68 462.763C136.095 459.783 143.672 436.019 143.672 436.019L156.647 441.667Z" fill="white"/>
<path d="M94.7964 58.9047C94.7964 58.9047 99.604 65.9276 99.6743 69.4798C99.7446 73.0321 99.2947 77.088 101.544 79.184C103.793 81.28 105.522 83.5665 104.594 84.6281L101.881 87.7584C101.881 87.7584 104.201 99.7219 101.192 101.886C98.1842 104.05 89.1454 101.886 89.1454 101.886V109.617C89.1454 109.617 76.2971 105.533 67.427 106.296L65.8525 89.7319C65.8525 89.7319 85.125 53.8552 94.7964 58.9047Z" fill="white"/>
<path d="M173.826 107.848C173.826 107.848 172.673 99.3553 176.947 94.2378C176.947 94.2378 171.83 93.394 172.448 91.5974C173.067 89.8009 180.883 92.1555 180.883 92.1555L178.774 88.0724C178.774 88.0724 171.394 85.7042 172.308 83.4857C173.222 81.2672 184.046 86.7249 184.046 86.7249C184.046 86.7249 177.621 81.5258 178.521 79.3618C179.421 77.1978 185.957 77.2386 189.444 88.4535L191.215 86.3166C191.215 86.3166 191.847 73.5502 193.661 72.8561C193.661 72.8561 196.472 74.3532 196.472 81.6892C196.472 81.6892 199.284 84.9692 197.498 87.7457C195.713 90.5222 191.51 96.7693 187.939 99.1103C184.369 101.451 184.383 110.584 184.383 110.584L173.826 107.848Z" fill="white"/>
<path d="M60.6919 38.0389L62.3085 35.9429C62.3085 35.9429 80.4002 28.1306 79.9503 25.6944C79.5005 23.2581 69.2528 26.6199 67.2988 25.3269C67.2988 25.3269 69.1684 2.2711 67.2988 1.52254C65.4292 0.773971 63.3487 12.3427 63.3487 12.3427C63.3487 12.3427 60.72 0.474539 58.6958 0.814796C56.6715 1.15505 57.515 13.064 57.515 13.064C57.515 13.064 53.6492 5.42868 52.1451 6.13642C50.641 6.84415 52.8901 16.1536 52.8901 16.1536C52.8901 16.1536 50.0787 12.9552 48.9541 13.9215C49.3208 18.7309 50.6833 23.4197 52.9604 27.7087L49.0525 34.1055L60.6919 38.0389Z" fill="white"/>
<path d="M171.871 107.902L184.339 109.59C184.339 109.59 175.216 184.447 172.531 193.688C169.846 202.929 167.429 209.571 158.263 210.02C149.098 210.469 116.443 183.888 116.443 183.888L114.925 220.636L117.047 235.88C117.047 235.88 77.1107 256.2 36.4994 238.52L37.4131 220.636L22.7795 138.838L11.2666 99.9948L48.4199 31.7937L61.8867 38.5988L38.13 100.675L44.7791 121.404L52.2154 118.518L60.4388 108.365C60.4388 108.365 74.3836 101.356 92.0255 111.087L94.8369 119.607C94.8369 119.607 115.529 121.118 150.461 168.005L171.871 107.902Z" fill="#FF5136"/>
<path opacity="0.2" d="M82.7344 107.902L84.3088 118.382C84.3088 118.382 95.9201 125.841 100.587 128.427C100.587 128.427 112.002 198.22 103.553 211.953L94.6549 225.441C94.6549 225.441 103.75 225.441 107.939 219.275C107.939 219.275 102.724 236.125 89.2007 240.657C89.2007 240.657 109.963 238.561 117.104 235.893L114.982 220.65L118.398 135.654C118.398 135.654 121.617 129.965 94.8517 119.771L90.9016 110.584L82.7344 107.902Z" fill="black"/>
<path d="M94.7955 59.8584C94.7955 59.8584 99.1533 66.0375 99.6734 69.4809C100.194 72.9243 98.6472 76.7215 101.543 79.185C104.439 81.6485 105.76 83.2681 104.593 84.6291C103.427 85.9901 101.88 87.7594 101.88 87.7594C101.88 87.7594 103.061 99.4235 101.192 101.887C99.322 104.35 89.1445 101.887 89.1445 101.887V109.618" stroke="#263238" stroke-width="1.39871" stroke-linecap="round" stroke-linejoin="round"/>
<path d="M89.1454 87.2414C89.1454 87.2414 85.0688 77.0473 82.0184 79.5107C78.968 81.9742 81.681 95.4484 89.1454 92.495" stroke="#263238" stroke-width="1.39871" stroke-linecap="round" stroke-linejoin="round"/>
<path d="M88.033 84.874C88.033 84.874 92.8827 84.4929 89.8183 73.4822C86.7538 62.4715 93.3888 63.955 100.516 60.8246C107.643 57.6943 109.344 51.9507 107.812 48.5754C106.279 45.2 103.735 43.3082 94.7383 44.955C94.7383 44.955 84.8982 33.9443 75.3955 46.1119C75.3955 46.1119 54.0004 45.7853 48.2369 55.6391C42.4735 65.4929 50.1065 90.6447 61.3102 99.0286C72.5138 107.413 83.4644 100.703 85.7417 92.8224C85.7417 92.8224 78.1086 88.8346 82.0165 79.634C82.0165 79.5115 85.573 78.2866 88.033 84.874Z" fill="#263238"/>
<path d="M21.6699 132.632C21.6699 132.632 73.4428 96.2792 118.567 132.632L114.926 220.582L117.048 235.825C117.048 235.825 78.897 253.124 36.5003 238.466L37.414 220.582L21.6699 132.632Z" stroke="#263238" stroke-width="1.39871" stroke-linecap="round" stroke-linejoin="round"/>
<path d="M51.5273 119.416L60.4396 108.419C60.4396 108.419 77.9128 102.567 92.0263 111.141L94.8377 119.661" stroke="#263238" stroke-width="1.39871" stroke-linecap="round" stroke-linejoin="round"/>
<path d="M118.566 132.632L163.648 182.827" stroke="#263238" stroke-width="1.39871" stroke-linecap="round" stroke-linejoin="round"/>
<path d="M116.485 182.867C116.485 182.867 146.357 209.775 158.263 210.088C170.17 210.401 172.152 196.478 172.152 196.478L184.34 109.644L171.871 108.011L150.42 168.209" stroke="#263238" stroke-width="1.39871" stroke-linecap="round" stroke-linejoin="round"/>
<path d="M184.13 109.372C184.13 109.372 185.69 99.5591 189.753 97.3271C193.815 95.095 198.637 86.4389 197.091 83.9482C195.544 81.4575 190.821 89.5556 186.562 91.1072C182.302 92.6587 178.844 100.28 178.254 103.588" stroke="#263238" stroke-width="1.39871" stroke-linecap="round" stroke-linejoin="round"/>
<path d="M195.783 83.5942C195.783 83.5942 195.783 72.2568 193.632 72.7876C191.482 73.3184 191.187 87.6772 191.187 87.6772" stroke="#263238" stroke-width="1.39871" stroke-linecap="round" stroke-linejoin="round"/>
<path d="M189.611 89.1333C189.611 89.1333 188.206 82.7772 184.34 79.6741C180.474 76.571 178.056 78.245 178.492 79.293C178.928 80.341 185.521 88.8202 185.366 91.7056" stroke="#263238" stroke-width="1.39871" stroke-linecap="round" stroke-linejoin="round"/>
<path d="M182.921 85.9893C182.921 85.9893 172.308 81.2801 172.279 84.0975C172.251 86.9148 178.746 88.0036 178.746 88.0036L180.854 92.0867C180.854 92.0867 171.914 89.3647 172.42 91.5287C172.926 93.6927 176.918 94.1691 176.918 94.1691C176.918 94.1691 172.575 98.3338 173.798 107.779" stroke="#263238" stroke-width="1.39871" stroke-linecap="round" stroke-linejoin="round"/>
<path d="M110.905 236.846L113.618 255.247C113.618 255.247 138.598 327.803 142.393 341.985C146.189 356.167 148.368 388.26 149.422 402.973C150.476 417.685 159.262 442.442 159.262 442.442C159.262 442.442 158.18 452.432 139.722 450.854C139.722 450.854 132.117 421.415 123.978 404.061C115.839 386.708 114.644 360.386 114.644 360.386L75.0029 289.939C75.0029 289.939 66.8497 330.961 61.4376 346.191C55.8147 361.897 17.4806 449.043 20.1656 442.932C20.1656 442.932 14.7395 446.09 3.29688 438.196C3.29688 438.196 11.436 411.915 13.6008 397.719C15.7657 383.524 27.1801 350.927 27.1801 350.927C27.1801 350.927 29.8932 289.422 34.2087 270.49C34.2087 270.49 31.3973 249.639 37.3997 234.913C61.1908 242.438 86.7272 243.109 110.905 236.846Z" fill="#263238"/>
<path d="M53.2842 277.568L71.0806 282.59L73.6672 288.701" stroke="white" stroke-width="1.39871" stroke-linecap="round" stroke-linejoin="round"/>
<path d="M140.116 448.703C140.116 448.703 137.713 460.367 139.681 462.763C140.721 464.015 143.813 463.783 145.304 463.811C148.734 463.879 152.178 463.661 155.608 463.443C162.467 463.008 169.496 463.076 176.117 461.02C181.696 459.4 187.025 457.061 191.96 454.066C194.659 452.324 191.96 449.506 191.96 449.506L159.276 442.402" stroke="#263238" stroke-width="1.39871" stroke-linecap="round" stroke-linejoin="round"/>
<path d="M139.947 458.652C139.947 458.652 176.679 464.491 191.959 449.506" stroke="#263238" stroke-width="1.39871" stroke-linecap="round" stroke-linejoin="round"/>
<path d="M4.71724 437.025C4.71724 437.025 0.500067 451.03 1.11859 455.44C1.7371 459.85 6.30571 460.884 11.6475 460.762C16.9892 460.639 19.1821 458.326 19.9694 454.828C20.7566 451.33 19.9694 440.02 19.9694 440.02" stroke="#263238" stroke-width="1.39871" stroke-linecap="round" stroke-linejoin="round"/>
<path d="M1.06152 453.304L19.9685 454.829" stroke="#263238" stroke-width="1.39871" stroke-linecap="round" stroke-linejoin="round"/>
<path d="M50.4166 32.2289C52.0192 29.398 52.961 27.6695 52.961 27.6695C52.961 27.6695 47.7457 15.4202 49.0531 13.964C50.3604 12.5077 53.3827 16.686 53.3827 16.686C53.3827 16.686 50.2901 6.98188 52.2441 6.15166C54.198 5.32143 57.6842 14.3178 57.6842 14.3178C57.6842 14.3178 56.7705 1.32001 58.7947 0.70755C60.819 0.0950881 63.2509 13.0657 63.2509 13.0657C63.2509 13.0657 65.8656 1.52416 67.4681 1.41528C69.0706 1.3064 67.4681 25.2196 67.4681 25.2196C70.7012 26.7576 80.2039 23.0012 80.1196 26.0363C80.0353 29.0713 61.8452 36.0534 61.8452 36.0534C61.5265 36.4528 61.2487 36.8813 61.0158 37.3328" stroke="#263238" stroke-width="1.39871" stroke-linecap="round" stroke-linejoin="round"/>
<path d="M21.669 132.619L11.2666 99.995L48.4199 31.8347L61.8867 38.6399L38.13 100.716L44.7791 121.445" stroke="#263238" stroke-width="1.39871" stroke-linecap="round" stroke-linejoin="round"/>
<path d="M22.8788 94.8363C22.8788 94.8363 36.2051 94.7274 38.131 100.73C32.2933 100.415 26.5105 101.965 21.6699 105.139" stroke="#263238" stroke-width="1.39871" stroke-linecap="round" stroke-linejoin="round"/>
<path d="M66.9062 107.004V97.545" stroke="#263238" stroke-width="1.39871" stroke-linecap="round" stroke-linejoin="round"/>
<path opacity="0.2" d="M118.34 158.955L121.672 180.418C121.672 180.418 124.399 166.413 126.1 166.413C127.801 166.413 126.1 182.827 126.1 182.827C126.1 182.827 154.046 207.325 166.135 207.462C166.135 207.462 159.416 212.035 152.682 208.632C145.949 205.229 116.429 182.773 116.429 182.773L118.34 158.955Z" fill="black"/>
<path opacity="0.2" d="M59.498 37.4417L33.9419 97.5446C33.9419 97.5446 25.0437 97.4085 21.6699 105.139L35.3336 102.771L39.9303 123.186L44.78 121.403L38.131 100.675L61.8877 38.5985L59.498 37.4417Z" fill="black"/>
<path d="M411.688 143.14L401.624 122.33L362.066 147.631L394.707 203.61L420.165 189.619L411.688 143.14Z" fill="white"/>
<path d="M444.288 323.135C444.288 323.135 450.684 340.325 451.626 348.695C452.567 357.066 449.686 392.316 450.304 402.034C450.923 411.752 456.349 440.755 456.349 440.755C456.349 440.755 429.738 459.483 421.29 453.454C421.29 453.454 440.042 438.755 441.94 432.902L435.867 393.174L429.837 346.191C429.837 346.191 428.305 336.378 426.168 331.329C424.031 326.279 424.355 315.568 424.355 315.568L444.288 323.135Z" fill="white"/>
<path d="M443.725 321.611C443.725 321.611 450.641 339.712 452.257 352.71C453.874 365.708 449.01 395.188 450.613 409.383C452.215 423.579 453.86 431.432 456.7 438.904L455.294 460.83H451.653L450.247 448.39C450.247 448.39 444.54 446.09 441.082 454.052C437.624 462.014 424.846 463.062 418.787 458.448C418.787 458.448 418.787 454.883 423.342 451.739C427.896 448.595 439.789 438.768 441.953 432.902C441.953 432.902 435.459 392.071 433.941 378.842C432.423 365.613 430.047 341.563 427.011 333.806C423.974 326.048 423.988 314.955 423.988 314.955" stroke="#263238" stroke-width="1.39871" stroke-linecap="round" stroke-linejoin="round"/>
<path d="M455.308 434.794C455.308 434.794 437.469 453.576 422.498 453.454" stroke="#263238" stroke-width="1.39871" stroke-linecap="round" stroke-linejoin="round"/>
<path d="M421.29 453.454C423.764 453.721 426.269 453.417 428.599 452.569C432.634 451.208 447.155 444.403 454.296 435.815L456.489 438.224L455.336 460.327L451.667 460.831L450.262 448.391C450.262 448.391 445.566 446.308 442.544 451.426C439.522 456.543 437.343 460.055 432.057 461.184C426.772 462.314 418.801 458.462 418.801 458.462C418.801 458.462 417.41 456.434 421.29 453.454Z" fill="#263238"/>
<path d="M456.729 323.72C458.402 329.689 460.439 335.556 462.829 341.291C466.02 348.382 493.587 420.095 493.587 420.095C493.587 420.095 495.681 458.911 507.419 458.789C519.157 458.666 506.955 431.663 506.955 431.663L499.814 416.869C499.814 416.869 497.087 373.412 493.713 357.433L479.347 319.964L456.729 323.72Z" fill="white"/>
<path d="M479.501 321.216C479.501 321.216 491.295 347.198 493.727 357.433C496.159 367.668 498.605 413.712 499.828 416.869C501.051 420.027 520.562 453.467 508.768 460.164C496.974 466.86 494.191 421.592 494.191 421.592C494.191 421.592 466.962 348.369 462.885 341.292C458.809 334.214 454.353 313.731 454.353 313.731L479.501 321.216Z" stroke="#263238" stroke-width="1.39871" stroke-linecap="round" stroke-linejoin="round"/>
<path d="M511.058 443.001C511.058 443.001 510.243 452.065 507.15 453.345C504.057 454.624 497.226 444.403 497.226 444.403" stroke="#263238" stroke-width="1.39871" stroke-linecap="round" stroke-linejoin="round"/>
<path d="M497.255 445.968C497.255 445.968 501.472 461.429 507.095 460.776C512.718 460.123 513.73 451.535 511.073 444.907C511.073 444.907 510.131 451.712 507.165 453.345C504.171 453.386 497.255 445.968 497.255 445.968Z" fill="#263238"/>
<path d="M447.478 186.067C447.478 186.067 461.69 204.849 471.544 235.064C481.398 265.278 480.386 323.149 480.386 323.149C480.386 323.149 443.711 334.568 408.16 320.06L414.669 189.673C414.669 189.673 437.54 190.082 447.478 186.067Z" fill="#263238"/>
<path d="M429.119 49.8547C429.119 49.8547 418.07 59.8719 416.777 66.432C415.707 71.0228 413.995 75.4507 411.688 79.5932C412.873 81.3379 414.616 82.6577 416.651 83.3496C416.651 83.3496 417.368 96.783 421.402 97.8173L431.045 95.3675L432.072 101.125L445.904 96.0344V88.2765L456.447 81.6075L452.694 64.1727L435.544 56.4149L429.119 49.8547Z" fill="white"/>
<path d="M414.599 188.625L413.376 169.789C413.376 169.789 404.379 153.456 407.233 147.522C410.382 141.003 429.303 116.858 429.303 116.858L427.447 103.684L453.959 92.6864L455.224 103.684L452.019 105.984L455.576 113.36C455.576 113.36 455.801 111.169 461.958 122.289C468.115 133.408 491.309 172.973 493.137 180.568C494.964 188.162 457.066 214.92 444.274 221.235C444.274 221.235 442.798 218.173 427.602 229.402C423.736 228.748 418.394 225.387 417.256 223.304C416.117 221.222 421.628 216.268 421.628 216.268C421.628 216.268 424.945 210.197 430.807 215.056H437.048L472.768 182.868L454.662 157.213L447.479 186.026C447.479 186.026 424.242 192.858 414.599 188.625Z" fill="white"/>
<path d="M427.446 103.67L429.344 117.13L455.223 103.67L453.958 92.6725L427.446 103.67Z" stroke="#263238" stroke-width="1.39871" stroke-linecap="round" stroke-linejoin="round"/>
<path d="M429.346 117.144C429.346 117.144 405.8 145.031 406.432 150.53C407.065 156.028 413.377 169.788 413.377 169.788L414.67 189.659C414.67 189.659 433.718 190.163 447.48 186.066L454.663 157.253" stroke="#263238" stroke-width="1.39871" stroke-linecap="round" stroke-linejoin="round"/>
<path d="M472.767 182.868L436.289 129.625C436.289 129.625 432.704 117.375 441.335 113.007C449.966 108.638 457.473 114.177 460.158 117.09C462.843 120.002 491.801 174.021 493.15 180.514C494.5 187.006 463.911 212.974 446.213 219.983C446.213 219.983 438.158 224.665 438.158 215.056L472.767 182.868Z" stroke="#263238" stroke-width="1.39871" stroke-linecap="round" stroke-linejoin="round"/>
<path d="M455.224 113.36L451.808 105.466" stroke="#263238" stroke-width="1.39871" stroke-linecap="round" stroke-linejoin="round"/>
<path d="M438.158 215.111H430.82C430.82 215.111 425.099 210.157 422.386 215.111C419.673 220.065 416.243 221.045 417.269 223.359C418.295 225.672 424.171 230.286 427.615 229.456C431.059 228.626 440.773 220.977 440.773 220.977" stroke="#263238" stroke-width="1.39871" stroke-linecap="round" stroke-linejoin="round"/>
<path d="M426.477 53.3799C426.477 53.3799 417.86 60.675 416.904 64.7172C415.948 68.7595 416.355 75.6055 411.688 79.5933C411.688 79.5933 411.927 82.8597 416.651 83.3497C416.651 83.3497 419.069 96.2386 421.402 97.8174C423.736 99.3962 438.018 92.2644 443.613 89.3246C445.037 88.3746 446.076 86.9744 446.55 85.364" stroke="#263238" stroke-width="1.39871" stroke-linecap="round" stroke-linejoin="round"/>
<path d="M419.785 87.2831C422.425 86.8479 424.807 85.4864 426.476 83.4586" stroke="#263238" stroke-width="1.39871" stroke-linecap="round" stroke-linejoin="round"/>
<path d="M419.785 68.6368C419.785 68.6368 423.187 66.7177 425.057 69.9025" stroke="#263238" stroke-width="1.39871" stroke-linecap="round" stroke-linejoin="round"/>
<path d="M422.119 75.4832C422.119 76.5856 421.796 77.4839 421.276 77.5111C420.756 77.5383 420.278 76.6672 420.221 75.5784C420.165 74.4896 420.545 73.5641 421.065 73.5369C421.585 73.5097 422.063 74.3807 422.119 75.4832Z" fill="#263238"/>
<path d="M431.046 95.3673L432.185 101.723" stroke="#263238" stroke-width="1.39871" stroke-linecap="round" stroke-linejoin="round"/>
<path d="M442.095 74.6389C442.095 74.6389 444.203 70.6783 446.551 72.9921C448.898 75.3058 453.354 86.0035 441.336 83.4584C441.336 83.4584 440.534 89.9913 446.551 91.6245C452.567 93.2578 463.996 84.2478 464.375 68.8818C464.755 53.5158 449.432 43.1447 441.336 46.1118C441.336 46.1118 429.598 28.2959 417.958 35.8905C406.319 43.485 414.163 55.1762 411.689 57.8166C409.215 60.457 403.929 57.9799 403.761 65.0709C403.592 72.1618 415.836 71.4405 415.836 71.4405L417.312 63.6282L427.447 53.3797C427.447 53.3797 425.057 60.7837 429.12 67.2213C432.789 73.0193 442.095 74.6389 442.095 74.6389Z" fill="#263238"/>
<path d="M464.375 68.8825C464.375 68.8825 469.998 70.1074 469.38 77.4706C468.761 84.8337 456.067 102.935 457.023 113.361L489.791 172.484C489.791 172.484 504.537 169.762 503.848 155.063C503.159 140.364 485.166 127.978 488.638 117.145C492.11 106.311 505.746 78.7227 486.431 62.9076C467.116 47.0925 437.006 71.3324 437.006 71.3324L451.752 66.7321L464.375 68.8825Z" fill="#263238"/>
<path d="M410.423 141.929L401.623 122.33L362.066 147.631L394.707 203.61L414.5 193.062" stroke="#263238" stroke-width="1.39871" stroke-linecap="round" stroke-linejoin="round"/>
<path d="M374.38 175.328C374.38 175.328 372.244 171.054 375.097 168.699C377.951 166.345 387.749 159.363 387.749 161.078C387.814 161.494 387.787 161.919 387.671 162.325C387.555 162.73 387.351 163.108 387.074 163.432C384.263 167.08 377.529 172.959 377.965 173.436C377.965 173.436 390.251 165.542 391.432 166.29C391.727 166.481 391.559 167.502 390.532 168.495C387.165 171.396 383.61 174.087 379.891 176.553C379.891 176.553 392.852 171.694 394.525 172.469C395.003 172.687 394.904 173.395 393.4 174.28C389.637 176.26 385.765 178.041 381.803 179.615L385.05 184.868C385.05 184.868 378.921 185.903 374.38 175.328Z" fill="white" stroke="#263238" stroke-width="1.39871" stroke-linecap="round" stroke-linejoin="round"/>
<path d="M445.004 87.2831L445.904 96.0345" stroke="#263238" stroke-width="1.39871" stroke-linejoin="round"/>
</g>
<defs>
<clipPath id="clip0">
<rect width="532.643" height="475.788" fill="white" transform="translate(0.359375)"/>
</clipPath>
</defs>
</svg>
