<svg width="108" height="120" viewBox="0 0 108 120" fill="none" xmlns="http://www.w3.org/2000/svg">
<path d="M83.8336 5.49375H83.857V5.34375C83.857 4.41878 84.6102 3.66563 85.5352 3.66563H86.332C87.257 3.66563 88.0102 4.41878 88.0102 5.34375V7.88906H83.8336V5.49375ZM104.323 111.061V111.211C104.323 114.034 102.023 116.334 99.1992 116.334H8.80078C6.07776 116.334 3.84156 114.195 3.68599 111.51C5.14198 112.522 6.90869 113.119 8.82422 113.119H80.0977C82.4809 113.119 84.7457 112.189 86.4381 110.497L104.37 92.5653V111.061H104.323ZM99.1992 7.88906H91.8258V5.34375C91.8258 2.30778 89.368 -0.15 86.332 -0.15H85.5352C82.4992 -0.15 80.0414 2.30778 80.0414 5.34375V7.88906H27.982V5.34375C27.982 2.30735 25.5004 -0.15 22.4883 -0.15H21.6914C18.6324 -0.15 16.1742 2.30735 16.1742 5.34375V7.88906H8.80078C3.86638 7.88906 -0.138281 11.8937 -0.138281 16.8281V111.211C-0.138281 116.145 3.86638 120.15 8.80078 120.15H99.1992C104.134 120.15 108.138 116.145 108.138 111.211V16.8281C108.138 11.8937 104.134 7.88906 99.1992 7.88906ZM21.668 3.66563H22.4648C23.3898 3.66563 24.143 4.41878 24.143 5.34375V7.88906H19.9898V5.34375C19.9898 4.41878 20.743 3.66563 21.668 3.66563ZM101.786 89.7092L84.7543 106.741C84.8281 106.312 84.8648 105.867 84.8648 105.422V93.6797C84.8648 91.5594 86.6024 89.8219 88.7227 89.8219H100.465C100.915 89.8219 101.352 89.7843 101.786 89.7092ZM104.346 33.0141H29.5898C28.5461 33.0141 27.682 33.8781 27.682 34.9219C27.682 35.9657 28.5461 36.8297 29.5898 36.8297H104.346V82.1719C104.346 84.2922 102.609 86.0297 100.488 86.0297H88.7461C84.5148 86.0297 81.0727 89.4718 81.0727 93.7031V105.445C81.0727 107.566 79.3351 109.303 77.2148 109.303H8.80078C5.97781 109.303 3.67734 107.004 3.67734 104.156V36.8063H22.5586C23.6024 36.8063 24.4664 35.9422 24.4664 34.8984C24.4664 33.8547 23.6024 32.9906 22.5586 32.9906H3.67734V16.8281C3.67734 14.0052 5.97694 11.7047 8.82422 11.7047H16.1977V16.7344C16.1977 19.7703 18.6554 22.2281 21.6914 22.2281C22.7352 22.2281 23.5992 21.3641 23.5992 20.3203C23.5992 19.2765 22.7352 18.4125 21.6914 18.4125C20.7664 18.4125 20.0133 17.6593 20.0133 16.7344V11.7047H80.0648V16.7344C80.0648 19.7703 82.5226 22.2281 85.5586 22.2281C86.6024 22.2281 87.4664 21.3641 87.4664 20.3203C87.4664 19.2765 86.6024 18.4125 85.5586 18.4125C84.6336 18.4125 83.8805 17.6593 83.8805 16.7344V11.7047H99.2227C102.046 11.7047 104.346 14.0047 104.346 16.8281V33.0141Z" fill="black" stroke="black" stroke-width="0.3"/>
<path d="M85.6524 58.9453H94.0195C95.918 58.9453 97.4414 57.3984 97.4414 55.5234V47.1562C97.4414 45.2578 95.8945 43.7344 94.0195 43.7344H85.6524C83.7539 43.7344 82.2305 45.2812 82.2305 47.1562V55.5234C82.207 57.3984 83.7539 58.9453 85.6524 58.9453ZM85.7227 47.2266H93.9258V55.4297H85.7227V47.2266Z" fill="#1CB7FF"/>
<path d="M85.6524 81.2109H94.0195C95.918 81.2109 97.4414 79.6641 97.4414 77.7891V69.4219C97.4414 67.5234 95.8945 66 94.0195 66H85.6524C83.7539 66 82.2305 67.5469 82.2305 69.4219V77.7891C82.207 79.6641 83.7539 81.2109 85.6524 81.2109ZM85.7227 69.4922H93.9258V77.6953H85.7227V69.4922Z" fill="#1CB7FF"/>
<path d="M61.7695 58.9453H70.1367C72.0351 58.9453 73.5586 57.3984 73.5586 55.5234V47.1562C73.5586 45.2578 72.0117 43.7344 70.1367 43.7344H61.7695C59.8711 43.7344 58.3476 45.2812 58.3476 47.1562V55.5234C58.3242 57.3984 59.8711 58.9453 61.7695 58.9453ZM61.8398 47.2266H70.0429V55.4297H61.8398V47.2266Z" fill="#1CB7FF"/>
<path d="M22.3711 87.1875H13.9805C12.082 87.1875 10.5586 88.7344 10.5586 90.6094V98.9766C10.5586 100.875 12.1055 102.398 13.9805 102.398H22.3477C24.2461 102.398 25.7695 100.852 25.7695 98.9766V90.6094C25.793 88.7344 24.2461 87.1875 22.3711 87.1875ZM22.2773 98.9063H14.0742V90.7031H22.2773V98.9063Z" fill="#1CB7FF"/>
<path d="M13.9805 58.9453H22.3477C24.2461 58.9453 25.7695 57.3984 25.7695 55.5234V47.1562C25.7695 45.2578 24.2227 43.7344 22.3477 43.7344H13.9805C12.082 43.7344 10.5586 45.2812 10.5586 47.1562V55.5234C10.5586 57.3984 12.1055 58.9453 13.9805 58.9453ZM14.0742 47.2266H22.2773V55.4297H14.0742V47.2266Z" fill="#1CB7FF"/>
<path d="M61.7695 80.6719H70.1367C72.0351 80.6719 73.5586 79.125 73.5586 77.25V68.8828C73.5586 66.9844 72.0117 65.4609 70.1367 65.4609H61.7695C59.8711 65.4609 58.3476 67.0078 58.3476 68.8828V77.25C58.3242 79.1484 59.8711 80.6719 61.7695 80.6719ZM61.8398 68.9531H70.0429V77.1563H61.8398V68.9531Z" fill="#1CB7FF"/>
<path d="M22.3711 65.4375H13.9805C12.082 65.4375 10.5586 66.9844 10.5586 68.8594V77.2266C10.5586 79.125 12.1055 80.6484 13.9805 80.6484H22.3477C24.2461 80.6484 25.7695 79.1016 25.7695 77.2266V68.8594C25.793 66.9844 24.2461 65.4375 22.3711 65.4375ZM22.2773 77.1563H14.0742V68.9531H22.2773V77.1563Z" fill="#1CB7FF"/>
<path d="M37.8867 58.9453H46.2539C48.1523 58.9453 49.6758 57.3984 49.6758 55.5234V47.1562C49.6758 45.2578 48.1289 43.7344 46.2539 43.7344H37.8867C35.9883 43.7344 34.4648 45.2812 34.4648 47.1562V55.5234C34.4414 57.3984 35.9883 58.9453 37.8867 58.9453ZM37.957 47.2266H46.1601V55.4297H37.957V47.2266Z" fill="#1CB7FF"/>
<path d="M61.8398 98.9062C61.793 97.9687 61.0195 97.2422 60.082 97.2422C59.1211 97.2422 58.3242 98.0391 58.3242 99C58.3242 100.898 59.8711 102.422 61.7461 102.422H70.1133C72.0117 102.422 73.5352 100.875 73.5352 99V90.6328C73.5352 88.7344 71.9883 87.2109 70.1133 87.2109H61.7461C59.8477 87.2109 58.3242 88.7578 58.3242 90.6328V93.0469C58.3242 94.0078 59.1211 94.8047 60.082 94.8047C61.043 94.8047 61.8398 94.0078 61.8398 93.0469V90.7031H70.043V98.9062H61.8398Z" fill="#1CB7FF"/>
<path d="M37.8867 80.6719H46.2539C48.1523 80.6719 49.6758 79.125 49.6758 77.25V68.8828C49.6758 66.9844 48.1289 65.4609 46.2539 65.4609H37.8867C35.9883 65.4609 34.4648 67.0078 34.4648 68.8828V77.25C34.4414 79.1484 35.9883 80.6719 37.8867 80.6719ZM37.957 68.9531H46.1601V77.1563H37.957V68.9531Z" fill="#1CB7FF"/>
<path d="M37.8867 102.422H46.2539C48.1523 102.422 49.6758 100.875 49.6758 99V90.6328C49.6758 88.7344 48.1289 87.2109 46.2539 87.2109H37.8867C35.9883 87.2109 34.4648 88.7578 34.4648 90.6328V99C34.4414 100.875 35.9883 102.422 37.8867 102.422ZM37.957 90.7031H46.1601V98.9062H37.957V90.7031Z" fill="#1CB7FF"/>
</svg>
