<svg width="460" height="710" viewBox="0 0 460 710" fill="none" xmlns="http://www.w3.org/2000/svg">
<path fill-rule="evenodd" clip-rule="evenodd" d="M230.343 0.930664L193.435 37.8426L215.815 60.2252L202.205 190.57C88.2807 204.301 0 301.297 0 418.928C0 489.3 31.6115 552.293 81.3655 594.472V676.476H119.745V709.51L230.279 684.467L340.813 709.51V676.476H379.193V593.996C428.625 551.821 460 489.037 460 418.928C460 301.492 372.012 204.622 258.361 190.64L244.755 60.3412L267.252 37.8426L230.343 0.930664ZM214.479 309.533L230.279 158.221L246.079 309.533H272.497V483.998L354.63 456.36V582.269L354.625 582.274L354.63 582.283V651.913H340.813V475.028L230.279 513.027L119.745 475.028V651.913H105.928V456.36L188.061 483.998V309.533H214.479ZM268.211 284.967L260.988 215.793C359.739 230.729 435.437 315.994 435.437 418.928C435.437 473.633 414.067 523.341 379.193 560.172V422.176L297.06 449.813V284.967H268.211ZM217.998 534.782V662.06L144.308 678.758V509.448L217.998 534.782ZM316.25 678.758L242.561 662.06V534.782L316.25 509.448V678.758ZM81.3655 560.759V422.176L163.498 449.813V284.967H192.347L199.579 215.707C100.551 230.403 24.5631 315.797 24.5631 418.928C24.5631 473.924 46.1609 523.872 81.3655 560.759Z" fill="#F0F3F5"/>
</svg>
