<svg width="128" height="44" viewBox="0 0 128 44" fill="none" xmlns="http://www.w3.org/2000/svg">
<rect y="0.034668" width="128" height="43.0769" rx="2.4695" fill="#323232"/>
<path d="M10.9894 17.9888C8.69762 21.9611 10.1546 27.9893 12.6889 31.6444C13.954 33.4718 15.2348 35.1122 16.9891 35.1122C17.0221 35.1122 17.0553 35.1115 17.0892 35.1102C17.9134 35.0774 18.509 34.8239 19.0849 34.579C19.7314 34.3038 20.4001 34.0192 21.4489 34.0192C22.4467 34.0192 23.0834 34.2945 23.6992 34.5607C24.3061 34.8229 24.9312 35.0942 25.8548 35.0769C27.8309 35.0402 29.0441 33.2701 30.1145 31.7086C31.2315 30.0782 31.7918 28.4953 31.9808 27.8903L31.9885 27.8663C32.0245 27.7588 31.9736 27.6414 31.8705 27.5941C31.8676 27.5928 31.8571 27.5884 31.8542 27.5872C31.5062 27.445 28.4538 26.0925 28.4218 22.4062C28.392 19.4112 30.7116 17.8252 31.1768 17.5377L31.1985 17.5242C31.2489 17.4918 31.284 17.4404 31.2959 17.3817C31.3078 17.323 31.2954 17.2619 31.2616 17.2125C29.6605 14.8722 27.2065 14.5195 26.2185 14.4771C26.0751 14.4628 25.9271 14.4556 25.7785 14.4556C24.6181 14.4556 23.5064 14.8933 22.6133 15.2451C21.9968 15.4879 21.4643 15.6976 21.0971 15.6976C20.6844 15.6976 20.1489 15.4853 19.5288 15.2396C18.6995 14.9108 17.7596 14.5383 16.7645 14.5383C16.7408 14.5383 16.7174 14.5386 16.6944 14.539C14.3808 14.573 12.1947 15.8951 10.9894 17.9888Z" fill="#C4C4C4"/>
<path d="M26.2205 8.03484C24.8194 8.09183 23.1388 8.95324 22.1342 10.1285C21.2805 11.1163 20.4465 12.7633 20.6662 14.4234C20.68 14.5273 20.7646 14.6074 20.8693 14.6155C20.9638 14.6229 21.0604 14.6266 21.1565 14.6267C22.5265 14.6267 24.0043 13.8697 25.0136 12.6508C26.0758 11.3637 26.6129 9.71192 26.4504 8.23237C26.4376 8.11642 26.3355 8.03031 26.2205 8.03484Z" fill="#C4C4C4"/>
<path d="M47.2745 12.6788C47.3067 12.6842 47.3482 12.6976 47.3991 12.719C47.4527 12.7378 47.5479 12.7847 47.6846 12.8597C47.8212 12.9321 47.9432 13.0179 48.0504 13.117C48.1576 13.2162 48.2541 13.3555 48.3398 13.5351C48.4256 13.712 48.4685 13.9076 48.4685 14.122C48.4685 14.5723 48.2715 14.9663 47.8775 15.3039C47.4862 15.6389 46.9824 15.8064 46.366 15.8064C46.114 15.8064 45.8702 15.7756 45.6343 15.714C45.3985 15.6497 45.2028 15.5746 45.0474 15.4889C44.8946 15.4004 44.7593 15.312 44.6414 15.2235C44.5234 15.1351 44.4404 15.0614 44.3921 15.0024L44.3077 14.9019L44.7218 14.4919C44.7378 14.5133 44.7606 14.5415 44.7901 14.5763C44.8223 14.6085 44.8893 14.6674 44.9911 14.7532C45.0956 14.8363 45.2069 14.9113 45.3248 14.9783C45.4427 15.0426 45.5968 15.1016 45.7871 15.1552C45.9774 15.2061 46.1703 15.2316 46.366 15.2316C46.8216 15.2316 47.182 15.1217 47.4474 14.9019C47.7154 14.6822 47.8494 14.4222 47.8494 14.122C47.8494 13.7978 47.7154 13.5244 47.4474 13.3019C47.182 13.0795 46.8216 12.9683 46.366 12.9683H45.7107V12.3934H46.366C46.7599 12.3934 47.0708 12.3009 47.2986 12.116C47.5291 11.9311 47.6444 11.7073 47.6444 11.4447C47.6444 11.1659 47.5305 10.9314 47.3026 10.7412C47.0748 10.5509 46.7626 10.4557 46.366 10.4557C46.098 10.4557 45.8447 10.5107 45.6062 10.6206C45.3677 10.7304 45.1934 10.8403 45.0836 10.9502L44.9268 11.115L44.5167 10.705C44.5328 10.6835 44.5583 10.6541 44.5931 10.6165C44.628 10.5763 44.7043 10.5093 44.8223 10.4155C44.9402 10.3217 45.0648 10.24 45.1961 10.1703C45.3301 10.0979 45.5017 10.0323 45.7107 9.97332C45.9224 9.91168 46.1408 9.88086 46.366 9.88086C46.9422 9.88086 47.4018 10.0283 47.7449 10.3231C48.0879 10.6152 48.2594 10.9757 48.2594 11.4045C48.2594 11.5921 48.2246 11.7623 48.1549 11.915C48.0879 12.0678 48.0062 12.1897 47.9097 12.2808C47.8159 12.372 47.7207 12.4497 47.6243 12.514C47.5278 12.5756 47.4434 12.6199 47.371 12.6467L47.2745 12.6788Z" fill="#C4C4C4"/>
<path d="M50.854 13.4627L52.3776 13.2135C52.3776 12.9214 52.2851 12.6842 52.1002 12.5019C51.9153 12.3197 51.6781 12.2286 51.3887 12.2286C51.1796 12.2286 50.9826 12.2768 50.7977 12.3733C50.6155 12.4671 50.4828 12.5636 50.3997 12.6628L50.2751 12.8035L49.9052 12.4336C49.9213 12.4122 49.9428 12.3854 49.9696 12.3532C49.999 12.3184 50.0607 12.2594 50.1545 12.1763C50.251 12.0906 50.3515 12.0142 50.456 11.9472C50.5605 11.8802 50.6972 11.8212 50.866 11.7703C51.0376 11.7167 51.2118 11.6899 51.3887 11.6899C51.8389 11.6899 52.2114 11.836 52.5062 12.1281C52.8037 12.4202 52.9525 12.782 52.9525 13.2135V15.726H52.3776V15.1914C52.3669 15.2075 52.3495 15.2302 52.3253 15.2597C52.3039 15.2865 52.253 15.3361 52.1726 15.4085C52.0948 15.4781 52.0104 15.5411 51.9193 15.5974C51.8282 15.651 51.7076 15.6992 51.5575 15.7421C51.4101 15.785 51.2573 15.8064 51.0992 15.8064C50.7052 15.8064 50.3729 15.6899 50.1022 15.4567C49.8342 15.2235 49.7002 14.9569 49.7002 14.6567C49.7002 14.3271 49.7994 14.0617 49.9977 13.8607C50.196 13.657 50.4815 13.5244 50.854 13.4627ZM51.0992 15.2718C51.4717 15.2718 51.7773 15.1498 52.0158 14.906C52.257 14.6621 52.3776 14.3458 52.3776 13.9572V13.708L51.0188 13.9572C50.5257 14.051 50.2778 14.2842 50.2751 14.6567C50.2751 14.8336 50.3475 14.981 50.4922 15.0989C50.6396 15.2142 50.8419 15.2718 51.0992 15.2718Z" fill="#C4C4C4"/>
<path d="M57.3118 11.7743V12.309H55.2536V15.726H54.6787V11.7743H57.3118Z" fill="#C4C4C4"/>
<path d="M59.4722 12.6869C59.1855 12.9897 59.0421 13.3448 59.0421 13.7522C59.0421 14.1569 59.1855 14.512 59.4722 14.8175C59.7617 15.1204 60.0846 15.2718 60.4411 15.2718C60.7814 15.2718 61.0856 15.1244 61.3536 14.8296C61.6243 14.5321 61.7596 14.173 61.7596 13.7522C61.7596 13.3287 61.6243 12.9696 61.3536 12.6748C61.0856 12.3773 60.7814 12.2286 60.4411 12.2286C60.0846 12.2286 59.7617 12.3813 59.4722 12.6869ZM59.0421 15.107V17.4547H58.4672V11.7743H59.0421V12.3934C59.0528 12.3773 59.0716 12.3532 59.0984 12.321C59.1278 12.2862 59.1855 12.2286 59.2712 12.1482C59.3597 12.0678 59.4548 11.9968 59.5566 11.9351C59.6585 11.8708 59.7885 11.8145 59.9466 11.7663C60.1074 11.7154 60.2722 11.6899 60.4411 11.6899C60.9449 11.6899 61.3858 11.8922 61.7637 12.2969C62.1442 12.7016 62.3345 13.1867 62.3345 13.7522C62.3345 14.315 62.1456 14.7987 61.7677 15.2034C61.3898 15.6054 60.9476 15.8064 60.4411 15.8064C60.2722 15.8064 60.1087 15.7823 59.9506 15.7341C59.7952 15.6858 59.6638 15.6282 59.5566 15.5612C59.4494 15.4942 59.3556 15.4272 59.2752 15.3602C59.1975 15.2905 59.1386 15.2316 59.0984 15.1833L59.0421 15.107Z" fill="#C4C4C4"/>
<path d="M64.6396 16.3009L64.8446 15.726L63.2366 11.7743H63.8557L65.1341 14.9864L66.4085 11.7743H67.0275L65.2145 16.3009C65.051 16.719 64.8755 17.0152 64.6879 17.1894C64.5003 17.3662 64.2644 17.4547 63.9803 17.4547C63.8919 17.4547 63.8061 17.448 63.723 17.4346C63.6426 17.4212 63.5823 17.4064 63.5421 17.3904L63.4859 17.3743V16.8356C63.6225 16.8892 63.7592 16.9173 63.8959 16.92C64.2443 16.92 64.4922 16.7136 64.6396 16.3009Z" fill="#C4C4C4"/>
<path d="M70.611 12.8035C70.611 12.9348 70.5896 13.054 70.5467 13.1612C70.5065 13.2684 70.4556 13.3529 70.394 13.4145C70.335 13.4735 70.2734 13.5244 70.209 13.5673C70.1474 13.6075 70.0965 13.6356 70.0563 13.6517L69.992 13.6678C70.0134 13.6731 70.0415 13.6798 70.0764 13.6879C70.1139 13.6959 70.1755 13.7227 70.2613 13.7683C70.3497 13.8112 70.4275 13.8648 70.4945 13.9291C70.5641 13.9907 70.6271 14.0818 70.6834 14.2024C70.7424 14.323 70.7718 14.4611 70.7718 14.6165C70.7718 14.9515 70.6405 15.2343 70.3779 15.4647C70.1152 15.6925 69.74 15.8064 69.2523 15.8064C69.0647 15.8064 68.8864 15.7823 68.7176 15.7341C68.5514 15.6858 68.4121 15.6282 68.2995 15.5612C68.1869 15.4942 68.0891 15.4272 68.006 15.3602C67.9256 15.2905 67.8653 15.2316 67.8251 15.1833L67.7689 15.107L68.1387 14.7371C68.1709 14.7746 68.2151 14.8242 68.2714 14.8859C68.3303 14.9475 68.4563 15.0279 68.6492 15.1271C68.8422 15.2235 69.0432 15.2718 69.2523 15.2718C69.5658 15.2718 69.8017 15.2115 69.9598 15.0909C70.1179 14.9703 70.197 14.8122 70.197 14.6165C70.197 14.4182 70.1166 14.2587 69.9558 14.1381C69.7976 14.0175 69.5631 13.9572 69.2523 13.9572H68.798V13.4225H69.2523C69.4881 13.4225 69.677 13.3622 69.8191 13.2416C69.9611 13.1184 70.0322 12.9723 70.0322 12.8035C70.0322 12.6319 69.9665 12.4939 69.8352 12.3894C69.7038 12.2822 69.5095 12.2286 69.2523 12.2286C69.07 12.2286 68.8958 12.2661 68.7296 12.3411C68.5662 12.4135 68.4496 12.4885 68.3799 12.5663L68.2633 12.6788L67.8493 12.2688C67.8868 12.2259 67.9417 12.1723 68.0141 12.108C68.0864 12.0437 68.2432 11.9579 68.4844 11.8507C68.7256 11.7435 68.9816 11.6899 69.2523 11.6899C69.6543 11.6899 69.9812 11.7998 70.2332 12.0195C70.4851 12.2393 70.611 12.5006 70.611 12.8035Z" fill="#C4C4C4"/>
<path d="M75.2237 11.7743H75.7181V15.726H75.1393V12.7633L72.7513 15.726H72.2609V11.7743H72.8358V14.7371L75.2237 11.7743Z" fill="#C4C4C4"/>
<path d="M76.9539 12.309V11.7743H80.3268V12.309H78.9278V15.726H78.3529V12.309H76.9539Z" fill="#C4C4C4"/>
<path d="M85.064 13.9653L81.852 13.9572C81.8734 14.3137 82.0195 14.6219 82.2902 14.8818C82.5635 15.1418 82.8838 15.2718 83.251 15.2718C83.4975 15.2718 83.7267 15.2168 83.9384 15.107C84.1501 14.9971 84.3002 14.8872 84.3886 14.7773L84.5293 14.6165L84.8992 14.9864C84.8831 15.0078 84.859 15.0386 84.8268 15.0788C84.7974 15.1163 84.7304 15.182 84.6258 15.2758C84.524 15.3669 84.4128 15.4487 84.2922 15.521C84.1742 15.5907 84.0201 15.6564 83.8299 15.718C83.6423 15.777 83.4493 15.8064 83.251 15.8064C82.7123 15.8064 82.2486 15.6068 81.86 15.2075C81.4714 14.8054 81.2771 14.319 81.2771 13.7482C81.2771 13.1773 81.4687 12.6922 81.852 12.2929C82.2379 11.8909 82.6908 11.6899 83.2108 11.6899C83.7495 11.6899 84.1997 11.8775 84.5615 12.2527C84.9233 12.6252 85.1042 13.0969 85.1042 13.6678L85.064 13.9653ZM84.0952 12.5783C83.8513 12.3452 83.5565 12.2286 83.2108 12.2286C82.865 12.2286 82.5635 12.3505 82.3062 12.5944C82.049 12.8383 81.8975 13.1277 81.852 13.4627H84.5293C84.4865 13.1063 84.3417 12.8115 84.0952 12.5783Z" fill="#C4C4C4"/>
<path d="M88.5245 11.7743H90.3335C90.6953 11.7743 90.9848 11.8721 91.2019 12.0678C91.4189 12.2607 91.5275 12.506 91.5275 12.8035C91.5275 12.9723 91.486 13.1264 91.4029 13.2658C91.3225 13.4024 91.2407 13.4976 91.1576 13.5512L91.033 13.6276C91.0491 13.6329 91.0719 13.641 91.1014 13.6517C91.1335 13.6624 91.1871 13.6919 91.2622 13.7401C91.3399 13.7857 91.4069 13.8406 91.4632 13.905C91.5221 13.9666 91.5744 14.0564 91.62 14.1743C91.6682 14.2922 91.6923 14.4249 91.6923 14.5723C91.6923 14.9287 91.5811 15.2101 91.3586 15.4165C91.1362 15.6229 90.8226 15.726 90.4179 15.726H88.5245V11.7743ZM90.4179 13.8728H89.0994V15.1914H90.4179C90.6431 15.1914 90.8159 15.1338 90.9365 15.0185C91.0571 14.9033 91.1174 14.7411 91.1174 14.5321C91.1174 14.323 91.0571 14.1609 90.9365 14.0457C90.8159 13.9304 90.6431 13.8728 90.4179 13.8728ZM90.3335 13.3783C90.7463 13.3783 90.9526 13.2001 90.9526 12.8437C90.9526 12.4872 90.7463 12.309 90.3335 12.309H89.0994V13.3783H90.3335Z" fill="#C4C4C4"/>
<path d="M44.3077 30.5698L48.2344 21.0902H49.7218L53.6484 30.5698H52.095L51.0769 28.0644H46.8792L45.8612 30.5698H44.3077ZM48.9814 22.7825L47.4213 26.7092H50.5349L48.9814 22.7825Z" fill="#C4C4C4"/>
<path d="M58.256 30.702C58.0136 30.702 57.7778 30.6734 57.5487 30.6161C57.3195 30.5588 57.1234 30.4883 56.9603 30.4045C56.7973 30.3164 56.6518 30.2282 56.524 30.1401C56.4006 30.0476 56.3103 29.9748 56.253 29.922L56.1605 29.8228V33.4123H54.8053V24.0716H56.1605V24.8186C56.2222 24.7569 56.3081 24.6754 56.4183 24.574C56.5329 24.4726 56.773 24.3404 57.1388 24.1774C57.5046 24.0143 57.877 23.9328 58.256 23.9328C59.1154 23.9328 59.8602 24.2633 60.4904 24.9244C61.125 25.581 61.4423 26.3787 61.4423 27.3174C61.4423 28.2561 61.125 29.056 60.4904 29.717C59.8602 30.3737 59.1154 30.702 58.256 30.702ZM59.4922 25.7903C59.0956 25.3673 58.6394 25.1557 58.1238 25.1557C57.6082 25.1557 57.152 25.3673 56.7554 25.7903C56.3588 26.2134 56.1605 26.7246 56.1605 27.324C56.1605 27.9189 56.3588 28.428 56.7554 28.851C57.152 29.2741 57.6082 29.4857 58.1238 29.4857C58.6394 29.4857 59.0956 29.2741 59.4922 28.851C59.8888 28.428 60.0871 27.9189 60.0871 27.324C60.0871 26.7246 59.8888 26.2134 59.4922 25.7903Z" fill="#C4C4C4"/>
<path d="M66.3738 30.702C66.1314 30.702 65.8956 30.6734 65.6665 30.6161C65.4373 30.5588 65.2412 30.4883 65.0781 30.4045C64.9151 30.3164 64.7696 30.2282 64.6418 30.1401C64.5184 30.0476 64.4281 29.9748 64.3708 29.922L64.2782 29.8228V33.4123H62.9231V24.0716H64.2782V24.8186C64.3399 24.7569 64.4259 24.6754 64.5361 24.574C64.6506 24.4726 64.8908 24.3404 65.2566 24.1774C65.6224 24.0143 65.9948 23.9328 66.3738 23.9328C67.2332 23.9328 67.978 24.2633 68.6082 24.9244C69.2428 25.581 69.5601 26.3787 69.5601 27.3174C69.5601 28.2561 69.2428 29.056 68.6082 29.717C67.978 30.3737 67.2332 30.702 66.3738 30.702ZM67.61 25.7903C67.2133 25.3673 66.7572 25.1557 66.2416 25.1557C65.726 25.1557 65.2698 25.3673 64.8732 25.7903C64.4766 26.2134 64.2782 26.7246 64.2782 27.324C64.2782 27.9189 64.4766 28.428 64.8732 28.851C65.2698 29.2741 65.726 29.4857 66.2416 29.4857C66.7572 29.4857 67.2133 29.2741 67.61 28.851C68.0066 28.428 68.2049 27.9189 68.2049 27.324C68.2049 26.7246 68.0066 26.2134 67.61 25.7903Z" fill="#C4C4C4"/>
<path d="M75.9856 27.8595C75.9856 27.5686 75.893 27.3262 75.7079 27.1323C75.5228 26.934 75.2827 26.7797 74.9874 26.6695C74.6965 26.555 74.3726 26.4536 74.0156 26.3655C73.6587 26.2729 73.3017 26.1605 72.9447 26.0283C72.5877 25.8961 72.2616 25.7375 71.9664 25.5524C71.6755 25.3673 71.4375 25.105 71.2524 24.7657C71.0673 24.422 70.9748 24.0099 70.9748 23.5295C70.9748 22.798 71.2546 22.1876 71.8143 21.6984C72.374 21.2048 73.132 20.958 74.0883 20.958C74.4409 20.958 74.7781 21.0021 75.0998 21.0902C75.4259 21.174 75.6947 21.2753 75.9063 21.3943C76.1222 21.5089 76.3095 21.6257 76.4682 21.7447C76.6312 21.8592 76.7502 21.9584 76.8251 22.0421L76.9309 22.1744L75.9856 23.1263C75.968 23.1086 75.9415 23.08 75.9063 23.0403C75.8754 22.9963 75.8005 22.9302 75.6815 22.842C75.5669 22.7495 75.4413 22.6679 75.3047 22.5974C75.1725 22.5225 74.9962 22.4564 74.7758 22.3991C74.5599 22.3418 74.3307 22.3132 74.0883 22.3132C73.5992 22.3132 73.2047 22.4344 72.9051 22.6768C72.6098 22.9191 72.4621 23.2034 72.4621 23.5295C72.4621 23.8204 72.5547 24.065 72.7398 24.2633C72.9249 24.4616 73.1629 24.6181 73.4537 24.7326C73.749 24.8428 74.0751 24.9442 74.4321 25.0367C74.7891 25.1249 75.146 25.2351 75.503 25.3673C75.86 25.4951 76.1839 25.6515 76.4748 25.8366C76.77 26.0217 77.0102 26.2861 77.1953 26.6299C77.3804 26.9736 77.473 27.3835 77.473 27.8595C77.473 28.6968 77.1733 29.3799 76.5739 29.9087C75.9746 30.4376 75.146 30.702 74.0883 30.702C73.6565 30.702 73.2444 30.6513 72.8522 30.55C72.4643 30.4442 72.1448 30.3208 71.8936 30.1798C71.6424 30.0343 71.4243 29.8889 71.2392 29.7435C71.0541 29.598 70.9197 29.4768 70.8359 29.3799L70.7037 29.2146L71.649 28.2693C71.6667 28.2957 71.6953 28.3354 71.735 28.3883C71.7791 28.4368 71.8738 28.5249 72.0192 28.6527C72.1691 28.7761 72.3299 28.8863 72.5018 28.9832C72.6737 29.0758 72.9006 29.1617 73.1827 29.2411C73.4692 29.316 73.771 29.3534 74.0883 29.3534C74.6745 29.3534 75.1372 29.2102 75.4766 28.9238C75.8159 28.6373 75.9856 28.2825 75.9856 27.8595Z" fill="#C4C4C4"/>
<path d="M79.8396 23.2585V21.9033H81.0559V24.0716H82.4111V25.2879H81.0559V28.6593C81.0559 28.9017 81.133 29.1 81.2873 29.2543C81.4415 29.4085 81.6354 29.4857 81.869 29.4857C81.9704 29.4857 82.0761 29.4746 82.1863 29.4526C82.3009 29.4306 82.389 29.4063 82.4507 29.3799L82.5499 29.3534V30.5698C82.2811 30.6579 81.9637 30.702 81.598 30.702C80.3331 30.702 79.7029 30.0255 79.7073 28.6726V25.2879H78.4844V24.0716H79.1653C79.6148 24.0716 79.8396 23.8006 79.8396 23.2585Z" fill="#C4C4C4"/>
<path d="M88.3011 28.8576C88.7021 28.439 88.9027 27.9278 88.9027 27.324C88.9027 26.7158 88.7021 26.2024 88.3011 25.7837C87.9 25.3651 87.4241 25.1557 86.8732 25.1557C86.3223 25.1557 85.8442 25.3651 85.4387 25.7837C85.0377 26.2024 84.8371 26.7158 84.8371 27.324C84.8371 27.9278 85.0377 28.439 85.4387 28.8576C85.8442 29.2763 86.3223 29.4857 86.8732 29.4857C87.4241 29.4857 87.9 29.2763 88.3011 28.8576ZM84.4934 29.6972C83.8235 29.0229 83.4886 28.2318 83.4886 27.324C83.4886 26.4117 83.8235 25.6185 84.4934 24.9442C85.1677 24.2699 85.9609 23.9328 86.8732 23.9328C87.7855 23.9328 88.5765 24.2699 89.2464 24.9442C89.9207 25.6185 90.2578 26.4117 90.2578 27.324C90.2578 28.2318 89.9207 29.0229 89.2464 29.6972C88.5765 30.3671 87.7855 30.702 86.8732 30.702C85.9609 30.702 85.1677 30.3671 84.4934 29.6972Z" fill="#C4C4C4"/>
<path d="M95.4008 25.2218C95.2202 25.1778 95.0174 25.1557 94.7927 25.1557C94.277 25.1557 93.865 25.3232 93.5565 25.6581C93.2524 25.9887 93.1004 26.4536 93.1004 27.053V30.5698H91.7452V24.0716H93.1004V24.7459L93.1863 24.6599C93.226 24.6203 93.3097 24.5564 93.4375 24.4682C93.5653 24.3757 93.6997 24.2941 93.8408 24.2236C93.9862 24.1487 94.1691 24.0826 94.3894 24.0253C94.6142 23.9636 94.8389 23.9328 95.0637 23.9328H95.4008V25.2218Z" fill="#C4C4C4"/>
<path d="M102.501 27.7933H97.4237C97.4942 28.2517 97.719 28.6483 98.098 28.9832C98.4814 29.3182 98.9353 29.4857 99.4597 29.4857C99.8387 29.4857 100.191 29.3997 100.517 29.2278C100.848 29.056 101.082 28.8885 101.218 28.7254L101.423 28.4742L102.302 29.3534C102.276 29.3887 102.234 29.4394 102.177 29.5055C102.124 29.5672 102.007 29.6752 101.826 29.8294C101.646 29.9792 101.454 30.1137 101.251 30.2326C101.048 30.3472 100.784 30.4552 100.458 30.5566C100.136 30.6535 99.8035 30.702 99.4597 30.702C98.5387 30.702 97.7432 30.3649 97.0733 29.6906C96.4079 29.0119 96.0751 28.1988 96.0751 27.2513C96.0751 26.339 96.399 25.559 97.0469 24.9111C97.6991 24.2589 98.4792 23.9328 99.387 23.9328C100.299 23.9328 101.057 24.2369 101.661 24.845C102.269 25.4488 102.573 26.2068 102.573 27.1191L102.501 27.7933ZM99.387 25.0896C98.8978 25.0896 98.4858 25.2351 98.1508 25.5259C97.8203 25.8124 97.5978 26.1848 97.4832 26.6431H101.245C101.165 26.1848 100.96 25.8124 100.63 25.5259C100.299 25.2351 99.885 25.0896 99.387 25.0896Z" fill="#C4C4C4"/>
</svg>
