<svg width="21" height="12" viewBox="0 0 21 12" fill="none" xmlns="http://www.w3.org/2000/svg">
<path d="M17.4414 7.55598C18.1143 8.20529 18.8229 8.81548 19.4246 9.52736C19.6898 9.84419 19.9432 10.1728 20.1371 10.5404C20.4103 11.0646 20.1648 11.6396 19.6898 11.6708H16.7367C15.9767 11.7334 15.3671 11.4322 14.8564 10.9159C14.4487 10.5052 14.0687 10.0671 13.6768 9.64079C13.5145 9.46869 13.3482 9.30441 13.1463 9.17533C12.7425 8.91717 12.3942 8.9954 12.1646 9.41002C11.931 9.83246 11.8756 10.3018 11.8519 10.7712C11.8202 11.4596 11.6104 11.6396 10.9097 11.6708C9.41736 11.7412 8.00019 11.5183 6.68595 10.7751C5.52609 10.118 4.6275 9.19489 3.8437 8.14662C2.31966 6.10483 1.15188 3.85965 0.102866 1.5558C-0.134648 1.03558 0.0395286 0.757866 0.621437 0.746132C1.58337 0.726574 2.54926 0.730486 3.51118 0.746132C3.90308 0.750043 4.16039 0.972996 4.31477 1.34067C4.8373 2.60799 5.47463 3.81272 6.27426 4.92748C6.48802 5.22475 6.70574 5.52203 7.01451 5.72933C7.35495 5.96011 7.61621 5.88579 7.77851 5.50638C7.88143 5.26778 7.92498 5.00962 7.94873 4.75538C8.02394 3.8753 8.03582 2.99522 7.90123 2.11905C7.8181 1.57145 7.50537 1.21551 6.95513 1.11381C6.67407 1.05905 6.71366 0.957351 6.85221 0.796981C7.08972 0.523178 7.3114 0.351074 7.75872 0.351074H11.0958C11.6223 0.452772 11.7371 0.68746 11.8083 1.20768L11.8123 4.86881C11.8083 5.07221 11.9152 5.67066 12.2834 5.80365C12.5802 5.89753 12.7742 5.66675 12.9484 5.479C13.748 4.64195 14.3181 3.65235 14.8287 2.62363C15.0543 2.17382 15.2483 1.70444 15.4383 1.23506C15.5769 0.886944 15.7986 0.718752 16.1944 0.726574L19.3969 0.738309C19.4919 0.738309 19.5869 0.738309 19.6819 0.753955C20.2242 0.843918 20.3707 1.07469 20.2044 1.59883C19.9392 2.41633 19.4286 3.10083 18.9258 3.78534C18.3914 4.51678 17.8174 5.22475 17.287 5.96011C16.8001 6.63288 16.8357 6.97318 17.4414 7.55598Z" fill="white"/>
</svg>
