<svg width="356" height="101" viewBox="0 0 356 101" fill="none" xmlns="http://www.w3.org/2000/svg">
<path d="M84.9367 34.9233H88.4694L91.9179 45.5277C92.3295 46.7652 92.6396 48.003 92.7935 48.4942H92.8436C92.9755 48.0308 93.333 46.7652 93.7482 45.5277L97.301 34.9233H100.804L103.173 52.107H99.4646L98.3564 43.2308C98.2011 41.9657 98.1005 41.0646 98.0759 40.7293H98.0226C97.9439 41.1148 97.6889 42.0446 97.3274 43.1806L94.4193 52.107H90.8366L87.9271 43.2044C87.5925 42.1211 87.3361 41.0903 87.2296 40.7293H87.1778C87.1545 41.1148 87.0775 42.1211 86.9496 43.2571L85.8391 52.107H82.5696L84.9367 34.9233Z" fill="#C8D5DB"/>
<path d="M118.536 43.5417C118.536 40.3423 117.042 37.5546 113.618 37.5546C110.167 37.5546 108.541 40.2389 108.541 43.4371C108.541 46.6642 110.115 49.4742 113.54 49.4742C116.992 49.4742 118.536 46.7394 118.536 43.5417ZM104.679 43.5417C104.679 38.8717 107.796 34.6128 113.54 34.6128C119.283 34.6128 122.372 38.8191 122.372 43.4371C122.372 48.1073 119.362 52.4161 113.618 52.4161C107.873 52.4161 104.679 48.1848 104.679 43.5417Z" fill="#C8D5DB"/>
<path d="M124.06 43.4891C124.06 38.8191 127.127 34.6128 132.921 34.6128C135.159 34.6128 136.733 35.1058 138.072 35.9813L136.449 38.6398C135.497 38.0189 134.438 37.6317 132.87 37.6317C129.652 37.6317 127.922 40.2114 127.922 43.3863C127.922 46.6641 129.574 49.3711 132.921 49.3711C134.774 49.3711 135.907 48.7262 136.812 48.057L138.304 50.6103C137.428 51.4094 135.368 52.4155 132.87 52.4155C127.022 52.4155 124.06 48.1583 124.06 43.4891Z" fill="#C8D5DB"/>
<path d="M140.482 34.9233H144.089V42.0189H145.3L150.322 34.9233H154.213L148.26 42.8955C148.852 43.4369 149.446 44.2902 150.244 45.5533C151.766 48.0819 152.303 49.1405 153.566 49.1405H153.825L153.802 52.107H152.303C150.269 52.107 149.369 51.203 147.721 48.4427C146.329 46.1718 145.789 44.8828 144.733 44.8828H144.089V52.107H140.482V34.9233Z" fill="#C8D5DB"/>
<path d="M168.569 43.5417C168.569 40.3423 167.08 37.5546 163.654 37.5546C160.203 37.5546 158.579 40.2389 158.579 43.4371C158.579 46.6642 160.15 49.4742 163.577 49.4742C167.029 49.4742 168.569 46.7394 168.569 43.5417ZM154.715 43.5417C154.715 38.8717 157.83 34.6128 163.577 34.6128C169.318 34.6128 172.41 38.8191 172.41 43.4371C172.41 48.1073 169.397 52.4161 163.654 52.4161C157.908 52.4161 154.715 48.1848 154.715 43.5417Z" fill="#C8D5DB"/>
<path d="M180.613 49.3205C182.699 49.3205 183.804 48.6756 183.804 47.0236C183.804 45.4245 182.878 44.5985 180.767 44.5985H178.704V49.3205H180.613ZM180.382 41.9936C182.339 41.9936 183.188 41.2963 183.188 39.7737C183.188 38.3551 182.261 37.7103 180.459 37.7103H178.704V41.9936H180.382ZM175.126 34.9238H180.845C184.011 34.9238 186.768 35.9564 186.768 39.206C186.768 41.426 185.585 42.6635 183.731 43.1524V43.2049C185.763 43.5145 187.489 44.8835 187.489 47.3337C187.489 50.842 184.684 52.1077 180.767 52.1077H175.126V34.9238Z" fill="#C8D5DB"/>
<path d="M189.073 43.4891C189.073 38.8191 192.143 34.6128 197.935 34.6128C200.175 34.6128 201.749 35.1058 203.087 35.9813L201.462 38.6398C200.512 38.0189 199.452 37.6317 197.882 37.6317C194.666 37.6317 192.937 40.2114 192.937 43.3863C192.937 46.6641 194.589 49.3711 197.935 49.3711C199.791 49.3711 200.922 48.7262 201.826 48.057L203.319 50.6103C202.443 51.4094 200.384 52.4155 197.882 52.4155C192.038 52.4155 189.073 48.1583 189.073 43.4891Z" fill="#C8D5DB"/>
<path d="M205.498 34.9233H209.106V42.0189H210.314L215.338 34.9233H219.225L213.275 42.8955C213.872 43.4369 214.461 44.2902 215.261 45.5533C216.781 48.0819 217.32 49.1405 218.584 49.1405H218.84L218.815 52.107H217.32C215.284 52.107 214.384 51.203 212.736 48.4427C211.346 46.1718 210.803 44.8828 209.748 44.8828H209.106V52.107H205.498V34.9233Z" fill="#C8D5DB"/>
<path d="M221.403 34.9233H224.778V44.1092C224.778 45.4238 224.701 46.5859 224.676 46.7916H224.731C224.882 46.5084 225.525 45.3982 226.53 43.9036L232.635 34.9233H236.292V52.107H232.919V42.1736C232.919 41.0903 232.996 40.1342 232.996 39.9029H232.946C232.764 40.2387 232.221 41.1668 231.293 42.4826L224.731 52.107H221.403V34.9233Z" fill="#C8D5DB"/>
<path d="M243.157 29.9966H245.965C246.042 31.028 246.555 31.6733 247.51 31.6733C248.436 31.6733 248.953 31.028 249.054 29.9966H251.834C251.605 32.7059 249.621 33.8916 247.51 33.8916C245.398 33.8916 243.414 32.7059 243.157 29.9966ZM240.04 34.9235H243.414V44.1094C243.414 45.4241 243.336 46.5862 243.312 46.7919H243.364C243.515 46.5087 244.158 45.3985 245.166 43.9038L251.27 34.9235H254.925V52.1073H251.55V42.1739C251.55 41.0904 251.628 40.1344 251.628 39.9031H251.577C251.398 40.2389 250.856 41.1669 249.93 42.4828L243.364 52.1073H240.04V34.9235Z" fill="#C8D5DB"/>
<path d="M96.4756 69.8794C96.4756 66.6781 94.9848 63.8922 91.5573 63.8922C88.1057 63.8922 86.4839 66.5763 86.4839 69.7777C86.4839 73.0027 88.0556 75.8115 91.4804 75.8115C94.9316 75.8115 96.4756 73.0803 96.4756 69.8794ZM82.6206 69.8794C82.6206 65.2103 85.7394 60.9521 91.4804 60.9521C97.2232 60.9521 100.315 65.1565 100.315 69.7777C100.315 74.4454 97.3006 78.7537 91.5573 78.7537C85.8128 78.7537 82.6206 74.5234 82.6206 69.8794Z" fill="#C8D5DB"/>
<path d="M105.662 64.255H100.922V61.2607H114.032V64.255H109.317V78.4425H105.662V64.255Z" fill="#C8D5DB"/>
<path d="M116.005 61.2607H119.611V68.3563H120.821L125.844 61.2607H129.732L123.786 69.2343C124.374 69.7775 124.968 70.625 125.767 71.8924C127.286 74.417 127.827 75.4783 129.091 75.4783H129.346L129.323 78.443H127.827C125.794 78.443 124.891 77.5412 123.243 74.7809C121.853 72.5109 121.311 71.2201 120.256 71.2201H119.611V78.443H116.005V61.2607Z" fill="#C8D5DB"/>
<path d="M137.166 69.5686C139.457 69.5686 140.435 68.6405 140.435 66.7294C140.435 64.9995 139.484 64.048 137.243 64.048H135.542V69.5686H137.166ZM131.911 61.2612H137.526C141.261 61.2612 144.093 62.9894 144.093 66.6775C144.093 70.4224 141.388 72.3285 137.137 72.3285H135.542V78.443H131.911V61.2612Z" fill="#C8D5DB"/>
<path d="M161.753 61.2607H165.385V78.443H161.753V61.2607ZM152.12 75.6858C154.412 75.6858 155.416 74.7276 155.416 72.847C155.416 71.0915 154.464 70.1624 152.222 70.1624H150.266V75.6858H152.12ZM146.633 61.2607H150.266V67.3766H152.508C156.216 67.3766 159.047 69.1021 159.047 72.7699C159.047 76.5086 156.344 78.443 152.095 78.443H146.633V61.2607Z" fill="#C8D5DB"/>
<path d="M172.093 64.255H167.352V61.2607H180.459V64.255H175.751V78.4425H172.093V64.255Z" fill="#C8D5DB"/>
<path d="M197.555 61.2607H201.19V78.443H197.555V61.2607ZM187.923 75.6858C190.216 75.6858 191.221 74.7276 191.221 72.847C191.221 71.0915 190.266 70.1624 188.026 70.1624H186.071V75.6858H187.923ZM182.437 61.2607H186.071V67.3766H188.309C192.02 67.3766 194.851 69.1021 194.851 72.7699C194.851 76.5086 192.144 78.443 187.898 78.443H182.437V61.2607Z" fill="#C8D5DB"/>
<path d="M208.047 56.3325H210.855C210.932 57.3642 211.449 58.0114 212.403 58.0114C213.328 58.0114 213.845 57.3642 213.947 56.3325H216.73C216.498 59.0391 214.515 60.2294 212.403 60.2294C210.291 60.2294 208.307 59.0391 208.047 56.3325ZM204.932 61.2607H208.307V70.4474C208.307 71.7601 208.229 72.9236 208.205 73.1275H208.255C208.41 72.847 209.051 71.735 210.059 70.2399L216.164 61.2607H219.819V78.4429H216.443V68.5099C216.443 67.4267 216.521 66.4752 216.521 66.2426H216.471C216.289 66.5761 215.749 67.5047 214.822 68.8223L208.255 78.4429H204.932V61.2607Z" fill="#C8D5DB"/>
<path d="M230.808 61.4062H234.179V70.5898C234.179 71.9057 234.105 73.0678 234.078 73.2713H234.128C234.284 72.9921 234.928 71.8806 235.932 70.3855L242.036 61.4062H245.695V78.5867H242.319V68.6555C242.319 67.5723 242.398 66.6194 242.398 66.3864H242.344C242.165 66.7212 241.622 67.6503 240.699 68.9661L234.128 78.5867H230.808V61.4062Z" fill="#C8D5DB"/>
<path d="M249.44 61.4062H253.075V68.1661H260.748V61.4062H264.381V78.5867H260.748V71.1581H253.075V78.5867H249.44V61.4062Z" fill="#C8D5DB"/>
<path d="M267.072 69.9699C267.072 65.3013 270.136 61.0942 275.931 61.0942C278.171 61.0942 279.742 61.5841 281.08 62.4634L279.46 65.1202C278.505 64.4986 277.451 64.115 275.881 64.115C272.66 64.115 270.935 66.6933 270.935 69.8678C270.935 73.1462 272.583 75.8536 275.931 75.8536C277.785 75.8536 278.918 75.2096 279.821 74.5391L281.314 77.0937C280.438 77.8915 278.382 78.8976 275.881 78.8976C270.032 78.8976 267.072 74.6395 267.072 69.9699Z" fill="#C8D5DB"/>
<path d="M286.739 64.3969H282V61.4062H295.108V64.3969H290.399V78.5862H286.739V64.3969Z" fill="#C8D5DB"/>
<path d="M297.082 61.4062H300.456V70.5898C300.456 71.9057 300.378 73.0678 300.356 73.2713H300.408C300.561 72.9921 301.204 71.8806 302.209 70.3855L308.313 61.4062H311.97V78.5867H308.598V68.6555C308.598 67.5723 308.674 66.6194 308.674 66.3864H308.623C308.442 66.7212 307.903 67.6503 306.972 68.9661L300.408 78.5867H297.082V61.4062Z" fill="#C8D5DB"/>
<path d="M318.68 64.3969H313.941V61.4062H327.05V64.3969H322.339V78.5862H318.68V64.3969Z" fill="#C8D5DB"/>
<path d="M328.639 78.4307L329.128 75.7273C329.333 75.8058 329.697 75.8533 330.133 75.8533C331.446 75.8533 332.14 75.0053 332.761 73.6366L333.016 72.9917L327.813 61.4067H331.318L334.793 69.378L338.273 61.4067H341.776L335.981 74.3053C334.612 77.3753 333.224 78.6651 330.365 78.6651C329.539 78.6651 328.923 78.5347 328.639 78.4307Z" fill="#C8D5DB"/>
<path d="M347.021 64.3969H342.278V61.4062H355.39V64.3969H350.675V78.5862H347.021V64.3969Z" fill="#C8D5DB"/>
<path d="M42.9422 64.1231V40.5019H38.7268L37.7121 30.4493C51.724 32.6481 62.4373 44.9833 62.4373 59.3846C62.4373 66.913 59.5686 74.0583 54.4777 79.4687V60.3809L42.9422 64.1231ZM50.9303 93.0463H49.2781V67.6337L33.1977 73.2189L17.1158 67.6337V93.0463H15.4605V65.2669L26.9921 69.0132V44.0587H30.8608L33.1937 21.0822L35.5229 44.0587H39.3925V69.0132L50.9303 65.2669V93.0463ZM45.728 96.2642L34.9667 94.6014V76.3678L45.728 72.6304V96.2642ZM31.4156 94.6046L20.6628 96.2642V72.6304L31.4156 76.3629V94.6046ZM3.94711 59.3846C3.94711 44.9299 14.6351 32.6395 28.6743 30.4493L27.6596 40.5019H23.4378V64.1231L11.9107 60.3809V79.4638C6.81562 74.0642 3.94711 66.9516 3.94711 59.3846ZM65.9892 59.3846C65.9892 42.9284 53.5019 28.8591 37.3379 26.8005L35.4526 8.19721L38.4421 5.22906L33.1937 0.0185547L27.9498 5.22812L30.9301 8.19308L29.0439 26.8005C12.8566 28.8541 0.399658 42.8598 0.399658 59.3846C0.399658 69.0759 4.58542 78.1045 11.9107 84.361V96.6034H17.1158V100.41L33.1977 97.9318L49.2781 100.41V96.6034H54.4777V84.366C61.7899 78.1072 65.9892 69.0271 65.9892 59.3846Z" fill="#C8D5DB"/>
</svg>
