<svg width="435" height="361" viewBox="0 0 435 361" fill="none" xmlns="http://www.w3.org/2000/svg">
<g clip-path="url(#clip0)">
<path d="M15.3704 116.191C14.7471 116.951 14.1237 117.711 13.5199 118.49C-45.5612 195.628 108.463 211.407 145.668 224.458C189.887 239.964 220.761 284.708 267.142 294.681C330.528 308.317 407.335 260.203 422.335 195.901C443.898 103.491 337.833 70.2394 266.713 65.1163C208.412 60.9282 140.682 65.0579 83.5679 77.9338C59.3939 83.349 31.5968 96.7119 15.3704 116.191Z" fill="#FCF2EB"/>
<path d="M325.82 203.435C324.871 204.908 323.473 206.106 321.876 206.83L321.851 206.93C313.639 204.908 304.952 204.708 296.44 204.683C292.821 204.683 289.102 204.708 285.432 205.008V204.733C285.632 203.485 285.607 202.212 285.382 200.964H285.133V200.689L285.033 199.341C284.783 199.042 284.534 198.742 284.359 198.393C280.091 199.816 275.722 200.914 271.279 201.613C266.886 202.312 262.044 202.561 258.324 200.09C256.078 198.592 254.605 196.321 253.532 193.8C253.107 192.801 252.758 191.778 252.433 190.73L252.384 190.755C251.735 188.808 251.11 186.886 250.462 184.964C250.062 183.765 249.713 182.293 250.586 181.344C250.911 180.995 251.36 180.795 251.784 180.645C252.733 180.296 253.756 180.071 254.78 180.021L254.805 179.921C260.196 181.419 269.183 173.057 272.253 168.14C267.285 169.512 254.855 170.935 249.688 168.564L248.714 167.915C247.99 167.915 247.241 167.541 246.717 167.016C246.068 166.392 245.644 165.544 245.245 164.745C244.496 163.247 243.747 161.749 243.273 160.152C242.798 158.529 242.624 156.832 242.224 155.185C241.425 152.114 239.778 149.344 238.081 146.648L237.332 146.598C235.809 145.774 234.936 144.127 234.162 142.554C233.338 140.907 232.514 139.085 232.914 137.287C233.388 135.216 235.335 133.893 236.883 132.445C239.603 129.874 241.401 126.329 241.85 122.61L241.326 122.46C241.7 120.988 241.75 119.44 241.775 117.892C241.85 112.8 241.775 107.683 241.525 102.591C241.5 101.967 241.45 101.318 241.425 100.694L241.201 100.719C240.028 90.9591 241.126 80.9246 244.371 71.639L244.945 71.7138C246.043 66.7965 249.837 62.603 254.63 60.9805L254.655 60.8806C258.249 61.3798 261.694 62.7777 264.515 65.0492C267.26 65.9727 269.432 68.3191 270.805 70.9151C272.328 73.7357 273.126 76.9058 274.2 79.9261C274.899 81.8981 275.772 83.8451 276.97 85.5424C279.591 92.1073 284.01 97.9982 288.428 103.614C292.471 108.757 296.615 113.824 301.183 118.491C310.119 127.627 320.553 135.166 331.336 142.005C336.728 145.425 342.444 149.119 344.741 155.06C345.464 158.654 345.989 162.299 346.438 165.968C346.663 167.84 346.887 169.737 347.087 171.609C347.861 178.923 348.285 186.287 347.761 193.625C346.488 193.925 345.215 194.349 343.992 194.848C337.427 196.546 331.236 199.466 325.82 203.435ZM263.966 140.408C264.016 139.684 263.941 138.96 263.716 138.286C263.566 137.812 263.317 137.337 262.867 137.088C262.168 136.688 261.844 136.913 261.694 137.412C261.444 138.286 261.844 139.958 261.919 140.408C262.168 141.88 263.816 142.03 263.966 140.408Z" fill="#FFEEE6"/>
<path d="M275.697 322.975C272.602 309.845 265.114 297.789 254.63 289.302C242.973 279.842 227.747 274.899 212.745 275.698L209.949 276.622C208.826 277.97 207.728 279.343 206.654 280.715L206.03 280.216C205.381 279.567 204.807 278.818 204.333 278.02C203.734 272.828 207.478 267.686 211.047 263.517C217.837 255.529 224.626 247.567 231.416 239.579C230.792 238.007 230.168 236.434 229.544 234.861L230.268 234.362C228.595 231.841 226.449 229.645 223.953 227.897C224.177 227.423 224.402 226.949 224.651 226.474L224.152 226.2C225.675 222.481 227.422 218.836 229.369 215.342C229.594 214.917 229.843 214.518 230.068 214.094C230.992 213.869 231.89 213.544 232.764 213.195C235.285 212.197 237.706 211.023 240.078 209.7C240.901 209.226 241.75 208.702 242.124 207.853C242.574 206.83 242.199 205.707 241.7 204.633C242.199 204.334 242.723 204.009 243.223 203.685C245.594 199.666 249.039 196.296 253.107 194.025L253.182 194.124C253.282 194.025 253.407 193.925 253.507 193.85C254.58 196.371 256.053 198.642 258.299 200.14C262.019 202.611 266.861 202.362 271.254 201.663C275.697 200.964 280.066 199.866 284.334 198.443C284.534 198.792 284.758 199.092 285.008 199.391L285.108 200.739V201.014H285.357C285.582 202.262 285.582 203.535 285.407 204.783V205.058C289.077 204.758 292.796 204.708 296.415 204.733C304.927 204.758 313.614 204.958 321.826 206.98L321.851 206.88C323.448 206.156 324.846 204.958 325.795 203.485C331.211 199.491 337.427 196.596 343.942 194.948C345.165 194.424 346.413 194.025 347.711 193.725C347.711 193.85 347.686 193.95 347.686 194.075C347.062 202.337 345.19 210.574 341.496 217.963C347.486 219.011 353.627 219.061 359.642 218.112L359.692 218.312C360.117 218.187 360.566 218.062 360.99 217.913C367.106 220.584 373.92 221.707 380.56 221.133C380.71 221.133 380.885 221.108 381.034 221.083C381.958 223.204 382.732 225.401 383.406 227.623C383.531 228.072 383.68 228.546 383.605 229.02C383.555 229.32 383.406 229.62 383.156 229.819C383.88 238.456 381.708 247.217 379.562 255.679C371.025 289.352 362.338 323.449 345.589 353.877C344.042 355.425 342.519 356.972 340.971 358.52C313.04 358.52 277.27 358.52 241.301 358.52C246.043 353.453 251.909 349.559 256.877 344.691C262.693 338.975 267.26 331.936 273.95 327.293L274.549 327.368C275.223 325.97 275.598 324.473 275.697 322.975Z" fill="#FFE6E6"/>
<path d="M274.2 80.0013C273.126 76.981 272.328 73.8109 270.805 70.9903C269.407 68.3943 267.261 66.0479 264.515 65.1243C261.694 62.8529 258.249 61.455 254.655 60.9558L254.63 61.0556C249.862 62.6532 246.068 66.8716 244.945 71.789L244.371 71.7141C241.126 80.9998 240.028 91.0342 241.201 100.794L241.425 100.769C241.475 101.393 241.5 102.017 241.525 102.666H241.475C239.104 100.919 237.107 98.6974 235.61 96.1513L235.11 96.326C231.591 86.017 228.421 74.9092 231.84 64.6501C233.463 59.8076 236.433 55.5641 239.578 51.5454C257.451 28.7556 282.187 13.2546 310.618 7.96282C330.912 4.14373 354.525 1.99705 371.474 12.3311L371.449 12.381C375.144 13.3794 378.938 14.5526 381.908 16.8491C396.011 20.8928 404.723 36.7682 409.89 49.5235C426.764 91.1091 442.215 145.2 425.99 189.257C422.146 199.716 415.93 212.172 405.896 217.963L406.37 219.136C403.974 220.109 401.403 220.708 398.832 221.033C393.665 221.682 388.448 221.233 383.281 220.733C382.532 220.858 381.783 220.958 381.034 221.008C381.009 220.958 381.009 220.933 380.984 220.883C380.835 220.933 380.71 221.008 380.56 221.058C373.895 221.632 367.106 220.534 360.99 217.838C360.566 217.988 360.142 218.113 359.692 218.237L359.643 218.038C353.652 218.986 347.486 218.936 341.496 217.888C345.215 210.524 347.062 202.262 347.686 194C347.686 193.875 347.711 193.775 347.711 193.65C348.235 186.312 347.811 178.948 347.037 171.634C346.837 169.737 346.613 167.865 346.388 165.993C345.939 162.349 345.415 158.704 344.691 155.085C342.394 149.119 336.678 145.425 331.286 142.03C320.503 135.191 310.044 127.653 301.133 118.517C296.565 113.849 292.422 108.782 288.378 103.64C283.96 98.0234 279.566 92.1325 276.921 85.5677C275.747 83.9202 274.899 81.9483 274.2 80.0013Z" fill="#FCEFD4"/>
<path d="M275.698 322.975C275.623 324.473 275.223 325.97 274.574 327.318L273.975 327.243C267.286 331.886 262.718 338.925 256.902 344.641C251.959 349.509 246.068 353.403 241.326 358.47C211.122 358.47 180.819 358.47 154.934 358.47V357.496C163.821 343.244 173.431 329.49 182.766 315.561C190.604 303.854 197.943 291.798 206.629 280.69C207.703 279.317 208.801 277.945 209.924 276.597L212.72 275.673C227.722 274.874 242.948 279.817 254.605 289.277C265.114 297.789 272.602 309.87 275.698 322.975Z" fill="#FFEEE6"/>
<path d="M201.213 5.09211C201.987 8.01259 201.437 11.2326 200.639 14.0782C199.49 18.2218 197.194 21.7413 194.423 25.0113C193.35 26.2843 192.451 27.4325 191.303 28.6556C190.404 29.6042 189.406 31.4513 187.883 31.4513C186.61 31.4513 183.041 29.0301 180.994 27.6073C175.153 23.5386 169.537 17.7974 168.863 10.309C168.638 7.83786 169.387 5.14204 171.384 3.66932C174.704 1.2231 178.398 2.3214 181.244 4.49304C182.716 5.6163 184.938 7.73802 185.911 11.2076C186.66 5.69119 190.554 -0.349464 195.621 0.27457C198.417 0.648991 200.489 2.37132 201.213 5.09211Z" fill="#FF5136"/>
<path d="M197.918 161.026L197.943 160.851C197.968 160.851 198.018 160.851 198.043 160.876C199.465 161.026 200.888 160.427 202.012 159.528C202.91 158.804 203.185 157.257 203.684 156.109L203.21 155.884C208.002 144.252 203.734 128.227 195.247 118.667C198.991 120.214 203.809 121.887 206.854 124.757L207.203 124.408C218.261 135.066 228.97 158.58 235.959 173.931C237.207 176.702 238.455 179.522 238.854 182.543C239.304 186.012 238.605 189.507 238.655 193.001C238.705 196.721 239.603 200.44 241.276 203.785C241.426 204.084 241.575 204.384 241.725 204.683C242.224 205.732 242.599 206.855 242.149 207.903C241.775 208.752 240.926 209.301 240.103 209.751C237.756 211.073 235.31 212.247 232.789 213.245C231.915 213.595 231.017 213.919 230.093 214.144C229.769 214.219 229.419 214.293 229.095 214.343C228.346 214.443 227.572 214.468 226.823 214.318C224.651 213.919 222.879 212.371 221.207 210.899C220.982 210.699 220.782 210.524 220.558 210.325C218.91 210.275 217.263 210.125 215.615 209.925C213.693 210.25 211.846 210.974 209.999 211.747C209.275 212.047 208.526 212.371 207.803 212.696C204.533 214.069 200.788 215.167 197.518 213.919L197.568 213.769C196.171 213.12 194.798 212.371 193.5 211.548C194.149 210.275 194.748 208.977 195.297 207.679C198.292 200.44 199.44 192.502 196.994 185.139C197.294 184.465 197.419 183.716 197.469 182.992C197.518 181.769 197.319 180.546 197.319 179.323C197.294 177.975 197.494 176.627 197.643 175.279C198.143 170.511 198.043 165.769 197.918 161.026Z" fill="white"/>
<path d="M188.532 112.676C189.88 113.125 191.078 113.899 192.227 114.748C192.351 115.147 192.476 115.546 192.601 115.971C193.525 116.794 194.423 117.693 195.272 118.641C203.759 128.202 208.052 144.227 203.235 155.859L203.709 156.084C203.185 157.257 202.935 158.779 202.036 159.503C200.913 160.402 199.49 161.001 198.068 160.851C198.043 160.851 197.993 160.851 197.968 160.826C197.793 160.801 197.618 160.751 197.494 160.651C197.294 160.477 197.219 160.177 197.169 159.903C196.77 157.656 196.62 155.385 196.745 153.113L197.069 153.138C197.818 148.62 197.768 144.951 196.37 138.561C195.871 137.338 195.297 136.164 194.573 135.091C192.851 132.495 190.23 130.373 187.184 129.849C186.86 138.536 180.32 145.65 173.206 150.792C167.59 151.216 161.125 150.268 155.933 149.069C154.959 149.369 153.961 149.643 152.888 149.843C149.992 150.168 147.721 150.118 144.625 150.392C141.281 150.667 137.786 150.317 134.915 148.62C133.742 149.269 132.569 149.918 131.371 150.567C126.379 153.238 120.538 157.406 114.647 157.307C112.026 157.806 109.38 158.031 106.709 158.006C104.562 148.745 103.189 139.085 105.037 129.749C107.183 118.941 113.823 109.131 122.984 103.016L123.034 103.091C127.177 100.32 131.895 98.1732 136.837 97.7488V97.7239C145.075 95.2028 153.936 96.975 162.348 98.7473C165.992 99.5211 169.687 100.32 173.056 101.942C176.052 103.39 178.797 105.612 180.345 108.532L180.52 108.432C181.119 109.755 183.091 111.203 184.289 111.627C185.662 112.127 187.135 112.226 188.532 112.676Z" fill="#FF5136"/>
<path d="M173.181 150.767C180.295 145.625 186.835 138.511 187.16 129.824C190.205 130.373 192.826 132.495 194.548 135.066C195.272 136.164 195.871 137.338 196.345 138.536C197.768 144.926 197.793 148.595 197.044 153.113L196.72 153.088C196.595 155.36 196.745 157.656 197.144 159.878C197.194 160.152 197.269 160.452 197.469 160.627C197.593 160.726 197.768 160.776 197.943 160.801L197.918 160.976C198.018 165.719 198.143 170.461 197.618 175.179C197.469 176.527 197.269 177.875 197.294 179.223C197.319 180.446 197.518 181.669 197.444 182.892C197.419 183.616 197.269 184.365 196.969 185.039C199.416 192.402 198.292 200.365 195.272 207.579C194.723 208.877 194.149 210.175 193.475 211.448C190.28 217.663 185.612 223.579 178.947 228.097L178.623 228.372C175.552 232.54 167.19 236.409 161.499 236.634C155.833 236.859 150.242 235.486 144.775 234.138C142.279 233.539 137.836 232.216 134.341 230.793L134.491 230.518C132.544 229.495 130.672 228.297 128.975 226.899C126.528 209.8 118.166 193.75 112.325 177.276C110.129 171.085 108.282 164.795 106.759 158.405C106.709 158.23 106.684 158.056 106.634 157.906C109.28 157.956 111.951 157.706 114.572 157.207C120.463 157.282 126.304 153.138 131.296 150.467C132.494 149.843 133.667 149.194 134.84 148.52C137.711 150.218 141.231 150.567 144.55 150.293C147.646 150.043 149.917 150.068 152.813 149.743C153.886 149.519 154.909 149.269 155.858 148.97C161.1 150.243 167.565 151.191 173.181 150.767ZM179.397 206.955C179.372 207.13 177.524 206.63 174.679 206.68C169.961 206.755 165.268 205.981 160.526 206.381C159.602 206.456 152.114 206.356 151.839 205.482C152.463 207.329 153.711 209.052 154.735 210.699C156.108 212.921 157.331 215.517 159.003 217.489C161.624 220.584 166.541 221.532 170.286 220.284C173.73 219.136 178.673 211.024 179.397 206.955Z" fill="#FFEEE6"/>
<path d="M174.654 206.68C177.524 206.63 179.347 207.154 179.372 206.955C178.648 211.023 173.705 219.136 170.236 220.284C166.492 221.532 161.574 220.609 158.953 217.488C157.281 215.491 156.033 212.92 154.685 210.699C153.686 209.051 152.413 207.329 151.789 205.482C152.064 206.331 159.552 206.455 160.476 206.381C165.243 205.981 169.936 206.755 174.654 206.68Z" fill="#F1BBC0"/>
<path d="M72.8115 288.478L73.0362 288.054C71.8131 281.764 71.5385 273.576 71.5135 267.161C71.4886 264.615 71.5135 261.969 72.2624 259.573C72.3123 258.375 72.2874 257.152 72.2374 255.954C83.8944 253.333 95.5513 250.737 107.208 248.116C113.898 246.618 120.762 245.046 126.503 241.301C127.552 240.627 128.575 239.829 129.149 238.705C129.723 237.557 129.748 236.234 129.723 234.936C129.649 232.24 129.424 229.57 129.049 226.949C130.747 228.346 132.619 229.57 134.566 230.568L134.416 230.843C137.911 232.265 142.379 233.563 144.85 234.187C150.317 235.535 155.908 236.883 161.574 236.684C167.265 236.459 175.627 232.59 178.698 228.421L179.022 228.147C185.687 223.629 190.355 217.713 193.55 211.498C194.873 212.321 196.221 213.07 197.618 213.719L197.568 213.869C200.838 215.117 204.583 214.019 207.853 212.646C208.576 212.346 209.3 212.022 210.049 211.697C210.124 211.922 210.199 212.147 210.299 212.346L210.149 212.396C210.224 214.768 210.049 217.164 209.625 219.51C209.924 220.484 209.924 221.557 209.6 222.53V223.204C209.225 223.204 208.851 223.204 208.477 223.229C206.604 223.329 204.757 223.654 203.035 224.378C198.367 226.35 195.197 231.092 190.355 232.565L189.381 232.465C188.757 233.089 188.158 233.738 187.609 234.437C187.609 235.56 187.534 236.659 187.359 237.757L187.384 237.832C187.259 237.882 187.11 237.957 186.985 238.007C179.297 241.426 172.907 247.217 167.141 253.358C161.374 259.498 156.108 266.113 149.842 271.729C143.777 277.171 136.862 281.664 131.171 287.505C125.23 293.645 119.739 301.758 112.775 306.725L112.65 306.7C112.475 308.123 112.25 309.571 112.051 310.994C111.102 317.309 109.829 323.724 106.584 329.24C103.339 334.757 97.7979 339.275 91.4327 339.699C89.4608 339.824 87.5138 339.574 85.5918 339.1C84.768 338.9 83.9443 338.651 83.1206 338.376C75.8069 335.93 69.3918 331.287 63.9253 325.846C59.4572 321.402 55.5383 316.435 51.7691 311.393L51.819 311.343C49.9469 308.797 48.1497 306.176 46.4523 303.53C40.7611 305.901 34.7205 307.399 28.7547 308.897C25.4848 309.721 21.9153 310.519 18.8201 309.171C16.7982 308.298 15.1258 306.351 15.2257 304.154C15.2756 302.981 15.8248 301.883 16.4238 300.884C16.4987 300.784 16.5486 300.66 16.6235 300.56C18.6703 297.24 21.5908 294.469 25.0105 292.572C25.2851 292.422 25.5597 292.273 25.8592 292.148L25.5597 291.449C27.5566 288.653 29.6533 285.608 29.6783 282.163C29.6783 281.19 29.4287 280.091 28.555 279.642C28.1557 279.442 27.6814 279.417 27.2321 279.417C27.0574 279.417 26.8577 279.417 26.6829 279.442L26.633 278.719C28.1557 277.271 27.5816 274.5 25.9091 273.227C25.7594 273.102 25.5846 273.002 25.4099 272.903C25.4848 272.428 25.5098 271.954 25.5098 271.48C26.0339 271.03 26.5581 270.581 27.0823 270.182L26.9575 270.032C26.5581 268.809 25.6595 267.935 24.5862 267.211C23.5877 266.537 22.4395 266.038 21.3412 265.564C18.5705 264.366 15.8747 262.968 13.2787 261.445C11.9058 260.622 10.4581 259.623 10.0587 258.075C9.53449 255.904 11.5564 253.757 13.7779 253.333C15.3754 253.008 17.0229 253.358 18.5955 253.832C19.1945 254.007 19.7686 254.231 20.3428 254.431C27.5316 257.027 34.7455 259.648 41.4101 263.367C47.6006 266.812 53.3167 271.305 57.4104 277.071C58.9829 278.269 60.3808 279.692 61.529 281.314C64.7989 283.96 68.9176 286.357 72.8115 288.478Z" fill="#FFEEE6"/>
<path d="M204.308 278.02C204.782 278.819 205.356 279.567 206.005 280.216L206.629 280.716C197.943 291.823 190.604 303.88 182.766 315.587C173.431 329.54 163.796 343.294 154.934 357.522V358.495C117.567 358.495 89.4608 358.495 84.3187 358.495C83.6697 352.979 85.1674 347.487 86.8398 342.171C86.2657 341.247 85.8414 340.224 85.5918 339.175C87.5138 339.649 89.4608 339.899 91.4327 339.774C97.7979 339.35 103.364 334.832 106.584 329.315C109.804 323.799 111.077 317.384 112.051 311.069C112.275 309.646 112.475 308.223 112.65 306.775L112.775 306.8C119.739 301.833 125.205 293.721 131.171 287.58C136.862 281.739 143.777 277.246 149.842 271.804C156.108 266.188 161.399 259.573 167.141 253.433C172.882 247.292 179.272 241.501 186.985 238.082C187.11 238.032 187.259 237.957 187.384 237.907L187.359 237.832C187.534 236.734 187.609 235.635 187.609 234.512C188.158 233.813 188.757 233.164 189.381 232.54L190.355 232.64C195.197 231.167 198.367 226.4 203.035 224.453C204.757 223.729 206.629 223.404 208.477 223.305C208.851 223.28 209.225 223.28 209.6 223.28C214.717 223.255 219.784 224.977 223.978 227.947C226.449 229.695 228.62 231.891 230.293 234.412L229.569 234.912C230.193 236.484 230.817 238.057 231.441 239.629C224.652 247.617 217.862 255.58 211.073 263.567C207.478 267.661 203.709 272.828 204.308 278.02Z" fill="white"/>
<path d="M140.981 91.4584C144.251 90.5598 147.546 89.7361 150.791 88.9623C158.554 87.0652 166.242 88.3382 173.281 92.0075C179.621 95.2775 188.208 100.744 189.556 108.407C190.479 110.504 191.528 112.626 192.227 114.772C191.078 113.924 189.88 113.15 188.532 112.701C187.16 112.251 185.662 112.151 184.289 111.652C183.091 111.228 181.119 109.78 180.52 108.457L180.345 108.557C178.797 105.636 176.052 103.415 173.056 101.967C169.687 100.32 165.992 99.5459 162.348 98.7721C153.936 96.9749 145.05 95.2026 136.837 97.7487V97.7736C131.895 98.2229 127.177 100.345 123.034 103.115L122.984 103.04C113.848 109.156 107.183 118.966 105.037 129.774C103.19 139.11 104.562 148.77 106.709 158.03C106.759 158.205 106.784 158.38 106.834 158.53C108.332 164.92 110.204 171.21 112.4 177.4C118.241 193.85 126.603 209.925 129.049 227.024C129.424 229.669 129.649 232.315 129.723 235.011C129.748 236.284 129.723 237.632 129.149 238.78C128.575 239.904 127.552 240.677 126.503 241.376C120.762 245.121 113.898 246.693 107.208 248.191C95.5513 250.812 83.8944 253.408 72.2374 256.029C72.3123 257.227 72.3123 258.45 72.2624 259.648C71.5135 262.044 71.4886 264.69 71.5135 267.236C71.5385 273.651 71.8131 281.814 73.0362 288.129L72.8115 288.553C68.8926 286.432 64.774 284.035 61.504 281.364C60.3558 279.742 58.9829 278.319 57.3854 277.121C53.2917 271.38 47.5756 266.887 41.3852 263.417C34.7205 259.698 27.5067 257.077 20.3178 254.481C19.7437 254.281 19.1696 254.057 18.5705 253.882V248.74L18.4457 248.715C23.8124 228.322 39.538 206.48 52.4431 189.432C58.1342 181.943 64.1499 174.68 69.6165 167.016C75.6821 158.555 81.0987 149.618 86.066 140.458C87.8632 137.188 89.5856 133.868 91.258 130.548C92.7806 127.553 94.2783 124.507 95.9008 121.587C97.5482 118.641 99.3455 115.821 101.442 113.2C104.537 109.381 108.157 106.211 112.151 103.515C117.243 100.095 122.934 97.4491 128.9 95.3024C132.869 93.8048 136.912 92.5817 140.981 91.4584Z" fill="white"/>
<path d="M15.5502 300.061C13.8528 299.212 12.2303 298.164 11.4315 296.491C10.483 294.519 10.9323 292.298 11.9058 290.276C12.3302 289.427 12.8294 288.628 13.3536 287.879C16.5237 283.461 21.2663 279.692 26.658 279.418C26.8327 279.418 27.0324 279.393 27.2071 279.393C27.6564 279.393 28.1307 279.418 28.5301 279.617C29.3788 280.067 29.6533 281.165 29.6533 282.138C29.6533 285.583 27.5566 288.628 25.5347 291.424L25.8343 292.123C25.5347 292.248 25.2601 292.397 24.9856 292.547C21.5659 294.444 18.6703 297.215 16.5985 300.535C16.2491 300.41 15.8996 300.235 15.5502 300.061Z" fill="#FFEEE6"/>
<path d="M24.5862 267.187C25.6595 267.91 26.5581 268.784 26.9575 270.007L27.0823 270.157C26.5332 270.581 26.009 271.006 25.5098 271.455C25.5098 270.007 25.1853 268.559 24.5862 267.236V267.187Z" fill="#FFEEE6"/>
<path d="M25.36 272.853C25.5347 272.952 25.7094 273.052 25.8592 273.177C27.5316 274.45 28.1057 277.221 26.5831 278.669L26.633 279.392C21.2413 279.642 16.4987 283.436 13.3286 287.854C12.8044 288.603 12.3052 289.402 11.8808 290.251C11.6312 289.652 11.4066 289.028 11.2568 288.379C9.2599 287.63 7.96191 285.433 7.86206 283.236C7.86206 282.987 7.86206 282.712 7.88702 282.463C8.13664 279.817 9.85897 277.495 11.9308 275.798C12.43 275.399 12.9542 274.999 13.5033 274.65C15.4254 273.427 17.597 272.578 19.8435 272.179C21.7156 271.879 23.7624 271.904 25.36 272.853Z" fill="#FFEEE6"/>
<path d="M7.71227 283.262C6.43924 283.586 5.14124 282.812 4.2676 281.839C2.99457 280.416 2.34557 278.519 2.1958 276.622C2.04604 274.725 2.34557 272.803 2.81984 270.956C3.04449 270.082 3.2941 269.208 3.79333 268.46C4.41737 267.486 5.39086 266.787 6.41427 266.238C7.88699 265.414 9.78406 264.84 11.1819 265.814C12.5797 266.787 12.7045 268.809 12.6546 270.506C12.6546 270.881 12.6297 271.255 12.6297 271.63C12.8293 272.678 13.1289 273.702 13.5283 274.7C12.9791 275.049 12.4549 275.424 11.9557 275.848C9.8839 277.546 8.16157 279.867 7.91196 282.513C7.88699 282.763 7.88699 283.037 7.88699 283.287L7.71227 283.262Z" fill="#FFEEE6"/>
<path d="M261.694 137.412C261.844 136.938 262.168 136.688 262.867 137.088C263.292 137.337 263.541 137.812 263.716 138.286C263.941 138.96 264.041 139.684 263.966 140.408C263.816 142.03 262.168 141.855 261.919 140.383C261.844 139.933 261.445 138.261 261.694 137.412Z" stroke="black" stroke-width="3.95825" stroke-miterlimit="10" stroke-linecap="round" stroke-linejoin="round"/>
<path d="M241.875 122.66C241.426 126.379 239.628 129.924 236.908 132.495C235.36 133.943 233.413 135.266 232.939 137.337C232.514 139.135 233.363 140.957 234.187 142.604C234.961 144.152 235.809 145.824 237.357 146.648" stroke="black" stroke-width="3.95825" stroke-miterlimit="10" stroke-linecap="round" stroke-linejoin="round"/>
<path d="M259.148 112.925C262.992 111.877 276.147 118.966 280.315 126.579" stroke="black" stroke-width="3.95825" stroke-miterlimit="10" stroke-linecap="round" stroke-linejoin="round"/>
<path d="M254.405 179.797C254.53 179.846 254.68 179.896 254.83 179.946C260.221 181.444 269.207 173.082 272.278 168.165C267.31 169.537 254.88 170.96 249.713 168.589" stroke="black" stroke-width="3.95825" stroke-miterlimit="10" stroke-linecap="round" stroke-linejoin="round"/>
<path d="M244.371 71.689C241.126 80.9746 240.028 91.0091 241.201 100.769" stroke="black" stroke-width="3.95825" stroke-miterlimit="10" stroke-linecap="round" stroke-linejoin="round"/>
<path d="M251.61 187.759C251.859 188.758 252.134 189.781 252.458 190.78C252.783 191.828 253.132 192.851 253.557 193.85C254.63 196.371 256.103 198.642 258.349 200.14C262.069 202.611 266.911 202.362 271.304 201.663C275.747 200.964 280.116 199.866 284.384 198.443C286.805 197.619 289.202 196.695 291.523 195.672" stroke="black" stroke-width="3.95825" stroke-miterlimit="10" stroke-linecap="round" stroke-linejoin="round"/>
<path d="M275.098 79.5269C275.523 81.6236 276.147 83.6455 276.946 85.6174C279.566 92.1823 283.985 98.0731 288.403 103.689C292.447 108.831 296.59 113.899 301.158 118.566C310.094 127.702 320.528 135.241 331.311 142.08C336.703 145.5 342.419 149.194 344.716 155.135C345.165 156.308 345.489 157.556 345.639 158.904" stroke="black" stroke-width="3.95825" stroke-miterlimit="10" stroke-linecap="round" stroke-linejoin="round"/>
<path d="M332.485 125.082C336.603 132.745 340.747 140.508 343.193 148.87C343.567 150.118 343.892 151.391 344.191 152.664C344.391 153.488 344.566 154.311 344.716 155.11C345.44 158.705 345.964 162.349 346.413 166.018C346.638 167.89 346.862 169.787 347.062 171.659C347.836 178.973 348.26 186.337 347.736 193.675C347.736 193.8 347.711 193.9 347.711 194.025C347.087 202.287 345.215 210.524 341.521 217.913C341.021 218.886 340.522 219.835 339.948 220.783" stroke="black" stroke-width="3.95825" stroke-miterlimit="10" stroke-linecap="round" stroke-linejoin="round"/>
<path d="M332.16 167.591C335.255 170.711 339.823 172.333 344.191 171.859" stroke="black" stroke-width="3.95825" stroke-miterlimit="10" stroke-linecap="round" stroke-linejoin="round"/>
<path d="M277.045 62.6031C292.971 47.5264 313.165 36.9927 334.631 32.5247" stroke="black" stroke-width="3.95825" stroke-miterlimit="10" stroke-linecap="round" stroke-linejoin="round"/>
<path d="M378.713 16.175C379.811 16.3498 380.885 16.5744 381.933 16.874C396.036 20.9177 404.748 36.7931 409.915 49.5484C426.789 91.134 442.24 145.225 426.015 189.282C422.171 199.741 415.955 212.197 405.921 217.988" stroke="black" stroke-width="3.95825" stroke-miterlimit="10" stroke-linecap="round" stroke-linejoin="round"/>
<path d="M352.853 219.785C355.174 219.435 357.446 218.911 359.692 218.262C360.117 218.137 360.566 218.013 360.99 217.863C372.073 214.268 381.958 206.98 388.523 197.32" stroke="black" stroke-width="3.95825" stroke-miterlimit="10" stroke-linecap="round" stroke-linejoin="round"/>
<path d="M380.111 221.258C380.261 221.208 380.41 221.133 380.56 221.083C380.71 221.033 380.835 220.983 380.984 220.908C390.545 216.964 394.863 212.396 401.777 204.334" stroke="black" stroke-width="3.95825" stroke-miterlimit="10" stroke-linecap="round" stroke-linejoin="round"/>
<path d="M235.684 98.0234C235.485 97.4493 235.285 96.9001 235.11 96.326C231.591 86.017 228.421 74.9092 231.84 64.6501C233.463 59.8076 236.433 55.5641 239.578 51.5454C257.451 28.7556 282.187 13.2546 310.618 7.96282C330.912 4.14373 354.525 1.99705 371.474 12.3311" stroke="black" stroke-width="3.95825" stroke-miterlimit="10" stroke-linecap="round" stroke-linejoin="round"/>
<path d="M204.757 279.967C204.533 279.318 204.383 278.669 204.308 277.995C203.709 272.803 207.453 267.661 211.023 263.492C217.812 255.505 224.602 247.542 231.391 239.554C232.664 238.057 233.912 236.584 235.185 235.086C241.95 227.148 249.188 218.886 259.073 215.566" stroke="black" stroke-width="3.95825" stroke-miterlimit="10" stroke-linecap="round" stroke-linejoin="round"/>
<path d="M264.44 338.326C269.382 339.225 274.15 336.354 278.368 333.609C284.035 329.914 289.701 326.195 295.367 322.501" stroke="black" stroke-width="3.95825" stroke-miterlimit="10" stroke-linecap="round" stroke-linejoin="round"/>
<path d="M265.014 211.697C270.855 207.279 278.044 205.632 285.457 205.008C289.127 204.708 292.846 204.658 296.465 204.683C304.977 204.708 313.664 204.908 321.876 206.93C324.447 207.554 326.968 208.378 329.439 209.426" stroke="black" stroke-width="3.95825" stroke-miterlimit="10" stroke-linecap="round" stroke-linejoin="round"/>
<path d="M322.999 205.657C323.898 204.883 324.846 204.159 325.795 203.46C331.212 199.466 337.427 196.571 343.942 194.923C343.967 194.923 344.017 194.898 344.042 194.898" stroke="black" stroke-width="3.95825" stroke-miterlimit="10" stroke-linecap="round" stroke-linejoin="round"/>
<path d="M332.934 156.034C335.18 154.561 338.001 153.962 340.672 154.436" stroke="black" stroke-width="3.95825" stroke-miterlimit="10" stroke-linecap="round" stroke-linejoin="round"/>
<path d="M264.515 65.1241L264.49 65.0991C261.669 62.8276 258.224 61.4298 254.63 60.9305C250.262 60.3315 245.719 61.0554 241.875 63.227" stroke="black" stroke-width="3.95825" stroke-miterlimit="10" stroke-linecap="round" stroke-linejoin="round"/>
<path d="M148.719 177.376C151.465 176.053 154.161 177.201 156.083 178.424C153.811 178.474 150.342 177.376 148.395 178.699" stroke="black" stroke-width="3.95825" stroke-miterlimit="10" stroke-linecap="round" stroke-linejoin="round"/>
<path d="M189.506 178.998C188.133 178.773 187.01 178.499 185.188 178.973C185.462 178.374 186.061 178.249 186.66 178C187.284 177.75 187.983 177.725 188.632 177.8C189.007 177.825 189.431 177.925 189.681 178.199" stroke="black" stroke-width="3.95825" stroke-miterlimit="10" stroke-linecap="round" stroke-linejoin="round"/>
<path d="M174.454 180.096C174.379 181.269 174.329 182.492 174.903 183.516C175.278 184.19 175.927 184.689 176.376 185.313C177.15 186.386 177.375 187.809 177.2 189.132C177.05 190.455 176.551 191.703 176.002 192.926" stroke="black" stroke-width="3.95825" stroke-miterlimit="10" stroke-linecap="round" stroke-linejoin="round"/>
<path d="M179.397 206.955C178.673 211.023 173.73 219.136 170.261 220.284C166.516 221.532 161.599 220.609 158.978 217.488C157.306 215.491 156.058 212.92 154.71 210.699C153.711 209.051 152.438 207.329 151.814 205.482C152.089 206.331 159.577 206.455 160.501 206.381C165.243 205.981 169.936 206.755 174.654 206.68C177.524 206.63 179.347 207.154 179.397 206.955Z" stroke="black" stroke-width="3.95825" stroke-miterlimit="10" stroke-linecap="round" stroke-linejoin="round"/>
<path d="M142.578 159.927C146.373 155.983 152.014 154.91 155.833 157.905" stroke="black" stroke-width="3.95825" stroke-miterlimit="10" stroke-linecap="round" stroke-linejoin="round"/>
<path d="M181.269 159.254C183.74 157.132 188.832 157.431 191.453 159.453" stroke="black" stroke-width="3.95825" stroke-miterlimit="10" stroke-linecap="round" stroke-linejoin="round"/>
<path d="M186.96 126.33C187.135 127.528 187.209 128.676 187.16 129.824C186.835 138.511 180.295 145.625 173.181 150.767C172.882 150.966 172.607 151.166 172.307 151.391" stroke="black" stroke-width="3.95825" stroke-miterlimit="10" stroke-linecap="round" stroke-linejoin="round"/>
<path d="M174.279 133.469C169.112 140.458 164.37 146.398 155.933 149.044C154.959 149.344 153.961 149.619 152.888 149.818C151.54 150.093 150.117 150.267 148.569 150.392" stroke="black" stroke-width="3.95825" stroke-miterlimit="10" stroke-linecap="round" stroke-linejoin="round"/>
<path d="M130.497 228.921C131.421 229.545 132.819 230.219 134.391 230.868C137.886 232.291 142.354 233.589 144.825 234.213C150.292 235.561 155.883 236.908 161.549 236.709C167.24 236.484 175.602 232.615 178.673 228.447" stroke="black" stroke-width="3.95825" stroke-miterlimit="10" stroke-linecap="round" stroke-linejoin="round"/>
<path d="M178.997 228.147C185.662 223.629 190.33 217.713 193.525 211.498C194.174 210.225 194.773 208.927 195.322 207.629C198.317 200.39 199.465 192.452 197.019 185.089C196.894 184.714 196.77 184.365 196.62 183.99" stroke="black" stroke-width="3.95825" stroke-miterlimit="10" stroke-linecap="round" stroke-linejoin="round"/>
<path d="M148.569 140.308C144.101 143.228 139.533 145.999 134.865 148.595C133.692 149.244 132.519 149.893 131.321 150.542C126.329 153.213 120.488 157.381 114.597 157.282C114.297 157.282 113.998 157.257 113.698 157.232" stroke="black" stroke-width="3.95825" stroke-miterlimit="10" stroke-linecap="round" stroke-linejoin="round"/>
<path d="M136.812 97.699C145.05 95.1779 153.911 96.9501 162.323 98.7224C165.967 99.4962 169.662 100.295 173.031 101.917C176.027 103.365 178.773 105.587 180.32 108.507C180.52 108.857 180.695 109.231 180.844 109.606" stroke="black" stroke-width="3.95825" stroke-miterlimit="10" stroke-linecap="round" stroke-linejoin="round"/>
<path d="M190.38 114.223C191.128 114.747 191.877 115.346 192.576 115.97C193.5 116.794 194.398 117.693 195.247 118.641C203.734 128.202 208.027 144.227 203.21 155.859C202.76 156.957 202.211 158.03 201.587 159.054" stroke="black" stroke-width="3.95825" stroke-miterlimit="10" stroke-linecap="round" stroke-linejoin="round"/>
<path d="M196.021 137.063C196.146 137.587 196.245 138.061 196.37 138.561C197.793 144.951 197.818 148.62 197.069 153.138" stroke="black" stroke-width="3.95825" stroke-miterlimit="10" stroke-linecap="round" stroke-linejoin="round"/>
<path d="M196.994 213.644C197.169 213.719 197.369 213.819 197.543 213.869C200.813 215.117 204.558 214.019 207.828 212.646C208.551 212.346 209.275 212.022 210.024 211.697C211.871 210.924 213.718 210.175 215.64 209.875C216.589 209.7 217.562 209.651 218.536 209.75" stroke="black" stroke-width="3.95825" stroke-miterlimit="10" stroke-linecap="round" stroke-linejoin="round"/>
<path d="M212.745 203.235C215.366 205.582 217.962 207.928 220.583 210.274C220.807 210.474 221.007 210.649 221.232 210.849C222.879 212.321 224.651 213.869 226.848 214.268C227.597 214.418 228.371 214.393 229.12 214.293C229.444 214.243 229.794 214.193 230.118 214.094C231.042 213.869 231.94 213.544 232.814 213.195C235.335 212.196 237.756 211.023 240.128 209.7C240.951 209.226 241.8 208.702 242.174 207.853C242.624 206.83 242.249 205.707 241.75 204.633C241.6 204.334 241.451 204.034 241.301 203.735C239.628 200.39 238.73 196.671 238.68 192.951C238.63 189.457 239.329 185.937 238.879 182.492C238.48 179.472 237.232 176.651 235.984 173.881C228.995 158.505 218.286 135.016 207.228 124.357C206.53 123.683 205.831 123.059 205.132 122.485" stroke="black" stroke-width="3.95825" stroke-miterlimit="10" stroke-linecap="round" stroke-linejoin="round"/>
<path d="M126.578 100.819C125.33 101.468 124.132 102.192 122.959 102.991C113.823 109.106 107.158 118.916 105.012 129.724C103.165 139.06 104.537 148.72 106.684 157.981C106.734 158.155 106.759 158.33 106.809 158.48C108.307 164.87 110.179 171.16 112.375 177.351C118.216 193.8 126.578 209.875 129.025 226.974C129.399 229.62 129.624 232.266 129.699 234.961C129.723 236.234 129.698 237.582 129.124 238.731C128.55 239.854 127.527 240.628 126.478 241.327C120.737 245.071 113.873 246.643 107.183 248.141C95.5264 250.762 83.8694 253.358 72.2125 255.979C68.9426 256.703 65.6476 257.452 62.3777 258.176C59.3324 258.874 56.1623 259.598 53.6412 261.445" stroke="black" stroke-width="3.95825" stroke-miterlimit="10" stroke-linecap="round" stroke-linejoin="round"/>
<path d="M17.647 252.11C17.8966 250.937 18.1462 249.788 18.4707 248.615C23.8374 228.222 39.563 206.381 52.4681 189.332C58.1593 181.843 64.1749 174.58 69.6415 166.917C75.7071 158.455 81.1237 149.519 86.091 140.358C87.8883 137.088 89.6106 133.768 91.283 130.448C92.8056 127.453 94.3033 124.407 95.9258 121.487C97.5733 118.541 99.3705 115.721 101.467 113.1C104.562 109.281 108.182 106.111 112.176 103.415C117.268 99.9952 122.959 97.3493 128.925 95.2026C132.844 93.7798 136.887 92.5567 140.956 91.4584C144.226 90.5598 147.521 89.7361 150.766 88.9623C158.529 87.0652 166.217 88.3382 173.256 92.0075C179.596 95.2775 188.183 100.744 189.531 108.407C189.531 108.432 189.531 108.432 189.531 108.457" stroke="black" stroke-width="3.95825" stroke-miterlimit="10" stroke-linecap="round" stroke-linejoin="round"/>
<path d="M285.183 200.714V200.989V203.21" stroke="black" stroke-width="3.95825" stroke-miterlimit="10" stroke-linecap="round" stroke-linejoin="round"/>
<path d="M243.148 203.859C243.173 203.81 243.223 203.735 243.248 203.685C245.619 199.666 249.064 196.296 253.132 194.025" stroke="black" stroke-width="3.95825" stroke-miterlimit="10" stroke-linecap="round" stroke-linejoin="round"/>
<path d="M224.152 226.2C225.675 222.481 227.422 218.836 229.369 215.342C229.594 214.917 229.843 214.518 230.068 214.094C230.093 214.044 230.143 213.969 230.168 213.919" stroke="black" stroke-width="3.95825" stroke-miterlimit="10" stroke-linecap="round" stroke-linejoin="round"/>
<path d="M48.3245 302.732C47.7004 303.006 47.0764 303.281 46.4524 303.555C40.7612 305.927 34.7205 307.424 28.7547 308.922C25.4848 309.746 21.9153 310.544 18.8201 309.197C16.7983 308.323 15.1258 306.376 15.2257 304.179C15.2756 303.006 15.8248 301.908 16.4238 300.909C16.4987 300.81 16.5486 300.685 16.6235 300.585C18.6704 297.265 21.5908 294.494 25.0105 292.597C25.2851 292.447 25.5597 292.298 25.8592 292.173C26.8327 291.749 27.8561 291.499 28.8296 291.873C30.0527 292.348 30.7517 293.72 30.7766 295.043C30.8016 296.366 30.3273 297.639 29.8031 298.838C29.1042 300.485 28.3554 302.132 27.5816 303.73" stroke="black" stroke-width="3.95825" stroke-miterlimit="10" stroke-linecap="round" stroke-linejoin="round"/>
<path d="M16.6485 300.585C16.6235 300.585 16.6235 300.56 16.5985 300.56C16.2491 300.385 15.8996 300.235 15.5502 300.035C13.8528 299.187 12.2303 298.138 11.4315 296.466C10.483 294.494 10.9323 292.272 11.9058 290.251C12.3302 289.402 12.8294 288.603 13.3536 287.854C16.5237 283.436 21.2663 279.667 26.658 279.392C26.8327 279.392 27.0324 279.367 27.2071 279.367C27.6564 279.367 28.1307 279.392 28.5301 279.592C29.3788 280.041 29.6533 281.14 29.6533 282.113C29.6533 285.558 27.5566 288.603 25.5347 291.399" stroke="black" stroke-width="3.95825" stroke-miterlimit="10" stroke-linecap="round" stroke-linejoin="round"/>
<path d="M11.9058 288.578C11.6811 288.528 11.4815 288.478 11.2568 288.404C9.2599 287.655 7.96191 285.458 7.86206 283.262C7.86206 283.012 7.86206 282.737 7.88702 282.488C8.13664 279.842 9.85897 277.52 11.9308 275.823C12.43 275.424 12.9542 275.024 13.5033 274.675C15.4254 273.452 17.597 272.603 19.8435 272.204C21.7156 271.879 23.7624 271.904 25.3849 272.853C25.5597 272.953 25.7344 273.052 25.8842 273.177C27.5566 274.45 28.1307 277.221 26.608 278.669" stroke="black" stroke-width="3.95825" stroke-miterlimit="10" stroke-linecap="round" stroke-linejoin="round"/>
<path d="M7.71227 283.262C6.43924 283.586 5.14124 282.812 4.2676 281.839C2.99457 280.416 2.34557 278.519 2.1958 276.622C2.04604 274.725 2.34557 272.803 2.81984 270.956C3.04449 270.082 3.2941 269.208 3.79333 268.46C4.41737 267.486 5.39086 266.787 6.41427 266.238C7.88699 265.414 9.78406 264.84 11.1819 265.814C12.5797 266.787 12.7045 268.809 12.6546 270.506C12.6546 270.881 12.6297 271.255 12.6297 271.63C12.6047 272.329 12.6047 273.003 12.5797 273.702" stroke="black" stroke-width="3.95825" stroke-miterlimit="10" stroke-linecap="round" stroke-linejoin="round"/>
<path d="M25.1104 271.754C25.2352 271.655 25.36 271.53 25.4848 271.43C26.009 270.981 26.5331 270.531 27.0573 270.132C28.0808 269.333 29.1291 268.559 30.2274 267.835" stroke="black" stroke-width="3.95825" stroke-miterlimit="10" stroke-linecap="round" stroke-linejoin="round"/>
<path d="M26.9325 269.982C26.5331 268.759 25.6345 267.885 24.5612 267.162C23.5627 266.488 22.4145 265.988 21.3162 265.514C18.5455 264.316 15.8497 262.918 13.2537 261.395C11.8808 260.572 10.433 259.573 10.0337 258.026C9.50946 255.854 11.5313 253.707 13.7529 253.283C15.3504 252.958 16.9979 253.308 18.5704 253.782C19.1695 253.957 19.7436 254.182 20.3177 254.381C27.5066 256.977 34.7204 259.598 41.3851 263.317C47.5755 266.762 53.2917 271.255 57.3854 277.021C57.7099 277.471 58.0344 277.945 58.3339 278.419" stroke="black" stroke-width="3.95825" stroke-miterlimit="10" stroke-linecap="round" stroke-linejoin="round"/>
<path d="M61.504 281.265C64.7989 283.96 68.9176 286.357 72.8365 288.478C73.6852 288.928 74.5339 289.377 75.3576 289.801C79.626 292.048 84.119 293.895 88.2876 296.341C92.4561 298.787 96.3501 301.933 98.7713 306.126" stroke="black" stroke-width="3.95825" stroke-miterlimit="10" stroke-linecap="round" stroke-linejoin="round"/>
<path d="M49.248 308.023C50.0967 309.146 50.9205 310.27 51.7691 311.418C55.5383 316.46 59.4572 321.452 63.9253 325.871C69.3919 331.312 75.8319 335.955 83.1206 338.401C83.9194 338.676 84.7431 338.925 85.5918 339.125C87.5138 339.599 89.4608 339.849 91.4327 339.724C97.7979 339.3 103.364 334.782 106.584 329.265C109.804 323.749 111.077 317.334 112.051 311.019C112.275 309.596 112.475 308.173 112.65 306.725C113.948 296.716 114.497 286.581 113.474 276.547C113.224 274.126 112.875 271.679 111.751 269.508" stroke="black" stroke-width="3.95825" stroke-miterlimit="10" stroke-linecap="round" stroke-linejoin="round"/>
<path d="M73.0362 288.054C71.8131 281.764 71.5385 273.577 71.5135 267.162C71.4886 264.615 71.5135 261.97 72.2624 259.573C72.512 258.75 72.8615 257.951 73.3357 257.177" stroke="black" stroke-width="3.95825" stroke-miterlimit="10" stroke-linecap="round" stroke-linejoin="round"/>
<path d="M187.309 230.693C187.509 231.941 187.609 233.189 187.609 234.462C187.609 235.585 187.534 236.684 187.359 237.782" stroke="black" stroke-width="3.95825" stroke-miterlimit="10" stroke-linecap="round" stroke-linejoin="round"/>
<path d="M209.225 221.432C209.375 220.808 209.5 220.159 209.625 219.535C210.049 217.189 210.224 214.792 210.149 212.421" stroke="black" stroke-width="3.95825" stroke-miterlimit="10" stroke-linecap="round" stroke-linejoin="round"/>
<path d="M112.775 306.75C119.739 301.783 125.205 293.671 131.171 287.53C136.862 281.689 143.777 277.196 149.842 271.755C156.108 266.138 161.399 259.524 167.141 253.383C172.882 247.243 179.272 241.451 186.985 238.032C187.11 237.982 187.259 237.907 187.384 237.857C191.777 235.96 196.545 234.762 200.414 231.916" stroke="black" stroke-width="3.95825" stroke-miterlimit="10" stroke-linecap="round" stroke-linejoin="round"/>
<path d="M190.355 232.59C195.197 231.117 198.367 226.35 203.035 224.403C204.757 223.679 206.629 223.354 208.477 223.254C208.851 223.23 209.225 223.23 209.6 223.23C214.717 223.205 219.784 224.927 223.978 227.897C226.449 229.645 228.62 231.841 230.293 234.362C230.767 235.061 231.191 235.785 231.566 236.534" stroke="black" stroke-width="3.95825" stroke-miterlimit="10" stroke-linecap="round" stroke-linejoin="round"/>
<path d="M87.364 340.548C87.1893 341.072 87.0146 341.596 86.8648 342.145C85.1924 347.462 83.6697 352.979 84.3437 358.47C84.3437 358.52 84.3437 358.545 84.3687 358.595" stroke="black" stroke-width="3.95825" stroke-miterlimit="10" stroke-linecap="round" stroke-linejoin="round"/>
<path d="M154.959 357.522C163.846 343.269 173.456 329.515 182.791 315.587C190.629 303.88 197.968 291.823 206.654 280.715C207.728 279.343 208.826 277.97 209.949 276.622L212.745 275.698C227.747 274.9 242.973 279.842 254.63 289.302C265.089 297.789 272.602 309.87 275.697 322.975C276.047 324.473 276.346 325.97 276.571 327.468" stroke="black" stroke-width="3.95825" stroke-miterlimit="10" stroke-linecap="round" stroke-linejoin="round"/>
<path d="M241.101 358.72C241.176 358.645 241.251 358.545 241.351 358.47C246.093 353.403 251.959 349.509 256.927 344.642C262.743 338.926 267.31 331.886 274 327.244" stroke="black" stroke-width="3.95825" stroke-miterlimit="10" stroke-linecap="round" stroke-linejoin="round"/>
<path d="M323.424 226.275C330.363 238.431 330.862 253.458 327.492 267.062C324.647 278.519 319.28 289.153 313.289 299.362C312.166 301.259 311.043 303.131 309.895 305.003" stroke="black" stroke-width="3.95825" stroke-miterlimit="10" stroke-linecap="round" stroke-linejoin="round"/>
<path d="M382.732 226.425C382.931 227.523 383.056 228.646 383.156 229.744C383.88 238.381 381.708 247.142 379.562 255.604C371.025 289.277 362.338 323.374 345.589 353.802C345.489 353.977 345.415 354.127 345.315 354.302" stroke="black" stroke-width="3.95825" stroke-miterlimit="10" stroke-linecap="round" stroke-linejoin="round"/>
<path d="M85.5667 139.11C85.3171 138.685 85.0925 138.236 84.9177 137.787C82.8709 133.194 82.9708 127.777 84.3187 122.91C84.7929 121.187 85.4419 119.49 86.6401 118.167C87.8382 116.869 89.6854 116.045 91.4077 116.47C91.9818 116.62 92.481 116.869 92.9054 117.244C94.1035 118.192 94.8773 119.765 95.2518 121.312" stroke="black" stroke-width="3.95825" stroke-miterlimit="10" stroke-linecap="round" stroke-linejoin="round"/>
<path d="M93.7791 115.247C93.8789 114.947 93.9538 114.623 94.0536 114.323C95.9257 108.507 99.7199 103.315 104.687 99.7956C105.985 98.8721 107.433 98.0483 109.005 98.0483C109.829 98.0483 110.678 98.3728 111.302 98.897C111.876 99.3713 112.275 100.045 112.275 100.794" stroke="black" stroke-width="3.95825" stroke-miterlimit="10" stroke-linecap="round" stroke-linejoin="round"/>
<path d="M128.45 93.4055C128.4 93.5303 128.325 93.6302 128.251 93.705" stroke="black" stroke-width="3.95825" stroke-miterlimit="10" stroke-linecap="round" stroke-linejoin="round"/>
<path d="M128.226 90.1604C128.425 90.9342 128.5 91.733 128.525 92.5317C128.55 92.8313 128.55 93.1308 128.425 93.4054" stroke="black" stroke-width="3.95825" stroke-miterlimit="10" stroke-linecap="round" stroke-linejoin="round"/>
<path d="M111.527 98.7222C113.873 95.2276 117.467 92.0325 120.613 89.2368C121.361 88.5629 122.16 87.9139 123.084 87.5145C124.007 87.1151 125.081 86.9654 126.029 87.3398C126.978 87.7142 127.652 88.5879 128.026 89.5364C128.101 89.7361 128.176 89.9358 128.226 90.1604" stroke="black" stroke-width="3.95825" stroke-miterlimit="10" stroke-linecap="round" stroke-linejoin="round"/>
<path d="M128.226 90.1606C129.549 87.7393 132.918 85.4179 135.415 84.6191C135.939 84.4694 136.463 84.3446 137.012 84.3945C138.11 84.4943 139.059 85.2931 139.608 86.2416C140.157 87.2151 140.357 88.3134 140.507 89.4117" stroke="black" stroke-width="3.95825" stroke-miterlimit="10" stroke-linecap="round" stroke-linejoin="round"/>
<path d="M127.951 90.7595C128.026 90.5598 128.126 90.3601 128.226 90.1604" stroke="black" stroke-width="3.95825" stroke-miterlimit="10" stroke-linecap="round" stroke-linejoin="round"/>
</g>
<defs>
<clipPath id="clip0">
<rect width="434.652" height="360.717" fill="white" transform="translate(0.17395)"/>
</clipPath>
</defs>
</svg>
