<svg width="576" height="528" viewBox="0 0 576 528" fill="none" xmlns="http://www.w3.org/2000/svg">
<g clip-path="url(#clip0)">
<path d="M342.241 525.552C263.222 530.468 161.668 528.027 96.011 479.493C39.3282 437.624 0 339.436 0 269.721C0 185.851 54.7362 83.1095 126.662 41.0758C191.263 3.29832 299.515 -8.67831 371.506 6.20175C441.156 20.5869 515.292 73.9703 546.735 139.528C565.904 179.483 576 224.388 576 269.457C576 344.55 537.53 450.294 473.291 490.645C435.646 514.301 390.577 522.385 346.893 525.288C345.343 525.354 343.792 525.453 342.241 525.552Z" fill="#F0F3F5"/>
<path fill-rule="evenodd" clip-rule="evenodd" d="M249.827 126.332C241.545 126.2 237.322 133.03 234.683 139.694C232.901 144.215 232.241 149.757 231.614 154.541C230.261 164.835 229.272 175.096 229.272 185.456C229.239 198.06 230.987 209.311 238.609 219.374C240.588 222.013 245.174 225.675 247.946 227.49C249.134 228.282 251.476 228.48 252.334 229.569C253.324 230.789 253.786 232.802 254.149 234.32C255.006 237.982 255.138 242.172 252.664 245.175C250.585 247.649 246.593 247.88 245.834 251.41C245.009 255.304 246.428 260.121 247.616 263.717C249.695 269.821 252.4 275.858 255.996 281.236C264.047 293.18 278.234 300.867 292.619 300.472C300.439 300.241 307.103 293.642 311.887 288.066C315.022 284.437 317.76 280.61 320.367 276.617C324.425 270.349 328.978 261.638 327.13 253.72C325.843 248.243 317.925 247.649 314.659 243.756C310.106 238.345 310.139 229.371 310.139 222.574C310.139 220.495 310.37 217.262 311.788 215.579C314.164 212.742 318.849 213.072 321.488 210.168C323.93 207.463 324.953 203.372 324.953 199.841C324.986 191.131 320.762 184.005 316.077 176.944C312.976 172.259 310.172 167.112 306.74 162.691C302.847 157.61 298.624 152.793 294.863 147.58C288.561 138.903 282.82 129.136 272.328 125.012C264.707 121.944 257.349 126.464 249.827 126.332Z" fill="#FFF5F3"/>
<path fill-rule="evenodd" clip-rule="evenodd" d="M229.931 182.553C231.185 181.431 230.525 177.868 230.393 176.284C230.228 174.173 229.898 173.117 230.195 171.038C230.921 166.023 232.406 161.173 233 156.092C234.023 147.25 234.188 137.352 241.413 130.885C243.558 128.972 245.999 129.038 248.474 128.213C250.552 127.52 252.598 126.761 254.743 126.2C257.877 125.408 262.298 126.233 264.113 128.774C265.135 130.225 266.059 131.05 267.115 133.195C268.138 135.372 270.348 143.852 271.173 148.471C271.536 150.45 271.998 152.562 272.625 154.475C273.582 157.379 275.1 161.503 277.013 163.945C281.632 169.883 284.239 171.764 290.441 175.888C293.576 178 297.601 179.353 300.999 180.804C305.058 182.553 309.248 186.776 311.953 190.141C314.032 192.748 316.242 197.895 315.583 201.293C315.385 202.349 313.273 205.648 314.263 206.638C315.616 208.024 317.991 205.615 319.344 205.054C319.971 204.791 320.927 204.758 321.092 205.582C321.191 206.11 320.762 207.991 320.4 208.354C319.014 209.74 315.154 211.521 313.636 211.917C312.085 212.313 311.029 212.247 310.568 212.709C309.809 213.468 309.974 217.988 309.974 219.077C309.974 223.729 310.106 226.104 310.106 230.657C310.106 232.637 310.04 236.827 311.458 238.444C313.57 240.852 315.945 240.423 318.816 240.258C326.668 239.764 335.61 234.518 338.645 226.929C340.262 222.904 340.724 214.524 338.183 210.564C336.929 208.618 336.302 207.364 334.488 205.879C333.498 205.054 331.089 203.174 330.265 202.118C328.747 200.171 330.727 199.083 331.32 193.738C331.914 188.36 331.056 186.314 332.607 182.223C333.663 179.419 335.412 177.967 336.302 175.129C339.107 166.287 337.358 153.618 334.653 144.973C334.026 142.994 333.003 141.014 332.046 139.167C330.529 136.263 329.704 134.25 327.658 131.644C322.676 125.243 310.568 119.436 303.672 115.675C296.578 111.815 289.782 107.328 284.074 105.876C279.455 104.688 272.658 104.655 268.105 106.602C264.905 107.955 262.463 110.033 259.23 111.353C256.755 112.343 256.326 111.452 252.004 113.003C247.682 114.553 243.822 115.246 240.456 117.424C226.401 126.629 216.14 148.867 218.714 161.866C219.374 165.132 220.759 167.376 220.396 170.774C220.198 172.589 218.12 173.282 218.384 175.03C218.615 176.482 219.44 177.01 220.264 178.099C221.815 180.177 223.564 183.675 226.401 184.236C228.084 184.566 228.843 183.51 229.931 182.553Z" fill="#FF5136"/>
<path fill-rule="evenodd" clip-rule="evenodd" d="M246.758 250.025C246.296 248.936 239.698 252.334 236.728 253.654C233.429 255.139 230.096 256.392 226.896 258.009C226.401 258.24 224.554 258.636 224.356 259.164C223.498 261.176 223.762 264.113 223.729 266.191C223.663 269.128 223.333 272.064 223.333 275.001C223.333 291.233 227.028 311.095 231.383 325.349C234.056 334.158 235.243 336.632 238.015 343.627C238.642 345.211 239.137 346.959 239.533 348.609C239.632 349.038 239.632 349.896 240.291 349.896C241.941 349.896 244.383 347.124 244.647 345.541C245.24 341.878 244.713 338.282 245.042 334.554C245.405 330.364 246.164 326.635 247.484 322.676C250.057 314.989 250.651 307.136 252.202 299.284C252.466 297.931 253.786 298.822 254.116 297.634C254.842 295.094 253.753 292.355 254.875 289.848C255.864 287.637 259.758 286.185 261.77 284.998C262.562 284.536 263.915 283.909 264.212 282.952C264.377 282.358 263.75 281.17 263.453 280.642C262.331 278.729 261.143 276.881 259.989 275.034C256.986 270.151 253.225 264.575 250.915 259.296C249.563 256.128 247.22 251.113 246.758 250.025Z" fill="#FF5136"/>
<path fill-rule="evenodd" clip-rule="evenodd" d="M321.026 248.507C319.905 248.474 318.75 254.38 317.628 257.217C316.11 261.044 314.032 264.608 312.349 268.369C311.062 271.305 310.172 274.572 308.588 277.376C307.334 279.587 306.047 281.764 304.86 283.975C304.761 284.173 303.639 285.328 303.87 285.592C304.794 286.746 306.212 286.416 307.07 287.967C308.687 290.837 307.862 294.731 308.126 297.799C308.324 300.208 310.172 300.604 311.953 301.692C315.912 304.068 319.74 305.289 323.897 307.037C325.909 307.895 327.823 309.512 329.308 311.095C329.473 311.26 331.551 313.933 331.881 313.669C333.036 312.745 333.465 309.611 333.729 308.357C334.983 302.715 335.907 297.04 336.995 291.365C338.447 283.876 340.658 276.551 342.142 269.062C342.67 266.29 344.254 262.199 343.231 259.395C342.373 257.019 338.15 256.722 336.137 255.831C331.056 253.621 323.567 248.573 321.026 248.507Z" fill="#FF5136"/>
<path fill-rule="evenodd" clip-rule="evenodd" d="M307.466 304.926C306.212 306.674 307.136 305.52 307.532 308.654C307.664 309.677 307.466 310.964 307.829 311.92C309.149 315.187 313.867 317.034 316.506 318.981C317.694 319.839 319.179 320.598 320.466 321.323C320.73 321.455 321.554 322.247 321.95 322.082C322.511 321.851 322.577 320.697 322.643 320.301C323.039 317.628 321.488 316.077 319.311 314.791C317.298 313.603 315.121 313.339 313.174 311.986C311.722 310.996 310.304 308.489 309.281 307.103C308.819 306.41 307.994 304.2 307.466 304.926Z" fill="#FF5136"/>
<path fill-rule="evenodd" clip-rule="evenodd" d="M315.681 357.847C315.78 357.55 309.941 353.525 309.611 353.426C309.281 353.294 306.806 361.707 306.179 362.829C305.849 363.423 299.284 364.611 294.764 364.809C291.992 364.941 289.353 364.908 286.581 365.04C283.81 365.172 281.632 365.37 278.828 364.908C277.178 364.611 273.252 362.697 271.866 363.918C268.039 367.217 266.653 373.024 262.628 375.994C260.318 377.676 256.986 375.763 255.501 378.105C253.588 381.141 250.915 385.001 250.09 388.597C249.497 391.237 249.893 394.107 249.86 396.78C249.794 401.762 249.926 406.546 250.321 411.495C250.882 417.994 249.365 427.991 250.123 430.895C250.42 432.05 251.344 432.445 251.806 432.61C255.072 433.765 261.836 432.973 266.224 432.907C270.579 432.808 285.097 434.425 297.04 433.27C302.385 432.775 308.753 433.435 314.032 432.841C315.846 432.643 317.034 433.105 318.816 432.94C319.806 432.841 321.752 433.072 322.742 433.039C323.402 433.006 325.843 433.138 326.503 433.204C328.483 433.435 331.65 431.291 331.254 430.334C330.298 428.024 328.945 422.712 327.361 419.512C326.008 416.774 325.547 414.365 324.128 411.66C322.181 407.964 321.125 403.543 319.41 399.749C316.968 394.371 314.527 389.455 312.382 383.945C311.623 381.998 311.59 379.689 311.062 377.643C310.238 374.41 308.456 370.484 309.248 367.085C309.677 365.172 315.088 359.728 315.681 357.847Z" fill="#FF5136"/>
<path fill-rule="evenodd" clip-rule="evenodd" d="M223.828 259.593C222.409 258.999 221.419 260.384 220.099 260.813C215.612 262.331 211.95 263.585 207.595 265.465C204.988 266.587 202.481 267.28 199.841 268.336C194.562 270.48 190.867 272.856 186.908 276.914C184.367 279.521 180.276 285.427 178.66 288.627C173.843 298.36 172.919 307.334 172.391 317.991C172.16 322.907 171.236 327.79 171.203 332.706C171.137 338.612 171.038 344.551 170.576 350.457C169.883 359.299 167.706 370.913 167.343 372.694C166.584 376.456 166.023 378.435 165.363 379.326C164.67 380.283 164.01 381.8 164.34 383.219C164.736 384.869 166.716 385.793 167.772 386.914C171.302 390.709 177.472 394.371 182.982 394.767C188.327 395.13 192.715 390.874 196.674 388.036C200.237 385.463 204.625 381.537 208.255 379.062C212.544 376.126 216.404 373.123 220.198 369.626C223.531 366.558 226.302 365.238 229.569 362.103C232.142 359.629 234.617 357.022 237.157 354.515C238.345 353.36 239.895 351.941 240.06 350.16C240.225 348.51 239.038 347.058 238.576 345.508C237.124 340.658 235.474 336.929 233.693 332.244C229.997 322.379 227.226 311.161 225.576 300.67C223.993 290.376 222.607 279.686 223.96 269.26C224.323 267.016 224.685 259.956 223.828 259.593Z" fill="#FFF3C1"/>
<path fill-rule="evenodd" clip-rule="evenodd" d="M226.203 433.105C226.533 432.742 226.995 431.39 227.061 431.192C227.919 428.882 229.041 426.639 230.03 424.395C233.627 416.312 238.51 408.954 242.304 401.003C243.558 398.363 245.01 395.592 246.758 393.249C246.923 393.018 248.177 390.148 248.441 390.346C248.903 390.676 248.738 391.962 248.771 392.391C248.903 394.635 249.761 395.757 249.926 397.967C250.618 406.612 250.091 415.421 250.552 424.065C250.651 426.012 250.354 428.915 250.288 430.895C250.255 431.588 250.618 432.511 249.827 432.709C245.966 433.765 237.85 433.765 231.779 433.336C230.954 433.27 225.675 433.699 226.203 433.105Z" fill="#FFF3C1"/>
<path fill-rule="evenodd" clip-rule="evenodd" d="M344.188 259.692C342.571 260.483 342.571 266.785 342.076 269.92C341.251 275.298 339.8 280.643 338.579 285.954C336.5 295.061 333.828 304.233 332.31 313.339C332.079 314.758 334.026 315.748 333.828 317.397C333.465 320.631 331.023 323.93 330.595 327.229C330.331 329.44 331.155 331.716 331.452 333.861C331.683 335.676 331.584 337.556 331.584 339.404C331.584 344.254 330.694 349.104 331.089 353.987C331.386 357.517 332.673 361.477 334.092 364.71C338.546 374.707 346.86 383.285 353.756 390.874C355.439 392.721 357.352 394.338 359.068 396.186C360.322 397.538 362.763 399.98 364.71 400.376C366.92 400.805 368.141 399.617 370.286 399.155C372.595 398.627 375.565 397.67 377.841 397.076C379.986 396.516 382.064 396.054 384.011 394.998C387.607 393.051 390.808 390.412 393.711 387.97C395.064 386.815 396.878 384.44 397.67 382.856C398.561 381.075 399.749 378.996 400.409 376.192C401.069 373.387 401.168 370.847 400.904 368.801C400.508 365.832 399.782 365.007 398.891 362.136C397.637 358.078 396.219 352.073 395.526 347.85C394.107 339.305 391.863 333.069 390.148 324.524C389.719 322.445 389.158 320.367 388.762 317.727C388.333 315.088 387.508 311.26 386.65 307.4C385.76 303.573 385.265 296.71 382.922 290.244C381.141 285.295 377.808 280.478 374.839 276.188C374.113 275.166 373.948 275.166 372.331 273.384C370.715 271.602 366.821 268.501 363.885 267.148C360.982 265.795 357.88 264.047 355.01 262.793C351.018 261.11 346.134 258.735 344.188 259.692Z" fill="#FFF3C1"/>
<path fill-rule="evenodd" clip-rule="evenodd" d="M170.345 389.851C171.17 388.96 174.107 391.105 175.426 391.732C178.363 393.15 183.972 395.361 187.238 394.206C190.834 392.919 194.101 390.049 197.136 387.871C202.448 384.044 207.859 380.217 212.742 375.829C220.429 368.867 230.789 361.213 236.596 354.548C239.005 351.776 241.314 347.751 242.436 344.155C243.492 340.79 244.548 336.83 244.779 333.333C244.977 330.232 244.911 327.031 245.372 323.963C245.966 320.235 248.078 316.572 249.365 313.042C250.651 309.446 250.519 305.289 251.344 301.527C251.74 299.713 252.334 297.7 254.248 296.941C256.788 295.885 259.791 296.479 262.397 296.809C267.115 297.403 271.338 297.799 275.924 299.053C282.655 300.901 293.015 302.451 297.7 308.225C299.812 310.832 300.801 314.428 301.824 317.595C305.058 327.592 306.575 343.132 299.878 351.809C297.238 355.241 284.569 352.205 277.508 356.429C271.8 359.827 268.006 369.494 264.146 374.443C261.506 377.808 256.689 378.303 253.984 381.702C250.651 385.892 248.936 390.346 246.395 394.932C243.591 400.013 241.083 403.51 238.213 408.558C234.979 414.266 232.142 420.403 229.503 425.88C227.226 430.631 226.302 432.676 223.96 437.427C222.541 440.331 217.922 447.985 215.744 450.394C212.577 453.891 209.377 456.465 205.186 458.807C201.887 460.688 198.885 461.81 195.321 463.063C192.451 464.053 188.096 464.053 185.126 464.746C181.167 465.67 176.977 466.957 173.282 464.185C167.937 460.16 166.65 454.782 165.066 448.612C162.526 438.648 162.988 431.654 164.472 421.723C165.132 417.301 166.881 410.802 167.871 406.414C168.696 402.685 169.388 398.429 169.652 394.602C169.751 393.183 169.355 390.94 170.345 389.851Z" fill="#FFF5F3"/>
<path fill-rule="evenodd" clip-rule="evenodd" d="M310.139 377.709C309.611 374.74 307.631 372.76 307.598 369.626C307.565 368.24 308.192 367.151 308.357 365.865C308.588 364.05 306.905 361.773 306.971 359.926C307.103 356.428 309.05 353.591 309.446 350.094C310.007 344.914 310.304 338.678 309.842 333.498C309.413 328.582 308.984 323.963 308.357 319.047C308.225 318.057 307.433 314.989 308.093 314.164C308.819 313.24 310.403 314.593 310.996 314.989C313.504 316.671 317.232 319.245 318.882 320.07C320.565 320.895 321.818 322.313 322.313 321.29C323.633 318.684 321.818 315.55 319.839 314.989C314.626 313.57 309.974 310.766 307.664 305.915C307.07 304.662 307.136 302.748 306.971 301.362C306.839 300.175 307.928 299.284 309.05 299.614C310.93 300.175 312.778 301.791 314.461 302.814C317.133 304.464 320.499 305.058 323.501 306.146C324.392 306.476 326.635 307.4 327.427 307.862C330.1 309.38 331.617 313.702 333.696 315.88C335.28 317.529 332.97 322.313 331.98 323.864C329.77 327.262 331.188 329.242 331.485 334.587C331.683 337.886 331.155 348.18 331.353 351.479C331.551 354.548 332.013 356.791 332.607 359.86C333.465 364.248 336.434 367.877 338.645 371.572C340.987 375.466 343.561 379.161 346.464 382.691C348.609 385.298 352.139 389.125 354.482 391.468C358.375 395.361 363.159 400.013 365.337 400.145C366.854 400.244 370.451 399.287 373.057 398.528C375.697 397.736 377.544 397.703 380.844 396.318C384.143 394.932 386.518 393.15 389.422 391.402C389.851 391.138 391.929 388.465 392.523 388.795C393.348 389.257 393.579 390.808 393.81 391.6C394.404 393.513 394.932 395.394 395.46 397.34C396.779 402.289 397.043 407.337 398.264 412.286C399.32 416.543 399.023 421.261 399.386 425.616C400.442 438.054 399.518 449.833 393.711 460.721C391.929 464.053 390.28 467.188 386.452 468.705C383.78 469.794 381.042 469.497 378.303 469.299C368.108 468.54 359.926 463.822 351.71 457.949C346.761 454.419 341.218 449.305 337.919 444.356C329.935 432.313 328.384 422.02 322.643 408.921C319.938 402.751 315.55 394.041 313.273 387.673C312.151 384.407 310.765 381.207 310.139 377.709Z" fill="#FFF5F3"/>
<path fill-rule="evenodd" clip-rule="evenodd" d="M256.293 315.781C255.237 315.154 255.831 315.55 255.666 313.537C255.501 311.524 255.369 309.479 255.237 307.466C254.94 303.243 254.182 299.086 253.951 294.863C253.786 291.464 253.258 289.122 256.26 286.845C259.032 284.767 263.057 284.305 266.29 283.711C276.452 281.863 287.703 282.655 297.601 284.437C300.405 284.932 301.362 285.625 304.2 285.954C305.025 286.053 307.103 286.812 307.631 287.67C308.291 288.759 308.72 290.079 308.621 291.266C308.489 293.015 308.357 294.83 308.357 296.578C308.357 297.271 308.654 298.723 308.357 299.317C307.697 300.67 307.334 301.527 307.169 303.177C306.905 305.751 307.994 308.027 308.357 310.535C308.918 314.494 308.687 318.552 309.05 322.544C309.347 325.943 309.842 328.417 309.941 331.353C310.04 334.29 310.534 338.711 310.37 342.472C310.205 346.234 309.941 350.655 309.545 353.591C309.215 355.835 310.666 359.497 309.083 361.411C307.367 363.456 301.461 363.918 299.086 364.281C292.454 365.304 287.505 365.205 280.906 365.205C278.828 365.205 272.13 364.545 271.635 362.928C271.14 361.345 274.407 358.705 275.759 357.616C279.521 354.614 284.998 354.152 288.66 353.69C291.893 353.261 294.599 354.581 295.885 352.568C297.601 349.929 297.337 340.427 296.776 335.643C296.182 330.43 296.413 325.976 295.292 320.862C294.83 318.816 294.797 316.407 293.576 314.593C292.19 312.514 289.716 312.184 287.505 311.524C282.787 310.073 283.15 309.842 278.267 309.38C276.122 309.182 269.458 308.588 267.28 308.951C264.245 309.446 261.869 311.854 259.659 313.834C258.867 314.494 257.118 316.275 256.293 315.781Z" fill="white"/>
<path fill-rule="evenodd" clip-rule="evenodd" d="M256.26 291.629C256.491 289.122 263.156 288.66 265.135 288.297C272.988 286.878 281.599 286.977 289.518 288.066C293.543 288.627 297.535 289.023 301.428 290.178C301.725 290.277 305.157 291.398 304.53 292.19C304.101 292.718 301.857 293.444 301.164 293.576C298.822 293.972 297.238 294.203 294.929 294.698C291.926 295.358 288.726 294.962 285.657 295.16C278.861 295.622 272.493 295.457 265.696 294.995C263.189 294.83 256.062 293.807 256.26 291.629Z" fill="#EAC6B0"/>
<path d="M262.298 231.614C261.077 231.614 259.824 231.548 258.57 231.449C253.489 231.02 249.299 229.866 246.164 228.051C242.304 225.807 239.335 221.881 237.157 218.714C231.053 209.773 228.15 200.138 228.546 190.174L228.579 189.745C228.678 187.04 228.81 184.203 229.701 181.563C229.899 180.936 230.591 180.606 231.185 180.837C231.812 181.035 232.142 181.728 231.911 182.322C231.119 184.631 231.02 187.271 230.921 189.811L230.888 190.24C230.525 199.71 233.264 208.849 239.071 217.361C241.083 220.33 243.855 223.993 247.319 226.005C250.124 227.622 254.083 228.711 258.735 229.107C267.874 229.866 276.617 227.655 283.348 222.805C285.031 221.617 286.185 220.726 287.373 219.704C287.703 219.44 288.132 219.077 288.627 218.483C289.056 217.988 289.782 217.922 290.277 218.351C290.771 218.78 290.837 219.506 290.409 220C289.782 220.759 289.221 221.221 288.891 221.518C287.34 222.838 285.921 223.894 284.701 224.752C278.498 229.206 270.645 231.614 262.298 231.614Z" fill="#1D1D2E"/>
<path d="M239.962 173.909C239.203 173.909 238.51 173.414 238.279 172.688C238.246 172.523 238.18 172.259 238.18 172.061C238.18 171.896 238.18 171.665 238.213 171.533C238.411 170.609 239.335 169.916 240.291 170.114C241.017 170.246 241.545 170.774 241.677 171.434C241.776 171.698 241.809 172.028 241.743 172.358L241.71 172.556C241.545 173.348 240.852 173.942 240.06 173.975C239.994 173.909 239.962 173.909 239.962 173.909Z" fill="#1D1D2E"/>
<path d="M245.339 185.027C244.911 185.027 244.482 184.796 244.284 184.368C244.185 184.203 244.119 184.038 244.02 183.873C243.789 183.444 243.492 182.916 243.327 182.355C243.129 181.728 242.766 180.441 243.459 179.452C243.888 178.825 244.548 178.561 245.01 178.363C245.174 178.297 245.339 178.231 245.471 178.132L245.801 177.934C246.758 177.307 247.748 176.647 248.276 175.789C249.398 174.041 249.035 172.226 248.408 169.916C248.243 169.29 248.606 168.63 249.233 168.465C249.86 168.3 250.519 168.663 250.684 169.29C251.278 171.5 252.037 174.272 250.288 177.043C249.497 178.33 248.21 179.155 247.121 179.88L246.824 180.078C246.56 180.243 246.296 180.375 245.999 180.507C245.801 180.573 245.504 180.705 245.438 180.804C245.438 180.804 245.438 181.035 245.636 181.662C245.735 182.025 245.933 182.355 246.131 182.751C246.23 182.949 246.329 183.147 246.428 183.312C246.725 183.906 246.494 184.599 245.9 184.895C245.702 184.994 245.504 185.027 245.339 185.027Z" fill="#1D1D2E"/>
<path d="M271.767 177.703C271.734 177.703 271.734 177.703 271.767 177.703C271.173 177.703 270.612 177.472 270.283 176.977C270.151 176.779 269.986 176.449 269.92 176.218L269.821 175.822C269.755 175.591 269.755 175.327 269.821 175.096L269.854 174.898C270.052 173.942 271.008 173.315 271.965 173.513C272.097 173.546 272.229 173.579 272.328 173.645C272.889 173.81 273.318 174.206 273.516 174.799C273.549 174.931 273.615 175.195 273.615 175.327V175.558C273.615 175.69 273.615 175.822 273.582 175.954C273.516 176.218 273.384 176.746 273.219 176.944C272.889 177.373 272.328 177.703 271.767 177.703Z" fill="#1D1D2E"/>
<path d="M236.629 155.102C236.332 155.102 236.068 155.003 235.837 154.805C235.375 154.376 235.309 153.684 235.738 153.189C236.299 152.562 237.223 152.265 237.916 152.067L238.18 151.968C240.852 151.077 243.492 151.275 245.999 152.595C246.593 152.892 246.791 153.618 246.494 154.179C246.197 154.772 245.471 154.97 244.911 154.673C242.964 153.684 241.017 153.519 238.939 154.212L238.609 154.311C238.345 154.409 237.685 154.607 237.52 154.739C237.289 154.97 236.959 155.102 236.629 155.102Z" fill="#1D1D2E"/>
<path d="M281.698 157.181C281.434 157.181 281.137 157.082 280.906 156.884C278.069 154.376 275.693 153.321 272.757 153.255C272.229 153.255 270.678 153.222 270.184 153.552C269.656 153.915 268.93 153.783 268.534 153.255C268.171 152.727 268.303 151.968 268.831 151.605C269.854 150.879 271.404 150.879 272.79 150.879C277.211 150.978 280.148 153.057 282.457 155.102C282.952 155.531 282.985 156.29 282.556 156.785C282.358 157.049 282.028 157.181 281.698 157.181Z" fill="#1D1D2E"/>
<path d="M254.314 208.255C251.476 208.255 248.672 207.727 246.263 206.704C243.624 205.549 241.842 204.329 240.984 203.042C240.621 202.481 240.786 201.755 241.314 201.392C241.875 201.029 242.601 201.194 242.964 201.722C243.294 202.25 244.284 203.273 247.187 204.527C251.641 206.44 257.58 206.341 262.331 204.263C262.595 204.164 262.892 204.032 263.189 203.9C263.948 203.603 264.872 203.24 265.3 202.844C265.795 202.415 266.521 202.448 266.983 202.943C267.412 203.438 267.379 204.164 266.884 204.626C266.125 205.285 265.037 205.714 264.08 206.11C263.816 206.209 263.552 206.308 263.321 206.407C260.549 207.661 257.415 208.255 254.314 208.255Z" fill="#1D1D2E"/>
<path d="M220.297 176.68C219.934 176.68 219.572 176.647 219.176 176.548C218.549 176.383 218.153 175.723 218.318 175.096C218.483 174.47 219.11 174.074 219.769 174.239C220.594 174.437 221.188 174.173 222.244 173.579C222.475 173.447 222.706 173.348 222.937 173.216C226.005 171.665 228.348 168.564 229.866 163.912C231.185 159.886 231.746 155.564 232.241 151.407C232.406 150.186 232.505 148.966 232.604 147.778C233.099 142.268 233.594 136.593 238.378 132.106C240.126 130.489 244.647 126.728 248.969 127.289C249.629 127.355 250.09 127.949 249.992 128.609C249.926 129.268 249.332 129.697 248.672 129.631C245.24 129.202 241.149 132.733 239.995 133.855C235.87 137.715 235.441 142.466 234.979 147.976C234.881 149.197 234.749 150.45 234.617 151.704C234.089 155.993 233.528 160.414 232.142 164.67C230.393 169.916 227.688 173.513 224.026 175.327C223.795 175.426 223.597 175.558 223.399 175.657C222.508 176.152 221.518 176.68 220.297 176.68Z" fill="#1D1D2E"/>
<path d="M313.57 206.77C313.24 206.77 312.943 206.638 312.712 206.407C312.283 205.945 312.283 205.186 312.778 204.725C313.669 203.9 314.065 202.283 314.164 201.161C314.329 198.786 314.23 197.037 313.24 194.695C311.953 191.659 307.565 186.512 303.969 183.939C301.494 182.157 298.855 180.936 296.05 179.649C294.137 178.792 292.19 177.868 290.277 176.779C284.338 173.348 280.082 169.619 277.277 165.396C273.054 158.996 271.569 154.607 269.689 146.524C269.524 145.798 269.359 144.973 269.161 144.083C268.435 140.684 267.445 136.032 266.026 133.558C262.793 127.883 259.857 126.2 256.491 128.147C255.93 128.477 255.205 128.279 254.875 127.718C254.545 127.157 254.743 126.431 255.303 126.101C262.199 122.142 266.62 129.862 268.072 132.403C269.656 135.174 270.645 139.859 271.437 143.621C271.635 144.478 271.8 145.303 271.965 145.996C273.846 154.146 275.232 158.105 279.224 164.11C281.83 168.036 285.822 171.5 291.431 174.733C293.246 175.789 295.16 176.647 297.007 177.505C299.779 178.792 302.682 180.111 305.322 182.025C309.248 184.862 313.933 190.339 315.385 193.771C316.539 196.542 316.671 198.621 316.473 201.293C316.407 202.085 316.11 204.824 314.362 206.44C314.131 206.671 313.867 206.77 313.57 206.77Z" fill="#1D1D2E"/>
<path d="M309.743 213.666C308.654 213.666 305.948 213.501 304.53 211.785C304.101 211.29 304.2 210.531 304.695 210.135C305.19 209.707 305.948 209.806 306.344 210.3C306.938 211.026 308.555 211.356 309.875 211.323C313.57 211.224 318.222 209.641 319.74 206.341C320.004 205.747 320.697 205.483 321.29 205.747C321.884 206.011 322.148 206.704 321.884 207.298C319.971 211.554 314.494 213.567 309.941 213.666C309.875 213.666 309.809 213.666 309.743 213.666Z" fill="#1D1D2E"/>
<path d="M309.941 203.966C309.578 203.966 309.248 203.801 309.017 203.504C308.621 202.976 308.72 202.25 309.215 201.854C310.898 200.534 312.877 199.083 314.692 198.423C315.319 198.192 315.979 198.522 316.209 199.149C316.44 199.775 316.11 200.435 315.484 200.666C313.867 201.227 311.788 202.844 310.667 203.735C310.436 203.867 310.205 203.966 309.941 203.966Z" fill="#1D1D2E"/>
<path d="M221.914 168.96C221.584 168.96 221.254 168.828 221.023 168.531C215.414 161.965 217.361 151.968 219.011 146.59C221.848 137.352 227.226 128.675 234.947 120.822C237.685 118.051 240.126 116.203 242.7 114.982C244.845 113.959 247.484 113.069 250.849 112.244C251.476 112.079 252.136 112.475 252.268 113.102C252.433 113.729 252.037 114.388 251.41 114.52C248.243 115.312 245.702 116.17 243.723 117.094C241.413 118.183 239.17 119.898 236.662 122.472C229.206 130.06 224.026 138.408 221.287 147.283C219.77 152.199 217.988 161.305 222.838 167.013C223.267 167.508 223.201 168.267 222.706 168.696C222.442 168.861 222.178 168.96 221.914 168.96Z" fill="#1D1D2E"/>
<path d="M326.371 131.974C326.009 131.974 325.679 131.809 325.448 131.512C322.544 127.85 318.255 125.243 314.098 122.769C311.194 121.02 308.126 119.469 305.124 117.952C302.781 116.764 300.373 115.543 298.063 114.223L296.611 113.399C290.475 109.934 284.14 106.305 277.046 106.305C277.013 106.305 277.013 106.305 276.98 106.305C272.889 106.305 267.907 107.922 262.562 110.924C261.935 111.287 261.308 111.716 260.648 112.178C259.494 113.003 258.273 113.828 256.953 114.322C256.326 114.553 255.666 114.223 255.435 113.63C255.205 113.036 255.534 112.343 256.128 112.112C257.151 111.749 258.24 110.99 259.263 110.264C259.956 109.802 260.648 109.307 261.374 108.878C267.148 105.612 272.394 103.962 276.914 103.929C276.947 103.929 276.98 103.929 276.98 103.929C284.668 103.929 291.299 107.691 297.7 111.32L299.152 112.145C301.428 113.432 303.804 114.652 306.113 115.807C309.149 117.325 312.25 118.941 315.22 120.723C319.344 123.198 323.996 126.035 327.196 130.027C327.592 130.522 327.526 131.281 326.998 131.677C326.899 131.908 326.635 131.974 326.371 131.974Z" fill="#1D1D2E"/>
<path d="M329.605 186.248C329.374 186.248 329.11 186.182 328.912 186.017C328.384 185.621 328.285 184.895 328.681 184.368C329.176 183.708 329.704 183.081 330.199 182.487C331.023 181.497 331.815 180.573 332.442 179.518C337.325 171.566 337.622 160.348 333.267 146.194C332.409 143.39 331.155 140.75 330.034 138.54C329.935 138.309 329.803 138.078 329.704 137.814C329.44 137.22 329.11 136.527 328.78 136.164C328.318 135.702 328.318 134.943 328.78 134.481C329.242 134.02 330.001 134.02 330.463 134.481C331.122 135.141 331.518 136.032 331.881 136.824C331.98 137.055 332.079 137.253 332.178 137.451C333.333 139.76 334.62 142.532 335.544 145.468C340.097 160.315 339.734 172.16 334.488 180.705C333.762 181.926 332.871 182.949 332.046 183.939C331.551 184.533 331.056 185.093 330.595 185.72C330.298 186.083 329.968 186.248 329.605 186.248Z" fill="#1D1D2E"/>
<path d="M310.304 224.587C309.842 224.587 309.413 224.323 309.215 223.894C308.951 223.3 309.215 222.607 309.809 222.343C310.271 222.145 310.732 221.947 311.161 221.749C313.141 220.891 314.824 220.165 316.473 218.912C325.382 212.049 330.826 199.281 329.44 188.591C329.341 187.931 329.803 187.337 330.463 187.271C331.122 187.172 331.683 187.634 331.782 188.294C333.267 199.775 327.46 213.435 317.925 220.792C316.044 222.244 314.131 223.069 312.085 223.96C311.656 224.158 311.194 224.323 310.732 224.554C310.634 224.554 310.469 224.587 310.304 224.587Z" fill="#1D1D2E"/>
<path d="M253.357 247.055C253.258 247.055 253.192 247.055 253.093 247.022C252.466 246.89 252.07 246.263 252.202 245.603C253.258 240.786 252.928 235.276 252.433 230.525C252.367 229.866 252.829 229.305 253.489 229.239C254.116 229.173 254.71 229.635 254.776 230.294C255.271 235.243 255.666 240.984 254.512 246.131C254.413 246.692 253.918 247.055 253.357 247.055Z" fill="#1D1D2E"/>
<path d="M312.514 243.591C312.151 243.591 311.821 243.426 311.59 243.129C309.875 240.852 309.479 237.355 309.215 234.782L309.182 234.386C308.588 229.107 308.489 224.026 308.852 218.813C308.885 218.186 308.918 217.559 308.918 216.932C308.951 215.612 308.984 214.227 309.248 212.907C309.38 212.28 309.974 211.851 310.634 211.983C311.26 212.115 311.689 212.742 311.557 213.369C311.326 214.491 311.293 215.777 311.26 217.031C311.227 217.691 311.227 218.351 311.161 219.011C310.798 224.059 310.897 229.008 311.491 234.155L311.524 234.551C311.788 236.86 312.118 239.995 313.438 241.743C313.834 242.271 313.735 242.997 313.207 243.393C313.009 243.525 312.778 243.591 312.514 243.591Z" fill="#1D1D2E"/>
<path d="M178.726 290.211C178.561 290.211 178.363 290.178 178.198 290.079C177.604 289.782 177.373 289.089 177.637 288.495C180.705 282.193 183.972 277.838 188.954 273.45C193.606 269.359 199.973 267.148 205.615 265.202C206.44 264.938 207.232 264.641 208.024 264.377C211.323 263.189 214.689 261.836 217.922 260.516C220.726 259.362 223.63 258.207 226.533 257.151C230.855 255.567 235.111 253.555 239.236 251.575C242.073 250.223 245.043 248.837 247.979 247.583C248.573 247.319 249.266 247.616 249.53 248.21C249.794 248.804 249.497 249.497 248.903 249.761C245.999 250.981 243.063 252.367 240.225 253.72C236.068 255.699 231.746 257.745 227.325 259.362C224.488 260.417 221.584 261.572 218.78 262.727C215.513 264.047 212.148 265.432 208.783 266.62C207.991 266.917 207.199 267.181 206.374 267.478C200.666 269.458 194.793 271.503 190.504 275.265C185.786 279.422 182.652 283.579 179.748 289.584C179.583 289.98 179.155 290.211 178.726 290.211Z" fill="#1D1D2E"/>
<path d="M180.837 395.328C180.672 395.328 180.54 395.295 180.408 395.229L179.089 394.701C174.766 392.985 170.279 391.171 166.848 387.772C166.584 387.508 166.32 387.277 166.056 387.046C165.033 386.156 163.846 385.133 163.483 383.417C163.12 381.569 163.813 379.623 164.439 377.907C164.67 377.313 164.868 376.719 165.033 376.192C166.32 371.407 167.64 366.491 168.333 361.41C169.389 353.987 169.718 346.299 170.048 338.876C170.312 332.805 170.576 326.536 171.236 320.433C171.467 318.354 171.5 316.176 171.566 314.065C171.665 309.512 171.764 304.827 173.513 300.505C173.744 299.911 174.436 299.614 175.063 299.845C175.657 300.076 175.954 300.768 175.723 301.395C174.14 305.322 174.041 309.809 173.942 314.131C173.909 316.308 173.843 318.519 173.612 320.697C172.952 326.767 172.688 332.97 172.424 339.008C172.094 346.497 171.764 354.251 170.708 361.773C169.982 366.986 168.63 372.001 167.343 376.818C167.178 377.412 166.947 378.072 166.716 378.732C166.188 380.151 165.594 381.767 165.858 382.922C166.056 383.879 166.815 384.506 167.673 385.265C167.97 385.529 168.3 385.793 168.597 386.09C171.698 389.158 175.954 390.874 180.045 392.523L181.365 393.051C181.959 393.282 182.256 393.975 182.025 394.602C181.761 395.031 181.332 395.328 180.837 395.328Z" fill="#1D1D2E"/>
<path d="M170.807 462.469C170.477 462.469 170.147 462.338 169.916 462.074C168.993 461.018 167.64 458.213 167.079 457.059C164.769 452.209 163.417 447.721 162.79 442.904C161.569 433.402 163.285 424.329 164.967 415.52C165.594 412.286 166.221 408.921 166.716 405.556C166.98 403.807 167.31 402.091 167.673 400.442C168.432 396.681 169.158 393.15 168.894 389.389C168.861 388.729 169.322 388.168 169.982 388.135C170.609 388.102 171.203 388.564 171.236 389.224C171.533 393.315 170.741 397.175 169.982 400.937C169.652 402.553 169.322 404.269 169.059 405.919C168.564 409.317 167.904 412.715 167.277 415.982C165.561 424.989 163.912 433.501 165.099 442.607C165.693 447.161 166.98 451.45 169.19 456.069C170.213 458.213 171.17 459.995 171.665 460.556C172.094 461.051 172.028 461.777 171.533 462.206C171.335 462.371 171.071 462.469 170.807 462.469Z" fill="#1D1D2E"/>
<path d="M169.586 420.106C169.454 420.106 169.289 420.073 169.158 420.007C168.564 419.776 168.267 419.083 168.498 418.456C168.894 417.532 169.256 416.576 169.619 415.619C171.038 411.956 172.523 408.195 174.799 404.797C179.649 397.571 186.512 393.018 193.177 388.663C195.486 387.145 197.829 385.595 200.105 383.945C205.351 380.118 210.498 375.928 215.447 371.902C217.922 369.89 220.363 367.877 222.871 365.931C226.599 362.994 229.767 359.728 233.165 356.264C234.254 355.175 235.309 354.053 236.431 352.964C238.18 351.216 240.654 348.642 241.776 346.431C242.073 345.838 242.766 345.64 243.36 345.904C243.954 346.201 244.185 346.893 243.888 347.487C242.634 349.962 240.126 352.601 238.114 354.647C237.025 355.736 235.936 356.824 234.881 357.913C231.581 361.279 228.216 364.743 224.389 367.778C221.914 369.758 219.44 371.737 216.998 373.75C212.016 377.808 206.869 381.998 201.557 385.859C199.248 387.541 196.839 389.125 194.529 390.643C187.766 395.097 181.398 399.287 176.812 406.117C174.667 409.317 173.315 412.781 171.863 416.477C171.5 417.433 171.137 418.39 170.741 419.347C170.477 419.842 170.048 420.106 169.586 420.106Z" fill="#1D1D2E"/>
<path d="M177.505 467.056C176.977 467.056 176.482 466.693 176.35 466.132C176.218 465.505 176.614 464.878 177.241 464.713C179.682 464.185 182.256 463.789 184.994 463.36C192.253 462.239 199.743 461.084 205.351 457.389C216.734 449.866 222.838 436.768 228.777 424.098C229.734 422.02 230.69 419.974 231.647 417.994C234.815 411.462 238.609 405.094 242.304 398.957C246.296 392.259 250.453 385.364 253.72 378.27C253.984 377.676 254.677 377.412 255.271 377.676C255.864 377.94 256.128 378.666 255.831 379.26C252.499 386.453 248.342 393.447 244.284 400.178C240.654 406.282 236.86 412.583 233.726 419.017C232.769 420.997 231.812 423.042 230.855 425.088C224.818 438.054 218.549 451.45 206.605 459.335C200.567 463.327 192.814 464.515 185.291 465.67C182.586 466.099 180.045 466.462 177.67 466.99C177.67 467.056 177.571 467.056 177.505 467.056Z" fill="#1D1D2E"/>
<path d="M258.603 380.316C258.141 380.316 257.679 380.019 257.514 379.557C257.283 378.963 257.58 378.27 258.174 378.039C260.582 377.082 262.298 374.971 263.75 373.057C265.169 371.144 266.356 369.032 267.61 366.821C269.392 363.654 271.239 360.355 273.846 357.715C278.168 353.327 284.602 352.898 290.31 352.502C291.926 352.403 293.444 352.304 294.896 352.106C295.523 352.04 296.116 352.469 296.215 353.129C296.314 353.756 295.852 354.35 295.193 354.449C293.675 354.647 292.124 354.746 290.442 354.878C284.899 355.241 279.158 355.637 275.496 359.398C273.12 361.806 271.338 364.941 269.623 368.009C268.369 370.22 267.115 372.463 265.597 374.509C263.981 376.686 262.001 379.095 258.999 380.283C258.9 380.283 258.735 380.316 258.603 380.316Z" fill="#1D1D2E"/>
<path d="M269.128 346.53C268.666 346.53 268.204 346.234 268.039 345.772C267.808 345.178 268.105 344.485 268.699 344.254C269.524 343.924 270.25 343.495 270.975 343.066C272.13 342.373 273.318 341.647 274.968 341.35C279.29 340.559 283.546 340.889 287.67 341.219C290.442 341.416 293.312 341.647 296.116 341.515C296.776 341.449 297.304 341.977 297.337 342.637C297.37 343.297 296.875 343.825 296.215 343.891C293.279 344.023 290.31 343.825 287.472 343.594C283.315 343.264 279.389 342.967 275.397 343.693C274.176 343.924 273.252 344.485 272.196 345.112C271.404 345.607 270.579 346.102 269.557 346.497C269.425 346.497 269.293 346.53 269.128 346.53Z" fill="#1D1D2E"/>
<path d="M294.533 334.488C294.467 334.488 294.401 334.488 294.335 334.488C289.023 333.564 283.018 332.541 277.013 331.848C273.615 331.452 269.755 330.991 266.851 333.366C266.356 333.795 265.597 333.696 265.202 333.201C264.773 332.706 264.872 331.947 265.366 331.551C269.062 328.483 273.615 329.044 277.31 329.473C283.348 330.199 289.419 331.221 294.731 332.145C295.358 332.244 295.786 332.871 295.687 333.498C295.622 334.092 295.094 334.488 294.533 334.488Z" fill="#1D1D2E"/>
<path d="M293.906 324.557C293.873 324.557 293.84 324.557 293.807 324.557C290.442 324.227 287.109 323.567 283.876 322.94C280.445 322.28 276.914 321.554 273.417 321.29C269.788 320.994 265.696 320.895 263.42 323.303C262.958 323.765 262.232 323.798 261.737 323.336C261.275 322.874 261.242 322.148 261.671 321.653C264.674 318.453 269.392 318.552 273.549 318.882C277.211 319.179 280.807 319.872 284.272 320.565C287.439 321.191 290.738 321.851 293.972 322.148C294.632 322.214 295.094 322.775 295.028 323.435C295.028 324.095 294.5 324.557 293.906 324.557Z" fill="#1D1D2E"/>
<path d="M245.043 344.452C244.911 344.452 244.779 344.419 244.614 344.386C244.02 344.155 243.69 343.462 243.921 342.868C244.779 340.559 245.603 338.183 246.395 335.907C247.781 331.881 249.2 327.691 251.014 323.666C251.278 323.105 251.476 322.478 251.674 321.818C252.037 320.664 252.4 319.476 253.159 318.42C254.182 316.968 255.732 315.88 257.217 314.791C257.844 314.329 258.471 313.9 258.999 313.471C259.395 313.141 259.791 312.778 260.22 312.415C262.496 310.436 265.07 308.192 268.501 308.126C270.019 308.093 271.503 308.192 272.922 308.291C273.714 308.357 274.506 308.39 275.298 308.423C275.858 308.456 276.485 308.456 277.079 308.456C279.059 308.456 281.335 308.489 283.315 309.149C284.767 309.611 286.152 310.205 287.505 310.766C288.627 311.227 289.716 311.689 290.837 312.085C291.068 312.184 291.398 312.316 291.761 312.514C292.091 312.679 292.784 313.042 293.048 313.042C293.675 312.877 294.269 313.306 294.401 313.933C294.533 314.56 294.104 315.22 293.477 315.352C292.586 315.55 291.629 315.088 290.706 314.626C290.442 314.494 290.244 314.395 290.046 314.329C288.858 313.9 287.703 313.438 286.581 312.943C285.262 312.382 283.909 311.821 282.556 311.392C280.906 310.865 278.927 310.832 277.013 310.832C276.386 310.832 275.759 310.832 275.166 310.799C274.341 310.766 273.549 310.7 272.724 310.667C271.272 310.568 269.887 310.469 268.501 310.502C265.96 310.568 263.816 312.415 261.737 314.23C261.308 314.593 260.879 314.956 260.483 315.319C259.89 315.781 259.23 316.275 258.57 316.77C257.217 317.727 255.831 318.717 255.04 319.839C254.512 320.598 254.215 321.554 253.885 322.577C253.654 323.27 253.456 323.996 253.126 324.722C251.344 328.648 249.959 332.772 248.573 336.764C247.781 339.074 246.989 341.449 246.098 343.825C245.966 344.155 245.504 344.452 245.043 344.452Z" fill="#1D1D2E"/>
<path d="M243.921 340.394C243.855 340.394 243.756 340.394 243.69 340.361C243.063 340.229 242.634 339.602 242.766 338.975C243.261 336.5 243.525 333.861 243.756 331.32C244.086 327.922 244.416 324.392 245.339 321.027C245.603 320.103 245.999 319.311 246.395 318.552C246.725 317.925 247.022 317.298 247.22 316.671C248.111 313.702 248.738 311.425 249.167 309.182C249.563 307.268 249.992 305.025 250.091 302.748C250.124 302.451 250.091 302.154 250.091 301.857C250.058 300.637 249.992 298.954 251.608 297.898C252.136 297.535 252.895 297.667 253.258 298.228C253.621 298.756 253.456 299.515 252.928 299.878C252.499 300.175 252.433 300.571 252.466 301.791C252.466 302.154 252.499 302.55 252.466 302.913C252.334 305.355 251.872 307.664 251.476 309.677C251.014 311.986 250.387 314.329 249.464 317.364C249.2 318.189 248.837 318.915 248.474 319.608C248.111 320.301 247.781 320.961 247.583 321.62C246.725 324.788 246.362 328.186 246.065 331.518C245.801 334.125 245.537 336.797 245.043 339.404C244.977 339.998 244.482 340.394 243.921 340.394Z" fill="#1D1D2E"/>
<path d="M217.328 372.694C216.833 372.694 216.338 372.364 216.206 371.869C215.315 368.867 215.216 365.634 215.15 362.532C215.117 361.674 215.117 360.817 215.084 359.992C214.952 357.088 214.952 354.152 214.919 351.281C214.919 344.617 214.886 337.721 213.204 331.122C212.94 330.034 212.742 328.846 212.577 327.691C212.247 325.613 211.917 323.435 211.026 321.851C210.696 321.29 210.894 320.565 211.455 320.235C212.016 319.905 212.742 320.103 213.072 320.664C214.194 322.61 214.557 325.019 214.919 327.328C215.084 328.483 215.249 329.539 215.513 330.529C217.262 337.391 217.295 344.452 217.295 351.249C217.295 354.086 217.295 356.989 217.427 359.827C217.46 360.685 217.493 361.542 217.526 362.4C217.592 365.37 217.691 368.438 218.483 371.111C218.681 371.737 218.318 372.397 217.691 372.595C217.559 372.694 217.427 372.694 217.328 372.694Z" fill="#1D1D2E"/>
<path d="M239.599 352.271C238.939 352.271 238.411 351.743 238.411 351.084C238.411 348.378 237.124 345.046 236.002 342.076C235.672 341.219 235.375 340.427 235.078 339.635C232.637 332.772 230.327 326.042 228.579 319.278C224.982 305.553 223.036 292.157 222.706 279.488C222.607 275.594 222.739 271.635 222.838 267.808C222.904 265.169 223.003 262.463 223.003 259.791C223.003 259.131 223.531 258.603 224.191 258.603C224.85 258.603 225.378 259.131 225.378 259.791C225.378 262.496 225.279 265.235 225.213 267.907C225.081 271.701 224.982 275.594 225.081 279.455C225.378 291.959 227.358 305.19 230.888 318.717C232.637 325.382 234.947 332.046 237.355 338.876C237.619 339.635 237.916 340.427 238.246 341.252C239.467 344.386 240.819 347.949 240.819 351.117C240.753 351.743 240.225 352.271 239.599 352.271Z" fill="#1D1D2E"/>
<path d="M250.123 433.369C250.09 433.369 250.058 433.369 249.992 433.369C249.332 433.303 248.87 432.742 248.936 432.082C249.134 430.103 249.101 428.024 249.068 425.979C249.035 424.56 249.002 423.075 249.068 421.624C249.299 415.586 249.464 408.492 249.035 401.498C248.837 398.198 248.54 394.239 248.111 389.983C248.045 389.323 248.507 388.762 249.167 388.696C249.827 388.597 250.387 389.092 250.453 389.752C250.882 394.041 251.179 398.033 251.377 401.366C251.773 408.459 251.608 415.619 251.41 421.723C251.377 423.108 251.377 424.56 251.41 425.946C251.443 428.024 251.476 430.202 251.278 432.313C251.212 432.907 250.717 433.369 250.123 433.369Z" fill="#1D1D2E"/>
<path d="M377.478 282.688C377.049 282.688 376.653 282.457 376.423 282.061C370.121 270.085 357.748 265.465 345.805 261.011C342.175 259.659 338.414 258.24 334.917 256.656C332.013 255.337 329.176 253.819 326.404 252.367C323.699 250.915 320.894 249.431 318.09 248.177C317.496 247.913 317.232 247.22 317.496 246.626C317.76 246.032 318.453 245.768 319.047 246.032C321.917 247.319 324.755 248.837 327.493 250.288C330.199 251.74 333.036 253.225 335.874 254.512C339.305 256.062 343.033 257.448 346.596 258.801C358.969 263.42 371.737 268.204 378.468 280.972C378.765 281.566 378.567 282.259 377.973 282.556C377.841 282.655 377.643 282.688 377.478 282.688Z" fill="#1D1D2E"/>
<path d="M367.547 400.739C367.052 400.739 366.59 400.442 366.425 399.947C366.228 399.32 366.557 398.66 367.151 398.462C368.834 397.868 370.583 397.604 372.265 397.34C373.684 397.109 375.004 396.911 376.291 396.516C383.186 394.47 392.424 390.082 397.274 380.646C399.089 377.115 399.947 373.024 399.683 369.065C399.617 368.273 399.188 367.25 398.759 366.294C398.462 365.634 398.165 364.974 398 364.314L397.934 364.083C396.845 360.421 395.724 356.626 395.064 352.733C393.645 344.452 391.698 336.105 389.785 328.021C388.894 324.194 388.003 320.4 387.145 316.572C386.486 313.636 385.958 310.601 385.43 307.697C384.374 301.824 383.252 295.754 381.339 290.145C381.108 289.518 381.438 288.858 382.064 288.66C382.691 288.429 383.351 288.759 383.549 289.386C385.529 295.16 386.65 301.329 387.739 307.268C388.267 310.172 388.828 313.174 389.455 316.077C390.28 319.905 391.171 323.699 392.061 327.526C393.942 335.61 395.922 343.99 397.373 352.37C398.033 356.099 399.122 359.827 400.178 363.456L400.244 363.687C400.409 364.182 400.64 364.776 400.904 365.403C401.399 366.557 401.926 367.745 401.992 368.966C402.289 373.387 401.366 377.808 399.32 381.767C394.074 391.929 384.242 396.648 376.917 398.825C375.499 399.254 374.014 399.485 372.595 399.716C370.946 399.98 369.362 400.211 367.877 400.739C367.811 400.739 367.679 400.739 367.547 400.739Z" fill="#1D1D2E"/>
<path d="M349.335 386.651C349.269 386.651 349.203 386.651 349.137 386.618C348.51 386.519 348.081 385.892 348.18 385.232C349.665 376.884 348.774 367.877 347.916 359.167C347.685 356.956 347.487 354.746 347.289 352.568C346.596 344.056 347.124 335.049 348.906 325.019C349.038 324.392 349.632 323.963 350.292 324.062C350.919 324.161 351.347 324.788 351.248 325.448C349.467 335.247 348.972 344.056 349.632 352.37C349.797 354.515 350.028 356.725 350.259 358.936C351.15 367.811 352.073 376.983 350.49 385.661C350.391 386.255 349.896 386.651 349.335 386.651Z" fill="#1D1D2E"/>
<path d="M387.343 469.002C386.914 469.002 386.486 468.771 386.288 468.342C385.991 467.748 386.222 467.056 386.815 466.759C391.797 464.251 394.008 457.388 395.823 451.879L396.186 450.823C398.726 443.135 398.297 435.448 397.868 427.298C397.802 426.111 397.736 424.89 397.703 423.702C397.175 411.956 395.328 400.574 392.193 389.851C391.995 389.224 392.358 388.564 392.985 388.399C393.612 388.201 394.272 388.564 394.437 389.191C397.604 400.079 399.518 411.66 400.046 423.603C400.112 424.791 400.178 425.979 400.211 427.166C400.64 435.184 401.069 443.432 398.396 451.549L398.066 452.604C396.252 458.213 393.744 465.901 387.904 468.837C387.706 468.969 387.508 469.002 387.343 469.002Z" fill="#1D1D2E"/>
<path d="M377.709 470.652C377.676 470.652 377.61 470.652 377.577 470.652C375.961 470.454 374.344 469.893 372.76 469.332C371.968 469.068 371.177 468.771 370.418 468.573C353.195 463.69 339.008 451.384 331.452 434.821C329.935 431.456 328.747 427.892 327.592 424.461C326.437 420.964 325.217 417.334 323.666 414.002C318.651 403.246 313.867 391.435 309.05 377.907C308.819 377.28 309.149 376.621 309.776 376.39C310.403 376.159 311.062 376.489 311.293 377.115C316.11 390.577 320.862 402.322 325.844 413.012C327.46 416.477 328.681 420.172 329.869 423.735C330.991 427.134 332.178 430.631 333.63 433.864C340.889 449.8 354.548 461.612 371.111 466.297C371.902 466.528 372.76 466.825 373.585 467.122C375.037 467.649 376.554 468.177 377.907 468.309C378.567 468.375 379.029 468.969 378.93 469.629C378.798 470.223 378.303 470.652 377.709 470.652Z" fill="#1D1D2E"/>
<path d="M393.612 429.311C393.117 429.311 392.688 429.014 392.49 428.519C392.028 427.199 391.072 426.045 390.049 424.791C389.587 424.23 389.125 423.669 388.729 423.108C388.234 422.448 387.772 421.756 387.31 421.063C385.595 418.588 384.011 416.279 381.833 414.365C379.953 412.715 377.808 411.462 375.499 410.142C373.288 408.855 370.979 407.535 368.966 405.82C367.514 404.599 366.03 403.378 364.512 402.19C362.565 400.64 360.52 399.023 358.639 397.34C351.545 390.94 345.541 383.318 341.087 377.379L339.998 375.928C336.698 371.539 332.937 366.557 330.991 361.18C330.76 360.553 331.09 359.893 331.716 359.662C332.31 359.431 333.003 359.761 333.234 360.388C335.049 365.436 338.513 370.022 341.878 374.509L342.967 375.961C347.355 381.8 353.261 389.323 360.19 395.559C362.037 397.208 364.017 398.792 365.964 400.343C367.448 401.531 368.999 402.751 370.484 404.038C372.331 405.622 374.443 406.842 376.653 408.129C378.93 409.449 381.306 410.802 383.351 412.616C385.727 414.728 387.508 417.268 389.224 419.743C389.686 420.403 390.148 421.096 390.643 421.756C391.006 422.283 391.435 422.811 391.863 423.306C392.952 424.659 394.074 426.045 394.701 427.727C394.932 428.354 394.602 429.014 393.975 429.245C393.876 429.311 393.744 429.311 393.612 429.311Z" fill="#1D1D2E"/>
<path d="M308.423 374.938C307.928 374.938 307.499 374.641 307.301 374.146C305.025 367.778 309.248 363.423 312.943 359.596L313.702 358.804C314.164 358.342 314.89 358.309 315.385 358.771C315.847 359.233 315.879 359.959 315.418 360.454L314.626 361.246C311.095 364.908 307.73 368.372 309.512 373.354C309.743 373.981 309.413 374.641 308.786 374.872C308.687 374.905 308.555 374.938 308.423 374.938Z" fill="#1D1D2E"/>
<path d="M316.143 359.266C315.879 359.266 315.649 359.2 315.418 359.035C314.263 358.144 313.108 357.253 311.953 356.329C310.831 355.439 309.71 354.548 308.588 353.69C308.06 353.294 307.961 352.568 308.357 352.04C308.753 351.512 309.479 351.413 310.007 351.842C311.128 352.7 312.283 353.624 313.405 354.515C314.56 355.406 315.681 356.329 316.836 357.187C317.364 357.583 317.463 358.342 317.067 358.837C316.836 359.101 316.506 359.266 316.143 359.266Z" fill="#1D1D2E"/>
<path d="M320.4 349.995C320.136 349.995 319.905 349.929 319.674 349.764C318.321 348.708 316.836 347.718 315.418 346.761C314.329 346.003 313.207 345.277 312.151 344.485C311.953 344.32 311.689 344.188 311.458 344.023C310.864 343.66 310.172 343.231 309.677 342.67C309.248 342.175 309.281 341.449 309.776 340.988C310.271 340.559 310.996 340.592 311.425 341.087C311.689 341.383 312.184 341.713 312.679 342.01C312.976 342.208 313.273 342.373 313.504 342.571C314.56 343.33 315.649 344.089 316.737 344.815C318.189 345.805 319.674 346.827 321.092 347.916C321.62 348.312 321.719 349.071 321.323 349.566C321.092 349.863 320.763 349.995 320.4 349.995Z" fill="#1D1D2E"/>
<path d="M322.148 338.414C321.818 338.414 321.488 338.282 321.257 338.018C320.466 337.127 319.377 336.368 318.321 335.676C317.991 335.445 317.661 335.247 317.364 335.016L315.22 333.498C313.108 332.013 310.93 330.496 308.918 328.945C308.39 328.549 308.291 327.79 308.72 327.295C309.116 326.767 309.842 326.668 310.37 327.064C312.349 328.582 314.494 330.1 316.605 331.551L318.75 333.069C319.047 333.267 319.344 333.498 319.674 333.696C320.861 334.488 322.082 335.313 323.072 336.434C323.501 336.929 323.435 337.655 322.973 338.084C322.709 338.315 322.445 338.414 322.148 338.414Z" fill="#1D1D2E"/>
<path d="M325.151 325.877C324.953 325.877 324.722 325.811 324.524 325.712C322.511 324.458 320.532 323.138 318.552 321.851C316.572 320.532 314.593 319.245 312.58 317.991C312.085 317.694 311.623 317.364 311.161 317.034C310.337 316.473 309.578 315.913 308.786 315.55C308.192 315.286 307.928 314.593 308.192 313.999C308.456 313.405 309.149 313.141 309.743 313.405C310.765 313.867 311.689 314.494 312.547 315.121C312.976 315.418 313.405 315.715 313.834 316.011C315.846 317.265 317.859 318.585 319.872 319.905C321.851 321.191 323.798 322.511 325.81 323.732C326.371 324.062 326.536 324.788 326.206 325.349C325.942 325.679 325.547 325.877 325.151 325.877Z" fill="#1D1D2E"/>
<path d="M331.518 357.946C331.485 357.946 331.452 357.946 331.419 357.946C330.76 357.88 330.298 357.319 330.364 356.659C330.397 356.198 330.298 355.637 330.166 355.01C330.067 354.548 330.001 354.086 329.935 353.624C329.803 352.139 329.77 350.523 329.803 348.774C329.836 346.761 330.001 344.716 330.166 342.769C330.463 339.074 330.76 335.577 330.166 332.145C329.902 330.628 329.275 328.912 328.813 328.483C328.318 328.054 328.285 327.295 328.747 326.833C329.176 326.338 329.935 326.305 330.397 326.767C331.815 328.054 332.442 331.386 332.508 331.782C333.168 335.478 332.838 339.305 332.541 343C332.376 344.914 332.211 346.926 332.211 348.84C332.178 350.49 332.244 352.04 332.343 353.459C332.376 353.822 332.442 354.185 332.508 354.581C332.64 355.274 332.805 356.099 332.739 356.89C332.64 357.484 332.112 357.946 331.518 357.946Z" fill="#1D1D2E"/>
<path d="M330.397 328.912C330.298 328.912 330.232 328.912 330.133 328.879C329.506 328.747 329.11 328.12 329.242 327.46C329.77 325.019 330.595 322.676 331.617 320.697L331.815 320.301C332.277 319.41 332.97 318.09 332.838 317.298C332.772 316.803 332.376 316.341 331.881 315.814C331.551 315.418 331.188 315.022 330.892 314.527C329.704 312.448 328.021 309.941 325.844 308.852C325.052 308.456 324.128 308.225 323.204 307.961C322.577 307.796 321.917 307.631 321.29 307.4C317.199 305.948 313.768 304.398 310.403 302.517C310.205 302.418 309.941 302.22 309.644 301.989C309.413 301.791 308.918 301.428 308.555 301.263C308.159 302.682 308.984 304.926 310.073 306.608C311.722 309.215 313.735 311.26 315.517 312.25C316.341 312.712 317.232 313.009 318.09 313.339C320.499 314.197 323.204 315.187 323.633 319.212C323.699 319.971 323.699 321.488 323.435 322.445C323.27 323.072 322.61 323.435 321.983 323.27C321.356 323.105 320.993 322.445 321.158 321.818C321.29 321.323 321.356 320.169 321.29 319.476C321.026 317.034 319.806 316.506 317.298 315.583C316.407 315.253 315.385 314.89 314.395 314.362C311.458 312.778 309.182 309.644 308.06 307.895C307.367 306.806 305.19 303.012 306.443 300.109C306.806 299.317 307.367 299.02 307.796 298.921C308.984 298.591 310.172 299.515 311.029 300.175C311.227 300.307 311.392 300.439 311.524 300.505C314.758 302.319 318.09 303.837 322.016 305.223C322.577 305.421 323.171 305.586 323.732 305.718C324.755 305.981 325.811 306.278 326.833 306.773C329.572 308.126 331.485 311.029 332.838 313.372C333.003 313.669 333.267 313.966 333.564 314.296C334.158 314.956 334.884 315.814 335.082 316.968C335.313 318.519 334.455 320.169 333.828 321.422L333.63 321.785C332.706 323.6 331.947 325.811 331.452 328.021C331.419 328.516 330.925 328.912 330.397 328.912Z" fill="#1D1D2E"/>
<path d="M332.508 314.758C332.343 314.758 332.145 314.725 331.98 314.626C331.386 314.329 331.155 313.636 331.452 313.042C331.848 312.25 331.98 311.227 332.112 310.139C332.178 309.512 332.277 308.885 332.409 308.291C333.201 304.728 333.993 301.197 334.851 297.634L335.676 294.17C337.226 287.604 338.843 280.84 340.163 274.11C340.427 272.79 340.724 271.47 341.054 270.151C341.845 266.884 342.571 263.816 342.571 260.615C342.571 259.956 343.099 259.428 343.759 259.428C344.419 259.428 344.947 259.956 344.947 260.615C344.947 264.08 344.155 267.445 343.363 270.678C343.066 271.965 342.736 273.252 342.472 274.539C341.12 281.302 339.503 288.132 337.952 294.698L337.127 298.162C336.302 301.725 335.478 305.256 334.686 308.819C334.554 309.347 334.488 309.908 334.422 310.469C334.257 311.689 334.092 312.943 333.531 314.131C333.366 314.494 332.937 314.758 332.508 314.758Z" fill="#1D1D2E"/>
<path d="M317.694 241.281C314.725 241.281 311.953 240.522 310.139 238.477C309.71 237.982 309.743 237.256 310.238 236.827C310.732 236.398 311.458 236.431 311.887 236.926C314.461 239.83 320.334 239.137 324.557 237.685C333.894 234.419 339.371 225.939 338.183 216.536C337.985 214.92 337.028 209.443 333.498 207.397C332.937 207.067 332.739 206.341 333.069 205.78C333.399 205.219 334.125 205.021 334.686 205.351C339.041 207.859 340.229 213.798 340.526 216.239C341.845 226.764 335.742 236.266 325.349 239.896C322.973 240.687 320.235 241.281 317.694 241.281Z" fill="#1D1D2E"/>
<path d="M263.057 281.896C262.694 281.896 262.298 281.731 262.067 281.368C257.778 275.034 254.149 268.27 250.684 261.737C249.992 260.45 249.299 259.131 248.606 257.844C248.144 256.986 247.715 256.062 247.319 255.139C246.659 253.687 245.999 252.169 245.141 250.981C244.746 250.453 244.878 249.728 245.405 249.332C245.933 248.936 246.659 249.068 247.055 249.596C248.078 250.981 248.804 252.598 249.497 254.182C249.893 255.073 250.288 255.93 250.684 256.722C251.377 258.009 252.07 259.329 252.763 260.615C256.392 267.412 259.791 273.813 264.014 280.016C264.377 280.544 264.245 281.302 263.717 281.665C263.519 281.83 263.288 281.896 263.057 281.896Z" fill="#1D1D2E"/>
<path d="M304.926 284.338C304.695 284.338 304.464 284.272 304.266 284.14C303.738 283.777 303.606 283.051 303.969 282.49C305.553 280.214 306.839 277.541 308.093 274.968C308.588 273.978 309.05 272.988 309.545 272.031C313.966 263.387 317.397 255.765 320.037 248.738C320.268 248.111 320.96 247.814 321.554 248.045C322.148 248.276 322.478 248.969 322.247 249.563C319.575 256.689 316.11 264.377 311.656 273.12C311.161 274.044 310.7 275.034 310.238 275.99C308.951 278.663 307.598 281.401 305.948 283.843C305.685 284.173 305.322 284.338 304.926 284.338Z" fill="#1D1D2E"/>
<path d="M293.213 358.705C292.685 358.705 292.19 358.342 292.058 357.814C291.893 357.187 292.289 356.527 292.916 356.395C294.698 355.934 295.621 352.733 295.621 346.86C295.621 335.148 294.632 324.062 292.619 312.976L292.454 311.953C292.124 310.04 291.761 307.862 290.771 306.509C290.442 306.047 289.914 305.784 289.386 305.784C288.792 305.784 288.198 306.08 287.802 306.608C287.406 307.136 286.68 307.235 286.152 306.839C285.624 306.443 285.525 305.718 285.921 305.19C286.746 304.068 288.066 303.408 289.386 303.408C290.672 303.408 291.86 304.002 292.652 305.058C294.005 306.872 294.434 309.347 294.797 311.524L294.962 312.514C297.007 323.765 297.997 334.983 297.997 346.827C297.997 349.764 297.997 357.517 293.51 358.639C293.411 358.705 293.312 358.705 293.213 358.705Z" fill="#1D1D2E"/>
<path d="M307.169 358.606C306.872 358.606 306.575 358.507 306.344 358.276C305.882 357.814 305.882 357.055 306.344 356.593C307.631 355.307 307.928 352.37 308.093 350.457L308.225 349.071C308.621 345.31 309.017 341.383 308.786 337.688C308.687 336.105 308.588 334.554 308.522 332.97C308.126 325.91 307.73 319.245 306.674 312.382C305.981 307.796 304.992 303.177 301.296 301.131C299.779 300.307 297.997 300.505 296.083 300.768C295.16 300.867 294.236 300.999 293.279 300.999C292.619 300.999 292.091 300.472 292.091 299.812C292.091 299.152 292.619 298.624 293.279 298.624C294.071 298.624 294.896 298.525 295.753 298.393C297.832 298.129 300.208 297.832 302.385 299.053C307.367 301.824 308.357 308.192 308.951 312.019C310.04 319.014 310.403 325.712 310.831 332.838C310.93 334.389 310.996 335.973 311.095 337.523C311.326 341.416 310.93 345.409 310.535 349.269L310.403 350.655C310.172 353.063 309.842 356.363 307.961 358.243C307.796 358.507 307.499 358.606 307.169 358.606Z" fill="#1D1D2E"/>
<path d="M255.732 317.364C255.073 317.364 254.545 316.836 254.545 316.176C254.545 310.667 253.984 305.058 253.423 299.647C253.126 296.809 252.829 293.873 252.631 290.969C252.565 290.31 253.06 289.749 253.72 289.716C254.38 289.683 254.941 290.145 254.974 290.804C255.172 293.675 255.468 296.578 255.765 299.416C256.326 304.893 256.887 310.568 256.887 316.176C256.92 316.836 256.392 317.364 255.732 317.364Z" fill="#1D1D2E"/>
<path d="M308.027 300.9C307.367 300.9 306.839 300.373 306.839 299.713C306.839 297.964 306.74 296.149 306.641 294.401C306.542 292.619 306.443 290.771 306.443 288.924C306.443 288.264 306.971 287.736 307.631 287.736C308.291 287.736 308.819 288.264 308.819 288.924C308.819 290.706 308.918 292.52 309.017 294.269C309.116 296.05 309.215 297.865 309.215 299.68C309.215 300.373 308.687 300.9 308.027 300.9Z" fill="#1D1D2E"/>
<path d="M285.822 366.426C284.536 366.426 283.315 366.36 282.16 366.294C281.566 366.261 280.972 366.195 280.379 366.162C278.762 366.063 277.112 365.964 275.495 365.634C275.034 365.535 274.506 365.37 273.912 365.172C273.054 364.908 271.998 364.545 271.437 364.644C270.777 364.743 270.184 364.281 270.118 363.654C270.019 362.994 270.48 362.4 271.14 362.334C272.229 362.202 273.516 362.598 274.671 362.961C275.166 363.126 275.594 363.258 275.99 363.357C277.475 363.654 278.96 363.753 280.576 363.852C281.17 363.885 281.797 363.918 282.391 363.984C285.888 364.281 289.947 364.116 294.401 363.489C295.654 363.324 296.875 363.192 298.096 363.06C301.23 362.73 304.167 362.4 307.169 361.476C307.796 361.279 308.456 361.641 308.621 362.268C308.819 362.895 308.456 363.555 307.829 363.753C304.629 364.71 301.428 365.073 298.327 365.403C297.139 365.535 295.918 365.667 294.698 365.832C291.53 366.228 288.561 366.426 285.822 366.426Z" fill="#1D1D2E"/>
<path d="M273.615 296.347C273.582 296.347 273.549 296.347 273.516 296.347C272.229 296.248 270.909 296.215 269.557 296.149C265.597 296.017 261.473 295.852 257.745 294.401C256.722 294.005 253.324 292.487 253.06 290.079C252.961 289.287 253.192 288.099 254.776 287.01C255.172 286.746 255.732 286.482 256.194 286.251L256.392 286.152C256.986 285.855 257.679 286.119 257.976 286.713C258.24 287.307 258.009 288 257.415 288.297L257.184 288.396C256.854 288.561 256.326 288.792 256.095 288.957C255.633 289.287 255.369 289.617 255.369 289.815C255.435 290.376 256.689 291.464 258.57 292.19C261.935 293.51 265.828 293.642 269.59 293.774C270.975 293.807 272.328 293.873 273.648 293.972C274.308 294.005 274.77 294.599 274.737 295.226C274.737 295.885 274.242 296.347 273.615 296.347Z" fill="#1D1D2E"/>
<path d="M279.983 296.215C279.389 296.215 278.861 295.753 278.795 295.127C278.729 294.467 279.224 293.906 279.851 293.84C281.797 293.675 283.777 293.642 285.69 293.642C287.571 293.642 289.518 293.609 291.398 293.444C295.786 293.048 300.307 292.652 304.266 290.936C305.19 290.541 306.311 289.716 306.542 289.089C306.575 288.99 306.575 288.924 306.509 288.825C306.278 288.429 304.926 287.967 304.332 287.769C304.068 287.67 303.837 287.604 303.606 287.505C302.517 287.076 301.395 286.746 300.076 286.449C298.03 285.987 296.347 285.657 294.764 285.427C286.878 284.173 279.521 283.975 270.151 284.734C267.94 284.899 263.684 285.328 260.252 286.152C259.626 286.317 258.966 285.921 258.834 285.295C258.669 284.668 259.065 284.008 259.692 283.876C263.255 283.018 267.643 282.589 269.953 282.391C279.521 281.599 287.076 281.83 295.127 283.084C296.776 283.348 298.525 283.678 300.604 284.14C302.022 284.437 303.276 284.833 304.464 285.295C304.629 285.361 304.827 285.427 305.058 285.493C306.245 285.888 307.862 286.449 308.522 287.637C308.918 288.33 308.984 289.056 308.72 289.815C308.06 291.728 305.454 292.916 305.157 293.048C300.834 294.929 296.116 295.358 291.596 295.754C289.584 295.918 287.571 295.951 285.657 295.951C283.777 295.951 281.863 295.984 280.016 296.149C280.049 296.215 280.016 296.215 279.983 296.215Z" fill="#1D1D2E"/>
<path d="M158.171 434.326H75.0272C74.3673 434.326 73.8394 433.798 73.8394 433.138C73.8394 432.478 74.3673 431.951 75.0272 431.951H158.171C158.831 431.951 159.358 432.478 159.358 433.138C159.358 433.798 158.831 434.326 158.171 434.326Z" fill="#1D1D2E"/>
<path d="M324.953 434.326H231.548C230.888 434.326 230.36 433.798 230.36 433.138C230.36 432.478 230.888 431.951 231.548 431.951H324.953C325.613 431.951 326.14 432.478 326.14 433.138C326.14 433.798 325.613 434.326 324.953 434.326Z" fill="#1D1D2E"/>
<path d="M526.675 434.326H404.038C403.378 434.326 402.85 433.798 402.85 433.138C402.85 432.478 403.378 431.951 404.038 431.951H526.675C527.335 431.951 527.863 432.478 527.863 433.138C527.863 433.798 527.335 434.326 526.675 434.326Z" fill="#1D1D2E"/>
<path fill-rule="evenodd" clip-rule="evenodd" d="M286.284 289.485C284.14 290.079 285.954 285.625 285.097 283.678C282.82 278.333 274.935 276.122 277.805 268.93C279.95 263.585 285.954 259.956 286.911 254.182C287.34 251.707 286.68 249.2 285.822 246.89C285.526 246.098 285.163 245.405 284.734 244.713C284.569 244.449 283.975 244.185 284.173 243.987C284.569 243.591 287.274 246.692 287.439 246.89C290.145 249.992 291.596 254.017 291.068 258.174C290.475 262.859 285.822 265.993 285.229 270.711C284.965 272.955 286.845 275.1 287.604 277.079C289.089 280.939 290.541 288.297 286.284 289.485Z" fill="white"/>
<path fill-rule="evenodd" clip-rule="evenodd" d="M296.479 287.868C291.332 284.305 293.972 280.412 296.215 275.496C296.71 274.407 296.842 274.275 296.941 273.12C296.974 272.625 296.446 271.668 296.941 271.668C297.304 271.668 298.327 276.122 298.393 276.386C299.152 279.389 300.439 290.574 296.479 287.868Z" fill="white"/>
</g>
<defs>
<clipPath id="clip0">
<rect width="576" height="527.335" fill="white"/>
</clipPath>
</defs>
</svg>
