<svg width="140" height="141" viewBox="0 0 140 141" fill="none" xmlns="http://www.w3.org/2000/svg">
<path d="M110.722 59.9966V105.651C110.722 115.478 102.76 123.438 92.9374 123.438H34.0632V115.578" stroke="#313B50" stroke-width="4" stroke-miterlimit="10" stroke-linecap="round" stroke-linejoin="round"/>
<path d="M102.859 33.269V24.915H83.4011" stroke="#313B50" stroke-width="4" stroke-miterlimit="10" stroke-linecap="round" stroke-linejoin="round"/>
<path d="M83.4004 24.915H27.6233V115.578H86.805C89.529 115.578 91.737 113.368 91.737 110.648V104.453H97.9271C100.651 104.453 102.859 102.243 102.859 99.523V67.8567" stroke="#313B50" stroke-width="4" stroke-miterlimit="10" stroke-linecap="round" stroke-linejoin="round"/>
<path d="M85.3811 61.5443L119.932 27.089C121.464 25.5602 123.948 25.5602 125.48 27.089L128.178 29.7762C129.71 31.305 129.71 33.7834 128.178 35.3122L93.5275 69.8887" stroke="#313B50" stroke-width="4" stroke-miterlimit="10" stroke-linecap="round" stroke-linejoin="round"/>
<path d="M93.5426 69.8891C92.9858 68.0201 91.9662 66.2585 90.4852 64.7769C89.0005 63.3022 87.2295 62.2814 85.3492 61.7275L82.2422 69.7755" stroke="#313B50" stroke-width="4" stroke-miterlimit="10" stroke-linecap="round" stroke-linejoin="round"/>
<path d="M123.677 39.7542L115.516 31.5928" stroke="#313B50" stroke-width="4" stroke-miterlimit="10" stroke-linecap="round" stroke-linejoin="round"/>
<path d="M59.2079 67.5053C60.0893 66.2246 60.8168 64.8435 61.3542 63.3788C62.3118 60.767 62.6868 57.7369 61.0378 55.3427C60.0785 53.9531 58.4613 53.066 56.7863 53.2919C54.1462 53.6519 53.0128 56.322 52.7792 58.741C52.3808 62.8679 53.8783 67.1287 56.7654 70.1001C58.6907 72.0839 61.3333 73.3062 64.0874 74.0094C66.0989 74.528 68.1794 74.7207 70.2562 74.7207H72.6964C76.6535 74.7207 80.5898 74.1601 84.3886 73.0551L93.0931 70.5188" stroke="#313B50" stroke-width="4" stroke-miterlimit="10" stroke-linecap="round" stroke-linejoin="round"/>
<path d="M42.083 76.2602C47.8446 76.495 52.8687 74.3272 56.7652 70.0996" stroke="#313B50" stroke-width="4" stroke-miterlimit="10" stroke-linecap="round" stroke-linejoin="round"/>
<path d="M32.6458 68.8028L33.0585 67.3877C37.9034 50.7886 49.7312 37.1196 65.4616 29.9375H32.6458V68.8028Z" fill="#1CB7FF"/>
</svg>
