<svg width="604" height="704" viewBox="0 0 604 704" fill="none" xmlns="http://www.w3.org/2000/svg">
<g clip-path="url(#clip0)">
<path d="M112.782 223.079C110.073 222.485 107.216 222.411 104.432 222.151C100.016 221.78 95.6738 221.001 91.406 219.776C86.6186 218.403 81.2745 216.547 76.9324 218.996C72.6646 221.409 71.477 227.272 73.0728 231.948L71.3657 232.579C72.7759 236.253 74.4831 239.816 76.5613 243.23C78.9736 247.164 81.9425 250.913 83.3156 255.329C84.6888 259.745 83.9836 265.275 80.1982 267.947C76.9695 270.248 72.3677 269.765 68.9534 267.761C66.801 266.499 65.0196 264.755 63.4609 262.825L61.2713 262.9C59.1559 264.607 56.1128 262.788 54.0345 261.007C47.2431 255.143 40.3775 249.205 34.8107 242.154C29.244 235.103 25.0132 226.716 24.271 217.735C24.1226 215.953 24.1226 214.135 24.2339 212.354L22.7123 212.279C22.4525 212.947 22.1927 213.578 21.8587 214.172L21.6732 214.061C20.5598 214.654 19.6692 215.545 18.8527 216.51C12.1726 224.489 12.7293 236.847 18.1476 245.717C23.603 254.587 32.9551 260.413 42.6413 264.198C44.3113 264.829 46.0927 265.46 47.874 265.2C48.4307 265.126 48.9874 264.941 49.4698 264.644L49.9893 265.163C51.6965 267.65 54.1459 270.173 56.5581 272.957C57.857 277.893 59.8239 282.68 62.4218 287.059L62.83 286.911C64.9454 292.366 68.4339 300.679 68.6565 305.096C70.0297 335.045 69.0648 348.776 67.3205 382.51C66.4298 399.545 64.6856 413.499 66.1701 425.263C66.5041 427.824 66.9865 430.236 67.6545 432.611L67.0607 433.91C68.7678 436.248 70.6234 438.512 72.5533 440.664L72.8873 440.442C75.3366 444.227 77.9715 448.012 81.6827 450.61C84.2063 452.392 87.1753 453.505 90.1442 454.284C100.832 457.142 110.89 454.804 120.65 449.571C130.41 444.338 137.981 435.06 140.95 424.409C141.395 422.777 141.47 421.218 140.282 416.43L139.02 416.542C138.872 414.575 138.723 412.608 138.575 410.641L138.278 410.678C138.055 409.713 137.796 408.748 137.573 407.783C126.514 362.433 116.197 338.496 115.974 297.525C115.937 290.474 120.242 280.082 122.431 271.806H122.765C125.029 266.277 125.92 260.153 125.252 254.178H124.881C125.252 250.319 125.326 246.459 125.178 242.6C124.918 236.031 123.396 228.683 117.867 225.12C116.271 224.044 114.564 223.45 112.782 223.079Z" fill="#FFEADE"/>
<path d="M33.215 191.756C32.0274 193.723 30.8399 195.727 29.6894 197.694C28.2792 198.399 27.4256 199.958 26.7947 201.48C25.3473 204.931 24.4938 208.642 24.234 212.39C24.1227 214.172 24.1227 215.99 24.2711 217.772C25.0505 226.716 29.2812 235.103 34.8108 242.191C40.3776 249.242 47.2061 255.18 54.0346 261.044C56.1129 262.825 59.156 264.644 61.2714 262.936L63.461 262.862C62.4961 261.712 61.6425 260.487 60.789 259.262C47.503 240.113 38.8931 217.957 33.4377 195.282C33.215 194.391 33.0294 193.463 33.1037 192.536C33.1037 192.276 33.1408 192.016 33.215 191.756Z" fill="#FFEADE"/>
<path d="M350.705 317.305C348.627 316.117 347.031 314.002 346.586 311.627C341.761 318.493 335.007 324.356 326.397 328.661C314.076 334.822 292.662 341.539 281.714 349.926C270.284 358.685 264.829 373.975 266.796 388.114L265.756 388.262C266.09 395.573 265.942 403.07 263.381 409.973C261.452 415.243 257.852 420.104 253.101 422.925C249.947 430.57 245.122 437.51 239.036 443.076C238.294 443.856 237.477 444.561 236.587 445.192C232.393 448.198 226.975 449.385 221.816 448.792C218.884 448.458 216.064 447.567 213.429 446.305C210.794 447.233 208.048 447.901 205.264 448.272L205.005 446.157C203.186 446.936 201.145 445.155 199.92 443.485C194.688 436.322 191.162 427.898 189.752 419.139C189.306 416.467 189.084 413.647 190.049 411.123L190.531 411.049C189.455 404.332 188.898 397.577 189.232 390.86C188.601 392.196 187.859 393.532 187.117 394.831C176.206 403.701 168.264 410.529 159.357 420.253L158.726 419.696C156.537 421.477 154.347 423.222 152.158 425.003L151.378 425.3C150.71 423.519 150.154 421.737 149.671 419.919C148.595 415.799 147.407 410.826 143.362 409.527L143.474 408.563C141.47 408.34 139.466 408.08 137.461 407.857C137.684 408.822 137.944 409.787 138.167 410.752L138.464 410.715C138.612 412.682 138.76 414.649 138.909 416.616L140.171 416.504C141.358 421.255 141.284 422.851 140.839 424.483C137.87 435.172 130.299 444.412 120.539 449.645C110.778 454.878 100.758 457.216 90.0328 454.358C87.0268 453.542 84.095 452.429 81.5714 450.684C77.8602 448.124 75.2624 444.338 72.7759 440.516L72.4419 440.738C70.4749 438.586 68.6565 436.322 66.9494 433.984L67.5432 432.685C66.8752 430.347 66.3927 427.898 66.0587 425.337L65.836 425.374C64.6484 428.046 63.7578 430.867 63.1269 433.724L62.6815 433.761C64.0547 456.733 69.3987 478.11 74.5573 500.971C78.1571 516.966 83.13 533.369 94.1522 545.505C98.3458 550.143 103.541 554.152 109.591 555.784C115.38 557.343 121.541 556.638 127.367 555.302C159.617 547.991 206.229 517.485 229.461 493.956L229.387 493.845C231.206 492.324 232.987 490.802 234.805 489.28H235.065C236.29 526.169 245.568 568.143 251.617 602.36C256.85 632.123 253.176 670.163 251.357 700.446C339.98 700.446 428.639 700.446 517.262 700.446H517.299C513.699 677.585 502.343 638.358 506.091 615.905L505.832 615.868C506.203 613.79 506.685 611.749 507.316 609.708C498.595 615.423 488.946 618.095 478.146 614.792C467.718 611.6 466.011 610.71 460.481 601.32C438.957 564.84 433.019 538.156 427.934 503.68C427.934 503.68 426.561 496.257 428.38 492.546C428.714 491.841 429.196 491.247 429.79 490.913L430.198 490.802C421.551 457.439 418.545 424.892 412.459 387.817C409.564 370.078 409.638 351.967 407.078 334.154C406.892 332.966 406.706 331.779 406.521 330.591L405.89 330.702C386.444 332.966 367.331 327.622 350.705 317.305Z" fill="#F9C07D"/>
<path d="M104.432 222.188C107.216 222.41 110.073 222.522 112.782 223.115C112.485 222.336 112.151 221.594 111.817 220.814C104.506 211.796 102.28 199.401 95.7851 189.641C91.9255 183.851 86.6928 179.175 81.6456 174.425C72.9986 166.223 64.834 157.465 57.2261 148.298C43.9773 132.34 34.2911 119.759 16.9229 104.766C15.4755 103.505 10.9479 101.612 9.01814 101.649C-9.53769 101.797 20.0403 137.425 22.935 141.173C29.1698 149.152 39.7094 162.735 46.7978 171.864C47.0204 173.312 47.1318 174.796 47.206 176.28C47.0947 176.355 46.9462 176.429 46.8349 176.503C41.9361 179.806 37.7054 184.148 34.4767 189.121C33.92 189.975 33.4005 190.865 33.1407 191.83C33.0665 192.09 33.0294 192.35 32.9922 192.61C32.918 193.537 33.1036 194.428 33.3263 195.356C38.7446 218.031 47.3916 240.187 60.6775 259.336C61.5311 260.561 62.3846 261.786 63.3495 262.936C64.9454 264.866 66.6896 266.61 68.8421 267.872C72.2564 269.876 76.8582 270.358 80.0869 268.058C83.8723 265.386 84.5774 259.856 83.2043 255.44C81.8311 251.023 78.8993 247.275 76.45 243.341C74.3717 239.964 72.6646 236.401 71.2543 232.69L72.9615 232.059C71.3657 227.383 72.5161 221.52 76.8211 219.107C81.1632 216.658 86.5072 218.514 91.2946 219.887C95.6738 221 100.053 221.816 104.432 222.188Z" fill="#FFEADE"/>
<path d="M275.331 179.027L276.259 179.175C276.667 187.637 283.978 199.364 291.957 202.185C297.561 204.152 303.981 203.521 309.251 200.774C308.732 197.917 308.509 195.022 308.62 192.09L307.878 192.053C305.355 183.926 303.981 175.427 303.833 166.929L302.534 166.966C302.052 162.401 301.718 157.799 301.532 153.234C301.421 153.197 301.272 153.123 301.161 153.086C296.262 151.193 288.84 150.525 284.201 153.606L282.642 153.012C279.302 161.399 276.853 170.157 275.331 179.027Z" fill="#FFDDA6"/>
<path d="M303.796 166.966C303.981 175.464 305.355 183.963 307.841 192.09L308.583 192.127C308.472 195.022 308.695 197.954 309.214 200.811C311.441 199.661 313.445 198.102 315.115 196.21C321.016 189.567 322.203 179.398 318.9 171.122C315.672 162.958 309.585 156.537 301.458 153.271C301.643 157.836 301.977 162.438 302.46 167.003L303.796 166.966Z" fill="#FFEADE"/>
<path d="M387.52 197.435C384.143 197.175 380.84 196.581 377.648 195.208C375.644 194.354 373.566 193.426 372.23 191.682C370.931 189.938 370.745 187.117 372.452 185.781C373.343 185.076 374.494 184.928 375.607 184.779C381.174 184.037 386.778 183.555 392.419 183.332C392.01 180.586 392.344 175.724 392.53 173.238L392.344 172.31C392.381 171.865 392.456 171.456 392.53 171.011C390.674 170.046 388.893 168.933 387.112 167.523C383.363 164.479 379.355 159.989 381.619 155.684C381.805 155.313 382.064 154.942 382.435 154.756C382.769 154.608 383.141 154.608 383.512 154.608C389.078 154.793 394.534 155.721 399.878 157.168C400.36 155.61 400.657 154.014 400.769 152.418C400.546 150.303 400.694 148.15 401.251 146.072C401.808 144.105 403.032 141.99 405.036 141.693C407.374 141.359 409.23 143.586 410.566 145.552C414.463 151.416 418.397 157.243 422.293 163.106C422.887 164.368 423.518 165.667 424.112 166.929C426.895 168.339 429.641 169.749 432.388 171.197C434.874 172.533 437.361 173.869 439.587 175.613C441.257 176.912 442.742 178.433 444.189 179.955C449.236 185.151 453.467 189.79 457.475 194.28L457.549 194.206C458.551 190.866 459.776 185.447 459.368 181.773C453.356 172.384 449.682 161.51 448.754 150.377C448.68 149.338 448.568 148.336 448.457 147.297L447.678 147.371C444.523 146.517 441.443 145.59 438.363 144.55L438.288 144.736C411.271 139.392 401.845 110.556 398.431 86.916C397.354 79.5308 395.944 71.2178 387.78 68.1747L387.408 68.4344C385.776 66.1706 382.621 65.0944 379.726 64.9088C376.312 64.6862 372.786 65.3171 369.446 64.4635C367.517 63.981 365.809 63.0161 364.251 61.8286L362.544 62.0512C357.051 57.7463 347.068 55.4454 340.351 57.2267C332.669 59.305 326.694 66.0593 321.906 71.9972C316.377 78.8999 311.626 86.4707 308.435 94.7466C304.538 104.841 303.313 116.642 298.6 125.883C298.786 127.108 299.046 128.37 299.417 129.557C300.01 132.712 300.827 136.423 301.718 139.54L301.272 139.652C301.198 144.179 301.272 148.707 301.495 153.197C309.622 156.463 315.709 162.884 318.937 171.048C322.24 179.324 321.053 189.456 315.152 196.136C313.482 198.028 311.478 199.55 309.251 200.737C309.734 203.335 310.513 205.896 311.515 208.345C312.22 210.052 313.074 211.76 314.15 213.281C319.568 228.386 332.669 240.892 344.767 250.987C347.031 252.879 349.369 254.735 352.004 255.997C352.189 257.444 352.486 258.854 352.895 260.265H352.857C358.536 279.08 356.494 297.525 346.586 311.59C346.994 313.965 348.59 316.043 350.705 317.268L350.668 317.305C367.331 327.585 386.406 332.929 405.89 330.517L406.521 330.406C406.41 329.775 406.298 329.107 406.187 328.476C403.997 316.08 400.694 303.945 398.431 291.587C396.055 278.635 390.563 271.843 389.746 258.446C389.264 250.504 390.6 242.562 391.899 234.732C393.049 227.866 394.2 220.963 395.35 214.098L395.165 214.061C395.016 212.762 394.831 211.463 394.682 210.164C394.385 210.127 394.051 210.09 393.755 210.015C390.043 209.347 386.369 206.787 385.701 203.076C385.627 202.556 385.59 201.999 385.85 201.554C386.11 201.071 386.629 200.775 387.149 200.552C388.448 199.884 389.746 199.216 391.045 198.585L390.526 197.583C389.524 197.583 388.522 197.509 387.52 197.435ZM317.787 157.354C315.486 156.946 314.818 153.383 314.966 151.49C315.189 148.892 317.639 148.262 318.529 150.748C319.123 152.455 319.309 154.719 319.457 155.424C319.531 155.758 319.568 156.055 319.494 156.389C319.309 157.094 318.492 157.502 317.787 157.354ZM376.498 149.264C374.011 148.633 373.492 144.699 373.826 142.621C374.271 139.763 376.98 139.243 377.797 142.027C378.353 143.92 378.353 146.443 378.465 147.222C378.502 147.594 378.539 147.928 378.427 148.262C378.205 149.078 377.277 149.486 376.498 149.264Z" fill="#FFEADE"/>
<path d="M410.566 179.25C410.381 180.994 411.642 182.849 413.349 183.258V183.554C414.166 183.592 415.019 183.666 415.836 183.74L415.947 182.404C414.463 181.439 412.607 180.363 410.566 179.25Z" fill="#FFEADE"/>
<path d="M399.841 157.168C408.191 159.432 416.244 162.994 424.112 166.928C423.481 165.666 422.887 164.367 422.293 163.106C418.397 157.242 414.463 151.378 410.566 145.552C409.23 143.585 407.375 141.358 405.037 141.692C402.995 141.989 401.771 144.104 401.251 146.071C400.694 148.113 400.509 150.302 400.769 152.417C400.62 154.013 400.323 155.609 399.841 157.168Z" fill="#FFEADE"/>
<path d="M428.38 492.361C428.825 493.326 429.233 494.328 429.679 495.293L431.237 494.588C430.866 493.252 430.532 491.953 430.198 490.617L429.79 490.728C429.196 491.099 428.751 491.656 428.38 492.361Z" fill="#FFEADE"/>
<path d="M416.207 209.124C422.034 209.384 427.823 210.794 430.31 215.322C431.571 217.623 432.648 220.072 433.575 222.596L432.796 222.893C432.239 224.192 430.681 224.971 429.307 224.637L429.085 225.788C427.934 225.528 426.784 225.157 425.856 224.823C424.706 224.414 422.961 223.524 421.959 222.782C420.809 221.928 419.992 220.74 419.362 219.479C417.988 216.881 417.246 213.912 417.209 210.98L415.762 210.757C415.91 210.201 416.059 209.644 416.207 209.124ZM497.37 444.486C496.814 443.076 496.257 441.629 495.7 440.182C486.385 416.17 477.627 391.194 467.755 366.96C462.56 354.231 457.698 341.353 454.061 328.067C453.616 326.397 453.17 324.764 452.762 323.094C450.869 315.486 449.311 307.767 447.455 300.159C446.305 295.372 445.34 295.038 445.228 289.879C445.08 284.61 447.863 280.49 450.461 276.148C451.834 273.884 453.207 271.583 454.618 269.32C456.696 266.017 458.811 262.714 461.038 259.522C463.784 255.625 466.716 251.84 469.945 248.314C473.73 244.158 478.146 237.07 478.703 232.134L478.072 231.985C478.592 229.721 478.777 227.383 478.592 225.045L479.26 225.008C479.594 222.151 477.961 216.398 475.957 214.32C468.683 206.861 463.228 200.626 457.438 194.168C453.393 189.678 449.199 185.076 444.152 179.843C442.668 178.322 441.22 176.8 439.55 175.501C437.324 173.757 434.837 172.421 432.351 171.085C429.642 169.638 426.858 168.19 424.075 166.817C416.244 162.883 408.154 159.321 399.804 157.057C394.46 155.609 389.004 154.645 383.438 154.496C383.066 154.496 382.695 154.496 382.361 154.645C381.99 154.83 381.767 155.201 381.545 155.572C379.281 159.84 383.289 164.331 387.037 167.411C388.819 168.858 390.563 169.972 392.456 170.899C394.534 171.976 396.723 172.829 399.099 173.757C402.216 174.908 406.632 177.06 410.529 179.175C412.57 180.289 414.463 181.365 415.91 182.293L415.799 183.629C414.982 183.555 414.129 183.517 413.312 183.443C406.335 182.961 399.358 182.887 392.381 183.221C386.778 183.443 381.137 183.963 375.57 184.668C374.456 184.816 373.306 185.002 372.415 185.67C370.708 187.006 370.894 189.826 372.193 191.571C373.529 193.315 375.607 194.243 377.611 195.096C380.803 196.469 384.068 197.063 387.483 197.323C388.485 197.397 389.524 197.471 390.563 197.508L391.083 198.511C389.784 199.141 388.485 199.809 387.186 200.477C386.703 200.737 386.184 200.997 385.887 201.479C385.627 201.925 385.664 202.481 385.738 203.001C386.369 206.712 390.08 209.236 393.792 209.941C394.089 210.015 394.423 210.052 394.719 210.089C394.868 211.388 395.053 212.687 395.202 213.986L395.387 214.023C394.237 220.889 393.087 227.792 391.936 234.657C390.6 242.525 389.301 250.43 389.784 258.372C390.6 271.769 396.13 278.56 398.468 291.512C400.732 303.87 404.034 316.043 406.224 328.401C406.335 329.032 406.447 329.663 406.558 330.331C406.744 331.519 406.929 332.706 407.115 333.894C409.675 351.707 409.601 369.818 412.496 387.557C418.582 424.632 421.551 457.179 430.235 490.542C430.569 491.878 430.94 493.177 431.274 494.513L429.716 495.218C429.976 495.849 430.272 496.48 430.532 497.111L431.46 496.703C438.623 498.521 447.752 496.443 454.209 492.806C465.306 486.571 467.718 484.159 477.701 476.291C486.088 469.648 496.591 455.249 498.075 444.524L497.37 444.486Z" fill="#FFEADE"/>
<path d="M454.655 272.771H454.729C454.692 271.695 454.729 270.582 454.84 269.505L454.618 269.394C453.207 271.658 451.834 273.922 450.461 276.223C447.826 280.565 445.08 284.684 445.228 289.954C445.377 295.112 446.305 295.446 447.455 300.234C449.311 307.842 450.869 315.561 452.762 323.169L453.096 323.095C453.541 323.02 453.987 322.872 454.395 322.686L454.469 322.835C457.809 321.61 461.001 319.94 463.933 317.936C465.603 316.786 467.347 315.561 468.831 314.114C469.796 313.149 470.835 312.147 471.466 310.922C471.8 310.291 471.912 309.771 471.875 309.363C471.8 308.547 471.058 308.027 469.945 307.396C469.796 307.285 469.611 307.211 469.462 307.099C459.925 300.939 455.286 284.164 454.655 272.771Z" fill="#FFEADE"/>
<path d="M507.353 609.522C514.033 605.143 520.12 599.02 525.761 592.451C540.717 575.045 547.694 554.374 556.341 533.109C568.773 502.566 582.319 473.211 588.999 440.887C594.937 412.162 606.812 380.506 595.122 351.67C585.696 328.439 567.289 324.393 544.762 318.159C531.773 314.559 518.487 312.74 505.238 310.291C497.816 308.918 490.839 306.394 483.453 305.8C481.19 305.615 475.994 304.91 472.654 305.318C472.765 306.617 472.839 307.916 472.951 309.215L471.875 309.289C471.912 309.697 471.8 310.217 471.466 310.848C470.835 312.072 469.796 313.074 468.831 314.039C467.347 315.487 465.603 316.748 463.933 317.862C461.001 319.866 457.809 321.536 454.469 322.761L454.395 322.612C453.987 322.798 453.541 322.946 453.096 323.02L452.762 323.095C453.17 324.765 453.616 326.435 454.061 328.067C457.698 341.353 462.56 354.231 467.755 366.96C477.627 391.157 486.422 416.133 495.7 440.182C496.257 441.629 496.814 443.039 497.37 444.487L498.038 444.598C496.517 455.323 486.051 469.723 477.664 476.366C467.681 484.27 465.269 486.646 454.172 492.88C447.715 496.517 438.585 498.595 431.423 496.777L430.495 497.185C430.198 496.554 429.938 495.923 429.679 495.293C429.233 494.328 428.825 493.326 428.38 492.361C426.561 496.035 427.934 503.494 427.934 503.494C433.019 537.934 438.919 564.617 460.481 601.135C466.011 610.524 467.755 611.378 478.146 614.606C488.983 617.909 498.632 615.2 507.353 609.522Z" fill="#F9C07D"/>
<path d="M448.457 147.297C448.568 148.299 448.643 149.338 448.754 150.377C449.682 161.473 453.356 172.347 459.368 181.773C459.776 185.447 458.551 190.866 457.549 194.206L457.475 194.28C463.265 200.737 468.757 206.972 475.994 214.432C477.998 216.51 479.594 222.262 479.297 225.12L478.629 225.157C478.814 227.458 478.629 229.833 478.109 232.097L478.74 232.245C478.183 237.181 473.767 244.269 469.982 248.426C466.753 251.951 463.821 255.737 461.075 259.634C463.116 259.634 465.343 259.745 467.495 259.819C491.766 251.766 498.298 216.584 498.446 204.968C498.595 195.43 495.181 187.154 492.805 178.136C482.526 139.095 485.903 95.5629 467.347 58.8966C453.838 32.1762 414.017 -9.27746 380.617 6.5321C374.642 4.26829 367.999 3.74872 361.727 5.08474C317.23 -8.53523 289.359 63.0902 279.339 94.7465C271.323 120.057 258.408 143.511 250.541 168.858C242.673 194.169 247.609 215.805 254.252 240.818C258.408 256.479 266.016 277.039 258.631 293.368L260.115 293.702C259.373 302.312 258.631 310.959 257.852 319.569C250.838 329.775 240.187 338.347 230.575 341.353C209.421 347.959 194.279 358.722 190.197 381.953C189.678 384.885 189.381 387.817 189.232 390.786C188.898 397.503 189.492 404.295 190.531 410.975L190.049 411.049C189.084 413.573 189.306 416.393 189.752 419.065C191.162 427.823 194.688 436.248 199.92 443.41C201.145 445.08 203.186 446.862 205.005 446.082L205.264 448.198C208.048 447.864 210.794 447.196 213.429 446.231C216.064 447.53 218.884 448.383 221.816 448.717C226.975 449.311 232.393 448.124 236.587 445.118C237.44 444.449 238.257 443.744 239.036 443.002C245.122 437.435 249.984 430.496 253.101 422.851C257.852 420.03 261.451 415.168 263.381 409.899C265.942 403.033 266.053 395.536 265.756 388.188L266.796 388.04C264.829 373.9 270.321 358.573 281.714 349.852C292.662 341.465 314.076 334.785 326.397 328.587C335.007 324.245 341.761 318.418 346.586 311.553C356.494 297.487 358.498 279.043 352.857 260.227H352.895C352.486 258.854 352.189 257.407 352.004 255.959C349.369 254.698 347.031 252.842 344.767 250.949C332.669 240.855 319.531 228.348 314.15 213.244C313.111 211.685 312.257 210.015 311.515 208.308C310.513 205.859 309.734 203.298 309.251 200.7C303.981 203.446 297.598 204.114 291.957 202.11C283.978 199.29 276.667 187.563 276.259 179.101L275.331 178.953C276.853 170.083 279.302 161.325 282.605 152.938L284.164 153.531C288.803 150.451 296.225 151.119 301.124 153.012C301.235 153.049 301.384 153.123 301.495 153.16C301.309 148.633 301.235 144.105 301.272 139.614L301.718 139.503C300.827 136.423 300.01 132.675 299.417 129.52C299.046 128.333 298.786 127.071 298.6 125.846C303.313 116.605 304.538 104.767 308.435 94.7094C311.626 86.4335 316.377 78.8627 321.906 71.9599C326.694 65.9849 332.669 59.2306 340.351 57.1895C347.068 55.371 357.051 57.7091 362.544 62.014L364.251 61.7913C365.809 62.9789 367.517 63.9067 369.446 64.4263C372.786 65.2798 376.312 64.686 379.726 64.8716C382.621 65.0572 385.776 66.1334 387.408 68.3972L387.78 68.1374C395.944 71.2177 397.354 79.4936 398.431 86.8788C401.845 110.519 411.271 139.355 438.288 144.699L438.363 144.513C441.443 145.552 444.56 146.48 447.678 147.334L448.457 147.297Z" fill="#FFDDA6"/>
<path d="M455.249 213.875C449.904 208.011 444.263 202.445 438.326 197.212C436.841 195.913 435.32 194.614 433.538 193.835C431.423 192.907 429.085 192.796 426.784 192.647C419.25 192.239 411.568 191.794 404.257 193.538C399.655 194.651 395.35 196.544 391.082 198.622C389.784 199.253 388.485 199.921 387.186 200.589C386.703 200.849 386.184 201.109 385.887 201.591C385.627 202.036 385.664 202.593 385.738 203.113C386.369 206.824 390.08 209.347 393.792 210.053C394.089 210.127 394.423 210.164 394.719 210.201C398.134 210.646 401.585 210.015 405.036 209.644C408.043 209.347 412.125 208.939 416.207 209.088C422.034 209.347 427.823 210.758 430.31 215.285C431.571 217.586 432.648 220.036 433.575 222.559C434.577 225.268 435.431 228.089 436.136 230.835C430.94 236.513 425.745 242.265 419.844 247.201C418.1 248.686 416.281 250.059 414.648 251.692C410.306 256.034 407.597 261.935 407.041 268.021" stroke="black" stroke-width="5.93786" stroke-miterlimit="10" stroke-linecap="round" stroke-linejoin="round"/>
<path d="M465.046 212.576C458.96 206.824 452.873 201.071 446.787 195.282C444.338 192.944 441.851 190.606 438.956 188.899C434.021 185.967 428.194 185.002 422.516 184.371C420.289 184.111 418.1 183.889 415.873 183.74C415.057 183.666 414.203 183.629 413.387 183.555C406.41 183.072 399.433 182.998 392.456 183.332C386.852 183.555 381.211 184.074 375.644 184.779C374.531 184.928 373.38 185.113 372.49 185.781C370.782 187.117 370.968 189.938 372.267 191.682C373.603 193.426 375.681 194.354 377.685 195.208C380.877 196.581 384.143 197.175 387.557 197.434C388.559 197.509 389.598 197.583 390.637 197.62" stroke="black" stroke-width="5.93786" stroke-miterlimit="10" stroke-linecap="round" stroke-linejoin="round"/>
<path d="M479.26 225.082C479.594 222.225 477.961 216.473 475.957 214.394C468.683 206.935 463.228 200.7 457.438 194.243C453.393 189.752 449.199 185.15 444.152 179.918C442.668 178.396 441.22 176.874 439.55 175.576C437.324 173.831 434.837 172.495 432.351 171.159C429.641 169.712 426.858 168.265 424.075 166.891C416.244 162.958 408.154 159.395 399.804 157.131C394.46 155.684 389.004 154.719 383.438 154.57C383.066 154.57 382.695 154.57 382.361 154.719C381.99 154.904 381.767 155.275 381.545 155.647C379.281 159.914 383.289 164.405 387.037 167.485C388.819 168.933 390.563 170.046 392.456 170.974C394.534 172.05 396.723 172.903 399.099 173.831C402.216 174.982 406.632 177.134 410.529 179.25C412.57 180.363 414.463 181.439 415.91 182.367" stroke="black" stroke-width="5.93786" stroke-miterlimit="10" stroke-linecap="round" stroke-linejoin="round"/>
<path d="M432.796 225.973C431.757 226.196 430.384 226.047 429.048 225.713C427.897 225.454 426.747 225.082 425.819 224.748C424.669 224.34 422.924 223.449 421.922 222.707C420.772 221.854 419.955 220.666 419.324 219.404C417.951 216.807 417.209 213.838 417.172 210.906" stroke="black" stroke-width="5.93786" stroke-miterlimit="10" stroke-linecap="round" stroke-linejoin="round"/>
<path d="M392.493 173.2C392.307 175.724 391.973 180.585 392.381 183.295C392.419 183.443 392.419 183.591 392.456 183.74" stroke="black" stroke-width="5.93786" stroke-miterlimit="10" stroke-linecap="round" stroke-linejoin="round"/>
<path d="M423.889 165.555C423.332 164.739 422.813 163.922 422.256 163.106C418.36 157.242 414.426 151.378 410.529 145.552C409.193 143.585 407.337 141.358 404.999 141.692C402.958 141.989 401.733 144.104 401.214 146.071C400.657 148.113 400.472 150.302 400.731 152.417C400.88 153.716 401.177 155.015 401.622 156.24" stroke="black" stroke-width="5.93786" stroke-miterlimit="10" stroke-linecap="round" stroke-linejoin="round"/>
<path d="M381.842 165.444C375.644 153.717 360.948 144.995 350.631 147.89C347.588 148.744 344.433 149.597 342.244 151.861C339.943 154.236 338.941 157.613 338.458 160.879C337.122 169.675 339.089 178.915 343.877 186.412C348.664 193.908 354.787 200.514 363.323 203.001C368.482 204.522 376.535 203.446 379.467 198.919" stroke="black" stroke-width="5.93786" stroke-miterlimit="10" stroke-linecap="round" stroke-linejoin="round"/>
<path d="M384.811 182.404C385.516 177.394 384.848 172.161 382.918 167.485" stroke="black" stroke-width="5.93786" stroke-miterlimit="10" stroke-linecap="round" stroke-linejoin="round"/>
<path d="M337.716 170.9C335.081 169.786 332.149 169.452 329.329 169.823C326.842 170.157 324.43 171.011 322.352 172.384" stroke="black" stroke-width="5.93786" stroke-miterlimit="10" stroke-linecap="round" stroke-linejoin="round"/>
<path d="M284.127 153.643C288.766 150.562 296.188 151.23 301.087 153.123C301.198 153.16 301.347 153.234 301.458 153.272C309.585 156.537 315.672 162.958 318.9 171.122C322.203 179.398 321.016 189.53 315.115 196.21C313.445 198.102 311.441 199.624 309.214 200.812C303.944 203.558 297.561 204.226 291.92 202.222C283.941 199.401 276.63 187.674 276.222 179.213" stroke="black" stroke-width="5.93786" stroke-miterlimit="10" stroke-linecap="round" stroke-linejoin="round"/>
<path d="M377.797 142.064C376.98 139.281 374.271 139.8 373.826 142.658C373.529 144.736 374.011 148.67 376.498 149.301C377.277 149.486 378.205 149.115 378.427 148.336C378.539 148.002 378.502 147.631 378.465 147.297C378.353 146.48 378.353 143.957 377.797 142.064Z" stroke="black" stroke-width="5.93786" stroke-miterlimit="10" stroke-linecap="round" stroke-linejoin="round"/>
<path d="M318.529 150.748C317.638 148.262 315.189 148.893 314.966 151.49C314.818 153.42 315.486 156.946 317.787 157.354C318.492 157.465 319.346 157.094 319.494 156.389C319.568 156.092 319.494 155.758 319.457 155.424C319.309 154.719 319.123 152.455 318.529 150.748Z" stroke="black" stroke-width="5.93786" stroke-miterlimit="10" stroke-linecap="round" stroke-linejoin="round"/>
<path d="M332.595 153.532C332.595 156.612 332.372 159.655 331.927 162.698C331.63 164.851 331.184 167.077 329.997 168.896C329.774 169.193 329.551 169.527 329.329 169.787C328.809 170.418 328.29 171.011 327.807 171.642C324.912 175.539 324.987 181.365 327.956 185.225C328.995 186.561 330.294 187.6 331.593 188.676C332.335 189.27 333.077 189.901 333.819 190.495" stroke="black" stroke-width="5.93786" stroke-miterlimit="10" stroke-linecap="round" stroke-linejoin="round"/>
<path d="M387.483 250.615C380.32 255.736 371.525 257.518 363.063 257.778C360.057 257.852 356.977 257.815 354.119 256.887C353.377 256.664 352.709 256.367 352.004 256.033C349.369 254.772 347.031 252.916 344.767 251.023C332.669 240.929 319.531 228.422 314.15 213.318C313.408 211.24 312.814 209.124 312.369 206.935" stroke="black" stroke-width="5.93786" stroke-miterlimit="10" stroke-linecap="round" stroke-linejoin="round"/>
<path d="M307.841 192.091C305.317 183.963 303.944 175.465 303.796 166.966C303.759 165.816 303.759 164.665 303.796 163.515" stroke="black" stroke-width="5.93786" stroke-miterlimit="10" stroke-linecap="round" stroke-linejoin="round"/>
<path d="M384.736 110.631C368.964 105.101 361.467 111.893 352.041 117.868" stroke="black" stroke-width="5.93786" stroke-miterlimit="10" stroke-linecap="round" stroke-linejoin="round"/>
<path d="M318.752 119.055C314.67 116.568 309.14 116.754 305.206 119.5" stroke="black" stroke-width="5.93786" stroke-miterlimit="10" stroke-linecap="round" stroke-linejoin="round"/>
<path d="M366.366 215.025C363.583 220.555 346.771 222.262 342.874 219.516" stroke="black" stroke-width="5.93786" stroke-miterlimit="10" stroke-linecap="round" stroke-linejoin="round"/>
<path d="M387.817 68.1743C395.981 71.2546 397.391 79.5305 398.468 86.9157C401.882 110.556 411.308 139.392 438.326 144.736" stroke="black" stroke-width="5.93786" stroke-miterlimit="10" stroke-linecap="round" stroke-linejoin="round"/>
<path d="M375.533 62.0511C377.425 50.5093 375.087 40.0068 365.438 33.3638" stroke="black" stroke-width="5.93786" stroke-miterlimit="10" stroke-linecap="round" stroke-linejoin="round"/>
<path d="M362.544 62.0512C357.051 57.7463 347.068 55.4454 340.351 57.2267C332.669 59.305 326.694 66.0593 321.906 71.9972C316.377 78.8999 311.626 86.4707 308.435 94.7466C304.538 104.841 303.313 116.642 298.6 125.883C295.038 132.86 289.508 138.39 279.302 140.542" stroke="black" stroke-width="5.93786" stroke-miterlimit="10" stroke-linecap="round" stroke-linejoin="round"/>
<path d="M380.469 6.5321C380.506 6.5321 380.543 6.49499 380.58 6.49499C413.98 -9.31457 453.764 32.1391 467.31 58.8595C485.866 95.5258 482.488 139.058 492.768 178.099C495.144 187.154 498.558 195.43 498.409 204.931C498.261 216.547 491.729 251.729 467.458 259.782C465.677 260.376 463.784 260.821 461.78 261.118" stroke="black" stroke-width="5.93786" stroke-miterlimit="10" stroke-linecap="round" stroke-linejoin="round"/>
<path d="M434.429 107.179C444.115 119.092 447.047 132.637 448.494 147.334C448.606 148.336 448.68 149.375 448.791 150.414C449.719 161.51 453.393 172.384 459.405 181.81C460.333 183.258 461.298 184.668 462.3 186.041" stroke="black" stroke-width="5.93786" stroke-miterlimit="10" stroke-linecap="round" stroke-linejoin="round"/>
<path d="M365.884 6.53208C364.473 5.9383 363.1 5.45585 361.69 5.04762C317.23 -8.53524 289.359 63.0902 279.339 94.7465C271.323 120.057 258.408 143.511 250.541 168.858C242.673 194.169 247.609 215.805 254.252 240.818C258.408 256.479 266.016 277.039 258.631 293.368C256.924 297.19 254.363 300.79 250.726 304.056" stroke="black" stroke-width="5.93786" stroke-miterlimit="10" stroke-linecap="round" stroke-linejoin="round"/>
<path d="M352.561 259.337C352.672 259.671 352.746 259.968 352.858 260.302C358.536 279.117 356.494 297.562 346.586 311.627C341.761 318.493 335.007 324.357 326.397 328.661C314.076 334.822 292.662 341.539 281.714 349.926C270.284 358.685 264.829 373.975 266.796 388.114C267.464 393.013 269.022 397.763 271.546 402.031" stroke="black" stroke-width="5.93786" stroke-miterlimit="10" stroke-linecap="round" stroke-linejoin="round"/>
<path d="M257.963 365.958C253.027 377.092 257.109 389.895 257.258 402.031C257.332 409.193 255.885 416.281 253.138 422.887C249.984 430.532 245.159 437.472 239.073 443.039C238.294 443.781 237.477 444.449 236.624 445.154C234.026 447.233 231.243 449.088 228.311 450.647" stroke="black" stroke-width="5.93786" stroke-miterlimit="10" stroke-linecap="round" stroke-linejoin="round"/>
<path d="M265.126 303.054C264.124 308.658 261.489 314.336 257.889 319.569C250.875 329.775 240.224 338.347 230.612 341.353C209.458 347.959 194.317 358.722 190.234 381.954C189.715 384.885 189.418 387.817 189.269 390.786C188.935 397.503 189.529 404.295 190.568 410.975C191.125 414.538 191.83 418.1 192.647 421.589" stroke="black" stroke-width="5.93786" stroke-miterlimit="10" stroke-linecap="round" stroke-linejoin="round"/>
<path d="M283.793 150.043C283.384 151.008 282.976 152.01 282.605 153.012C279.302 161.399 276.853 170.12 275.331 179.027C275.257 179.547 275.146 180.066 275.071 180.586C273.624 189.604 273.179 199.105 276.445 207.64C279.525 215.619 285.537 222.04 290.547 228.979C295.223 235.474 299.008 242.822 301.458 250.504" stroke="black" stroke-width="5.93786" stroke-miterlimit="10" stroke-linecap="round" stroke-linejoin="round"/>
<path d="M239.853 417.618C236.587 430.756 226.158 441.704 213.466 446.231C210.831 447.159 208.085 447.827 205.302 448.198C205.153 448.235 205.042 448.235 204.893 448.235" stroke="black" stroke-width="5.93786" stroke-miterlimit="10" stroke-linecap="round" stroke-linejoin="round"/>
<path d="M229.498 493.808C206.266 517.337 159.617 547.843 127.404 555.154C121.578 556.49 115.417 557.195 109.628 555.636C103.579 554.003 98.383 550.033 94.1893 545.356C83.1672 533.221 78.1942 516.818 74.5944 500.822C69.4359 477.999 64.0918 456.623 62.7187 433.613C62.5702 430.941 62.4589 428.232 62.4217 425.486" stroke="black" stroke-width="5.93786" stroke-miterlimit="10" stroke-linecap="round" stroke-linejoin="round"/>
<path d="M187.34 394.534C187.265 394.608 187.191 394.646 187.117 394.72C176.206 403.589 168.264 410.418 159.357 420.141C158.059 421.551 156.722 423.073 155.349 424.632" stroke="black" stroke-width="5.93786" stroke-miterlimit="10" stroke-linecap="round" stroke-linejoin="round"/>
<path d="M143.362 409.416C147.407 410.715 148.595 415.688 149.671 419.807C150.154 421.626 150.71 423.407 151.378 425.188C157.242 441.258 169.303 455.546 169.378 472.58" stroke="black" stroke-width="5.93786" stroke-miterlimit="10" stroke-linecap="round" stroke-linejoin="round"/>
<path d="M140.208 416.394C141.395 421.144 141.321 422.74 140.876 424.373C137.907 435.061 130.336 444.302 120.576 449.534C110.815 454.767 100.795 457.105 90.0699 454.247C87.0639 453.431 84.1321 452.318 81.6085 450.573C77.8974 448.013 75.2995 444.227 72.813 440.405C72.5904 440.071 72.3677 439.737 72.1821 439.403" stroke="black" stroke-width="5.93786" stroke-miterlimit="10" stroke-linecap="round" stroke-linejoin="round"/>
<path d="M138.167 410.604C137.944 409.639 137.684 408.674 137.461 407.709C126.402 362.358 116.085 338.421 115.862 297.45C115.825 290.399 120.13 280.008 122.32 271.732C122.839 269.839 123.211 268.021 123.433 266.425" stroke="black" stroke-width="5.93786" stroke-miterlimit="10" stroke-linecap="round" stroke-linejoin="round"/>
<path d="M124.25 258.854C124.472 257.295 124.658 255.699 124.806 254.141C125.178 250.281 125.252 246.421 125.103 242.562C124.844 235.993 123.322 228.645 117.792 225.082C116.271 224.08 114.564 223.486 112.782 223.115C110.073 222.522 107.216 222.447 104.432 222.188C100.016 221.816 95.6738 221.037 91.406 219.812C86.6186 218.439 81.2745 216.584 76.9324 219.033C72.6646 221.445 71.477 227.309 73.0728 231.985C73.2212 232.43 73.4068 232.876 73.5924 233.284C75.9304 238.146 80.6436 241.337 85.3938 243.898C89.6988 246.199 98.6056 251.728 103.69 249.427" stroke="black" stroke-width="5.93786" stroke-miterlimit="10" stroke-linecap="round" stroke-linejoin="round"/>
<path d="M67.5803 432.574C66.9123 430.236 66.4298 427.786 66.0958 425.225C64.6113 413.498 66.3556 399.544 67.2463 382.473C68.9905 348.738 69.9554 335.007 68.5823 305.058C68.3968 300.642 64.8711 292.329 62.7558 286.873C62.1991 285.463 61.7537 284.238 61.494 283.311" stroke="black" stroke-width="5.93786" stroke-miterlimit="10" stroke-linecap="round" stroke-linejoin="round"/>
<path d="M113.376 222.522C112.857 221.965 112.337 221.371 111.855 220.777C104.544 211.759 102.317 199.364 95.8223 189.604C91.9627 183.814 86.7299 179.138 81.6827 174.388C73.0357 166.186 64.8712 157.428 57.2633 148.261C44.0145 132.303 34.3283 119.722 16.96 104.729C15.5127 103.467 10.9851 101.575 9.05529 101.612C-9.50053 101.76 20.0774 137.387 22.9722 141.136C29.2069 149.115 39.7466 162.698 46.8349 171.827C47.6514 172.866 48.3936 173.831 49.0988 174.722" stroke="black" stroke-width="5.93786" stroke-miterlimit="10" stroke-linecap="round" stroke-linejoin="round"/>
<path d="M76.5614 199.624C75.2996 202.482 74.0007 205.339 72.7389 208.197C71.6998 210.498 70.5122 212.984 68.2484 214.06" stroke="black" stroke-width="5.93786" stroke-miterlimit="10" stroke-linecap="round" stroke-linejoin="round"/>
<path d="M61.2343 262.9C59.1189 264.607 56.0757 262.788 53.9975 261.007C47.2061 255.143 40.3404 249.205 34.7736 242.154C29.2069 235.103 24.9762 226.716 24.234 217.735C24.0855 215.953 24.0855 214.135 24.1968 212.353C24.4566 208.605 25.3473 204.931 26.7575 201.443C27.3884 199.958 28.242 198.362 29.6523 197.657C29.8749 197.546 30.0605 197.472 30.2831 197.435" stroke="black" stroke-width="5.93786" stroke-miterlimit="10" stroke-linecap="round" stroke-linejoin="round"/>
<path d="M51.3254 261.786C51.3254 263.01 50.4718 264.087 49.3956 264.68C48.9132 264.977 48.3565 265.163 47.7998 265.237C46.0185 265.497 44.2371 264.866 42.5671 264.235C32.8809 260.45 23.5288 254.66 18.0734 245.753C12.6551 236.884 12.0613 224.488 18.7785 216.547C19.595 215.582 20.4856 214.691 21.599 214.097" stroke="black" stroke-width="5.93786" stroke-miterlimit="10" stroke-linecap="round" stroke-linejoin="round"/>
<path d="M58.8591 275.814C58.0798 274.849 57.3005 273.884 56.5211 272.957C54.0718 270.173 51.6224 267.65 49.9523 265.163" stroke="black" stroke-width="5.93786" stroke-miterlimit="10" stroke-linecap="round" stroke-linejoin="round"/>
<path d="M96.4532 269.913C92.1853 269.394 88.1402 267.538 84.9486 264.644" stroke="black" stroke-width="5.93786" stroke-miterlimit="10" stroke-linecap="round" stroke-linejoin="round"/>
<path d="M64.0919 194.651C65.4279 207.455 66.8753 220.666 71.4029 232.579C72.8131 236.253 74.5203 239.816 76.5985 243.23C79.0108 247.164 81.9797 250.912 83.3528 255.329C84.7259 259.745 84.0208 265.275 80.2354 267.947C77.0067 270.248 72.4049 269.765 68.9906 267.761C66.8382 266.499 65.0568 264.755 63.4981 262.825C62.5332 261.675 61.6796 260.45 60.8261 259.225C47.5401 240.076 38.9302 217.92 33.4748 195.245C33.2521 194.354 33.0666 193.426 33.1408 192.499C33.1779 192.239 33.215 191.979 33.2892 191.719C33.549 190.754 34.0686 189.864 34.6253 189.01C37.854 184.037 42.0847 179.732 46.9834 176.392C47.0947 176.318 47.2432 176.244 47.3545 176.17C49.2101 175.056 51.0286 175.056 55.6304 175.056" stroke="black" stroke-width="5.93786" stroke-miterlimit="10" stroke-linecap="round" stroke-linejoin="round"/>
<path d="M497.37 444.487C496.814 443.076 496.257 441.629 495.7 440.182C486.385 416.17 477.627 391.194 467.755 366.96C462.56 354.231 457.698 341.353 454.061 328.067C453.616 326.397 453.17 324.764 452.762 323.094C450.869 315.487 449.311 307.767 447.455 300.159C446.305 295.372 445.34 295.038 445.228 289.879C445.08 284.61 447.863 280.49 450.461 276.148C451.834 273.884 453.207 271.583 454.618 269.32C456.696 266.017 458.811 262.714 461.038 259.522C463.784 255.625 466.716 251.84 469.945 248.314C473.73 244.158 478.146 237.07 478.703 232.134" stroke="black" stroke-width="5.93786" stroke-miterlimit="10" stroke-linecap="round" stroke-linejoin="round"/>
<path d="M431.274 494.587C430.903 493.251 430.569 491.952 430.235 490.616C421.588 457.253 418.582 424.706 412.496 387.631C409.601 369.892 409.675 351.782 407.115 333.968C406.929 332.78 406.744 331.593 406.558 330.405C406.447 329.774 406.335 329.106 406.224 328.475C404.034 316.08 400.732 303.945 398.468 291.587C396.093 278.635 390.6 271.843 389.784 258.446C389.301 250.504 390.637 242.562 391.936 234.731C393.087 227.866 394.237 220.963 395.387 214.097C395.573 212.984 395.759 211.834 395.944 210.72" stroke="black" stroke-width="5.93786" stroke-miterlimit="10" stroke-linecap="round" stroke-linejoin="round"/>
<path d="M498.112 444.115C498.112 444.264 498.075 444.412 498.038 444.561C496.517 455.286 486.051 469.685 477.664 476.328C467.681 484.233 465.269 486.608 454.172 492.843C447.715 496.48 438.585 498.558 431.423 496.74" stroke="black" stroke-width="5.93786" stroke-miterlimit="10" stroke-linecap="round" stroke-linejoin="round"/>
<path d="M533.554 512.327C524.499 483.045 521.715 478.184 509.803 451.501C507.947 447.381 504.459 443.559 500.005 442.742" stroke="black" stroke-width="5.93786" stroke-miterlimit="10" stroke-linecap="round" stroke-linejoin="round"/>
<path d="M509.023 398.691C503.939 409.639 499.894 421.032 495.886 432.425" stroke="black" stroke-width="5.93786" stroke-miterlimit="10" stroke-linecap="round" stroke-linejoin="round"/>
<path d="M470.353 305.986C470.873 305.652 471.689 305.429 472.617 305.318C475.957 304.91 481.19 305.615 483.416 305.8C490.839 306.394 497.778 308.918 505.201 310.291C518.45 312.74 531.736 314.559 544.725 318.159C567.289 324.356 585.696 328.401 595.122 351.633C606.85 380.469 594.937 412.125 588.999 440.85C582.319 473.174 568.773 502.529 556.341 533.072C547.694 554.337 540.717 575.008 525.761 592.414C520.12 598.982 513.996 605.106 507.353 609.485C498.632 615.2 488.983 617.872 478.184 614.569C467.755 611.378 466.048 610.487 460.518 601.098C438.994 564.617 433.056 537.934 427.971 503.457C427.971 503.457 426.598 496.035 428.417 492.324C428.751 491.618 429.233 491.025 429.827 490.691" stroke="black" stroke-width="5.93786" stroke-miterlimit="10" stroke-linecap="round" stroke-linejoin="round"/>
<path d="M405.927 330.554C386.444 332.966 367.368 327.622 350.705 317.342C349.555 316.637 348.404 315.895 347.291 315.153" stroke="black" stroke-width="5.93786" stroke-miterlimit="10" stroke-linecap="round" stroke-linejoin="round"/>
<path d="M454.469 322.798C457.809 321.573 461.001 319.903 463.933 317.899C465.603 316.748 467.347 315.524 468.831 314.076C469.796 313.111 470.835 312.109 471.466 310.885C471.8 310.254 471.912 309.734 471.875 309.326C471.8 308.51 471.058 307.99 469.945 307.359C469.796 307.248 469.611 307.174 469.462 307.062C459.925 300.976 455.286 284.201 454.655 272.808C454.618 272.14 454.581 271.472 454.581 270.841" stroke="black" stroke-width="5.93786" stroke-miterlimit="10" stroke-linecap="round" stroke-linejoin="round"/>
<path d="M506.129 615.72C502.38 638.172 513.736 677.399 517.336 700.26C517.373 700.483 517.411 700.743 517.448 700.965" stroke="black" stroke-width="5.93786" stroke-miterlimit="10" stroke-linecap="round" stroke-linejoin="round"/>
<path d="M235.288 469.982C234.954 476.143 234.917 482.526 235.139 489.095C236.364 525.984 245.642 567.957 251.691 602.174C256.924 631.938 253.25 669.977 251.431 700.26C251.431 700.483 251.394 700.743 251.394 700.965" stroke="black" stroke-width="5.93786" stroke-miterlimit="10" stroke-linecap="round" stroke-linejoin="round"/>
<path d="M299.38 129.594C299.157 128.333 298.934 127.182 298.786 126.18" stroke="black" stroke-width="5.93786" stroke-miterlimit="10" stroke-linecap="round" stroke-linejoin="round"/>
<path d="M302.868 143.14C302.46 142.138 302.089 140.913 301.718 139.577C300.827 136.497 300.01 132.749 299.417 129.594" stroke="black" stroke-width="5.93786" stroke-miterlimit="10" stroke-linecap="round" stroke-linejoin="round"/>
<path d="M299.38 129.594V129.633" stroke="black" stroke-width="5.93786" stroke-miterlimit="10" stroke-linecap="round" stroke-linejoin="round"/>
</g>
<defs>
<clipPath id="clip0">
<rect width="603.064" height="703.934" fill="white" transform="matrix(-1 0 0 1 603.064 0)"/>
</clipPath>
</defs>
</svg>
