<svg width="85" height="103" viewBox="0 0 85 103" fill="none" xmlns="http://www.w3.org/2000/svg">
<path d="M50.1302 90.6355C49.0233 90.6355 48.125 91.5338 48.125 92.6407C48.125 93.7476 49.0233 94.6459 50.1302 94.6459C51.2371 94.6459 52.1354 93.7476 52.1354 92.6407C52.1354 91.5338 51.2371 90.6355 50.1302 90.6355Z" fill="#1CB7FF"/>
<path d="M72.1019 9.22396V9.30951H72.1875H78.2031C81.4729 9.30951 84.1332 11.9698 84.1332 15.2396C84.1332 28.2587 78.0443 37.8008 68.1917 40.4577L68.1528 40.4682L68.1361 40.5049C64.748 47.9631 59.3909 54.3033 52.5905 58.885C50.995 59.9591 50.0447 61.7999 50.0447 63.8077V74.8476V74.9139L50.1088 74.9304C53.5276 75.8135 56.0603 78.9241 56.0603 82.6146V82.7001H56.1458H58.151C61.4208 82.7001 64.0811 85.3604 64.0811 88.6302V100.661C64.0811 101.722 63.2215 102.581 62.1615 102.581H22.0573C20.9973 102.581 20.1376 101.722 20.1376 100.661V88.6302C20.1376 85.3604 22.7979 82.7001 26.0677 82.7001H28.0729H28.1585V82.6146C28.1585 80.4957 28.984 78.5037 30.4833 77.0041C31.5026 75.9847 32.7501 75.2778 34.1098 74.9291L34.1741 74.9126V74.8462V63.7977C34.1741 61.7962 33.2243 59.9588 31.6302 58.8848C24.8305 54.3035 19.4734 47.9635 16.0851 40.5055L16.0684 40.4688L16.0294 40.4583C6.17546 37.8023 0.0855556 28.2597 0.0855556 15.2396C0.0855556 11.9698 2.74586 9.30951 6.01562 9.30951H12.0312H12.1168V9.22396V6.01562C12.1168 2.74586 14.7771 0.0855556 18.0469 0.0855556H66.1719C69.4416 0.0855556 72.1019 2.74586 72.1019 6.01562V9.22396ZM12.1168 13.2344V13.1488H12.0312H6.01562C4.8627 13.1488 3.92486 14.0867 3.92486 15.2396C3.92486 25.1136 7.63201 32.4515 14.0526 35.6318L14.233 35.7212L14.1722 35.5293C12.8079 31.2271 12.1168 26.7598 12.1168 22.1977V13.2344ZM60.1562 98.7418H60.2418V98.6562V88.6302C60.2418 87.4773 59.304 86.5394 58.151 86.5394H26.0677C24.9148 86.5394 23.9769 87.4773 23.9769 88.6302V98.6562V98.7418H24.0625H60.1562ZM50.4459 55.7005L50.4459 55.7004C56.91 51.3453 61.9477 45.2496 65.0141 38.0724C67.1699 33.0279 68.2626 27.6866 68.2626 22.1977V6.01562C68.2626 4.8627 67.3248 3.92486 66.1719 3.92486H18.0469C16.894 3.92486 15.9561 4.8627 15.9561 6.01562V22.1977C15.9561 27.6882 17.0497 33.0293 19.2062 38.072C22.273 45.2498 27.3108 51.3455 33.7754 55.7008C36.4283 57.4883 38.0132 60.5147 38.0132 63.7977V76.599C38.0132 77.6597 37.1531 78.5276 36.0935 78.5276C36.043 78.5276 35.9928 78.5257 35.9431 78.5219L35.9432 78.5213L35.9333 78.5217C34.9002 78.5614 33.934 78.983 33.1981 79.7189C32.4243 80.4929 31.9978 81.5215 31.9978 82.6146V82.7001H32.0833H52.1354H52.221V82.6146C52.221 80.356 50.3836 78.5186 48.125 78.5186C47.065 78.5186 46.2053 77.6592 46.2053 76.599V63.8077C46.2053 60.5176 47.7913 57.4873 50.4459 55.7005ZM70.0474 35.5289L69.9866 35.7208L70.1669 35.6314C76.5871 32.4507 80.2939 25.113 80.2939 15.2396C80.2939 14.0867 79.356 13.1488 78.2031 13.1488H72.1875H72.1019V13.2344V22.1977C72.1019 26.7586 71.4111 31.2257 70.0474 35.5289Z" fill="black" stroke="white" stroke-width="0.171111"/>
<path d="M57.9784 23.6937C57.7428 22.9676 57.1152 22.4384 56.3596 22.3289L47.7059 21.0728L43.8353 13.2295C43.4974 12.5449 42.8004 12.1116 42.037 12.1116C41.2736 12.1116 40.5766 12.5449 40.2387 13.2295L36.3681 21.0728L27.7146 22.3289C26.959 22.4386 26.3316 22.9678 26.0956 23.6937C25.8598 24.4197 26.0565 25.2166 26.6031 25.7494L32.8662 31.8533L31.3879 40.473C31.259 41.2254 31.5682 41.9856 32.1858 42.4343C32.8034 42.8829 33.6222 42.942 34.2975 42.5869L42.0372 38.5178L49.7787 42.5869C50.4585 42.9443 51.2768 42.8801 51.8904 42.4341C52.5078 41.9854 52.817 41.225 52.6879 40.4726L51.208 31.853L57.4709 25.7494C58.0177 25.2166 58.2142 24.4197 57.9784 23.6937ZM47.6538 29.7169C47.1812 30.1777 46.9652 30.8416 47.0771 31.4923L48.0478 37.1464L42.97 34.4773C42.3855 34.1703 41.6877 34.1703 41.104 34.4775L36.0278 37.1464L36.9975 31.4919C37.109 30.8412 36.8932 30.1775 36.4206 29.7169L32.3131 25.7137L37.9881 24.89C38.6414 24.7951 39.2061 24.3849 39.4982 23.7929L42.0372 18.6477L44.5762 23.7929C44.8684 24.3849 45.433 24.7951 46.0863 24.89L51.7615 25.7137L47.6538 29.7169Z" fill="#1CB7FF"/>
<path d="M42.1094 90.6355H34.0885C32.9812 90.6355 32.0833 91.5332 32.0833 92.6407C32.0833 93.7482 32.9812 94.6459 34.0885 94.6459H42.1094C43.2166 94.6459 44.1146 93.7482 44.1146 92.6407C44.1146 91.5332 43.2166 90.6355 42.1094 90.6355Z" fill="#1CB7FF"/>
<path d="M72.9916 96.6509H74.1095C73.54 96.5381 73.157 96.5268 72.9916 96.6509Z" fill="black"/>
</svg>
