<svg width="11" height="21" viewBox="0 0 11 21" fill="none" xmlns="http://www.w3.org/2000/svg">
<path d="M0.830926 10.6705H3.05168V19.7098C3.05168 19.8898 3.19814 20.0345 3.38024 20.0345H7.14879C7.33088 20.0345 7.47735 19.8898 7.47735 19.7098V10.7135H10.0306C10.1969 10.7135 10.3354 10.5922 10.3552 10.428L10.7432 7.0993C10.755 7.00934 10.7234 6.91546 10.664 6.84897C10.6006 6.77856 10.5136 6.73945 10.4186 6.73945H7.47735V4.65464C7.47735 4.02489 7.82174 3.70806 8.4947 3.70806C8.5897 3.70806 10.4186 3.70806 10.4186 3.70806C10.6006 3.70806 10.7471 3.56334 10.7471 3.38341V0.328563C10.7471 0.148636 10.6006 0.00391146 10.4186 0.00391146H7.76632C7.74653 0.00391146 7.70694 0 7.64361 0C7.18441 0 5.58516 0.0899636 4.32237 1.23602C2.92104 2.51507 3.11501 4.03663 3.16252 4.29869V6.73945H0.830926C0.648832 6.73945 0.502365 6.88417 0.502365 7.0641V10.3497C0.502365 10.5257 0.648832 10.6705 0.830926 10.6705Z" fill="white"/>
</svg>
