<svg width="128" height="44" viewBox="0 0 128 44" fill="none" xmlns="http://www.w3.org/2000/svg">
<rect y="0.034668" width="128" height="43.0769" rx="2.4695" fill="#323232"/>
<g clip-path="url(#clip0)">
<path d="M30.5513 21.7176L26.6278 19.4536L23.4009 22.5728L26.3501 25.4236L30.5512 22.9988C30.7827 22.8653 30.921 22.6257 30.921 22.3584C30.921 22.091 30.7827 21.8514 30.5513 21.7176Z" fill="#C4C4C4"/>
<path d="M25.9618 19.069L21.6442 16.5765L12.1818 11.7275L22.8692 22.0588L25.9618 19.069Z" fill="#C4C4C4"/>
<path d="M12.339 33.2663L21.6604 28.1315L25.6841 25.8088L22.8692 23.0874L12.339 33.2663Z" fill="#C4C4C4"/>
<path d="M11.5505 12.1455L11.5405 33.0096L22.3373 22.5725L11.5505 12.1455Z" fill="#C4C4C4"/>
</g>
<path d="M45.1358 25.559H48.4543V28.9436C48.419 28.9877 48.3639 29.0516 48.289 29.1353C48.2185 29.2146 48.0554 29.3578 47.7998 29.565C47.5486 29.7677 47.2776 29.9462 46.9867 30.1004C46.7003 30.2503 46.3213 30.3891 45.8497 30.5169C45.3826 30.6403 44.8978 30.702 44.3954 30.702C42.9763 30.702 41.7864 30.2304 40.8257 29.2873C39.8649 28.3442 39.3846 27.1918 39.3846 25.83C39.3846 24.4682 39.8649 23.3158 40.8257 22.3727C41.7864 21.4296 42.9763 20.958 44.3954 20.958C44.8758 20.958 45.3363 21.0219 45.777 21.1497C46.2177 21.2731 46.5813 21.4252 46.8677 21.6058C47.1586 21.7865 47.412 21.965 47.628 22.1413C47.8439 22.3176 48.0026 22.4696 48.1039 22.5974L48.2493 22.7825L47.304 23.7345C47.2776 23.6992 47.2379 23.6507 47.185 23.589C47.1366 23.5229 47.022 23.4061 46.8413 23.2387C46.6606 23.0712 46.4667 22.928 46.2596 22.809C46.0524 22.6856 45.7814 22.5732 45.4465 22.4718C45.1159 22.3661 44.7656 22.3132 44.3954 22.3132C43.4126 22.3132 42.5797 22.6547 41.8966 23.3378C41.2135 24.0165 40.8719 24.8472 40.8719 25.83C40.8719 26.8128 41.2113 27.6457 41.89 28.3288C42.5731 29.0119 43.4082 29.3534 44.3954 29.3534C44.7215 29.3534 45.0322 29.3226 45.3275 29.2609C45.6272 29.1948 45.8717 29.1155 46.0612 29.0229C46.2508 28.926 46.416 28.8312 46.557 28.7387C46.7025 28.6417 46.806 28.5624 46.8677 28.5007L46.9669 28.4015V26.9141H45.1358V25.559Z" fill="#C4C4C4"/>
<path d="M54.8203 28.8576C55.2213 28.439 55.4218 27.9278 55.4218 27.324C55.4218 26.7158 55.2213 26.2024 54.8203 25.7837C54.4192 25.3651 53.9433 25.1557 53.3924 25.1557C52.8415 25.1557 52.3633 25.3651 51.9579 25.7837C51.5568 26.2024 51.3563 26.7158 51.3563 27.324C51.3563 27.9278 51.5568 28.439 51.9579 28.8576C52.3633 29.2763 52.8415 29.4857 53.3924 29.4857C53.9433 29.4857 54.4192 29.2763 54.8203 28.8576ZM51.0126 29.6972C50.3427 29.0229 50.0078 28.2318 50.0078 27.324C50.0078 26.4117 50.3427 25.6185 51.0126 24.9442C51.6868 24.2699 52.4801 23.9328 53.3924 23.9328C54.3046 23.9328 55.0957 24.2699 55.7656 24.9442C56.4399 25.6185 56.777 26.4117 56.777 27.324C56.777 28.2318 56.4399 29.0229 55.7656 29.6972C55.0957 30.3671 54.3046 30.702 53.3924 30.702C52.4801 30.702 51.6868 30.3671 51.0126 29.6972Z" fill="#C4C4C4"/>
<path d="M62.6736 28.8576C63.0747 28.439 63.2752 27.9278 63.2752 27.324C63.2752 26.7158 63.0747 26.2024 62.6736 25.7837C62.2726 25.3651 61.7966 25.1557 61.2457 25.1557C60.6949 25.1557 60.2167 25.3651 59.8112 25.7837C59.4102 26.2024 59.2097 26.7158 59.2097 27.324C59.2097 27.9278 59.4102 28.439 59.8112 28.8576C60.2167 29.2763 60.6949 29.4857 61.2457 29.4857C61.7966 29.4857 62.2726 29.2763 62.6736 28.8576ZM58.8659 29.6972C58.1961 29.0229 57.8611 28.2318 57.8611 27.324C57.8611 26.4117 58.1961 25.6185 58.8659 24.9442C59.5402 24.2699 60.3335 23.9328 61.2457 23.9328C62.158 23.9328 62.9491 24.2699 63.6189 24.9442C64.2932 25.6185 64.6304 26.4117 64.6304 27.324C64.6304 28.2318 64.2932 29.0229 63.6189 29.6972C62.9491 30.3671 62.158 30.702 61.2457 30.702C60.3335 30.702 59.5402 30.3671 58.8659 29.6972Z" fill="#C4C4C4"/>
<path d="M70.7187 30.1798V29.6245L70.6328 29.7104C70.5931 29.7501 70.5094 29.8162 70.3816 29.9087C70.2582 29.9969 70.1237 30.0784 69.9783 30.1533C69.8329 30.2238 69.65 30.2899 69.4296 30.3516C69.2093 30.4089 68.9845 30.4376 68.7554 30.4376C67.9356 30.4376 67.2239 30.1225 66.6201 29.4923C66.0164 28.8576 65.7145 28.0886 65.7145 27.1852C65.7145 26.2817 66.0164 25.5149 66.6201 24.8847C67.2239 24.2501 67.9356 23.9328 68.7554 23.9328C69.1167 23.9328 69.4605 24.0011 69.7866 24.1377C70.1127 24.2743 70.3485 24.4109 70.4939 24.5476L70.7187 24.7459V24.0716H72.0739V30.1665C72.0739 31.0788 71.761 31.8478 71.1352 32.4736C70.5094 33.0994 69.7403 33.4123 68.8281 33.4123C68.4579 33.4123 68.1053 33.3639 67.7704 33.2669C67.4354 33.1744 67.16 33.062 66.9441 32.9298C66.7281 32.802 66.5386 32.672 66.3755 32.5397C66.2125 32.4075 66.0957 32.2929 66.0252 32.196L65.9128 32.0572L66.7986 31.178C66.8163 31.2044 66.8449 31.2397 66.8846 31.2837C66.9242 31.3322 67.008 31.4137 67.1358 31.5283C67.268 31.6473 67.4068 31.7509 67.5522 31.839C67.6977 31.9316 67.885 32.0131 68.1141 32.0836C68.3433 32.1585 68.5813 32.196 68.8281 32.196C69.379 32.196 69.8307 32.0087 70.1832 31.6341C70.5402 31.2595 70.7187 30.7747 70.7187 30.1798ZM67.6117 25.7441C67.2459 26.1363 67.063 26.6167 67.063 27.1852C67.063 27.7537 67.2459 28.2341 67.6117 28.6263C67.9775 29.0185 68.405 29.2146 68.8942 29.2146C69.3834 29.2146 69.8086 29.0185 70.17 28.6263C70.5358 28.2341 70.7187 27.7537 70.7187 27.1852C70.7187 26.6167 70.5358 26.1363 70.17 25.7441C69.8086 25.3518 69.3834 25.1557 68.8942 25.1557C68.405 25.1557 67.9775 25.3518 67.6117 25.7441Z" fill="#C4C4C4"/>
<path d="M75.4585 21.0902V30.5698H74.1099V21.0902H75.4585Z" fill="#C4C4C4"/>
<path d="M83.5102 27.7933H78.4332C78.5038 28.2517 78.7285 28.6483 79.1075 28.9832C79.4909 29.3182 79.9449 29.4857 80.4693 29.4857C80.8483 29.4857 81.2009 29.3997 81.527 29.2278C81.8575 29.056 82.0911 28.8885 82.2277 28.7254L82.4326 28.4742L83.3118 29.3534C83.2854 29.3887 83.2435 29.4394 83.1862 29.5055C83.1334 29.5672 83.0166 29.6752 82.8359 29.8294C82.6552 29.9792 82.4635 30.1137 82.2608 30.2326C82.058 30.3472 81.7936 30.4552 81.4675 30.5566C81.1458 30.6535 80.813 30.702 80.4693 30.702C79.5482 30.702 78.7528 30.3649 78.0829 29.6906C77.4174 29.0119 77.0847 28.1988 77.0847 27.2513C77.0847 26.339 77.4086 25.559 78.0564 24.9111C78.7087 24.2589 79.4887 23.9328 80.3966 23.9328C81.3088 23.9328 82.0669 24.2369 82.6706 24.845C83.2788 25.4488 83.5829 26.2068 83.5829 27.1191L83.5102 27.7933ZM80.3966 25.0896C79.9074 25.0896 79.4953 25.2351 79.1604 25.5259C78.8299 25.8124 78.6073 26.1848 78.4927 26.6431H82.2542C82.1748 26.1848 81.9699 25.8124 81.6394 25.5259C81.3088 25.2351 80.8946 25.0896 80.3966 25.0896Z" fill="#C4C4C4"/>
<path d="M88.2499 21.0902H92.0378C92.9412 21.0902 93.6971 21.3877 94.3052 21.9826C94.9178 22.5732 95.2241 23.2937 95.2241 24.1443C95.2241 24.9905 94.9178 25.7088 94.3052 26.2994C93.6971 26.8899 92.9412 27.1852 92.0378 27.1852H89.7373V30.5698H88.2499V21.0902ZM92.0378 22.4454H89.7373V25.83H92.0378C92.505 25.83 92.9038 25.6691 93.2343 25.3474C93.5648 25.0213 93.7301 24.6203 93.7301 24.1443C93.7301 23.6639 93.5648 23.2607 93.2343 22.9346C92.9038 22.6084 92.505 22.4454 92.0378 22.4454Z" fill="#C4C4C4"/>
<path d="M98.3972 21.0902V30.5698H97.0486V21.0902H98.3972Z" fill="#C4C4C4"/>
<path d="M105.642 30.5698H104.287V29.8955C104.27 29.9131 104.239 29.9418 104.195 29.9814C104.155 30.0211 104.071 30.0872 103.943 30.1798C103.82 30.2679 103.686 30.3494 103.54 30.4244C103.395 30.4949 103.212 30.5588 102.992 30.6161C102.771 30.6734 102.549 30.702 102.324 30.702C101.663 30.702 101.114 30.5103 100.678 30.1269C100.242 29.7435 100.023 29.305 100.023 28.8114C100.023 28.2781 100.191 27.8308 100.526 27.4694C100.865 27.108 101.328 26.8789 101.914 26.7819L104.287 26.3721C104.287 26.0283 104.159 25.7397 103.904 25.5061C103.653 25.2725 103.329 25.1557 102.932 25.1557C102.588 25.1557 102.275 25.2284 101.993 25.3739C101.716 25.5149 101.524 25.6581 101.418 25.8036L101.24 26.0349L100.361 25.1557C100.387 25.1205 100.422 25.0764 100.466 25.0235C100.515 24.9662 100.618 24.8693 100.777 24.7326C100.94 24.5916 101.112 24.466 101.293 24.3558C101.473 24.2457 101.711 24.1487 102.007 24.065C102.306 23.9768 102.615 23.9328 102.932 23.9328C103.725 23.9328 104.375 24.1685 104.882 24.6401C105.389 25.1072 105.642 25.6846 105.642 26.3721V30.5698ZM102.529 29.4857C103.08 29.4857 103.509 29.3226 103.818 28.9965C104.131 28.6659 104.287 28.1966 104.287 27.5884V27.4562L102.185 27.7933C101.943 27.8374 101.747 27.9366 101.597 28.0908C101.447 28.2451 101.372 28.439 101.372 28.6726C101.372 28.8885 101.476 29.078 101.683 29.2411C101.894 29.4041 102.176 29.4857 102.529 29.4857Z" fill="#C4C4C4"/>
<path d="M109.1 31.2441L109.371 30.5698L106.727 24.0716H108.148L110.045 28.8114L111.942 24.0716H113.364L110.448 31.2441C110.113 32.0462 109.781 32.608 109.45 32.9298C109.124 33.2515 108.714 33.4123 108.22 33.4123C108.04 33.4123 107.87 33.4013 107.711 33.3793C107.553 33.3572 107.436 33.333 107.361 33.3066L107.269 33.2801V32.0572C107.493 32.1453 107.72 32.1916 107.949 32.196C108.465 32.1916 108.848 31.8743 109.1 31.2441Z" fill="#C4C4C4"/>
<path d="M42.3514 12.6089C42.3835 12.6142 42.4251 12.6272 42.476 12.6481C42.5296 12.6664 42.6247 12.7122 42.7614 12.7853C42.8981 12.8559 43.0201 12.9395 43.1273 13.0362C43.2345 13.1329 43.3309 13.2687 43.4167 13.4438C43.5025 13.6163 43.5453 13.807 43.5453 14.0161C43.5453 14.4551 43.3484 14.8392 42.9544 15.1685C42.5631 15.4951 42.0593 15.6584 41.4428 15.6584C41.1909 15.6584 40.947 15.6284 40.7112 15.5683C40.4753 15.5056 40.2797 15.4324 40.1243 15.3488C39.9715 15.2625 39.8362 15.1763 39.7182 15.0901C39.6003 15.0038 39.5172 14.932 39.469 14.8745L39.3846 14.7765L39.7986 14.3767C39.8147 14.3976 39.8375 14.425 39.867 14.459C39.8991 14.4904 39.9661 14.5479 40.068 14.6315C40.1725 14.7125 40.2837 14.7856 40.4016 14.851C40.5196 14.9137 40.6737 14.9712 40.864 15.0234C41.0542 15.0731 41.2472 15.0979 41.4428 15.0979C41.8985 15.0979 42.2589 14.9908 42.5242 14.7765C42.7923 14.5622 42.9263 14.3088 42.9263 14.0161C42.9263 13.6999 42.7923 13.4334 42.5242 13.2165C42.2589 12.9996 41.8985 12.8911 41.4428 12.8911H40.7876V12.3306H41.4428C41.8368 12.3306 42.1477 12.2405 42.3755 12.0602C42.606 11.8799 42.7212 11.6617 42.7212 11.4056C42.7212 11.1338 42.6073 10.9052 42.3795 10.7197C42.1517 10.5341 41.8395 10.4414 41.4428 10.4414C41.1748 10.4414 40.9216 10.4949 40.6831 10.6021C40.4445 10.7092 40.2703 10.8163 40.1604 10.9235L40.0037 11.0842L39.5936 10.6844C39.6097 10.6635 39.6352 10.6347 39.67 10.5982C39.7048 10.559 39.7812 10.4936 39.8991 10.4022C40.0171 10.3107 40.1417 10.231 40.273 10.1631C40.407 10.0925 40.5785 10.0285 40.7876 9.97101C40.9993 9.91091 41.2177 9.88086 41.4428 9.88086C42.0191 9.88086 42.4787 10.0246 42.8217 10.312C43.1648 10.5968 43.3363 10.9483 43.3363 11.3664C43.3363 11.5493 43.3015 11.7153 43.2318 11.8642C43.1648 12.0131 43.083 12.132 42.9866 12.2209C42.8928 12.3097 42.7976 12.3855 42.7011 12.4482C42.6046 12.5083 42.5202 12.5514 42.4479 12.5776L42.3514 12.6089Z" fill="#C4C4C4"/>
<path d="M45.9309 13.3733L47.4545 13.1302C47.4545 12.8454 47.362 12.6142 47.1771 12.4365C46.9922 12.2588 46.755 12.1699 46.4655 12.1699C46.2565 12.1699 46.0595 12.217 45.8746 12.311C45.6923 12.4025 45.5597 12.4966 45.4766 12.5933L45.352 12.7304L44.9821 12.3698C44.9982 12.3489 45.0196 12.3228 45.0464 12.2914C45.0759 12.2575 45.1376 12.2 45.2314 12.119C45.3278 12.0354 45.4283 11.9609 45.5329 11.8956C45.6374 11.8302 45.7741 11.7727 45.9429 11.7231C46.1144 11.6708 46.2886 11.6447 46.4655 11.6447C46.9158 11.6447 47.2883 11.7871 47.5831 12.0719C47.8806 12.3568 48.0293 12.7095 48.0293 13.1302V15.58H47.4545V15.0587C47.4437 15.0744 47.4263 15.0966 47.4022 15.1253C47.3808 15.1515 47.3298 15.1998 47.2494 15.2704C47.1717 15.3383 47.0873 15.3997 46.9962 15.4546C46.9051 15.5069 46.7845 15.5539 46.6344 15.5957C46.487 15.6375 46.3342 15.6584 46.1761 15.6584C45.7821 15.6584 45.4498 15.5447 45.1791 15.3174C44.9111 15.0901 44.7771 14.8301 44.7771 14.5374C44.7771 14.216 44.8763 13.9573 45.0746 13.7613C45.2729 13.5627 45.5583 13.4334 45.9309 13.3733ZM46.1761 15.1371C46.5486 15.1371 46.8541 15.0182 47.0927 14.7804C47.3339 14.5426 47.4545 14.2343 47.4545 13.8554V13.6124L46.0957 13.8554C45.6026 13.9468 45.3546 14.1742 45.352 14.5374C45.352 14.7099 45.4243 14.8536 45.569 14.9686C45.7165 15.0809 45.9188 15.1371 46.1761 15.1371Z" fill="#C4C4C4"/>
<path d="M52.3887 11.727V12.2483H50.3304V15.58H49.7556V11.727H52.3887Z" fill="#C4C4C4"/>
<path d="M54.5491 12.6168C54.2623 12.9121 54.1189 13.2583 54.1189 13.6555C54.1189 14.0501 54.2623 14.3963 54.5491 14.6942C54.8385 14.9895 55.1615 15.1371 55.5179 15.1371C55.8583 15.1371 56.1625 14.9934 56.4305 14.7059C56.7012 14.4159 56.8365 14.0657 56.8365 13.6555C56.8365 13.2426 56.7012 12.8925 56.4305 12.605C56.1625 12.315 55.8583 12.1699 55.5179 12.1699C55.1615 12.1699 54.8385 12.3189 54.5491 12.6168ZM54.1189 14.9764V17.2655H53.5441V11.727H54.1189V12.3306C54.1297 12.315 54.1484 12.2914 54.1752 12.2601C54.2047 12.2261 54.2623 12.1699 54.3481 12.0915C54.4365 12.0131 54.5317 11.9439 54.6335 11.8838C54.7354 11.8211 54.8653 11.7662 55.0235 11.7192C55.1843 11.6695 55.3491 11.6447 55.5179 11.6447C56.0218 11.6447 56.4626 11.842 56.8405 12.2366C57.2211 12.6311 57.4114 13.1041 57.4114 13.6555C57.4114 14.2042 57.2224 14.6759 56.8446 15.0705C56.4667 15.4624 56.0245 15.6584 55.5179 15.6584C55.3491 15.6584 55.1856 15.6349 55.0275 15.5879C54.872 15.5408 54.7407 15.4846 54.6335 15.4193C54.5263 15.354 54.4325 15.2887 54.3521 15.2233C54.2744 15.1554 54.2154 15.0979 54.1752 15.0509L54.1189 14.9764Z" fill="#C4C4C4"/>
<path d="M59.7165 16.1405L59.9215 15.58L58.3135 11.727H58.9326L60.211 14.8588L61.4853 11.727H62.1044L60.2914 16.1405C60.1279 16.5482 59.9523 16.8369 59.7647 17.0068C59.5771 17.1792 59.3413 17.2655 59.0572 17.2655C58.9688 17.2655 58.883 17.2589 58.7999 17.2459C58.7195 17.2328 58.6592 17.2184 58.619 17.2028L58.5627 17.1871V16.6618C58.6994 16.7141 58.8361 16.7415 58.9728 16.7442C59.3212 16.7442 59.5691 16.543 59.7165 16.1405Z" fill="#C4C4C4"/>
<path d="M65.6879 12.7304C65.6879 12.8585 65.6665 12.9748 65.6236 13.0793C65.5834 13.1838 65.5325 13.2661 65.4708 13.3262C65.4119 13.3837 65.3502 13.4334 65.2859 13.4752C65.2243 13.5144 65.1733 13.5418 65.1331 13.5575L65.0688 13.5732C65.0903 13.5784 65.1184 13.5849 65.1532 13.5928C65.1908 13.6006 65.2524 13.6267 65.3382 13.6712C65.4266 13.713 65.5043 13.7652 65.5713 13.8279C65.641 13.888 65.704 13.9769 65.7603 14.0945C65.8192 14.2121 65.8487 14.3466 65.8487 14.4982C65.8487 14.8248 65.7174 15.1005 65.4547 15.3252C65.1921 15.5474 64.8169 15.6584 64.3291 15.6584C64.1415 15.6584 63.9633 15.6349 63.7945 15.5879C63.6283 15.5408 63.4889 15.4846 63.3764 15.4193C63.2638 15.354 63.166 15.2887 63.0829 15.2233C63.0025 15.1554 62.9422 15.0979 62.902 15.0509L62.8457 14.9764L63.2156 14.6158C63.2477 14.6524 63.2919 14.7007 63.3482 14.7608C63.4072 14.8209 63.5332 14.8993 63.7261 14.996C63.9191 15.0901 64.1201 15.1371 64.3291 15.1371C64.6427 15.1371 64.8785 15.0783 65.0367 14.9607C65.1948 14.8431 65.2738 14.689 65.2738 14.4982C65.2738 14.3048 65.1934 14.1494 65.0326 14.0318C64.8745 13.9142 64.64 13.8554 64.3291 13.8554H63.8749V13.3341H64.3291C64.565 13.3341 64.7539 13.2753 64.896 13.1577C65.038 13.0375 65.109 12.8951 65.109 12.7304C65.109 12.5632 65.0434 12.4286 64.912 12.3267C64.7807 12.2222 64.5864 12.1699 64.3291 12.1699C64.1469 12.1699 63.9727 12.2065 63.8065 12.2797C63.643 12.3502 63.5265 12.4234 63.4568 12.4992L63.3402 12.6089L62.9261 12.2091C62.9636 12.1673 63.0186 12.1151 63.0909 12.0523C63.1633 11.9896 63.3201 11.906 63.5613 11.8015C63.8025 11.697 64.0584 11.6447 64.3291 11.6447C64.7311 11.6447 65.0581 11.7518 65.31 11.9661C65.5619 12.1804 65.6879 12.4352 65.6879 12.7304Z" fill="#C4C4C4"/>
<path d="M70.3005 11.727H70.795V15.58H70.2161V12.6912L67.8282 15.58H67.3377V11.727H67.9126V14.6158L70.3005 11.727Z" fill="#C4C4C4"/>
<path d="M72.0308 12.2483V11.727H75.4036V12.2483H74.0046V15.58H73.4298V12.2483H72.0308Z" fill="#C4C4C4"/>
<path d="M80.1409 13.8632L76.9288 13.8554C76.9503 14.2029 77.0963 14.5034 77.367 14.7569C77.6404 15.0104 77.9607 15.1371 78.3278 15.1371C78.5744 15.1371 78.8035 15.0835 79.0153 14.9764C79.227 14.8693 79.3771 14.7621 79.4655 14.655L79.6062 14.4982L79.9761 14.8588C79.96 14.8797 79.9359 14.9098 79.9037 14.949C79.8742 14.9855 79.8072 15.0496 79.7027 15.141C79.6009 15.2299 79.4896 15.3096 79.369 15.3801C79.2511 15.4481 79.097 15.5121 78.9067 15.5722C78.7191 15.6297 78.5262 15.6584 78.3278 15.6584C77.7891 15.6584 77.3255 15.4637 76.9369 15.0744C76.5483 14.6824 76.354 14.2081 76.354 13.6516C76.354 13.095 76.5456 12.622 76.9288 12.2326C77.3148 11.8407 77.7677 11.6447 78.2876 11.6447C78.8263 11.6447 79.2766 11.8276 79.6384 12.1935C80.0002 12.5567 80.1811 13.0166 80.1811 13.5732L80.1409 13.8632ZM79.172 12.5109C78.9282 12.2836 78.6334 12.1699 78.2876 12.1699C77.9419 12.1699 77.6404 12.2888 77.3831 12.5266C77.1258 12.7644 76.9744 13.0466 76.9288 13.3733H79.6062C79.5633 13.0257 79.4186 12.7383 79.172 12.5109Z" fill="#C4C4C4"/>
<path d="M83.6014 11.727H85.4104C85.7722 11.727 86.0616 11.8224 86.2787 12.0131C86.4958 12.2013 86.6044 12.4404 86.6044 12.7304C86.6044 12.8951 86.5628 13.0453 86.4797 13.1812C86.3993 13.3145 86.3176 13.4072 86.2345 13.4595L86.1099 13.534C86.126 13.5392 86.1488 13.547 86.1782 13.5575C86.2104 13.5679 86.264 13.5967 86.339 13.6437C86.4168 13.6881 86.4838 13.7417 86.54 13.8044C86.599 13.8645 86.6513 13.9521 86.6968 14.067C86.7451 14.182 86.7692 14.3114 86.7692 14.4551C86.7692 14.8026 86.658 15.077 86.4355 15.2782C86.2131 15.4794 85.8995 15.58 85.4948 15.58H83.6014V11.727ZM85.4948 13.7731H84.1762V15.0587H85.4948C85.7199 15.0587 85.8928 15.0025 86.0134 14.8902C86.134 14.7778 86.1943 14.6197 86.1943 14.4159C86.1943 14.2121 86.134 14.054 86.0134 13.9416C85.8928 13.8292 85.7199 13.7731 85.4948 13.7731ZM85.4104 13.291C85.8231 13.291 86.0295 13.1172 86.0295 12.7696C86.0295 12.4221 85.8231 12.2483 85.4104 12.2483H84.1762V13.291H85.4104Z" fill="#C4C4C4"/>
<defs>
<clipPath id="clip0">
<rect width="21.5385" height="21.5385" fill="white" transform="translate(10.4615 11.7266)"/>
</clipPath>
</defs>
</svg>
