<svg width="20" height="20" viewBox="0 0 20 20" fill="none" xmlns="http://www.w3.org/2000/svg">
<path d="M14.1859 0.259277H6.2975C3.09159 0.259277 0.483398 2.86747 0.483398 6.07338V13.9618C0.483398 17.1677 3.09159 19.7759 6.2975 19.7759H14.1859C17.3918 19.7759 20 17.1677 20 13.9618V6.07338C20 2.86747 17.3918 0.259277 14.1859 0.259277ZM18.0366 13.9618C18.0366 16.0885 16.3126 17.8125 14.1859 17.8125H6.2975C4.17082 17.8125 2.44677 16.0885 2.44677 13.9618V6.07338C2.44677 3.94666 4.17082 2.22265 6.2975 2.22265H14.1859C16.3126 2.22265 18.0366 3.94666 18.0366 6.07338V13.9618Z" fill="white"/>
<path d="M10.2417 4.96973C7.45842 4.96973 5.19403 7.23412 5.19403 10.0174C5.19403 12.8006 7.45842 15.0651 10.2417 15.0651C13.025 15.0651 15.2894 12.8007 15.2894 10.0174C15.2894 7.23408 13.025 4.96973 10.2417 4.96973ZM10.2417 13.1017C8.53828 13.1017 7.1574 11.7209 7.1574 10.0174C7.1574 8.31398 8.53832 6.9331 10.2417 6.9331C11.9452 6.9331 13.326 8.31398 13.326 10.0174C13.326 11.7208 11.9451 13.1017 10.2417 13.1017Z" fill="white"/>
<path d="M15.2992 6.2174C15.9672 6.2174 16.5088 5.67588 16.5088 5.00787C16.5088 4.33987 15.9672 3.79834 15.2992 3.79834C14.6312 3.79834 14.0897 4.33987 14.0897 5.00787C14.0897 5.67588 14.6312 6.2174 15.2992 6.2174Z" fill="white"/>
</svg>
