<svg width="22" height="18" viewBox="0 0 22 18" fill="none" xmlns="http://www.w3.org/2000/svg">
<path d="M20.7882 2.71199C20.4715 2.85281 20.1429 2.97015 19.8065 3.06403C20.2023 2.62203 20.5032 2.10181 20.6892 1.53073C20.7288 1.40166 20.6892 1.26475 20.5823 1.1787C20.4755 1.09656 20.329 1.08483 20.2102 1.15523C19.5017 1.56985 18.7337 1.87103 17.9301 2.04705C17.1226 1.26475 16.0221 0.818848 14.886 0.818848C12.4871 0.818848 10.5355 2.7472 10.5355 5.11754C10.5355 5.30529 10.5474 5.48913 10.5711 5.67297C7.59431 5.41481 4.82728 3.96757 2.92717 1.66372C2.85988 1.58158 2.75695 1.53856 2.65007 1.54638C2.54319 1.5542 2.44819 1.61287 2.39277 1.70675C2.00483 2.35996 1.79898 3.10705 1.79898 3.86979C1.79898 4.90632 2.17505 5.8881 2.83612 6.65475C2.63424 6.58434 2.44027 6.49829 2.25422 6.39659C2.15525 6.34183 2.03254 6.34183 1.93357 6.4005C1.83461 6.45526 1.77127 6.56087 1.76731 6.6743C1.76731 6.69386 1.76731 6.71342 1.76731 6.73298C1.76731 8.278 2.61049 9.67048 3.89702 10.4293C3.78618 10.4176 3.67534 10.4019 3.5645 10.3824C3.4497 10.3628 3.3349 10.4019 3.25969 10.4841C3.18448 10.5701 3.15677 10.6875 3.19239 10.797C3.66742 12.2677 4.89457 13.3473 6.37903 13.6797C5.14792 14.4425 3.74263 14.8414 2.26609 14.8414C1.95732 14.8414 1.64856 14.8219 1.34375 14.7867C1.19332 14.7671 1.05081 14.8571 0.999353 14.9979C0.947891 15.1387 1.00331 15.2991 1.12999 15.3773C3.02614 16.5781 5.22314 17.2157 7.47556 17.2157C11.9052 17.2157 14.6762 15.1504 16.22 13.4216C18.1478 11.2624 19.2523 8.40317 19.2523 5.57909C19.2523 5.46175 19.2523 5.3405 19.2483 5.22315C20.0084 4.65599 20.6615 3.97148 21.1959 3.18528C21.2751 3.06403 21.2672 2.90757 21.1761 2.79805C21.0772 2.68853 20.9228 2.65332 20.7882 2.71199Z" fill="white"/>
</svg>
