<svg width="230" height="66" viewBox="0 0 230 66" fill="none" xmlns="http://www.w3.org/2000/svg">
<g clip-path="url(#clip0)">
<path d="M54.7348 23.0999H57.0221L59.2548 29.9658C59.5213 30.767 59.7221 31.5685 59.8217 31.8865H59.8542C59.9396 31.5865 60.1711 30.767 60.4399 29.9658L62.7402 23.0999H65.008L66.5418 34.2256H64.141L63.4235 28.4786C63.323 27.6595 63.2578 27.0761 63.2419 26.859H63.2074C63.1564 27.1086 62.9913 27.7106 62.7573 28.4461L60.8744 34.2256H58.5547L56.671 28.4616C56.4543 27.7601 56.2883 27.0927 56.2194 26.859H56.1858C56.1707 27.1086 56.1209 27.7601 56.038 28.4956L55.3191 34.2256H53.2021L54.7348 23.0999Z" fill="#2894C9"/>
<path d="M76.4892 28.6798C76.4892 26.6083 75.522 24.8034 73.3045 24.8034C71.0703 24.8034 70.0179 26.5414 70.0179 28.6121C70.0179 30.7015 71.0367 32.5209 73.2544 32.5209C75.4895 32.5209 76.4892 30.7503 76.4892 28.6798ZM67.5175 28.6798C67.5175 25.6562 69.5353 22.8987 73.2544 22.8987C76.9729 22.8987 78.9726 25.6221 78.9726 28.6121C78.9726 31.6359 77.0236 34.4257 73.3045 34.4257C69.5851 34.4257 67.5175 31.6861 67.5175 28.6798Z" fill="#2894C9"/>
<path d="M80.0654 28.6458C80.0654 25.6221 82.0514 22.8987 85.803 22.8987C87.2519 22.8987 88.271 23.2179 89.1377 23.7847L88.0868 25.5061C87.4703 25.104 86.785 24.8533 85.7697 24.8533C83.6861 24.8533 82.5659 26.5236 82.5659 28.5792C82.5659 30.7015 83.6354 32.4541 85.803 32.4541C87.0025 32.4541 87.736 32.0366 88.322 31.6033L89.2877 33.2565C88.7206 33.7739 87.3872 34.4253 85.7697 34.4253C81.9834 34.4253 80.0654 31.6689 80.0654 28.6458Z" fill="#2894C9"/>
<path d="M90.6985 23.0999H93.0335V27.694H93.818L97.0693 23.0999H99.5882L95.7339 28.2615C96.1174 28.6121 96.5021 29.1646 97.0189 29.9824C98.004 31.6196 98.3519 32.305 99.1694 32.305H99.3374L99.3223 34.2256H98.3519C97.0351 34.2256 96.4523 33.6404 95.3851 31.8531C94.4839 30.3828 94.1343 29.5483 93.4507 29.5483H93.0335V34.2256H90.6985V23.0999Z" fill="#2894C9"/>
<path d="M108.884 28.6798C108.884 26.6083 107.92 24.8034 105.701 24.8034C103.467 24.8034 102.415 26.5414 102.415 28.6121C102.415 30.7015 103.432 32.5209 105.652 32.5209C107.886 32.5209 108.884 30.7503 108.884 28.6798ZM99.9138 28.6798C99.9138 25.6562 101.931 22.8987 105.652 22.8987C109.369 22.8987 111.37 25.6221 111.37 28.6121C111.37 31.6359 109.42 34.4257 105.701 34.4257C101.981 34.4257 99.9138 31.6861 99.9138 28.6798Z" fill="#2894C9"/>
<path d="M116.682 32.4214C118.032 32.4214 118.748 32.0038 118.748 30.9343C118.748 29.8989 118.148 29.3641 116.781 29.3641H115.446V32.4214H116.682ZM116.532 27.6775C117.799 27.6775 118.349 27.226 118.349 26.2402C118.349 25.3217 117.748 24.9042 116.582 24.9042H115.446V27.6775H116.532ZM113.129 23.1001H116.832C118.882 23.1001 120.667 23.7687 120.667 25.8726C120.667 27.31 119.901 28.1113 118.7 28.4278V28.4618C120.016 28.6622 121.134 29.5486 121.134 31.1351C121.134 33.4066 119.317 34.226 116.781 34.226H113.129V23.1001Z" fill="#2894C9"/>
<path d="M122.16 28.6458C122.16 25.6221 124.147 22.8987 127.897 22.8987C129.347 22.8987 130.366 23.2179 131.233 23.7847L130.181 25.5061C129.566 25.104 128.879 24.8533 127.863 24.8533C125.78 24.8533 124.661 26.5236 124.661 28.5792C124.661 30.7015 125.731 32.4541 127.897 32.4541C129.099 32.4541 129.831 32.0366 130.416 31.6033L131.383 33.2565C130.816 33.7739 129.482 34.4253 127.863 34.4253C124.079 34.4253 122.16 31.6689 122.16 28.6458Z" fill="#2894C9"/>
<path d="M132.794 23.0999H135.13V27.694H135.912L139.165 23.0999H141.681L137.829 28.2615C138.216 28.6121 138.597 29.1646 139.115 29.9824C140.099 31.6196 140.448 32.305 141.267 32.305H141.433L141.416 34.2256H140.448C139.13 34.2256 138.547 33.6404 137.48 31.8531C136.58 30.3828 136.229 29.5483 135.546 29.5483H135.13V34.2256H132.794V23.0999Z" fill="#2894C9"/>
<path d="M143.092 23.0999H145.277V29.0474C145.277 29.8985 145.227 30.6509 145.211 30.7841H145.246C145.344 30.6007 145.761 29.882 146.411 28.9142L150.364 23.0999H152.732V34.2256H150.548V27.7942C150.548 27.0927 150.597 26.4737 150.597 26.3239H150.565C150.447 26.5414 150.096 27.1422 149.495 27.9942L145.246 34.2256H143.092V23.0999Z" fill="#2894C9"/>
<path d="M157.177 19.9099H158.995C159.045 20.5777 159.376 20.9956 159.995 20.9956C160.595 20.9956 160.93 20.5777 160.995 19.9099H162.795C162.646 21.6641 161.362 22.4318 159.995 22.4318C158.628 22.4318 157.343 21.6641 157.177 19.9099ZM155.158 23.0999H157.343V29.0474C157.343 29.8987 157.293 30.6511 157.277 30.7843H157.31C157.408 30.6009 157.825 29.8821 158.477 28.9144L162.429 23.0999H164.796V34.2258H162.611V27.7943C162.611 27.0928 162.661 26.4738 162.661 26.324H162.628C162.512 26.5414 162.161 27.1423 161.562 27.9943L157.31 34.2258H155.158V23.0999Z" fill="#2894C9"/>
<path d="M62.2057 45.7325C62.2057 43.6597 61.2405 41.856 59.0213 41.856C56.7865 41.856 55.7364 43.5938 55.7364 45.6666C55.7364 47.7547 56.7541 49.5733 58.9715 49.5733C61.206 49.5733 62.2057 47.8049 62.2057 45.7325ZM53.2351 45.7325C53.2351 42.7094 55.2544 39.9524 58.9715 39.9524C62.6897 39.9524 64.6914 42.6746 64.6914 45.6666C64.6914 48.6888 62.7398 51.4783 59.0213 51.4783C55.3019 51.4783 53.2351 48.7393 53.2351 45.7325Z" fill="#2894C9"/>
<path d="M68.1536 42.091H65.0848V40.1523H73.5728V42.091H70.52V51.2769H68.1536V42.091Z" fill="#2894C9"/>
<path d="M74.8502 40.1523H77.1853V44.7465H77.9685L81.221 40.1523H83.7382L79.8879 45.3149C80.2691 45.6666 80.6538 46.2153 81.1706 47.036C82.1546 48.6705 82.5048 49.3577 83.3228 49.3577H83.4883L83.4729 51.2772H82.5048C81.1885 51.2772 80.6034 50.6934 79.5368 48.9062C78.6365 47.4364 78.2854 46.6007 77.6024 46.6007H77.1853V51.2772H74.8502V40.1523Z" fill="#2894C9"/>
<path d="M88.5512 45.5313C90.0349 45.5313 90.6678 44.9304 90.6678 43.6931C90.6678 42.573 90.0523 41.9569 88.601 41.9569H87.4997V45.5313H88.5512ZM85.1487 40.1526H88.7847C91.2028 40.1526 93.0365 41.2715 93.0365 43.6594C93.0365 46.0841 91.2851 47.3183 88.5326 47.3183H87.4997V51.2772H85.1487V40.1526Z" fill="#2894C9"/>
<path d="M104.47 40.1523H106.822V51.2772H104.47V40.1523ZM98.2335 49.492C99.7172 49.492 100.368 48.8716 100.368 47.654C100.368 46.5174 99.7508 45.9159 98.2995 45.9159H97.0328V49.492H98.2335ZM94.6807 40.1523H97.0328V44.1121H98.4843C100.885 44.1121 102.718 45.2293 102.718 47.6041C102.718 50.0248 100.969 51.2772 98.2173 51.2772H94.6807V40.1523Z" fill="#2894C9"/>
<path d="M111.165 42.091H108.096V40.1523H116.582V42.091H113.534V51.2769H111.165V42.091Z" fill="#2894C9"/>
<path d="M127.651 40.1523H130.004V51.2772H127.651V40.1523ZM121.415 49.492C122.899 49.492 123.55 48.8716 123.55 47.654C123.55 46.5174 122.932 45.9159 121.481 45.9159H120.216V49.492H121.415ZM117.863 40.1523H120.216V44.1121H121.664C124.067 44.1121 125.9 45.2293 125.9 47.6041C125.9 50.0248 124.147 51.2772 121.399 51.2772H117.863V40.1523Z" fill="#2894C9"/>
<path d="M134.444 36.9614H136.262C136.312 37.6294 136.647 38.0484 137.264 38.0484C137.864 38.0484 138.198 37.6294 138.264 36.9614H140.066C139.916 38.7138 138.632 39.4845 137.264 39.4845C135.897 39.4845 134.612 38.7138 134.444 36.9614ZM132.427 40.1522H134.612V46.1003C134.612 46.9502 134.562 47.7036 134.546 47.8356H134.579C134.679 47.6539 135.094 46.934 135.747 45.966L139.7 40.1522H142.066V51.2771H139.88V44.8459C139.88 44.1445 139.931 43.5285 139.931 43.3779H139.898C139.781 43.5938 139.431 44.195 138.831 45.0481L134.579 51.2771H132.427V40.1522Z" fill="#2894C9"/>
<path d="M149.181 40.2466H151.364V46.1926C151.364 47.0446 151.316 47.797 151.299 47.9288H151.331C151.432 47.748 151.849 47.0283 152.499 46.0603L156.451 40.2466H158.82V51.3703H156.634V44.9402C156.634 44.2389 156.685 43.6219 156.685 43.471H156.65C156.534 43.6878 156.183 44.2893 155.585 45.1413L151.331 51.3703H149.181V40.2466Z" fill="#2894C9"/>
<path d="M161.245 40.2466H163.598V44.6233H168.566V40.2466H170.918V51.3703H168.566V46.5606H163.598V51.3703H161.245V40.2466Z" fill="#2894C9"/>
<path d="M172.661 45.7911C172.661 42.7683 174.645 40.0444 178.397 40.0444C179.847 40.0444 180.864 40.3616 181.731 40.9309L180.682 42.6511C180.063 42.2486 179.381 42.0002 178.364 42.0002C176.279 42.0002 175.162 43.6696 175.162 45.725C175.162 47.8476 176.229 49.6006 178.397 49.6006C179.597 49.6006 180.33 49.1836 180.915 48.7495L181.882 50.4035C181.315 50.92 179.983 51.5715 178.364 51.5715C174.578 51.5715 172.661 48.8145 172.661 45.7911Z" fill="#2894C9"/>
<path d="M185.394 42.1829H182.326V40.2466H190.813V42.1829H187.764V51.37H185.394V42.1829Z" fill="#2894C9"/>
<path d="M192.091 40.2466H194.276V46.1926C194.276 47.0446 194.225 47.797 194.211 47.9288H194.245C194.344 47.748 194.76 47.0283 195.41 46.0603L199.363 40.2466H201.731V51.3703H199.547V44.9402C199.547 44.2389 199.597 43.6219 199.597 43.471H199.563C199.446 43.6878 199.097 44.2893 198.495 45.1413L194.245 51.3703H192.091V40.2466Z" fill="#2894C9"/>
<path d="M206.075 42.1829H203.007V40.2466H211.494V42.1829H208.444V51.37H206.075V42.1829Z" fill="#2894C9"/>
<path d="M212.523 51.2693L212.839 49.5189C212.972 49.5697 213.208 49.6004 213.49 49.6004C214.341 49.6004 214.79 49.0514 215.192 48.1652L215.357 47.7477L211.988 40.2468H214.257L216.508 45.4079L218.761 40.2468H221.029L217.277 48.5982C216.391 50.5859 215.491 51.421 213.641 51.421C213.106 51.421 212.707 51.3366 212.523 51.2693Z" fill="#2894C9"/>
<path d="M224.425 42.1829H221.354V40.2466H229.844V42.1829H226.79V51.37H224.425V42.1829Z" fill="#2894C9"/>
<path d="M27.5448 42.0054V26.7115H24.8154L24.1584 20.2028C33.2307 21.6265 40.1672 29.613 40.1672 38.9373C40.1672 43.8118 38.3098 48.4381 35.0136 51.9411V39.5824L27.5448 42.0054ZM32.7168 60.7321H31.647V44.2784L21.2356 47.8946L10.8231 44.2784V60.7321H9.75133V42.7459L17.2176 45.1715V29.0144H19.7225L21.2329 14.138L22.741 29.0144H25.2464V45.1715L32.7168 42.7459V60.7321ZM29.3485 62.8156L22.3809 61.739V49.9334L29.3485 47.5136V62.8156ZM20.0817 61.741L13.1196 62.8156V47.5136L20.0817 49.9302V61.741ZM2.29685 38.9373C2.29685 29.5785 9.21694 21.6209 18.3068 20.2028L17.6498 26.7115H14.9164V42.0054L7.45301 39.5824V51.9379C4.15411 48.4419 2.29685 43.8367 2.29685 38.9373ZM42.4669 38.9373C42.4669 28.2826 34.3818 19.1732 23.9162 17.8403L22.6955 5.79538L24.6311 3.87362L21.2329 0.5L17.8377 3.87301L19.7674 5.79271L18.5461 17.8403C8.06541 19.17 0 28.2382 0 38.9373C0 45.2122 2.71013 51.0578 7.45301 55.1087V63.0352H10.8231V65.5L21.2356 63.8953L31.647 65.5V63.0352H35.0136V55.1119C39.748 51.0596 42.4669 45.1805 42.4669 38.9373Z" fill="#DD4D3A"/>
</g>
<defs>
<clipPath id="clip0">
<rect width="230" height="65" fill="white" transform="translate(0 0.5)"/>
</clipPath>
</defs>
</svg>
