<svg width="654" height="588" viewBox="0 0 654 588" fill="none" xmlns="http://www.w3.org/2000/svg">
<path d="M392.479 582.335C343.857 588.629 295.801 588.876 255.949 584.704C162.064 574.873 75.9238 528.939 29.6003 441.985C-40.9458 309.486 21.2196 171.682 146.682 77.5853C220.305 22.3507 271.119 -6.25675 359.416 1.84103C599.874 23.8712 732.374 289.612 602.208 495.734C564.902 554.823 472.113 572.044 392.479 582.335Z" fill="white"/>
<path fill-rule="evenodd" clip-rule="evenodd" d="M306.372 184.167C306.372 157.859 338.939 144.81 351.21 144.81C363.48 144.81 363.94 164.365 363.94 190.674C363.94 216.983 332.079 266.772 319.844 266.772C311.853 266.772 309.872 248.136 308.564 224.161C307.821 211.396 306.372 193.291 306.372 184.167Z" fill="#FEEDE5"/>
<path fill-rule="evenodd" clip-rule="evenodd" d="M189.573 468.261C190.492 466.245 192.296 462.179 193.533 459.986C194.771 457.759 197.918 452.207 199.615 449.59C201.313 446.973 204.849 441.881 205.839 440.608C206.829 439.335 207.43 439.724 208.35 440.29C209.269 440.856 215.387 444.038 217.155 444.675C218.887 445.311 220.408 446.16 222.211 445.453C224.015 444.746 226.738 443.508 226.632 445.134C226.525 446.796 226.773 453.869 226.738 455.425C226.667 456.981 226.207 460.764 225.5 462.992C224.793 465.22 223.697 468.049 223.909 470.1C224.121 472.151 225.04 474.378 224.581 475.864C224.121 477.349 223.767 478.339 222.353 476.96C220.974 475.581 219.913 474.732 219.276 472.469C218.604 470.206 217.685 467.412 216.907 468.296C216.129 469.18 213.371 472.186 211.815 474.096C210.259 476.005 204.884 480.496 203.54 481.203C202.197 481.91 199.12 482.335 197.883 482.865C196.645 483.396 194.134 483.29 195.195 481.521C196.291 479.789 197.883 478.445 199.58 476.889C201.277 475.333 203.859 472.823 205.768 471.09C207.678 469.357 211.002 464.194 209.057 465.892C207.112 467.589 201.454 472.327 199.898 473.459C198.342 474.591 194.134 477.349 192.861 478.127C191.588 478.905 190.81 479.4 190.634 477.985C190.457 476.5 188.901 469.711 189.573 468.261Z" fill="#FEEDE5"/>
<path fill-rule="evenodd" clip-rule="evenodd" d="M430.526 436.4C431.374 436.931 434.628 438.593 436.572 438.805C438.517 439.017 442.937 438.982 445.024 438.274C447.11 437.567 448.029 437.284 449.338 436.648C450.646 436.011 450.257 435.552 451.177 437.178C452.096 438.805 454.359 441.705 456.481 443.897C458.603 446.089 462.245 449.767 463.801 452.631C465.357 455.496 465.746 457.794 466.205 459.244C466.665 460.694 468.504 464.407 470.13 466.21C471.757 467.978 474.904 471.726 476.566 472.929C478.228 474.131 480.951 475.687 480.35 476.712C479.784 477.738 479.077 478.905 477.981 479.541C476.884 480.178 474.515 480.178 472.959 479.541C471.403 478.905 468.009 476.571 466.17 475.298C464.331 474.025 459.805 469.145 458.815 468.049C457.86 466.953 454.359 463.912 453.617 462.886C452.909 461.896 452.485 462.426 453.298 464.831C454.112 467.236 456.41 473.494 458.108 476.076C459.805 478.657 462.316 480.355 461.856 481.345C461.431 482.3 459.557 483.29 458.496 482.83C457.436 482.37 454.112 480.284 452.839 478.127C451.601 475.97 449.444 471.302 448.277 469.64C447.11 467.978 445.872 465.149 444.776 463.841C443.68 462.532 442.301 461.366 441.594 462.391C440.851 463.416 438.906 467.094 438.553 468.473C438.164 469.852 436.36 474.379 435.052 475.581C433.39 477.066 429.748 477.95 428.51 477.278C427.272 476.606 425.893 475.545 426.954 474.485C428.05 473.424 431.41 472.151 432.506 469.216C433.567 466.281 433.425 463.381 433.142 460.8C432.789 457.935 431.834 454.611 431.268 451.464C430.702 448.282 429.889 444.498 429.924 441.987C429.889 439.477 429.642 435.905 430.526 436.4Z" fill="#FEEDE5"/>
<path fill-rule="evenodd" clip-rule="evenodd" d="M305.381 303.583C305.594 304.325 307.362 307.72 306.867 308.357C305.735 309.877 303.154 306.872 302.588 306.27C299.335 302.628 296.47 297.571 294.384 293.081C293.394 290.994 291.873 288.731 293.818 287.317C295.763 285.902 295.48 285.054 295.162 283.285C294.879 281.588 291.873 279.254 290.706 278.299C289.292 277.133 288.62 275.329 288.479 273.561C288.373 271.828 289.044 270.025 289.822 268.469C290.035 268.009 291.166 266.064 290.848 265.605C290.565 265.11 288.691 264.721 288.196 264.473C287.418 264.084 282.892 261.22 284.377 259.735C284.66 259.416 285.155 261.998 287.63 262.564C288.479 262.776 290.424 261.856 290.813 260.301C291.555 257.153 293.076 253.087 292.05 249.692C291.59 248.242 289.221 244.246 288.337 243.044C286.569 240.64 286.958 234.663 287.489 231.799C288.373 227.202 289.858 225.116 291.166 221.65C291.414 220.979 292.156 219.14 291.626 218.362C291.237 217.796 289.893 218.044 289.539 218.185C288.09 218.715 281.937 218.963 281.937 217.902C281.937 215.745 282.856 212.067 284.235 209.946C287.064 205.738 291.838 203.899 294.525 199.337C296.435 196.155 298.097 191.911 298.91 186.855C299.441 183.566 299.653 177.767 300.961 172.498C301.668 169.669 303.613 164.577 304.356 162.137C306.301 155.843 308.741 151.104 311.888 145.729C314.045 142.052 315.459 138.94 318.536 135.722C321.824 132.257 327.199 129.286 332.044 127.341C335.615 125.927 340.142 125.184 345.057 125.291C347.851 125.361 351.387 125.467 354.003 126.74C355.948 127.695 357.363 129.286 359.131 130.772C360.475 131.938 362.95 132.257 364.364 133.211C370.022 136.889 374.902 139.647 377.236 146.755C381.691 160.157 377.589 174.408 378.792 188.057C379.464 195.554 384.167 200.186 384.697 208.708C384.839 211.113 383.53 214.967 381.196 217.796C378.049 221.615 378.474 228.652 378.509 234.628C378.544 240.816 384.733 249.374 385.192 255.562C385.758 263.624 383 266.878 378.403 270.449C374.902 273.172 369.881 275.966 367.83 280.103C366.557 282.684 366.91 285.442 367.582 288.307C368.289 291.348 374.654 298.42 369.103 297.182C365.142 296.298 363.339 294.318 361.394 292.904C356.832 289.544 353.332 284.735 353.968 278.724C354.216 276.425 355.913 273.066 357.787 270.803C359.626 268.54 361.394 266.595 361.5 262.351C361.571 259.346 358.777 254.466 357.151 251.283C355.524 248.172 354.534 245.413 354.392 241.913C354.216 236.891 356.196 233.567 357.363 231.092C358.919 227.874 355.984 227.131 355.489 223.843C355.347 222.817 355.878 221.58 355.595 220.625C355.418 219.953 354.286 219.281 353.862 218.786C351.988 216.523 350.821 215.427 349.23 214.507C348.416 214.048 348.947 210.37 350.467 208.107C351.988 205.844 354.286 203.687 355.276 202.378C359.484 197.004 363.834 186.749 361.111 180.348C358.388 174.019 356.797 166.381 356.655 160.511C356.585 157.894 356.691 152.979 353.438 152.094C352.66 151.882 351.351 152.943 350.786 153.367C347.886 155.595 345.906 158.955 342.652 160.829C335.58 164.895 326.952 165.426 319.597 168.962C317.899 169.775 315.636 171.225 315.106 172.958C314.54 174.726 309.483 173.771 308.352 176.317C306.937 179.535 312.029 180.525 311.676 182.329C310.615 187.421 311.959 193.22 312.418 198.312C312.701 201.459 312.418 204.606 312.772 207.753C313.232 212.138 314.894 215.604 315.813 220.625C316.732 225.646 316.803 229.607 315.566 234.274C313.762 241.029 309.059 248.985 308.67 256.234C308.316 263.2 316.485 269.954 314.681 277.203C313.974 280.068 312.737 281.376 310.58 284.452C309.2 286.397 305.983 290.322 304.816 294.919C304.179 297.784 304.674 300.966 305.381 303.583Z" fill="#FBDFBA"/>
<path fill-rule="evenodd" clip-rule="evenodd" d="M287.948 274.975C287.948 274.975 289.221 277.239 291.661 279.183C293.889 280.952 296.046 282.72 295.162 285.549C293.359 291.489 294.844 296.546 303.224 307.296C306.053 310.938 304.639 305.563 304.604 298.668C304.604 294.354 306.195 290.676 308.67 286.963C311.11 283.321 315.318 281.022 314.964 275.258C314.575 268.823 308.812 261.821 308.564 257.189C308.352 253.157 309.908 248.914 310.863 246.651C311.994 244.034 312.242 244.034 312.701 246.297C313.479 250.116 314.823 252.627 316.591 255.562C318.96 259.487 321.789 263.235 322.567 262.988C323.38 262.74 323.84 260.583 325.679 258.143C328.084 254.89 333.07 250.187 336.358 247.464C339.647 244.741 343.643 241.488 345.269 238.801C347.603 234.982 350.538 231.057 350.432 228.758C350.326 226.495 348.169 227.238 348.098 221.933C348.027 213.659 348.77 212.951 351.953 216.664C354.11 219.14 356.161 218.963 356.408 222.923C356.55 225.682 359.308 228.051 357.787 231.092C356.797 233.072 355.63 235.547 355.277 237.952C354.888 240.498 355.206 243.539 354.958 246.368C354.569 250.647 353.579 254.961 352.801 260.194C352.2 264.19 349.654 281.482 347.674 299.516C345.906 315.606 345.305 333.888 345.729 352.735C346.365 379.716 352.342 405.813 351.74 408.677C351.351 410.587 336.04 414.229 321.754 417.128C307.609 419.993 299.794 422.751 285.19 419.25C283.033 418.755 283.245 418.826 283.033 415.219C282.927 413.592 282.573 402.524 282.114 393.79C281.689 386.046 282.149 373.881 282.397 361.646C282.892 339.192 284.2 320.061 284.554 304.361C284.66 298.738 285.049 290.959 285.756 285.725C286.64 278.724 287.948 274.975 287.948 274.975Z" fill="white"/>
<path fill-rule="evenodd" clip-rule="evenodd" d="M204.566 435.057C204.814 432.935 207.041 426.888 208.88 418.649C209.87 414.194 212.027 401.817 212.558 396.513C214.326 379.292 214.361 366.137 216.235 356.448C217.049 352.134 219.63 342.021 223.06 329.503C224.439 324.482 225.748 318.647 227.374 312.954C230.062 303.618 232.608 292.762 235.613 281.305C239.503 266.595 243.534 254.537 247.99 244.211C252.658 233.39 257.219 227.697 261.852 223.737C267.474 218.892 271.753 219.352 280.487 219.14C283.952 219.069 289.893 217.902 291.909 218.044C293.429 218.15 290.105 223.525 288.974 227.132C287.665 231.269 286.428 237.952 287.701 241.135C288.691 243.645 291.484 247.57 292.333 250.187C293.323 253.158 292.616 259.028 291.838 259.77C290.777 260.831 288.443 264.155 285.332 261.255C284.341 260.301 285.968 264.332 291.909 265.322C292.757 265.463 289.929 267.302 289.257 270.555C288.408 274.799 287.029 276.284 286.251 283.215C285.579 289.12 283.917 305.316 283.811 325.578C283.705 346.229 281.3 364.829 282.078 395.204C282.255 401.428 282.856 408.111 283.175 413.769C283.493 419.392 282.821 426.216 283.139 431.026C284.235 446.938 285.261 456.698 282.715 464.124C280.133 471.55 276.633 475.192 271.47 475.51C268.5 475.687 263.584 474.838 263.514 470.1C263.478 467.483 263.019 461.401 262.63 451.182C262.488 447.327 263.054 435.057 263.125 430.495C263.62 399.519 268.358 361.116 267.474 346.158C266.802 334.878 267.403 333.18 264.61 314.015C264.468 312.989 263.796 303.724 263.195 304.007C261.958 304.573 257.997 316.172 256.547 320.839C254.885 326.108 249.935 339.935 246.54 353.372C243.004 367.269 239.008 383.394 235.507 395.629C232.997 404.398 230.345 420.7 229.567 425.827C229.142 428.55 229.849 433.572 229.708 435.764C229.248 443.155 227.551 443.579 226.49 444.286C222.565 446.903 215.245 444.746 209.623 441.21C206.723 439.406 204.248 437.674 204.566 435.057Z" fill="#FF5136"/>
<path fill-rule="evenodd" clip-rule="evenodd" d="M354.958 245.449C355.559 249.374 356.832 250.965 358.247 253.476C360.51 257.436 362.49 262.21 361.217 265.888C360.156 268.929 358.989 268.787 357.575 270.909C354.852 275.011 352.059 281.553 356.231 286.609C356.903 287.423 361.924 293.187 365.956 296.228C368.961 298.491 368.997 290.605 368.537 290.004C366.91 287.918 366.663 286.645 367.688 280.421C368.042 278.229 373.134 274.197 376.988 271.439C380.631 268.823 384.839 264.756 385.192 260.23C385.546 255.279 384.379 251.778 382.293 247.005C380.949 243.928 377.943 235.158 378.403 230.314C378.898 224.691 379.747 221.544 380.418 217.513C380.807 215.285 381.656 213.234 383.424 215.179C384.238 216.063 386.288 218.892 387.597 219.458C390.037 220.519 395.553 226.848 399.301 236.891C400.292 239.614 402.272 245.802 404.535 252.203C409.627 266.489 412.703 280.527 417.053 295.591C419.953 305.669 422.357 317.197 424.585 324.199C425.929 328.477 427.414 331.2 428.227 333.357C429.818 337.53 432.789 345.451 435.83 357.191C438.623 367.941 441.452 382.191 443.998 394.002C447.923 412.143 450.399 429.293 450.752 431.556C451.035 433.43 451.318 434.597 450.611 435.658C449.55 437.284 446.014 438.734 442.796 439.123C438.199 439.689 432.683 437.815 431.056 436.365C427.661 433.324 428.722 432.829 428.015 428.586C427.06 422.998 424.868 416.669 423.029 410.869C421.332 405.636 417.371 392.552 413.764 379.681C411.254 370.805 407.399 360.09 405.313 352.417C403.934 347.254 403.757 342.905 402.767 339.722C399.761 330.104 394.811 319.884 391.133 309.736C389.117 304.113 387.066 297.996 385.935 295.485C383.672 290.499 378.65 315.075 376.918 325.401C374.902 337.671 377.377 354.998 382.964 370.522C387.385 382.828 393.149 395.417 397.074 407.828C399.514 415.537 401.211 422.998 402.024 427.843C402.802 432.405 403.651 442.872 404.075 446.054C404.782 451.111 404.818 452.03 402.449 451.712C397.392 451.04 388.269 452.631 384.662 454.647C383.247 455.425 384.096 457.9 384.202 458.961C384.556 462.144 379.322 459.067 372.285 455.39C368.678 453.48 364.258 451.075 361.535 449.272C355.17 445.099 351.917 443.543 352.023 438.84C352.094 435.481 352.66 431.91 352.589 426.924C352.448 413.804 349.902 394.532 347.744 379.398C344.774 358.499 344.809 334.948 346.082 315.747C347.002 302.098 350.573 270.626 353.296 254.819C354.463 248.454 354.605 243.221 354.958 245.449Z" fill="#FF5136"/>
<path fill-rule="evenodd" clip-rule="evenodd" d="M282.644 479.789C282.644 479.789 279.992 472.328 279.78 471.302C279.568 470.277 281.371 467.413 281.831 466.104C282.29 464.796 284.023 460.128 283.952 457.476C283.882 454.824 284.023 446.302 283.811 443.826C283.599 441.351 282.927 434.915 282.927 432.44C282.927 429.965 283.139 424.342 283.139 422.291C283.139 420.24 282.927 418.472 284.766 419.003C286.569 419.533 292.864 420.983 295.303 420.983C297.708 420.983 304.957 421.054 307.362 420.382C309.766 419.745 318.96 418.331 321.471 417.376C323.946 416.421 331.478 415.113 334.166 414.3C336.889 413.486 344.633 411.754 346.719 411.011C348.841 410.268 351.245 408.005 351.564 410.127C351.917 412.249 352.554 427.808 352.518 429.505C352.483 431.167 351.705 436.542 351.988 438.593C352.306 440.609 353.756 444.251 355.524 445.347C357.257 446.443 360.333 448.706 362.985 450.121C365.637 451.535 370.305 454.329 373.594 455.955C376.847 457.582 383.071 459.916 383.742 460.411C384.45 460.941 384.273 462.391 384.344 463.7C384.45 465.008 383.353 462.816 382.01 462.144C380.666 461.507 378.863 459.951 377.731 461.825C376.599 463.7 375.362 463.735 375.574 467.024C375.821 470.312 375.433 472.363 376.706 474.874C377.979 477.384 379.428 479.648 378.014 479.648C376.635 479.648 282.644 479.789 282.644 479.789Z" fill="#D7CAC2"/>
<path fill-rule="evenodd" clip-rule="evenodd" d="M381.691 479.258C380.065 476.323 378.827 472.681 379.11 469.287C379.216 468.226 379.251 466.104 380.807 466.033C381.797 465.998 382.717 467.554 383.247 468.19C385.404 470.807 386.288 473.353 386.288 476.748C386.288 477.42 386.501 478.94 386.041 479.541C385.51 480.249 383.318 479.86 382.54 479.789C382.293 479.754 381.868 479.506 381.691 479.258Z" fill="#D7CAC2"/>
<path fill-rule="evenodd" clip-rule="evenodd" d="M234.128 487.993L191.765 481.557L177.161 404.222C177.161 404.222 176.949 402.135 176.241 401.145C175.499 400.155 174.579 399.307 173.483 398.705C172.422 398.104 171.468 398.387 170.336 398.352C169.205 398.281 63.8628 391.244 63.8628 391.244C63.8628 391.244 61.9533 391.598 61.3875 392.234C60.8217 392.871 59.7608 394.639 59.7255 395.7C59.6548 396.761 59.7962 399.519 60.0437 400.615C60.2913 401.711 78.0074 479.895 78.0074 479.895C78.0074 479.895 78.5378 481.84 78.9621 482.583C79.3864 483.325 80.129 484.563 81.1192 485.235C82.1093 485.942 85.0796 486.154 85.999 486.296C86.9184 486.437 188.264 498.849 188.264 498.849C188.264 498.849 192.578 499.273 194.417 498.814C196.256 498.354 230.981 491.352 230.981 491.352C230.981 491.352 232.183 491.14 232.926 490.15C233.704 489.16 234.128 487.993 234.128 487.993Z" fill="#ECE2DF"/>
<path fill-rule="evenodd" clip-rule="evenodd" d="M299.229 492.13L383.53 492.554L411.784 534.634L271.01 534.352L299.229 492.13Z" fill="white"/>
<path d="M411.784 535.483L271.01 535.2C270.692 535.2 270.409 535.023 270.267 534.74C270.126 534.458 270.126 534.139 270.303 533.892L298.557 491.67C298.698 491.423 298.946 491.246 299.264 491.281L383.565 491.706C383.848 491.706 384.096 491.847 384.273 492.095L412.491 534.175C412.668 534.422 412.668 534.776 412.527 535.059C412.385 535.306 412.067 535.483 411.784 535.483ZM272.566 533.503L410.193 533.786L383.106 493.403L299.724 492.979L272.566 533.503Z" fill="#1D1D2E"/>
<path fill-rule="evenodd" clip-rule="evenodd" d="M273.556 484.951L357.858 485.376L386.112 527.456L245.338 527.173L273.556 484.951Z" fill="white"/>
<path d="M386.112 528.305L245.338 528.022C245.019 528.022 244.737 527.845 244.595 527.562C244.454 527.279 244.454 526.961 244.63 526.678L272.884 484.456C273.026 484.209 273.273 484.138 273.592 484.067L357.893 484.492C358.176 484.492 358.424 484.633 358.6 484.845L386.854 526.925C387.031 527.208 387.031 527.527 386.89 527.809C386.713 528.128 386.43 528.305 386.112 528.305ZM246.929 526.324L384.556 526.607L357.434 486.224L274.051 485.8L246.929 526.324Z" fill="#1D1D2E"/>
<path fill-rule="evenodd" clip-rule="evenodd" d="M389.542 508.219L383.778 455.955C383.778 455.955 384.556 454.399 386.218 453.869C387.88 453.338 392.972 451.995 396.543 451.959C400.15 451.924 407.293 451.5 410.051 451.853C412.81 452.207 418.573 452.313 421.332 453.374C424.09 454.399 425.292 454.081 425.115 456.167C424.974 458.254 418.503 508.608 418.503 508.608C418.503 508.608 415.815 510.482 413.87 510.695C411.961 510.907 406.126 511.437 403.156 511.473C400.186 511.508 395.765 511.119 393.891 510.589C392.088 510.023 389.542 508.219 389.542 508.219Z" fill="#D6E8C3"/>
<path fill-rule="evenodd" clip-rule="evenodd" d="M387.455 491.741C386.43 490.751 384.909 489.231 383.672 487.71C382.434 486.154 380.666 483.608 379.57 481.416C378.474 479.223 376.918 475.793 376.387 473.212C375.857 470.63 375.15 468.438 375.609 466.246C376.069 464.053 376.529 462.639 378.014 461.755C379.464 460.871 380.913 460.446 382.08 461.719C383.212 462.957 384.733 464.619 384.98 466.564C385.228 468.473 385.51 471.019 384.237 469.145C383 467.271 381.656 466.246 380.489 466.14C379.358 466.034 378.933 466.918 378.969 468.686C379.039 470.454 379.393 473.884 380.1 475.758C380.843 477.632 381.656 480.143 383.212 481.84C384.768 483.537 385.652 484.068 386.642 484.952C387.632 485.836 387.066 486.013 387.349 487.498C387.844 489.584 388.516 492.731 387.455 491.741Z" fill="#CEE8C3"/>
<path fill-rule="evenodd" clip-rule="evenodd" d="M386.854 457.158C386.854 455.743 394.811 454.576 404.676 454.576C414.507 454.576 422.499 455.708 422.499 457.158C422.499 458.572 414.507 459.739 404.676 459.739C394.846 459.704 386.854 458.572 386.854 457.158Z" fill="#BF8F8B"/>
<path d="M332.079 216.487C329.498 216.487 327.27 216.028 325.679 215.32C325.431 215.214 319.597 212.527 315.247 205.773C315 205.384 315.106 204.854 315.495 204.606C315.884 204.358 316.414 204.465 316.662 204.854C320.764 211.219 326.139 213.694 326.386 213.8C329.498 215.214 335.474 215.427 341.768 212.774C347.568 210.335 355.489 204.641 360.333 191.452C360.475 190.992 360.97 190.78 361.429 190.956C361.854 191.133 362.101 191.593 361.924 192.053C356.868 205.844 348.522 211.784 342.44 214.366C338.727 215.886 335.156 216.487 332.079 216.487Z" fill="#1D1D2E"/>
<path d="M312.065 196.968C311.676 196.968 311.322 196.685 311.251 196.296C310.014 190.85 310.261 184.945 312.029 178.721C312.171 178.262 312.631 178.014 313.09 178.156C313.55 178.262 313.797 178.757 313.691 179.181C312.029 185.122 311.782 190.78 312.949 195.942C313.055 196.402 312.772 196.862 312.312 196.933C312.206 196.968 312.135 196.968 312.065 196.968Z" fill="#1D1D2E"/>
<path d="M311.711 182.47C311.605 182.47 311.499 182.47 311.358 182.399C309.802 181.727 307.715 180.49 307.574 177.731C307.538 177.272 307.927 176.847 308.387 176.847C308.847 176.812 309.236 177.166 309.271 177.661C309.342 179.075 310.155 180.065 312.029 180.879C312.454 181.055 312.666 181.55 312.454 181.975C312.348 182.293 312.029 182.47 311.711 182.47Z" fill="#1D1D2E"/>
<path d="M336.04 190.497C335.792 190.497 335.58 190.391 335.403 190.214C335.085 189.86 335.12 189.33 335.474 189.012C335.863 188.658 336.358 188.446 336.888 188.198C337.525 187.915 338.268 187.597 338.338 187.137C338.338 187.102 338.197 186.784 338.091 186.607C337.914 186.253 337.702 185.829 337.666 185.405C337.49 183.531 338.338 181.48 339.965 179.994C340.319 179.676 340.849 179.712 341.167 180.03C341.485 180.383 341.45 180.914 341.132 181.232C339.93 182.328 339.258 183.92 339.399 185.228C339.399 185.369 339.541 185.617 339.647 185.864C339.894 186.36 340.177 186.925 340.036 187.526C339.717 188.764 338.55 189.294 337.631 189.719C337.242 189.896 336.853 190.072 336.676 190.214C336.464 190.426 336.252 190.497 336.04 190.497Z" fill="#1D1D2E"/>
<path d="M337.065 167.512C336.853 167.512 336.676 167.441 336.535 167.3C336.181 167.017 335.792 166.734 335.297 166.486C334.908 166.274 334.731 165.744 334.944 165.355C335.156 164.93 335.686 164.789 336.075 165.001C336.641 165.319 337.171 165.638 337.596 165.991C337.949 166.274 338.02 166.805 337.702 167.194C337.56 167.406 337.313 167.512 337.065 167.512Z" fill="#1D1D2E"/>
<path d="M359.025 177.165C358.742 177.165 358.459 177.024 358.317 176.776C357.186 175.008 354.286 173.983 352.058 173.771C351.599 173.735 351.245 173.311 351.281 172.851C351.316 172.392 351.74 172.038 352.2 172.073C354.923 172.321 358.282 173.594 359.732 175.857C359.979 176.246 359.873 176.776 359.484 177.024C359.343 177.13 359.166 177.165 359.025 177.165Z" fill="#1D1D2E"/>
<path d="M378.474 176.211C378.438 176.211 378.438 176.211 378.403 176.211C377.943 176.175 377.589 175.751 377.625 175.291L377.66 174.655C378.65 164.011 380.136 147.922 371.79 139.93C368.608 136.889 366.309 135.085 361.995 133.211C361.571 133.034 361.394 132.539 361.571 132.115C361.748 131.691 362.243 131.478 362.702 131.655C367.229 133.636 369.704 135.58 372.957 138.692C381.904 147.214 380.383 163.799 379.358 174.761L379.287 175.397C379.287 175.892 378.898 176.211 378.474 176.211Z" fill="#1D1D2E"/>
<path d="M305.947 182.399C305.876 182.399 305.806 182.399 305.735 182.364C305.275 182.258 304.992 181.798 305.134 181.338C306.018 178.014 307.609 174.089 312.418 173.241C312.878 173.17 313.302 173.453 313.408 173.912C313.479 174.372 313.161 174.796 312.737 174.903C309.696 175.433 307.927 177.484 306.796 181.763C306.654 182.152 306.301 182.399 305.947 182.399Z" fill="#1D1D2E"/>
<path d="M308.635 152.448C308.458 152.448 308.281 152.412 308.14 152.271C307.751 151.988 307.68 151.458 307.963 151.069C309.377 149.159 310.509 147.002 311.605 144.88C312.913 142.334 314.257 139.718 316.131 137.49C324.194 127.942 338.232 122.815 350.255 124.972C353.685 125.608 358.105 127.447 360.298 130.842C360.545 131.231 360.439 131.761 360.05 132.009C359.661 132.256 359.131 132.15 358.883 131.761C356.974 128.826 352.907 127.164 349.972 126.634C338.515 124.548 325.149 129.463 317.44 138.551C315.672 140.637 314.434 143.077 313.126 145.623C311.994 147.815 310.863 150.043 309.342 152.059C309.13 152.342 308.882 152.448 308.635 152.448Z" fill="#1D1D2E"/>
<path fill-rule="evenodd" clip-rule="evenodd" d="M328.154 174.16C328.543 173.029 329.498 172.357 330.311 172.64C331.089 172.922 331.407 174.054 331.018 175.186C330.629 176.317 329.675 176.989 328.861 176.706C328.083 176.423 327.765 175.292 328.154 174.16Z" fill="#1D1D2E"/>
<path fill-rule="evenodd" clip-rule="evenodd" d="M350.467 183.425C350.856 182.293 351.811 181.621 352.624 181.904C353.402 182.187 353.72 183.319 353.332 184.415C352.943 185.546 351.988 186.218 351.174 185.935C350.361 185.652 350.043 184.521 350.467 183.425Z" fill="#1D1D2E"/>
<path d="M314.929 174.337C314.823 174.337 314.752 174.301 314.646 174.301C314.186 174.16 313.974 173.665 314.116 173.241C315.07 170.376 318.288 168.75 320.198 167.795C323.062 166.345 326.139 165.709 329.109 165.107C331.125 164.683 333.211 164.259 335.156 163.587C341.839 161.288 347.179 156.479 351.67 152.165C351.988 151.847 352.554 151.847 352.872 152.2C353.19 152.554 353.19 153.085 352.836 153.403C348.24 157.858 342.723 162.774 335.722 165.213C333.671 165.921 331.514 166.38 329.463 166.805C326.457 167.441 323.628 168.042 320.94 169.351C318.642 170.482 316.379 171.791 315.707 173.806C315.601 174.125 315.283 174.337 314.929 174.337Z" fill="#1D1D2E"/>
<path d="M364.647 198.347C364.541 198.347 364.4 198.311 364.294 198.276C363.869 198.099 363.692 197.569 363.869 197.145C366.132 192.159 364.4 188.729 362.207 184.344C361.5 182.965 360.757 181.479 360.121 179.924C357.716 173.877 354.286 161.712 356.691 154.463C356.832 154.004 357.327 153.791 357.752 153.933C358.211 154.074 358.424 154.569 358.282 154.994C356.019 161.818 359.52 173.877 361.677 179.287C362.278 180.808 362.985 182.222 363.692 183.601C365.92 187.986 368.007 192.159 365.39 197.852C365.284 198.17 364.965 198.347 364.647 198.347Z" fill="#1D1D2E"/>
<path d="M337.384 201.141C333.176 201.141 328.402 199.549 325.714 195.695C325.431 195.306 325.537 194.776 325.926 194.528C326.315 194.245 326.846 194.351 327.093 194.74C329.887 198.736 335.297 199.903 339.47 199.302C339.93 199.231 340.354 199.549 340.425 200.009C340.495 200.469 340.177 200.893 339.717 200.964C338.975 201.07 338.197 201.141 337.384 201.141Z" fill="#1D1D2E"/>
<path d="M282.078 219.033C282.043 219.033 282.043 219.033 282.008 219.033C281.548 218.998 281.194 218.574 281.23 218.114C281.442 215.144 281.795 211.961 283.669 209.167C284.872 207.364 286.498 206.162 288.09 204.959C288.868 204.394 289.61 203.828 290.317 203.227C292.015 201.706 293.641 199.443 295.339 196.225C297.956 191.239 298.557 186.006 299.193 180.419C299.405 178.615 299.617 176.776 299.9 174.973C300.502 171.083 301.739 167.618 302.906 164.258C303.578 162.384 304.25 160.439 304.851 158.388C304.992 157.929 305.452 157.681 305.912 157.823C306.372 157.964 306.619 158.424 306.478 158.884C305.876 160.97 305.169 162.915 304.533 164.824C303.33 168.254 302.199 171.472 301.598 175.221C301.315 177.024 301.103 178.827 300.926 180.595C300.325 186.076 299.653 191.734 296.895 197.003C295.127 200.362 293.359 202.802 291.52 204.464C290.777 205.136 289.964 205.737 289.186 206.303C287.665 207.435 286.216 208.531 285.155 210.087C283.493 212.562 283.174 215.462 282.998 218.22C282.892 218.715 282.503 219.033 282.078 219.033Z" fill="#1D1D2E"/>
<path d="M305.169 304.219C304.816 304.219 304.497 304.007 304.356 303.653C302.057 297.076 304.568 291.772 307.326 287.458C308.14 286.22 309.024 285.089 309.943 284.028C311.923 281.623 313.797 279.325 314.01 276.036C314.257 272.5 312.666 269.494 310.969 266.312C309.2 262.952 307.397 259.487 307.786 255.385C308.246 250.788 309.943 246.545 311.605 242.443C313.408 237.916 315.283 233.249 315.459 228.157C315.601 223.842 314.646 219.599 313.762 215.497C312.913 211.607 311.994 207.612 311.994 203.474C311.994 203.015 312.383 202.626 312.843 202.626C313.302 202.626 313.691 203.015 313.691 203.474C313.691 207.399 314.575 211.325 315.389 215.108C316.343 219.316 317.298 223.666 317.157 228.192C316.98 233.567 315.035 238.411 313.196 243.044C311.534 247.252 309.943 251.177 309.519 255.526C309.165 259.169 310.792 262.245 312.524 265.498C314.222 268.752 316.025 272.146 315.742 276.142C315.495 279.996 313.373 282.578 311.322 285.089C310.473 286.149 309.589 287.21 308.847 288.377C305.24 294.035 304.427 298.42 306.053 303.087C306.195 303.512 305.983 304.007 305.523 304.148C305.346 304.184 305.275 304.219 305.169 304.219Z" fill="#1D1D2E"/>
<path d="M304.321 308.993C304.108 308.993 303.896 308.922 303.719 308.746C300.325 305.351 298.274 301.214 297.708 296.546C297.637 296.086 297.991 295.662 298.451 295.591C298.91 295.556 299.335 295.874 299.405 296.334C299.936 300.648 301.81 304.396 304.957 307.543C305.275 307.861 305.275 308.427 304.957 308.746C304.745 308.887 304.533 308.993 304.321 308.993Z" fill="#1D1D2E"/>
<path d="M290.459 256.411C290.282 256.411 290.07 256.34 289.893 256.198C289.539 255.88 289.504 255.35 289.822 254.996C292.793 251.495 291.201 248.914 289.186 245.661C288.125 243.928 287.029 242.16 286.605 240.144C286.251 238.518 286.569 234.946 286.569 234.557C287.17 227.556 289.928 222.216 292.863 216.558C294.172 213.977 295.551 211.325 296.753 208.46C298.097 205.172 298.91 201.6 299.688 198.135C300.006 196.791 300.289 195.447 300.608 194.104C300.714 193.644 301.173 193.396 301.633 193.503C302.093 193.609 302.376 194.068 302.234 194.528C301.916 195.836 301.598 197.18 301.315 198.488C300.537 201.989 299.688 205.631 298.309 209.062C297.107 211.997 295.728 214.684 294.384 217.301C291.52 222.817 288.832 228.015 288.266 234.663C288.16 235.936 288.019 238.624 288.231 239.755C288.585 241.488 289.61 243.15 290.6 244.741C292.616 247.995 294.879 251.672 291.06 256.092C290.919 256.304 290.671 256.411 290.459 256.411Z" fill="#1D1D2E"/>
<path d="M287.948 263.377C286.357 263.377 284.942 262.351 284.058 260.583C283.846 260.159 284.023 259.664 284.447 259.452C284.872 259.24 285.367 259.416 285.579 259.841C286.18 261.043 287.029 261.68 287.948 261.68C288.938 261.68 289.964 260.902 290.565 259.699C290.777 259.275 291.272 259.098 291.696 259.31C292.121 259.523 292.298 260.018 292.085 260.442C291.166 262.245 289.575 263.377 287.948 263.377Z" fill="#1D1D2E"/>
<path d="M293.465 288.766C293.253 288.766 293.076 288.696 292.899 288.554C292.545 288.236 292.51 287.705 292.828 287.352C293.005 287.175 293.182 286.998 293.359 286.821C293.677 286.503 293.96 286.185 294.207 285.867C295.41 284.099 294.243 282.755 291.52 280.315C289.999 278.936 288.408 277.521 288.019 275.859C287.064 271.616 289.292 267.479 291.343 264.791C291.626 264.402 292.156 264.332 292.545 264.614C292.934 264.897 293.005 265.428 292.722 265.817C291.237 267.797 288.832 271.722 289.681 275.506C289.929 276.637 291.308 277.875 292.651 279.077C294.95 281.128 297.779 283.674 295.622 286.857C295.304 287.316 294.95 287.67 294.561 288.059C294.419 288.201 294.243 288.377 294.101 288.554C293.924 288.66 293.712 288.766 293.465 288.766Z" fill="#1D1D2E"/>
<path d="M357.363 225.575C356.62 225.575 355.453 225.222 354.781 223.206C354.64 222.746 354.887 222.287 355.312 222.145C355.771 222.004 356.231 222.251 356.373 222.676C356.549 223.242 356.903 223.949 357.398 223.913C358.494 223.843 360.227 221.615 360.51 220.165C360.863 218.503 360.51 216.912 360.156 215.214C359.944 214.295 359.732 213.34 359.626 212.315C359.272 208.637 360.015 205.419 360.828 202.767C360.97 202.308 361.429 202.06 361.889 202.201C362.349 202.343 362.596 202.803 362.455 203.262C361.394 206.798 361.076 209.486 361.323 212.173C361.394 213.057 361.606 213.941 361.818 214.861C362.207 216.664 362.632 218.503 362.172 220.519C361.818 222.251 359.732 225.469 357.469 225.575C357.469 225.575 357.398 225.575 357.363 225.575Z" fill="#1D1D2E"/>
<path d="M356.726 288.342C356.408 288.342 356.125 288.165 355.984 287.882C355.701 287.316 355.382 286.821 355.1 286.362C354.463 285.336 353.897 284.381 353.614 282.896C352.907 279.219 353.756 275.683 356.196 272.005C356.726 271.227 357.327 270.484 357.929 269.777C359.202 268.257 360.368 266.842 360.722 264.968C361.429 260.866 359.555 257.401 357.54 253.758C355.948 250.823 354.286 247.818 354.039 244.388C353.544 238.023 354.958 233.107 358.53 228.51C358.813 228.121 359.343 228.086 359.732 228.369C360.086 228.652 360.156 229.182 359.873 229.571C356.549 233.85 355.276 238.376 355.701 244.282C355.948 247.358 357.433 250.081 358.989 252.981C361.04 256.729 363.127 260.583 362.313 265.286C361.924 267.585 360.51 269.282 359.166 270.873C358.565 271.581 358.035 272.253 357.54 272.96C355.347 276.248 354.605 279.325 355.206 282.578C355.418 283.78 355.878 284.523 356.479 285.478C356.797 285.973 357.115 286.503 357.433 287.14C357.646 287.564 357.469 288.059 357.044 288.271C356.974 288.307 356.868 288.342 356.726 288.342Z" fill="#1D1D2E"/>
<path d="M383.318 216.558C383.212 216.558 383.141 216.523 383.035 216.523C382.611 216.382 382.363 215.887 382.54 215.427C384.025 211.325 384.131 206.976 382.823 202.838C382.328 201.247 381.585 199.656 380.878 198.135C379.746 195.731 378.58 193.22 378.191 190.462C377.731 187.279 377.872 184.309 378.65 180.49C378.756 180.03 379.181 179.747 379.64 179.818C380.1 179.889 380.383 180.348 380.312 180.808C379.605 184.415 379.464 187.208 379.888 190.179C380.242 192.725 381.302 194.988 382.434 197.393C383.177 198.984 383.919 200.61 384.485 202.308C385.899 206.799 385.793 211.537 384.202 215.993C383.955 216.346 383.636 216.558 383.318 216.558Z" fill="#1D1D2E"/>
<path d="M369.456 291.807C369.28 291.807 369.103 291.737 368.961 291.631C365.319 288.908 366.062 282.649 367.37 279.396C368.289 277.097 370.729 275.258 372.71 273.773C373.028 273.561 373.311 273.313 373.594 273.101C374.478 272.429 375.362 271.793 376.21 271.156C379.888 268.54 382.752 266.453 383.99 261.715C385.44 256.163 383.389 251.319 381.267 246.156C380.206 243.68 379.145 241.099 378.509 238.447C376.812 231.445 378.261 224.408 379.64 217.619L380.1 215.391C380.206 214.932 380.666 214.649 381.09 214.719C381.55 214.825 381.833 215.25 381.762 215.71L381.302 217.937C379.959 224.55 378.544 231.375 380.171 238.023C380.772 240.533 381.833 243.044 382.858 245.484C385.015 250.647 387.243 256.022 385.652 262.104C384.273 267.443 380.843 269.883 377.236 272.5C376.387 273.101 375.538 273.702 374.654 274.41C374.372 274.622 374.089 274.834 373.77 275.081C371.967 276.425 369.739 278.122 368.997 279.961C367.759 282.967 367.264 288.165 370.022 290.216C370.411 290.499 370.482 291.029 370.199 291.418C369.951 291.666 369.704 291.807 369.456 291.807Z" fill="#1D1D2E"/>
<path d="M366.698 297.43C366.521 297.43 366.345 297.395 366.203 297.288C361.5 294 359.484 288.908 360.51 283.002C360.581 282.543 361.04 282.224 361.5 282.331C361.96 282.401 362.278 282.861 362.172 283.321C361.217 288.625 362.95 292.974 367.158 295.909C367.547 296.192 367.653 296.723 367.37 297.076C367.229 297.288 366.946 297.43 366.698 297.43Z" fill="#1D1D2E"/>
<path d="M350.326 229.147C350.149 229.147 350.008 229.112 349.866 229.005C348.204 227.909 347.815 226.212 347.497 224.09C346.684 219.175 347.851 213.694 349.124 208.991C349.265 208.531 349.725 208.248 350.149 208.39C350.609 208.496 350.856 208.956 350.75 209.415C349.548 213.941 348.416 219.21 349.159 223.807C349.513 225.894 349.831 226.919 350.821 227.591C351.21 227.839 351.316 228.369 351.068 228.758C350.856 229.005 350.609 229.147 350.326 229.147Z" fill="#1D1D2E"/>
<path d="M320.552 263.377C316.556 257.542 312.418 251.531 311.287 244.352C311.216 243.893 311.534 243.468 311.994 243.398C312.454 243.327 312.878 243.645 312.949 244.105C314.045 250.93 318.041 256.764 321.931 262.457L320.552 263.377Z" fill="#1D1D2E"/>
<path d="M322.178 265.428C322.072 265.428 321.931 265.392 321.824 265.357C321.4 265.18 321.223 264.65 321.4 264.225C323.38 259.841 326.351 255.491 329.781 251.99C331.902 249.798 334.307 247.853 336.606 245.943C338.621 244.317 340.672 242.62 342.511 240.781C344.138 239.189 345.411 237.032 346.613 234.946L347.073 234.168C349.76 229.571 352.306 224.444 348.063 221.686C347.674 221.438 347.568 220.908 347.815 220.519C348.063 220.13 348.593 220.024 348.982 220.271C354.887 224.161 350.573 231.516 348.522 235.052L348.098 235.795C346.896 237.881 345.481 240.25 343.713 242.018C341.804 243.893 339.717 245.59 337.702 247.252C335.403 249.126 333.069 251.071 330.983 253.193C327.694 256.552 324.83 260.725 322.921 264.933C322.815 265.251 322.496 265.428 322.178 265.428Z" fill="#1D1D2E"/>
<path d="M356.337 221.544C356.196 221.544 356.09 221.509 355.948 221.473C354.463 220.731 353.332 219.493 352.235 218.291C351.245 217.194 350.326 216.169 349.194 215.639C348.77 215.426 348.628 214.931 348.805 214.507C349.017 214.083 349.512 213.941 349.937 214.118C351.351 214.825 352.412 215.992 353.473 217.159C354.498 218.291 355.453 219.352 356.691 219.953C357.115 220.165 357.257 220.66 357.044 221.084C356.938 221.367 356.656 221.544 356.337 221.544Z" fill="#1D1D2E"/>
<path d="M349.831 265.251C349.76 265.251 349.725 265.251 349.654 265.216C347.85 264.827 345.764 264.367 343.784 263.518C342.617 263.059 341.379 262.245 340.036 261.397C335.191 258.32 331.584 256.481 328.826 260.583C328.579 260.972 328.048 261.078 327.659 260.831C327.27 260.583 327.164 260.053 327.412 259.664C331.266 253.865 336.853 257.401 340.92 259.982C342.193 260.795 343.395 261.538 344.42 261.962C345.764 262.528 347.214 262.952 348.593 263.235C348.169 262.174 347.638 260.654 347.78 259.204C348.063 256.481 349.017 253.9 349.937 251.354C350.467 249.904 351.033 248.384 351.422 246.898C351.563 246.439 351.988 246.191 352.447 246.297C352.907 246.439 353.19 246.898 353.049 247.323C352.624 248.879 352.058 250.434 351.493 251.955C350.609 254.36 349.689 256.87 349.442 259.381C349.3 260.689 349.972 262.21 350.361 263.129C350.715 263.943 350.927 264.438 350.538 264.897C350.396 265.145 350.114 265.251 349.831 265.251Z" fill="#1D1D2E"/>
<path d="M311.534 262.811C311.393 262.811 311.287 262.776 311.145 262.74C310.721 262.528 310.544 262.033 310.756 261.609C311.357 260.407 312.56 259.558 313.974 259.31C315.318 259.098 316.591 259.487 317.475 260.371C317.793 260.689 317.793 261.255 317.475 261.573C317.157 261.892 316.591 261.892 316.273 261.573C315.778 261.078 315.035 260.831 314.257 260.972C313.408 261.114 312.63 261.644 312.277 262.351C312.135 262.634 311.853 262.811 311.534 262.811Z" fill="#1D1D2E"/>
<path d="M325.361 416.067C324.972 416.067 324.618 415.784 324.547 415.36C321.011 395.522 318.501 331.023 318.041 316.1C317.369 293.575 318.076 277.875 320.127 268.08C320.233 267.62 320.658 267.337 321.117 267.408C321.577 267.514 321.86 267.938 321.789 268.398C319.774 278.052 319.102 293.646 319.738 316.03C320.163 330.917 322.709 395.275 326.209 415.006C326.28 415.466 325.997 415.89 325.537 415.997C325.467 416.067 325.431 416.067 325.361 416.067Z" fill="#1D1D2E"/>
<path d="M298.38 421.902C294.278 421.902 290.141 421.407 285.438 420.24C284.943 420.134 284.412 420.028 283.811 419.922C283.351 419.851 283.033 419.391 283.139 418.932C283.21 418.472 283.634 418.154 284.129 418.26C284.766 418.366 285.367 418.472 285.862 418.613C296.683 421.265 304.533 420.381 316.096 417.729L321.789 416.421C331.443 414.229 341.379 411.93 351.033 409.101C351.493 408.96 351.953 409.207 352.094 409.667C352.235 410.127 351.988 410.586 351.528 410.728C341.839 413.592 331.832 415.855 322.143 418.083L316.45 419.391C309.59 420.947 304.038 421.902 298.38 421.902Z" fill="#1D1D2E"/>
<path d="M224.828 321.971C224.757 321.971 224.651 321.971 224.581 321.936C224.121 321.794 223.909 321.335 224.015 320.875C226.914 311.752 229.284 302.31 231.617 293.222C234.941 280.103 238.407 266.524 243.393 253.511C248.061 241.276 253.329 227.556 265.211 220.59C268.358 218.751 271.894 218.645 275.324 218.539H275.713C278.79 218.433 281.937 218.15 284.943 217.832C286.781 217.655 288.62 217.478 290.494 217.337C290.989 217.301 291.378 217.655 291.414 218.115C291.449 218.574 291.095 218.999 290.636 219.034C288.797 219.175 286.958 219.352 285.155 219.529C282.114 219.847 278.931 220.165 275.784 220.236H275.395C272.177 220.307 268.853 220.413 266.095 222.04C254.744 228.723 249.581 242.16 245.055 254.006C240.069 267.055 236.603 280.563 233.279 293.647C230.946 302.77 228.576 312.211 225.677 321.405C225.5 321.724 225.182 321.971 224.828 321.971Z" fill="#1D1D2E"/>
<path d="M221.257 446.302C217.756 446.302 213.442 444.604 208.385 441.245C208.137 441.068 207.89 440.927 207.607 440.75C206.086 439.795 204.212 438.628 203.682 436.613C203.364 435.375 204 433.572 204.531 432.122C204.672 431.733 204.813 431.344 204.884 431.061C205.415 429.257 205.839 427.383 206.263 425.58C206.688 423.741 207.112 421.867 207.642 420.028C209.799 412.461 210.79 404.434 211.744 396.69C211.956 395.063 212.133 393.436 212.345 391.81C212.734 388.663 212.876 385.374 213.017 382.262C213.088 380.317 213.194 378.302 213.336 376.321C213.406 375.261 213.477 374.2 213.548 373.139C213.972 367.057 214.361 361.328 215.705 355.317C216.766 350.508 218.039 345.628 219.276 340.96C220.266 337.141 221.292 333.216 222.211 329.326C222.317 328.866 222.777 328.583 223.237 328.69C223.696 328.796 223.979 329.255 223.873 329.715C222.954 333.64 221.928 337.565 220.938 341.384C219.701 346.052 218.463 350.897 217.402 355.67C216.094 361.54 215.705 367.233 215.28 373.245C215.21 374.306 215.139 375.367 215.068 376.427C214.927 378.372 214.856 380.388 214.75 382.333C214.609 385.515 214.467 388.804 214.078 392.057C213.866 393.684 213.689 395.31 213.477 396.937C212.522 404.752 211.532 412.85 209.34 420.559C208.845 422.362 208.385 424.236 207.961 426.04C207.536 427.878 207.112 429.753 206.582 431.591C206.511 431.91 206.334 432.299 206.193 432.758C205.804 433.854 205.238 435.516 205.415 436.259C205.768 437.603 207.253 438.558 208.562 439.371C208.845 439.548 209.128 439.724 209.375 439.901C215.988 444.321 221.08 445.701 224.474 444.003C224.899 443.791 225.394 443.968 225.606 444.392C225.818 444.816 225.641 445.312 225.217 445.524C224.015 445.983 222.706 446.302 221.257 446.302Z" fill="#1D1D2E"/>
<path d="M227.622 444.321C227.48 444.321 227.303 444.286 227.162 444.18C226.773 443.932 226.667 443.402 226.914 443.013C229.001 439.866 228.895 435.481 228.788 431.238C228.753 429.01 228.682 426.924 228.93 424.943C229.637 419.427 230.769 413.805 231.9 408.359C232.431 405.777 232.961 403.161 233.456 400.615C234.199 396.583 235.436 392.552 236.603 388.698C237.593 385.48 238.584 382.156 239.326 378.867C245.408 351.533 253.011 326.426 262.629 302.133C262.806 301.709 263.301 301.497 263.726 301.673C264.15 301.85 264.362 302.345 264.185 302.77C254.602 326.992 247 351.993 240.953 379.221C240.21 382.58 239.185 385.94 238.195 389.193C237.028 393.012 235.825 396.972 235.083 400.933C234.588 403.514 234.057 406.131 233.527 408.712C232.431 414.123 231.264 419.71 230.592 425.156C230.38 426.994 230.415 429.01 230.486 431.167C230.592 435.658 230.733 440.29 228.329 443.897C228.152 444.18 227.904 444.321 227.622 444.321Z" fill="#1D1D2E"/>
<path d="M223.449 478.233C222.883 478.233 222.247 477.95 221.539 477.349C219.524 475.616 218.923 474.272 218.145 471.797C218.003 471.337 218.251 470.878 218.71 470.736C219.17 470.595 219.63 470.842 219.771 471.302C220.479 473.565 220.938 474.591 222.636 476.076C223.343 476.677 223.449 476.571 223.555 476.465C223.979 476.04 223.59 473.494 223.414 472.434C223.272 471.479 223.131 470.63 223.166 470.064C223.272 467.943 223.838 465.927 224.404 463.947C224.722 462.851 225.005 461.825 225.252 460.764C226.172 456.521 225.96 452.101 225.783 447.857L225.712 446.16C225.677 445.7 226.066 445.311 226.525 445.276C226.985 445.276 227.374 445.63 227.409 446.089L227.48 447.787C227.692 452.171 227.869 456.662 226.914 461.118C226.667 462.214 226.349 463.346 226.066 464.407C225.5 466.281 224.969 468.226 224.863 470.135C224.828 470.524 224.969 471.337 225.111 472.151C225.464 474.343 225.818 476.606 224.793 477.632C224.368 478.021 223.944 478.233 223.449 478.233Z" fill="#1D1D2E"/>
<path d="M199.509 483.573C199.156 483.573 198.802 483.325 198.696 482.972C198.555 482.512 198.837 482.052 199.262 481.911C204.99 480.284 208.244 476.571 212.027 472.292C212.558 471.691 213.088 471.055 213.654 470.454C214.396 469.64 215.21 468.862 215.988 468.12C217.225 466.953 218.357 465.821 219.312 464.513C219.595 464.124 220.125 464.053 220.479 464.336C220.868 464.619 220.938 465.149 220.655 465.538C219.595 466.953 218.357 468.155 217.119 469.357C216.377 470.1 215.599 470.843 214.892 471.621C214.326 472.222 213.795 472.858 213.265 473.459C209.481 477.773 205.91 481.84 199.721 483.608C199.686 483.573 199.615 483.573 199.509 483.573Z" fill="#1D1D2E"/>
<path d="M191.907 479.365C191.588 479.365 191.305 479.188 191.129 478.905C190.916 478.481 191.093 477.985 191.518 477.773C197.812 474.697 203.293 469.746 208.597 464.937C209.481 464.159 210.33 463.346 211.214 462.603C211.568 462.285 212.098 462.32 212.416 462.674C212.735 463.028 212.699 463.558 212.346 463.876C211.497 464.654 210.613 465.432 209.764 466.21C204.354 471.09 198.802 476.111 192.296 479.294C192.154 479.329 192.013 479.365 191.907 479.365Z" fill="#1D1D2E"/>
<path d="M190.351 474.732C190.103 474.732 189.891 474.626 189.714 474.449C189.396 474.096 189.431 473.565 189.785 473.247C190.598 472.504 191.447 471.762 192.26 471.019C195.761 467.907 199.368 464.725 202.444 460.941C202.727 460.588 203.258 460.517 203.647 460.835C204 461.118 204.071 461.648 203.788 462.037C200.605 465.927 196.963 469.18 193.392 472.328C192.578 473.07 191.73 473.777 190.916 474.52C190.74 474.661 190.527 474.732 190.351 474.732Z" fill="#1D1D2E"/>
<path d="M189.361 470.418C189.148 470.418 188.972 470.347 188.795 470.206C188.441 469.888 188.406 469.357 188.724 469.004C189.29 468.367 189.891 467.695 190.457 467.059C192.826 464.442 195.266 461.719 197.388 458.819C197.67 458.43 198.201 458.36 198.554 458.643C198.943 458.926 199.014 459.456 198.731 459.845C196.539 462.815 194.064 465.573 191.694 468.226C191.129 468.862 190.527 469.499 189.962 470.135C189.82 470.347 189.608 470.418 189.361 470.418Z" fill="#1D1D2E"/>
<path d="M190.068 468.509C189.962 468.509 189.856 468.473 189.75 468.438C189.325 468.261 189.113 467.766 189.29 467.342C193.392 457.334 198.661 449.272 205.839 439.477C206.122 439.088 206.652 439.017 207.041 439.3C207.43 439.583 207.501 440.113 207.218 440.467C200.11 450.156 194.912 458.148 190.881 467.978C190.704 468.296 190.386 468.509 190.068 468.509Z" fill="#1D1D2E"/>
<path d="M428.651 336.823C428.298 336.823 427.944 336.575 427.838 336.222C427.272 334.277 426.53 332.296 425.787 330.422C424.974 328.301 424.125 326.144 423.524 323.88C421.968 318.01 420.447 312.14 418.927 306.27C414.613 289.58 410.157 272.323 404.606 255.598C403.969 253.723 403.368 251.814 402.767 249.904C399.867 240.781 396.861 231.34 391.062 223.595C390.249 222.499 389.153 221.686 387.95 220.837C386.783 219.989 385.581 219.14 384.626 217.938C384.343 217.549 384.379 217.054 384.768 216.735C385.121 216.452 385.652 216.488 385.97 216.877C386.783 217.867 387.844 218.645 388.94 219.458C390.178 220.342 391.451 221.262 392.406 222.57C398.382 230.562 401.423 240.109 404.358 249.374C404.959 251.283 405.56 253.158 406.161 255.032C411.749 271.828 416.239 289.085 420.554 305.811C422.074 311.681 423.559 317.551 425.151 323.421C425.716 325.578 426.53 327.699 427.343 329.75C428.086 331.66 428.864 333.676 429.429 335.691C429.535 336.151 429.288 336.611 428.864 336.752C428.828 336.787 428.757 336.823 428.651 336.823Z" fill="#1D1D2E"/>
<path d="M402.484 339.722C402.13 339.722 401.777 339.474 401.671 339.121C400.15 333.817 397.922 328.724 395.765 323.774C394.457 320.804 393.113 317.692 391.911 314.58C390.921 311.963 389.966 309.311 389.047 306.659C387.102 301.213 385.086 295.555 382.575 290.216C382.363 289.792 382.575 289.296 383 289.084C383.424 288.872 383.919 289.049 384.131 289.473C386.677 294.884 388.693 300.577 390.673 306.058C391.628 308.675 392.547 311.327 393.537 313.943C394.704 317.02 396.048 320.096 397.356 323.067C399.549 328.053 401.812 333.215 403.333 338.626C403.474 339.085 403.191 339.545 402.767 339.687C402.661 339.722 402.59 339.722 402.484 339.722Z" fill="#1D1D2E"/>
<path d="M439.649 440.007C435.405 440.007 431.197 438.734 428.757 435.481C428.015 434.491 427.803 432.723 427.626 431.131C427.555 430.566 427.52 430.07 427.414 429.681C426.388 424.554 414.754 385.48 409.874 370.027C409.379 368.435 408.778 366.738 408.212 365.041C406.055 358.746 403.615 351.639 403.615 345.38C403.615 344.92 404.004 344.531 404.464 344.531C404.924 344.531 405.313 344.92 405.313 345.38C405.313 351.391 407.717 358.357 409.839 364.51C410.44 366.243 411.006 367.94 411.536 369.532C416.063 383.853 428.015 423.741 429.146 429.363C429.217 429.788 429.288 430.353 429.359 430.99C429.5 432.228 429.677 433.89 430.172 434.491C434.168 439.83 444.14 438.946 448.984 436.011C449.373 435.764 449.904 435.905 450.151 436.294C450.399 436.683 450.257 437.213 449.868 437.461C447.216 439.017 443.432 440.007 439.649 440.007Z" fill="#1D1D2E"/>
<path d="M450.54 432.9C450.08 432.9 449.691 432.511 449.691 432.051C449.691 423.317 437.138 361.152 429.818 339.157C429.677 338.697 429.924 338.237 430.349 338.096C430.808 337.954 431.268 338.202 431.41 338.626C438.977 361.399 451.389 422.999 451.389 432.051C451.389 432.511 451 432.9 450.54 432.9Z" fill="#1D1D2E"/>
<path d="M459.451 483.856C454.218 483.856 451.46 477.95 449.409 473.636C449.02 472.858 448.701 472.116 448.348 471.444C447.959 470.666 447.464 469.959 446.969 469.181C446.615 468.615 446.226 468.049 445.872 467.483C445.731 467.236 445.589 466.988 445.448 466.705C444.741 465.432 443.645 463.487 442.584 462.957C442.018 462.957 440.639 465.185 440.108 466.705C439.932 467.236 439.755 467.766 439.578 468.332C438.34 472.186 436.82 476.96 431.586 478.092C429.323 478.587 427.378 477.844 426.742 477.208C426.105 476.536 425.858 475.829 425.964 475.121C426.176 473.813 427.591 473 428.97 472.222C429.712 471.797 430.49 471.338 430.808 470.949C432.011 469.357 432.258 466.599 432.364 464.407C432.541 460.128 431.657 456.274 430.702 452.172C430.207 450.085 429.712 447.928 429.359 445.701C429.005 443.473 429.076 441.28 429.146 439.194C429.182 438.31 429.217 437.391 429.217 436.507C429.217 436.047 429.606 435.658 430.066 435.658C430.526 435.658 430.915 436.047 430.915 436.507C430.915 437.426 430.879 438.345 430.844 439.265C430.773 441.387 430.702 443.402 431.021 445.453C431.374 447.61 431.869 449.732 432.329 451.783C433.248 455.814 434.239 459.951 434.026 464.478C433.92 466.917 433.602 469.994 432.117 471.974C431.622 472.646 430.702 473.176 429.783 473.707C428.899 474.202 427.697 474.874 427.626 475.404C427.591 475.616 427.838 475.935 427.98 476.076C428.121 476.218 429.394 476.854 431.197 476.465C435.512 475.51 436.785 471.444 437.951 467.837C438.128 467.271 438.305 466.705 438.517 466.175C438.517 466.14 440.002 462.214 441.877 461.436C442.372 461.224 442.867 461.26 443.326 461.472C444.847 462.25 446.049 464.371 446.898 465.892C447.039 466.175 447.181 466.422 447.322 466.635C447.64 467.2 447.994 467.731 448.348 468.261C448.843 469.039 449.373 469.852 449.833 470.701C450.186 471.373 450.54 472.151 450.894 472.929C452.839 477.066 455.243 482.194 459.416 482.194C459.876 482.194 460.265 482.583 460.265 483.042C460.3 483.467 459.911 483.856 459.451 483.856Z" fill="#1D1D2E"/>
<path d="M460.724 483.537C460.335 483.537 459.982 483.254 459.911 482.865C459.805 482.405 460.123 481.946 460.583 481.875C460.866 481.804 460.936 481.734 460.936 481.734C460.936 481.345 459.769 480.036 459.38 479.612C459.098 479.294 458.85 479.011 458.709 478.834C455.526 474.378 453.864 469.251 452.308 464.265C451.99 463.24 451.672 462.249 451.318 461.224C451.177 460.764 451.424 460.305 451.848 460.163C452.273 460.022 452.768 460.269 452.909 460.694C453.263 461.719 453.581 462.745 453.899 463.735C455.526 468.791 457.047 473.565 460.088 477.844C460.194 477.985 460.406 478.233 460.618 478.48C461.644 479.612 462.917 481.062 462.492 482.335C462.351 482.759 461.962 483.325 460.901 483.537C460.83 483.537 460.76 483.537 460.724 483.537Z" fill="#1D1D2E"/>
<path d="M477.45 481.239C469.211 481.239 463.093 474.272 458.178 468.685C457.612 468.049 457.047 467.412 456.516 466.811C456.092 466.351 455.703 465.892 455.279 465.467C454.112 464.194 452.874 462.886 451.813 461.471C451.53 461.082 451.601 460.587 451.955 460.269C452.344 459.986 452.839 460.057 453.157 460.411C454.182 461.754 455.385 463.063 456.516 464.3C456.94 464.76 457.365 465.184 457.754 465.679C458.32 466.281 458.85 466.917 459.416 467.554C464.366 473.141 469.953 479.506 477.45 479.506C477.91 479.506 478.299 479.895 478.299 480.354C478.299 480.85 477.91 481.239 477.45 481.239Z" fill="#1D1D2E"/>
<path d="M478.087 480.001C477.627 480.001 477.238 479.612 477.238 479.152C477.238 477.42 475.152 475.97 473.313 474.697C472.606 474.202 471.934 473.742 471.403 473.283C466.524 469.11 463.058 464.371 459.345 458.537C459.098 458.148 459.204 457.617 459.628 457.37C460.017 457.122 460.547 457.228 460.795 457.617C464.402 463.346 467.797 467.978 472.5 471.974C472.995 472.398 473.631 472.823 474.303 473.318C476.46 474.838 478.935 476.536 478.935 479.152C478.935 479.648 478.582 480.001 478.087 480.001Z" fill="#1D1D2E"/>
<path d="M479.501 479.188C479.183 479.188 478.9 479.011 478.759 478.728C478.546 478.304 478.723 477.808 479.148 477.596C479.218 477.561 479.395 477.455 479.395 477.384C479.43 477.137 479.218 476.394 476.778 474.414L476.602 474.272C470.413 469.251 465.321 462.745 461.538 454.859C461.325 454.435 461.502 453.94 461.927 453.727C462.351 453.515 462.846 453.692 463.058 454.116C466.736 461.754 471.651 468.084 477.662 472.929L477.804 473.07C479.501 474.414 481.199 476.005 481.057 477.526C481.022 477.985 480.774 478.622 479.855 479.082C479.784 479.152 479.643 479.188 479.501 479.188Z" fill="#1D1D2E"/>
<path d="M466.665 461.755C466.276 461.755 465.922 461.472 465.852 461.083C464.508 455.248 461.856 451.358 458.32 447.327C457.612 446.514 456.834 445.701 456.092 444.923C454.006 442.766 451.848 440.502 450.469 437.744C450.257 437.32 450.434 436.825 450.858 436.613C451.283 436.4 451.778 436.577 451.99 437.002C453.263 439.512 455.314 441.669 457.329 443.756C458.107 444.569 458.885 445.382 459.628 446.231C463.341 450.474 466.134 454.541 467.549 460.729C467.655 461.189 467.372 461.649 466.912 461.755C466.806 461.755 466.736 461.755 466.665 461.755Z" fill="#1D1D2E"/>
<path d="M282.573 480.426C282.22 480.426 281.901 480.178 281.76 479.86C281.406 478.799 279.461 472.717 279.179 471.267C279.072 470.807 279.391 470.348 279.815 470.277C280.275 470.171 280.734 470.489 280.805 470.913C281.088 472.186 282.927 478.021 283.351 479.294C283.493 479.754 283.245 480.213 282.821 480.355C282.75 480.426 282.644 480.426 282.573 480.426Z" fill="#1D1D2E"/>
<path d="M384.167 461.79C384.025 461.79 383.919 461.754 383.778 461.719C381.904 460.8 379.994 459.88 378.085 458.996C373.134 456.662 367.971 454.293 363.304 451.287C362.49 450.757 361.606 450.262 360.722 449.731C357.646 447.963 354.216 445.948 352.412 442.977C350.927 440.537 351.281 436.223 351.564 432.758C351.67 431.556 351.776 430.424 351.776 429.575C351.776 421.124 351.175 412.071 349.972 401.923C349.477 397.679 348.911 393.436 348.346 389.228C346.79 377.594 345.198 365.536 344.774 353.584C343.501 317.939 348.416 282.436 353.084 251.955C353.155 251.495 353.579 251.177 354.039 251.248C354.499 251.318 354.817 251.743 354.746 252.202C350.078 282.613 345.198 318.045 346.436 353.513C346.86 365.394 348.452 377.382 349.972 388.98C350.538 393.224 351.104 397.467 351.599 401.711C352.837 411.93 353.438 421.053 353.438 429.575C353.438 430.53 353.332 431.697 353.226 432.899C352.943 436.117 352.624 440.113 353.827 442.093C355.418 444.71 358.671 446.584 361.535 448.282C362.455 448.812 363.374 449.342 364.188 449.873C368.749 452.808 373.841 455.177 378.756 457.476C380.666 458.36 382.611 459.279 384.485 460.198C384.909 460.411 385.086 460.906 384.874 461.33C384.768 461.613 384.485 461.79 384.167 461.79Z" fill="#1D1D2E"/>
<path d="M277.092 474.52C276.88 474.52 276.668 474.449 276.491 474.272C276.173 473.954 276.173 473.388 276.491 473.07C284.801 464.725 283.74 451.959 282.786 440.679C282.679 439.3 282.573 437.921 282.467 436.613C282.184 432.723 282.29 428.762 282.361 424.943C282.467 420.947 282.538 416.775 282.22 412.744C280.275 389.228 281.3 364.9 282.326 341.384C282.573 335.938 282.786 330.564 282.998 325.189C283.104 322.077 283.174 318.93 283.281 315.818C283.705 300.294 284.129 284.205 288.231 269.211C288.373 268.752 288.832 268.504 289.257 268.61C289.716 268.752 289.964 269.211 289.858 269.636C285.827 284.452 285.402 300.4 284.978 315.853C284.907 319 284.801 322.148 284.695 325.259C284.483 330.634 284.271 336.045 284.023 341.49C282.998 364.935 281.972 389.228 283.917 412.637C284.271 416.775 284.165 420.983 284.059 425.014C283.988 428.798 283.882 432.687 284.165 436.506C284.271 437.815 284.377 439.159 284.483 440.538C285.473 452.172 286.569 465.361 277.693 474.272C277.517 474.449 277.304 474.52 277.092 474.52Z" fill="#1D1D2E"/>
<path d="M272.142 476.323C271.399 476.323 264.963 476.253 263.62 473.53C262.559 471.408 262.594 468.791 262.594 466.245C262.594 464.937 262.629 463.699 262.488 462.603C261.639 455.743 261.922 448.565 262.205 441.634C262.347 438.239 262.488 434.738 262.488 431.344C262.488 417.694 263.549 403.832 264.539 390.466C265.847 373.528 267.156 356.024 266.378 338.732C266.024 330.846 265.034 322.855 264.115 315.075C262.912 305.209 261.71 294.99 261.71 284.947C261.71 284.488 262.099 284.099 262.559 284.099C263.018 284.099 263.407 284.488 263.407 284.947C263.407 294.884 264.645 305.033 265.812 314.863C266.731 322.643 267.721 330.705 268.075 338.626C268.853 356.024 267.545 373.563 266.236 390.572C265.211 403.939 264.185 417.73 264.185 431.344C264.185 434.738 264.044 438.275 263.902 441.669C263.62 448.529 263.337 455.637 264.185 462.356C264.327 463.558 264.327 464.937 264.291 466.21C264.256 468.544 264.256 470.949 265.14 472.717C265.777 473.99 269.702 474.591 272.177 474.591C272.637 474.591 273.026 474.98 273.026 475.439C272.99 475.97 272.637 476.323 272.142 476.323Z" fill="#1D1D2E"/>
<path d="M404.358 451.889C403.934 451.889 403.545 451.535 403.509 451.111C402.802 440.538 401.671 428.126 398.524 416.032C395.977 406.449 392.194 396.866 388.516 387.637C382.682 372.927 376.635 357.721 375.397 341.667C374.513 329.963 377.236 318.47 379.853 307.402C380.737 303.689 381.656 299.835 382.399 296.051C382.505 295.591 382.929 295.308 383.389 295.379C383.848 295.45 384.131 295.909 384.061 296.369C383.283 300.188 382.363 304.043 381.479 307.791C378.863 318.753 376.175 330.104 377.059 341.561C378.261 357.332 384.273 372.432 390.072 387.036C393.75 396.336 397.569 405.919 400.115 415.608C403.333 427.808 404.464 440.361 405.171 451.005C405.207 451.464 404.853 451.889 404.393 451.889H404.358Z" fill="#1D1D2E"/>
<path d="M193.392 492.731C192.967 492.731 192.614 492.448 192.543 492.024L176.312 404.221C176.241 403.762 176.524 403.337 176.984 403.231C177.444 403.125 177.868 403.443 177.974 403.903L194.205 491.706C194.276 492.165 193.993 492.59 193.533 492.696C193.462 492.731 193.427 492.731 193.392 492.731Z" fill="#1D1D2E"/>
<path d="M170.796 399.236C170.76 399.236 170.76 399.236 170.725 399.236L63.7919 392.057C63.3322 392.022 62.9786 391.633 63.014 391.138C63.0493 390.678 63.4383 390.325 63.898 390.36L170.831 397.538C171.291 397.574 171.644 397.963 171.609 398.422C171.609 398.882 171.22 399.236 170.796 399.236Z" fill="#1D1D2E"/>
<path d="M77.9366 480.637C77.5476 480.637 77.194 480.355 77.1233 479.966L77.0172 479.577C76.4514 477.172 63.4738 420.594 59.2657 400.756C59.1597 400.296 59.4425 399.837 59.9022 399.766C60.3619 399.66 60.7863 399.978 60.8924 400.402C65.1004 420.205 78.1134 476.783 78.6438 479.188L78.7145 479.577C78.8206 480.036 78.5377 480.496 78.078 480.602C78.078 480.637 78.0073 480.637 77.9366 480.637Z" fill="#1D1D2E"/>
<path d="M188.512 499.591C188.476 499.591 188.441 499.591 188.406 499.591L85.61 487.073C85.1503 487.038 84.8321 486.614 84.8674 486.119C84.9381 485.659 85.3625 485.341 85.8222 485.376L188.618 497.894C189.078 497.929 189.396 498.354 189.36 498.849C189.325 499.273 188.936 499.591 188.512 499.591Z" fill="#1D1D2E"/>
<path d="M194.488 499.556C194.099 499.556 193.745 499.273 193.674 498.884C193.568 498.424 193.887 498 194.346 497.894L231.087 490.397C231.547 490.291 231.971 490.609 232.077 491.069C232.148 491.529 231.865 491.953 231.405 492.059L194.665 499.556C194.594 499.556 194.523 499.556 194.488 499.556Z" fill="#1D1D2E"/>
<path d="M195.054 494.287C194.629 494.287 194.276 494.004 194.205 493.58C194.134 493.12 194.453 492.696 194.912 492.625L233.775 487.144C234.234 487.073 234.659 487.392 234.729 487.851C234.8 488.311 234.482 488.735 234.022 488.806L195.16 494.287C195.124 494.287 195.089 494.287 195.054 494.287Z" fill="#1D1D2E"/>
<path d="M233.845 488.771C233.81 488.771 233.774 488.771 233.704 488.771L199.969 483.714C199.509 483.643 199.191 483.219 199.262 482.759C199.332 482.3 199.757 481.981 200.216 482.052L233.951 487.109C234.411 487.179 234.729 487.604 234.658 488.064C234.588 488.452 234.234 488.771 233.845 488.771Z" fill="#1D1D2E"/>
<path d="M194.983 482.936C194.948 482.936 194.912 482.936 194.877 482.936L192.083 482.512C191.624 482.441 191.305 482.017 191.376 481.557C191.447 481.097 191.871 480.779 192.331 480.85L195.089 481.274C195.549 481.345 195.902 481.769 195.832 482.229C195.761 482.618 195.407 482.936 194.983 482.936Z" fill="#1D1D2E"/>
<path d="M231.299 492.059C230.946 492.059 230.627 491.847 230.486 491.493C230.344 491.034 230.592 490.574 231.016 490.433C231.865 490.15 233.244 488.735 233.244 487.957C233.244 487.498 233.633 487.109 234.093 487.109C234.552 487.109 234.941 487.498 234.941 487.957C234.941 489.69 232.926 491.599 231.547 492.059C231.476 492.024 231.405 492.059 231.299 492.059Z" fill="#1D1D2E"/>
<path d="M176.595 402.63C176.277 402.63 175.994 402.453 175.852 402.17C175.216 400.933 174.014 399.801 172.635 399.129C172.21 398.917 172.033 398.422 172.246 397.998C172.458 397.573 172.953 397.397 173.377 397.609C175.075 398.457 176.524 399.801 177.338 401.357C177.55 401.781 177.408 402.276 176.984 402.489C176.878 402.595 176.737 402.63 176.595 402.63Z" fill="#1D1D2E"/>
<path d="M59.8315 397.821C59.4072 397.821 59.0182 397.468 58.9829 397.043C58.8414 395.063 59.4425 393.26 60.7863 391.598C61.0692 391.244 61.5996 391.173 61.9886 391.492C62.3422 391.775 62.4129 392.305 62.13 392.694C61.0338 394.038 60.5741 395.417 60.6802 396.973C60.7156 397.432 60.3619 397.857 59.9022 397.892C59.8669 397.821 59.8315 397.821 59.8315 397.821Z" fill="#1D1D2E"/>
<path d="M83.3822 487.003C81.2605 487.003 78.9973 484.244 78.4316 483.042C78.2548 482.618 78.3962 482.123 78.8205 481.911C79.2449 481.698 79.7399 481.875 79.9521 482.3C80.5179 483.502 82.4981 485.447 83.4883 485.305C83.9479 485.235 84.3723 485.553 84.443 486.048C84.5137 486.508 84.1601 486.932 83.7004 487.003C83.5943 487.003 83.4882 487.003 83.3822 487.003Z" fill="#1D1D2E"/>
<path d="M404.57 460.729C397.144 460.729 383.106 459.704 383.106 455.779C383.106 451.854 397.144 450.828 404.57 450.828C411.996 450.828 426.035 451.854 426.035 455.779C426.035 459.668 411.996 460.729 404.57 460.729ZM404.57 452.49C391.982 452.49 384.909 454.647 384.803 455.743C384.909 456.84 392.017 459.032 404.57 459.032C417.159 459.032 424.231 456.875 424.337 455.743C424.231 454.647 417.159 452.49 404.57 452.49Z" fill="#1D1D2E"/>
<path d="M404.146 512.251C398.559 512.251 389.082 511.367 388.799 508.113C388.764 507.654 389.117 507.3 389.542 507.229C390.001 507.159 390.426 507.512 390.496 507.972C390.603 508.679 394.952 510.553 404.146 510.553C412.208 510.553 416.947 509.103 417.725 508.078C418.008 507.724 418.538 507.654 418.927 507.936C419.281 508.219 419.351 508.75 419.068 509.139C417.371 511.296 410.334 512.251 404.146 512.251Z" fill="#1D1D2E"/>
<path d="M418.609 508.927C418.573 508.927 418.538 508.927 418.503 508.927C418.043 508.856 417.725 508.432 417.76 507.972C417.831 507.512 423.771 461.507 424.302 456.097C424.337 455.637 424.762 455.283 425.221 455.319C425.681 455.354 426.035 455.778 425.999 456.238C425.504 461.684 419.528 507.724 419.457 508.184C419.422 508.608 419.033 508.927 418.609 508.927Z" fill="#1D1D2E"/>
<path d="M389.718 508.644C389.294 508.644 388.941 508.326 388.87 507.901C388.834 507.441 383.566 461.578 383.141 456.203C383.106 455.743 383.459 455.319 383.919 455.283C384.379 455.248 384.803 455.602 384.839 456.061C385.263 461.401 390.532 507.229 390.567 507.689C390.603 508.149 390.284 508.573 389.825 508.608C389.754 508.644 389.718 508.644 389.718 508.644Z" fill="#1D1D2E"/>
<path d="M387.561 492.307C387.526 492.307 387.526 492.307 387.491 492.307C385.97 492.165 383.247 488.558 382.151 487.038C377.66 480.779 373.452 471.726 375.079 465.114C376.034 461.259 377.908 460.34 379.287 460.234C381.868 460.057 384.626 462.815 385.758 465.573C385.935 465.998 385.723 466.493 385.298 466.67C384.874 466.847 384.379 466.634 384.202 466.21C383.247 463.77 381.055 461.825 379.428 461.931C377.908 462.037 377.13 463.947 376.741 465.503C374.372 475.086 385.97 490.079 387.738 490.609C388.198 490.645 388.516 491.069 388.481 491.529C388.41 491.953 388.021 492.307 387.561 492.307Z" fill="#1D1D2E"/>
<path d="M386.748 486.154C386.571 486.154 386.43 486.119 386.288 486.013C384.803 484.987 377.483 477.738 378.438 468.014C378.615 466.281 379.216 465.326 380.277 465.149C382.611 464.831 385.546 469.499 385.864 470.277C386.041 470.701 385.829 471.196 385.404 471.373C384.98 471.55 384.485 471.338 384.308 470.913C383.848 469.817 381.302 466.741 380.524 466.847C380.489 466.847 380.206 467.13 380.135 468.191C379.251 476.996 386.005 483.785 387.278 484.634C387.667 484.916 387.738 485.447 387.491 485.801C387.279 486.013 387.031 486.154 386.748 486.154Z" fill="#1D1D2E"/>
<path d="M207.642 480.956C207.183 480.956 206.794 480.567 206.794 480.107C206.794 479.648 207.183 479.259 207.642 479.259L378.12 478.905C378.58 478.905 378.969 479.294 378.969 479.754C378.969 480.213 378.615 480.602 378.12 480.602L364.683 480.638L207.642 480.956Z" fill="#1D1D2E"/>
<path d="M422.746 480.532C422.286 480.532 421.897 480.143 421.897 479.683C421.897 479.223 422.286 478.834 422.746 478.834L451.53 478.763C451.99 478.763 452.379 479.152 452.379 479.612C452.379 480.072 451.99 480.461 451.53 480.461L422.746 480.532Z" fill="#1D1D2E"/>
<path d="M461.573 480.461C461.113 480.461 460.724 480.072 460.724 479.612C460.724 479.152 461.113 478.763 461.573 478.763L469.777 478.728C470.236 478.728 470.625 479.117 470.625 479.577C470.625 480.036 470.236 480.425 469.777 480.425L461.573 480.461Z" fill="#1D1D2E"/>
<path d="M483.32 480.425C482.861 480.425 482.472 480.037 482.472 479.577C482.472 479.117 482.861 478.728 483.32 478.728L610.586 478.516C611.046 478.516 611.435 478.905 611.435 479.365C611.435 479.824 611.046 480.213 610.586 480.213L483.32 480.425Z" fill="#1D1D2E"/>
<path d="M281.159 340.147C280.805 340.147 280.452 339.899 280.346 339.545C272.743 314.686 274.051 260.619 276.244 247.5C276.456 246.262 276.633 245.024 276.809 243.751C277.198 240.922 277.587 238.023 278.365 235.194C278.401 235.052 278.436 234.876 278.471 234.663C278.754 233.32 279.073 232.082 279.815 231.516C281.088 230.561 282.467 229.677 283.811 228.864C285.119 228.051 286.463 227.202 287.701 226.283C288.09 226 288.62 226.07 288.903 226.459C289.186 226.813 289.115 227.344 288.726 227.662C287.453 228.617 286.074 229.501 284.73 230.314C283.422 231.127 282.078 231.976 280.841 232.895C280.522 233.143 280.239 234.557 280.133 235.052C280.098 235.3 280.027 235.512 279.992 235.653C279.249 238.376 278.86 241.241 278.471 243.999C278.295 245.272 278.118 246.509 277.906 247.782C275.749 260.831 274.44 314.439 281.972 339.05C282.114 339.51 281.866 339.97 281.406 340.111C281.336 340.147 281.23 340.147 281.159 340.147Z" fill="#1D1D2E"/>
<path d="M347.78 341.915C347.674 341.915 347.568 341.879 347.426 341.844C347.002 341.667 346.79 341.172 347.002 340.748C349.123 335.903 358.353 298.703 359.591 293.363C359.697 292.904 360.156 292.621 360.616 292.727C361.076 292.833 361.359 293.293 361.252 293.752C360.262 297.996 350.856 336.257 348.558 341.42C348.416 341.738 348.098 341.915 347.78 341.915Z" fill="#1D1D2E"/>
<path d="M197.352 483.82C195.69 483.82 194.735 483.431 194.347 482.582C193.675 481.062 195.478 479.259 197.105 477.844L198.024 477.066C203.187 472.611 208.067 468.403 211.815 462.533C212.063 462.144 212.593 462.037 212.982 462.285C213.371 462.533 213.477 463.063 213.23 463.452C209.375 469.534 204.389 473.813 199.12 478.339L198.236 479.082C195.832 481.168 195.832 481.875 195.832 481.911C195.867 481.911 196.398 482.37 199.403 481.946C199.863 481.875 200.287 482.194 200.358 482.653C200.429 483.113 200.11 483.537 199.651 483.608C198.802 483.785 198.024 483.82 197.352 483.82Z" fill="#1D1D2E"/>
</svg>
